M48
; DRILL file {KiCad (6.0.2)} date Thu Feb 24 11:03:01 2022
; FORMAT={-:-/ absolute / inch / decimal}
; #@! TF.CreationDate,2022-02-24T11:03:01-06:00
; #@! TF.GenerationSoftware,Kicad,Pcbnew,(6.0.2)
; #@! TF.FileFunction,MixedPlating,1,2
FMAT,2
INCH
; #@! TA.AperFunction,Plated,PTH,ComponentDrill
T1C0.0315
; #@! TA.AperFunction,Plated,PTH,ComponentDrill
T2C0.0394
%
G90
G05
T1
X4.44Y-4.3039
X4.44Y-4.3826
X4.6524Y-4.635
X4.655Y-3.76
X4.655Y-4.045
X4.655Y-4.345
X4.7311Y-4.635
X4.7337Y-3.76
X4.755Y-4.045
X4.755Y-4.345
X4.855Y-4.045
X4.855Y-4.345
X4.955Y-4.045
X4.955Y-4.345
X4.955Y-4.635
X5.0337Y-4.635
X5.055Y-4.045
X5.055Y-4.345
X5.155Y-4.045
X5.155Y-4.345
X5.255Y-4.045
X5.255Y-4.345
X5.285Y-4.5974
X5.285Y-4.6761
X5.355Y-4.045
X5.355Y-4.345
T2
X3.8849Y-3.595
X3.8849Y-3.7041
X3.8849Y-3.8131
X3.8849Y-3.9222
X3.8849Y-4.0312
X3.8849Y-4.1403
X3.8849Y-4.2493
X3.8849Y-4.3584
X3.8849Y-4.4674
X3.8849Y-4.5765
X3.8849Y-4.6856
X3.8849Y-4.7946
X3.9967Y-3.5405
X3.9967Y-3.6495
X3.9967Y-3.7586
X3.9967Y-3.8676
X3.9967Y-3.9767
X3.9967Y-4.0857
X3.9967Y-4.1948
X3.9967Y-4.3039
X3.9967Y-4.4129
X3.9967Y-4.522
X3.9967Y-4.631
X3.9967Y-4.7401
X3.9967Y-4.8491
X5.59Y-3.9902
X5.59Y-4.0902
X5.59Y-4.1902
X5.59Y-4.2902
X5.59Y-4.3902
T0
M30
