%TF.GenerationSoftware,KiCad,Pcbnew,(6.0.2)*%
%TF.CreationDate,2022-02-18T17:48:51-06:00*%
%TF.ProjectId,RS232TTL_Adaper,52533233-3254-4544-9c5f-416461706572,rev?*%
%TF.SameCoordinates,Original*%
%TF.FileFunction,Copper,L1,Top*%
%TF.FilePolarity,Positive*%
%FSLAX46Y46*%
G04 Gerber Fmt 4.6, Leading zero omitted, Abs format (unit mm)*
G04 Created by KiCad (PCBNEW (6.0.2)) date 2022-02-18 17:48:51*
%MOMM*%
%LPD*%
G01*
G04 APERTURE LIST*
%TA.AperFunction,ComponentPad*%
%ADD10R,1.600000X1.600000*%
%TD*%
%TA.AperFunction,ComponentPad*%
%ADD11O,1.600000X1.600000*%
%TD*%
%TA.AperFunction,ComponentPad*%
%ADD12O,1.700000X1.700000*%
%TD*%
%TA.AperFunction,ComponentPad*%
%ADD13R,1.700000X1.700000*%
%TD*%
%TA.AperFunction,ComponentPad*%
%ADD14C,1.600000*%
%TD*%
%TA.AperFunction,Conductor*%
%ADD15C,0.304800*%
%TD*%
%TA.AperFunction,Conductor*%
%ADD16C,0.152400*%
%TD*%
G04 APERTURE END LIST*
D10*
%TO.P,U1,1,C1+*%
%TO.N,Net-(C1-Pad1)*%
X118237000Y-110363000D03*
D11*
%TO.P,U1,2,VS+*%
%TO.N,/VS+*%
X120777000Y-110363000D03*
%TO.P,U1,3,C1-*%
%TO.N,Net-(C1-Pad2)*%
X123317000Y-110363000D03*
%TO.P,U1,4,C2+*%
%TO.N,Net-(C2-Pad1)*%
X125857000Y-110363000D03*
%TO.P,U1,5,C2-*%
%TO.N,Net-(C2-Pad2)*%
X128397000Y-110363000D03*
%TO.P,U1,6,VS-*%
%TO.N,/VS-*%
X130937000Y-110363000D03*
%TO.P,U1,7,T2OUT*%
%TO.N,/CTS_232*%
X133477000Y-110363000D03*
%TO.P,U1,8,R2IN*%
%TO.N,/RTS_232*%
X136017000Y-110363000D03*
%TO.P,U1,9,R2OUT*%
%TO.N,/RTS_TTL*%
X136017000Y-102743000D03*
%TO.P,U1,10,T2IN*%
%TO.N,/CTS_TTL*%
X133477000Y-102743000D03*
%TO.P,U1,11,T1IN*%
%TO.N,/RX_TTL*%
X130937000Y-102743000D03*
%TO.P,U1,12,R1OUT*%
%TO.N,/TX_TTL*%
X128397000Y-102743000D03*
%TO.P,U1,13,R1IN*%
%TO.N,/TX_232*%
X125857000Y-102743000D03*
%TO.P,U1,14,T1OUT*%
%TO.N,/RX_232*%
X123317000Y-102743000D03*
%TO.P,U1,15,GND*%
%TO.N,GND*%
X120777000Y-102743000D03*
%TO.P,U1,16,VCC*%
%TO.N,+5V*%
X118237000Y-102743000D03*
%TD*%
D12*
%TO.P,J2,5,Pin_5*%
%TO.N,/RX_TTL*%
X141986000Y-111511000D03*
%TO.P,J2,4,Pin_4*%
%TO.N,/TX_TTL*%
X141986000Y-108971000D03*
%TO.P,J2,3,Pin_3*%
%TO.N,/RTS_TTL*%
X141986000Y-106431000D03*
%TO.P,J2,2,Pin_2*%
%TO.N,/CTS_TTL*%
X141986000Y-103891000D03*
D13*
%TO.P,J2,1,Pin_1*%
%TO.N,GND*%
X141986000Y-101351000D03*
%TD*%
D14*
%TO.P,J1,25,P25*%
%TO.N,/VS-*%
X98677331Y-121783000D03*
%TO.P,J1,24,P24*%
%TO.N,+5V*%
X98677331Y-119013000D03*
%TO.P,J1,23,P23*%
%TO.N,unconnected-(J1-Pad23)*%
X98677331Y-116243000D03*
%TO.P,J1,22,P22*%
%TO.N,unconnected-(J1-Pad22)*%
X98677331Y-113473000D03*
%TO.P,J1,21,P21*%
%TO.N,unconnected-(J1-Pad21)*%
X98677331Y-110703000D03*
%TO.P,J1,20,P20*%
%TO.N,unconnected-(J1-Pad20)*%
X98677331Y-107933000D03*
%TO.P,J1,19,P19*%
%TO.N,unconnected-(J1-Pad19)*%
X98677331Y-105163000D03*
%TO.P,J1,18,P18*%
%TO.N,unconnected-(J1-Pad18)*%
X98677331Y-102393000D03*
%TO.P,J1,17,P17*%
%TO.N,unconnected-(J1-Pad17)*%
X98677331Y-99623000D03*
%TO.P,J1,16,P16*%
%TO.N,unconnected-(J1-Pad16)*%
X98677331Y-96853000D03*
%TO.P,J1,15,P15*%
%TO.N,unconnected-(J1-Pad15)*%
X98677331Y-94083000D03*
%TO.P,J1,14,P14*%
%TO.N,unconnected-(J1-Pad14)*%
X98677331Y-91313000D03*
%TO.P,J1,13,13*%
%TO.N,unconnected-(J1-Pad13)*%
X101517331Y-123168000D03*
%TO.P,J1,12,12*%
%TO.N,/VS+*%
X101517331Y-120398000D03*
%TO.P,J1,11,11*%
%TO.N,unconnected-(J1-Pad11)*%
X101517331Y-117628000D03*
%TO.P,J1,10,10*%
%TO.N,unconnected-(J1-Pad10)*%
X101517331Y-114858000D03*
%TO.P,J1,9,9*%
%TO.N,unconnected-(J1-Pad9)*%
X101517331Y-112088000D03*
%TO.P,J1,8,8*%
%TO.N,unconnected-(J1-Pad8)*%
X101517331Y-109318000D03*
%TO.P,J1,7,7*%
%TO.N,GND*%
X101517331Y-106548000D03*
%TO.P,J1,6,6*%
%TO.N,unconnected-(J1-Pad6)*%
X101517331Y-103778000D03*
%TO.P,J1,5,5*%
%TO.N,/CTS_232*%
X101517331Y-101008000D03*
%TO.P,J1,4,4*%
%TO.N,/RTS_232*%
X101517331Y-98238000D03*
%TO.P,J1,3,3*%
%TO.N,/RX_232*%
X101517331Y-95468000D03*
%TO.P,J1,2,2*%
%TO.N,/TX_232*%
X101517331Y-92698000D03*
D10*
%TO.P,J1,1,1*%
%TO.N,unconnected-(J1-Pad1)*%
X101517331Y-89928000D03*
%TD*%
%TO.P,C5,1*%
%TO.N,+5V*%
X118237000Y-95504000D03*
D14*
%TO.P,C5,2*%
%TO.N,GND*%
X120237000Y-95504000D03*
%TD*%
D10*
%TO.P,C4,1*%
%TO.N,+5V*%
X134239000Y-116773888D03*
D14*
%TO.P,C4,2*%
%TO.N,/VS-*%
X134239000Y-118773888D03*
%TD*%
D10*
%TO.P,C3,1*%
%TO.N,/VS+*%
X112776000Y-111318113D03*
D14*
%TO.P,C3,2*%
%TO.N,GND*%
X112776000Y-109318113D03*
%TD*%
D10*
%TO.P,C2,1*%
%TO.N,Net-(C2-Pad1)*%
X125857000Y-117729000D03*
D14*
%TO.P,C2,2*%
%TO.N,Net-(C2-Pad2)*%
X127857000Y-117729000D03*
%TD*%
%TO.P,C1,2*%
%TO.N,Net-(C1-Pad2)*%
X120170888Y-117729000D03*
D10*
%TO.P,C1,1*%
%TO.N,Net-(C1-Pad1)*%
X118170888Y-117729000D03*
%TD*%
D15*
%TO.N,+5V*%
X110236000Y-111633000D02*
X110236000Y-105410000D01*
X102856000Y-119013000D02*
X110236000Y-111633000D01*
X112903000Y-102743000D02*
X118237000Y-102743000D01*
X98677331Y-119013000D02*
X102856000Y-119013000D01*
X110236000Y-105410000D02*
X112903000Y-102743000D01*
%TO.N,/VS+*%
X114835424Y-109258689D02*
X112776000Y-111318113D01*
X120777000Y-110363000D02*
X119672689Y-109258689D01*
X119672689Y-109258689D02*
X114835424Y-109258689D01*
%TO.N,/VS-*%
X133107630Y-118773888D02*
X134239000Y-118773888D01*
X130937000Y-116603258D02*
X133107630Y-118773888D01*
X130937000Y-110363000D02*
X130937000Y-116603258D01*
X132461000Y-121793000D02*
X134239000Y-120015000D01*
X125290628Y-121783000D02*
X125300628Y-121793000D01*
X134239000Y-120015000D02*
X134239000Y-118773888D01*
X125300628Y-121793000D02*
X132461000Y-121793000D01*
X98677331Y-121783000D02*
X125290628Y-121783000D01*
%TO.N,+5V*%
X119380000Y-103886000D02*
X118237000Y-102743000D01*
X134239000Y-116773884D02*
X132061509Y-114596393D01*
X132061509Y-114596393D02*
X132061509Y-109897215D01*
X132061509Y-109897215D02*
X126050294Y-103886000D01*
X126050294Y-103886000D02*
X119380000Y-103886000D01*
D16*
%TO.N,/TX_232*%
X125857000Y-98425000D02*
X125857000Y-102743000D01*
X120142000Y-92710000D02*
X125857000Y-98425000D01*
X101529331Y-92710000D02*
X120142000Y-92710000D01*
%TO.N,/RX_232*%
X123317000Y-102743000D02*
X123317000Y-96647000D01*
X120650000Y-93980000D02*
X123317000Y-96647000D01*
X103005331Y-93980000D02*
X120650000Y-93980000D01*
X101517331Y-95468000D02*
X103005331Y-93980000D01*
%TO.N,Net-(C2-Pad1)*%
X125857000Y-110363000D02*
X125857000Y-117729000D01*
D15*
%TO.N,+5V*%
X118237000Y-102743000D02*
X118237000Y-95504000D01*
%TO.N,/VS+*%
X103696113Y-120398000D02*
X112776000Y-111318113D01*
X101517331Y-120398000D02*
X103696113Y-120398000D01*
D16*
%TO.N,/RX_TTL*%
X130937000Y-102743000D02*
X138339511Y-110145511D01*
X138339511Y-110145511D02*
X140620511Y-110145511D01*
X140620511Y-110145511D02*
X141986000Y-111511000D01*
%TO.N,/CTS_TTL*%
X134625000Y-103891000D02*
X141986000Y-103891000D01*
X133477000Y-102743000D02*
X134625000Y-103891000D01*
%TO.N,Net-(C2-Pad2)*%
X128397000Y-110363000D02*
X128397000Y-115697000D01*
X128397000Y-115697000D02*
X127857000Y-116237000D01*
X127857000Y-116237000D02*
X127857000Y-117729000D01*
%TO.N,Net-(C1-Pad2)*%
X123317000Y-110363000D02*
X123317000Y-115217888D01*
X123317000Y-115217888D02*
X120805888Y-117729000D01*
%TO.N,Net-(C1-Pad1)*%
X118237000Y-110363000D02*
X118237000Y-117541116D01*
%TD*%
M02*
