%TF.GenerationSoftware,KiCad,Pcbnew,(6.0.2)*%
%TF.CreationDate,2022-02-18T17:48:51-06:00*%
%TF.ProjectId,RS232TTL_Adaper,52533233-3254-4544-9c5f-416461706572,rev?*%
%TF.SameCoordinates,Original*%
%TF.FileFunction,Copper,L2,Bot*%
%TF.FilePolarity,Positive*%
%FSLAX46Y46*%
G04 Gerber Fmt 4.6, Leading zero omitted, Abs format (unit mm)*
G04 Created by KiCad (PCBNEW (6.0.2)) date 2022-02-18 17:48:51*
%MOMM*%
%LPD*%
G01*
G04 APERTURE LIST*
%TA.AperFunction,ComponentPad*%
%ADD10R,1.600000X1.600000*%
%TD*%
%TA.AperFunction,ComponentPad*%
%ADD11O,1.600000X1.600000*%
%TD*%
%TA.AperFunction,ComponentPad*%
%ADD12O,1.700000X1.700000*%
%TD*%
%TA.AperFunction,ComponentPad*%
%ADD13R,1.700000X1.700000*%
%TD*%
%TA.AperFunction,ComponentPad*%
%ADD14C,1.600000*%
%TD*%
%TA.AperFunction,Conductor*%
%ADD15C,0.152400*%
%TD*%
G04 APERTURE END LIST*
D10*
%TO.P,U1,1,C1+*%
%TO.N,Net-(C1-Pad1)*%
X118237000Y-110363000D03*
D11*
%TO.P,U1,2,VS+*%
%TO.N,/VS+*%
X120777000Y-110363000D03*
%TO.P,U1,3,C1-*%
%TO.N,Net-(C1-Pad2)*%
X123317000Y-110363000D03*
%TO.P,U1,4,C2+*%
%TO.N,Net-(C2-Pad1)*%
X125857000Y-110363000D03*
%TO.P,U1,5,C2-*%
%TO.N,Net-(C2-Pad2)*%
X128397000Y-110363000D03*
%TO.P,U1,6,VS-*%
%TO.N,/VS-*%
X130937000Y-110363000D03*
%TO.P,U1,7,T2OUT*%
%TO.N,/CTS_232*%
X133477000Y-110363000D03*
%TO.P,U1,8,R2IN*%
%TO.N,/RTS_232*%
X136017000Y-110363000D03*
%TO.P,U1,9,R2OUT*%
%TO.N,/RTS_TTL*%
X136017000Y-102743000D03*
%TO.P,U1,10,T2IN*%
%TO.N,/CTS_TTL*%
X133477000Y-102743000D03*
%TO.P,U1,11,T1IN*%
%TO.N,/RX_TTL*%
X130937000Y-102743000D03*
%TO.P,U1,12,R1OUT*%
%TO.N,/TX_TTL*%
X128397000Y-102743000D03*
%TO.P,U1,13,R1IN*%
%TO.N,/TX_232*%
X125857000Y-102743000D03*
%TO.P,U1,14,T1OUT*%
%TO.N,/RX_232*%
X123317000Y-102743000D03*
%TO.P,U1,15,GND*%
%TO.N,GND*%
X120777000Y-102743000D03*
%TO.P,U1,16,VCC*%
%TO.N,+5V*%
X118237000Y-102743000D03*
%TD*%
D12*
%TO.P,J2,5,Pin_5*%
%TO.N,/RX_TTL*%
X141986000Y-111511000D03*
%TO.P,J2,4,Pin_4*%
%TO.N,/TX_TTL*%
X141986000Y-108971000D03*
%TO.P,J2,3,Pin_3*%
%TO.N,/RTS_TTL*%
X141986000Y-106431000D03*
%TO.P,J2,2,Pin_2*%
%TO.N,/CTS_TTL*%
X141986000Y-103891000D03*
D13*
%TO.P,J2,1,Pin_1*%
%TO.N,GND*%
X141986000Y-101351000D03*
%TD*%
D14*
%TO.P,J1,25,P25*%
%TO.N,/VS-*%
X98677331Y-121783000D03*
%TO.P,J1,24,P24*%
%TO.N,+5V*%
X98677331Y-119013000D03*
%TO.P,J1,23,P23*%
%TO.N,unconnected-(J1-Pad23)*%
X98677331Y-116243000D03*
%TO.P,J1,22,P22*%
%TO.N,unconnected-(J1-Pad22)*%
X98677331Y-113473000D03*
%TO.P,J1,21,P21*%
%TO.N,unconnected-(J1-Pad21)*%
X98677331Y-110703000D03*
%TO.P,J1,20,P20*%
%TO.N,unconnected-(J1-Pad20)*%
X98677331Y-107933000D03*
%TO.P,J1,19,P19*%
%TO.N,unconnected-(J1-Pad19)*%
X98677331Y-105163000D03*
%TO.P,J1,18,P18*%
%TO.N,unconnected-(J1-Pad18)*%
X98677331Y-102393000D03*
%TO.P,J1,17,P17*%
%TO.N,unconnected-(J1-Pad17)*%
X98677331Y-99623000D03*
%TO.P,J1,16,P16*%
%TO.N,unconnected-(J1-Pad16)*%
X98677331Y-96853000D03*
%TO.P,J1,15,P15*%
%TO.N,unconnected-(J1-Pad15)*%
X98677331Y-94083000D03*
%TO.P,J1,14,P14*%
%TO.N,unconnected-(J1-Pad14)*%
X98677331Y-91313000D03*
%TO.P,J1,13,13*%
%TO.N,unconnected-(J1-Pad13)*%
X101517331Y-123168000D03*
%TO.P,J1,12,12*%
%TO.N,/VS+*%
X101517331Y-120398000D03*
%TO.P,J1,11,11*%
%TO.N,unconnected-(J1-Pad11)*%
X101517331Y-117628000D03*
%TO.P,J1,10,10*%
%TO.N,unconnected-(J1-Pad10)*%
X101517331Y-114858000D03*
%TO.P,J1,9,9*%
%TO.N,unconnected-(J1-Pad9)*%
X101517331Y-112088000D03*
%TO.P,J1,8,8*%
%TO.N,unconnected-(J1-Pad8)*%
X101517331Y-109318000D03*
%TO.P,J1,7,7*%
%TO.N,GND*%
X101517331Y-106548000D03*
%TO.P,J1,6,6*%
%TO.N,unconnected-(J1-Pad6)*%
X101517331Y-103778000D03*
%TO.P,J1,5,5*%
%TO.N,/CTS_232*%
X101517331Y-101008000D03*
%TO.P,J1,4,4*%
%TO.N,/RTS_232*%
X101517331Y-98238000D03*
%TO.P,J1,3,3*%
%TO.N,/RX_232*%
X101517331Y-95468000D03*
%TO.P,J1,2,2*%
%TO.N,/TX_232*%
X101517331Y-92698000D03*
D10*
%TO.P,J1,1,1*%
%TO.N,unconnected-(J1-Pad1)*%
X101517331Y-89928000D03*
%TD*%
%TO.P,C5,1*%
%TO.N,+5V*%
X118237000Y-95504000D03*
D14*
%TO.P,C5,2*%
%TO.N,GND*%
X120237000Y-95504000D03*
%TD*%
D10*
%TO.P,C4,1*%
%TO.N,+5V*%
X134239000Y-116773888D03*
D14*
%TO.P,C4,2*%
%TO.N,/VS-*%
X134239000Y-118773888D03*
%TD*%
D10*
%TO.P,C3,1*%
%TO.N,/VS+*%
X112776000Y-111318113D03*
D14*
%TO.P,C3,2*%
%TO.N,GND*%
X112776000Y-109318113D03*
%TD*%
D10*
%TO.P,C2,1*%
%TO.N,Net-(C2-Pad1)*%
X125857000Y-117729000D03*
D14*
%TO.P,C2,2*%
%TO.N,Net-(C2-Pad2)*%
X127857000Y-117729000D03*
%TD*%
%TO.P,C1,2*%
%TO.N,Net-(C1-Pad2)*%
X120170888Y-117729000D03*
D10*
%TO.P,C1,1*%
%TO.N,Net-(C1-Pad1)*%
X118170888Y-117729000D03*
%TD*%
D15*
%TO.N,/CTS_232*%
X113665000Y-107441054D02*
X113665000Y-107442000D01*
X107231946Y-101008000D02*
X113665000Y-107441054D01*
X130556000Y-107442000D02*
X113665000Y-107442000D01*
X101517331Y-101008000D02*
X107231946Y-101008000D01*
%TO.N,/RTS_232*%
X104892320Y-98238000D02*
X101517331Y-98238000D01*
X113792000Y-107137680D02*
X104892320Y-98238000D01*
X132791680Y-107137680D02*
X113792000Y-107137680D01*
X136017000Y-110363000D02*
X132791680Y-107137680D01*
%TO.N,/CTS_232*%
X133477000Y-110363000D02*
X130556000Y-107442000D01*
%TO.N,/TX_TTL*%
X130683000Y-105029000D02*
X138044000Y-105029000D01*
X128397000Y-102743000D02*
X130683000Y-105029000D01*
X138044000Y-105029000D02*
X141986000Y-108971000D01*
%TO.N,/RTS_TTL*%
X138298000Y-102743000D02*
X141986000Y-106431000D01*
X136017000Y-102743000D02*
X138298000Y-102743000D01*
%TD*%
%TA.AperFunction,Conductor*%
%TO.N,GND*%
G36*
X146020103Y-79884508D02*
G01*
X146034854Y-79886805D01*
X146034862Y-79886805D01*
X146043730Y-79888186D01*
X146054728Y-79886748D01*
X146083411Y-79886291D01*
X146186307Y-79896425D01*
X146210531Y-79901244D01*
X146329733Y-79937404D01*
X146352553Y-79946856D01*
X146462400Y-80005570D01*
X146482938Y-80019293D01*
X146579223Y-80098312D01*
X146596688Y-80115777D01*
X146675707Y-80212062D01*
X146689430Y-80232600D01*
X146748144Y-80342447D01*
X146757596Y-80365267D01*
X146793756Y-80484469D01*
X146798575Y-80508695D01*
X146808044Y-80604834D01*
X146807592Y-80620876D01*
X146808305Y-80620885D01*
X146808196Y-80629855D01*
X146806814Y-80638730D01*
X146810930Y-80670205D01*
X146811993Y-80686548D01*
X146804309Y-124481019D01*
X146802983Y-132039662D01*
X146801484Y-132059017D01*
X146797788Y-132082754D01*
X146799226Y-132093752D01*
X146799683Y-132122436D01*
X146789549Y-132225329D01*
X146784730Y-132249555D01*
X146748570Y-132368757D01*
X146739118Y-132391577D01*
X146680404Y-132501424D01*
X146666681Y-132521962D01*
X146587662Y-132618247D01*
X146570197Y-132635712D01*
X146473912Y-132714731D01*
X146453374Y-132728454D01*
X146343527Y-132787168D01*
X146320707Y-132796620D01*
X146201505Y-132832780D01*
X146177281Y-132837599D01*
X146081137Y-132847068D01*
X146065098Y-132846616D01*
X146065089Y-132847329D01*
X146056116Y-132847219D01*
X146047244Y-132845838D01*
X146038342Y-132847002D01*
X146038339Y-132847002D01*
X146015723Y-132849960D01*
X145999385Y-132851024D01*
X90210304Y-132851024D01*
X90190919Y-132849524D01*
X90176118Y-132847219D01*
X90176115Y-132847219D01*
X90167246Y-132845838D01*
X90156248Y-132847276D01*
X90127565Y-132847733D01*
X90024669Y-132837599D01*
X90000445Y-132832780D01*
X89881243Y-132796620D01*
X89858423Y-132787168D01*
X89748576Y-132728454D01*
X89728038Y-132714731D01*
X89631753Y-132635712D01*
X89614288Y-132618247D01*
X89535269Y-132521962D01*
X89521546Y-132501424D01*
X89462832Y-132391577D01*
X89453380Y-132368757D01*
X89417220Y-132249555D01*
X89412401Y-132225329D01*
X89402932Y-132129190D01*
X89403384Y-132113148D01*
X89402671Y-132113139D01*
X89402781Y-132104166D01*
X89404162Y-132095294D01*
X89402523Y-132082754D01*
X89400040Y-132063773D01*
X89398976Y-132047435D01*
X89398976Y-123168000D01*
X100203833Y-123168000D01*
X100223788Y-123396087D01*
X100283047Y-123617243D01*
X100285370Y-123622224D01*
X100285370Y-123622225D01*
X100377482Y-123819762D01*
X100377485Y-123819767D01*
X100379808Y-123824749D01*
X100511133Y-124012300D01*
X100673031Y-124174198D01*
X100677539Y-124177355D01*
X100677542Y-124177357D01*
X100755720Y-124232098D01*
X100860582Y-124305523D01*
X100865564Y-124307846D01*
X100865569Y-124307849D01*
X101063106Y-124399961D01*
X101068088Y-124402284D01*
X101073396Y-124403706D01*
X101073398Y-124403707D01*
X101283929Y-124460119D01*
X101283931Y-124460119D01*
X101289244Y-124461543D01*
X101517331Y-124481498D01*
X101745418Y-124461543D01*
X101750731Y-124460119D01*
X101750733Y-124460119D01*
X101961264Y-124403707D01*
X101961266Y-124403706D01*
X101966574Y-124402284D01*
X101971556Y-124399961D01*
X102169093Y-124307849D01*
X102169098Y-124307846D01*
X102174080Y-124305523D01*
X102278942Y-124232098D01*
X102357120Y-124177357D01*
X102357123Y-124177355D01*
X102361631Y-124174198D01*
X102523529Y-124012300D01*
X102654854Y-123824749D01*
X102657177Y-123819767D01*
X102657180Y-123819762D01*
X102749292Y-123622225D01*
X102749292Y-123622224D01*
X102751615Y-123617243D01*
X102810874Y-123396087D01*
X102830829Y-123168000D01*
X102810874Y-122939913D01*
X102806302Y-122922849D01*
X102753038Y-122724067D01*
X102753037Y-122724065D01*
X102751615Y-122718757D01*
X102749292Y-122713775D01*
X102657180Y-122516238D01*
X102657177Y-122516233D01*
X102654854Y-122511251D01*
X102523529Y-122323700D01*
X102361631Y-122161802D01*
X102357123Y-122158645D01*
X102357120Y-122158643D01*
X102278942Y-122103902D01*
X102174080Y-122030477D01*
X102169098Y-122028154D01*
X102169093Y-122028151D01*
X101971556Y-121936039D01*
X101971555Y-121936039D01*
X101966574Y-121933716D01*
X101961266Y-121932294D01*
X101961264Y-121932293D01*
X101858312Y-121904707D01*
X101797689Y-121867755D01*
X101766668Y-121803894D01*
X101775096Y-121733400D01*
X101820299Y-121678653D01*
X101858312Y-121661293D01*
X101961264Y-121633707D01*
X101961266Y-121633706D01*
X101966574Y-121632284D01*
X101971556Y-121629961D01*
X102169093Y-121537849D01*
X102169098Y-121537846D01*
X102174080Y-121535523D01*
X102278942Y-121462098D01*
X102357120Y-121407357D01*
X102357123Y-121407355D01*
X102361631Y-121404198D01*
X102523529Y-121242300D01*
X102654854Y-121054749D01*
X102657177Y-121049767D01*
X102657180Y-121049762D01*
X102749292Y-120852225D01*
X102749292Y-120852224D01*
X102751615Y-120847243D01*
X102805679Y-120645477D01*
X102809450Y-120631402D01*
X102809450Y-120631400D01*
X102810874Y-120626087D01*
X102830829Y-120398000D01*
X102810874Y-120169913D01*
X102806302Y-120152849D01*
X102753038Y-119954067D01*
X102753037Y-119954065D01*
X102751615Y-119948757D01*
X102735285Y-119913737D01*
X102657180Y-119746238D01*
X102657177Y-119746233D01*
X102654854Y-119741251D01*
X102568684Y-119618188D01*
X102526688Y-119558211D01*
X102526686Y-119558208D01*
X102523529Y-119553700D01*
X102361631Y-119391802D01*
X102357123Y-119388645D01*
X102357120Y-119388643D01*
X102278942Y-119333902D01*
X102174080Y-119260477D01*
X102169098Y-119258154D01*
X102169093Y-119258151D01*
X101971556Y-119166039D01*
X101971555Y-119166039D01*
X101966574Y-119163716D01*
X101961266Y-119162294D01*
X101961264Y-119162293D01*
X101858312Y-119134707D01*
X101797689Y-119097755D01*
X101766668Y-119033894D01*
X101775096Y-118963400D01*
X101820299Y-118908653D01*
X101858312Y-118891293D01*
X101961264Y-118863707D01*
X101961266Y-118863706D01*
X101966574Y-118862284D01*
X101997573Y-118847829D01*
X102169093Y-118767849D01*
X102169098Y-118767846D01*
X102174080Y-118765523D01*
X102354322Y-118639316D01*
X102357120Y-118637357D01*
X102357123Y-118637355D01*
X102361631Y-118634198D01*
X102418695Y-118577134D01*
X116862388Y-118577134D01*
X116869143Y-118639316D01*
X116920273Y-118775705D01*
X117007627Y-118892261D01*
X117124183Y-118979615D01*
X117260572Y-119030745D01*
X117322754Y-119037500D01*
X119019022Y-119037500D01*
X119081204Y-119030745D01*
X119217593Y-118979615D01*
X119334149Y-118892261D01*
X119339530Y-118885081D01*
X119345880Y-118878731D01*
X119348120Y-118880971D01*
X119392453Y-118847829D01*
X119463272Y-118842810D01*
X119504678Y-118860949D01*
X119504869Y-118860617D01*
X119507852Y-118862339D01*
X119508685Y-118862704D01*
X119514139Y-118866523D01*
X119519121Y-118868846D01*
X119519126Y-118868849D01*
X119646503Y-118928245D01*
X119721645Y-118963284D01*
X119726953Y-118964706D01*
X119726955Y-118964707D01*
X119937486Y-119021119D01*
X119937488Y-119021119D01*
X119942801Y-119022543D01*
X120170888Y-119042498D01*
X120398975Y-119022543D01*
X120404288Y-119021119D01*
X120404290Y-119021119D01*
X120614821Y-118964707D01*
X120614823Y-118964706D01*
X120620131Y-118963284D01*
X120695273Y-118928245D01*
X120822650Y-118868849D01*
X120822655Y-118868846D01*
X120827637Y-118866523D01*
X120947076Y-118782891D01*
X121010677Y-118738357D01*
X121010680Y-118738355D01*
X121015188Y-118735198D01*
X121173252Y-118577134D01*
X124548500Y-118577134D01*
X124555255Y-118639316D01*
X124606385Y-118775705D01*
X124693739Y-118892261D01*
X124810295Y-118979615D01*
X124946684Y-119030745D01*
X125008866Y-119037500D01*
X126705134Y-119037500D01*
X126767316Y-119030745D01*
X126903705Y-118979615D01*
X127020261Y-118892261D01*
X127025642Y-118885081D01*
X127031992Y-118878731D01*
X127034232Y-118880971D01*
X127078565Y-118847829D01*
X127149384Y-118842810D01*
X127190790Y-118860949D01*
X127190981Y-118860617D01*
X127193964Y-118862339D01*
X127194797Y-118862704D01*
X127200251Y-118866523D01*
X127205233Y-118868846D01*
X127205238Y-118868849D01*
X127332615Y-118928245D01*
X127407757Y-118963284D01*
X127413065Y-118964706D01*
X127413067Y-118964707D01*
X127623598Y-119021119D01*
X127623600Y-119021119D01*
X127628913Y-119022543D01*
X127857000Y-119042498D01*
X128085087Y-119022543D01*
X128090400Y-119021119D01*
X128090402Y-119021119D01*
X128300933Y-118964707D01*
X128300935Y-118964706D01*
X128306243Y-118963284D01*
X128381385Y-118928245D01*
X128508762Y-118868849D01*
X128508767Y-118868846D01*
X128513749Y-118866523D01*
X128633188Y-118782891D01*
X128646046Y-118773888D01*
X132925502Y-118773888D01*
X132945457Y-119001975D01*
X132946881Y-119007288D01*
X132946881Y-119007290D01*
X132961702Y-119062600D01*
X133004716Y-119223131D01*
X133007039Y-119228112D01*
X133007039Y-119228113D01*
X133099151Y-119425650D01*
X133099154Y-119425655D01*
X133101477Y-119430637D01*
X133174902Y-119535499D01*
X133190806Y-119558211D01*
X133232802Y-119618188D01*
X133394700Y-119780086D01*
X133399208Y-119783243D01*
X133399211Y-119783245D01*
X133477389Y-119837986D01*
X133582251Y-119911411D01*
X133587233Y-119913734D01*
X133587238Y-119913737D01*
X133784775Y-120005849D01*
X133789757Y-120008172D01*
X133795065Y-120009594D01*
X133795067Y-120009595D01*
X134005598Y-120066007D01*
X134005600Y-120066007D01*
X134010913Y-120067431D01*
X134239000Y-120087386D01*
X134467087Y-120067431D01*
X134472400Y-120066007D01*
X134472402Y-120066007D01*
X134682933Y-120009595D01*
X134682935Y-120009594D01*
X134688243Y-120008172D01*
X134693225Y-120005849D01*
X134890762Y-119913737D01*
X134890767Y-119913734D01*
X134895749Y-119911411D01*
X135000611Y-119837986D01*
X135078789Y-119783245D01*
X135078792Y-119783243D01*
X135083300Y-119780086D01*
X135245198Y-119618188D01*
X135287195Y-119558211D01*
X135303098Y-119535499D01*
X135376523Y-119430637D01*
X135378846Y-119425655D01*
X135378849Y-119425650D01*
X135470961Y-119228113D01*
X135470961Y-119228112D01*
X135473284Y-119223131D01*
X135516299Y-119062600D01*
X135531119Y-119007290D01*
X135531119Y-119007288D01*
X135532543Y-119001975D01*
X135552498Y-118773888D01*
X135532543Y-118545801D01*
X135473284Y-118324645D01*
X135470961Y-118319663D01*
X135378849Y-118122126D01*
X135378846Y-118122121D01*
X135376523Y-118117139D01*
X135372705Y-118111686D01*
X135372541Y-118111202D01*
X135370617Y-118107869D01*
X135371287Y-118107482D01*
X135350012Y-118044414D01*
X135367293Y-117975553D01*
X135390002Y-117950151D01*
X135388731Y-117948880D01*
X135395081Y-117942530D01*
X135402261Y-117937149D01*
X135489615Y-117820593D01*
X135540745Y-117684204D01*
X135547500Y-117622022D01*
X135547500Y-115925754D01*
X135540745Y-115863572D01*
X135489615Y-115727183D01*
X135402261Y-115610627D01*
X135285705Y-115523273D01*
X135149316Y-115472143D01*
X135087134Y-115465388D01*
X133390866Y-115465388D01*
X133328684Y-115472143D01*
X133192295Y-115523273D01*
X133075739Y-115610627D01*
X132988385Y-115727183D01*
X132937255Y-115863572D01*
X132930500Y-115925754D01*
X132930500Y-117622022D01*
X132937255Y-117684204D01*
X132988385Y-117820593D01*
X133075739Y-117937149D01*
X133082919Y-117942530D01*
X133089269Y-117948880D01*
X133087029Y-117951120D01*
X133120171Y-117995453D01*
X133125190Y-118066272D01*
X133107051Y-118107678D01*
X133107383Y-118107869D01*
X133105661Y-118110852D01*
X133105296Y-118111685D01*
X133101477Y-118117139D01*
X133099154Y-118122121D01*
X133099151Y-118122126D01*
X133007039Y-118319663D01*
X133004716Y-118324645D01*
X132945457Y-118545801D01*
X132925502Y-118773888D01*
X128646046Y-118773888D01*
X128696789Y-118738357D01*
X128696792Y-118738355D01*
X128701300Y-118735198D01*
X128863198Y-118573300D01*
X128994523Y-118385749D01*
X128996846Y-118380767D01*
X128996849Y-118380762D01*
X129088961Y-118183225D01*
X129088961Y-118183224D01*
X129091284Y-118178243D01*
X129109342Y-118110852D01*
X129149119Y-117962402D01*
X129149119Y-117962400D01*
X129150543Y-117957087D01*
X129170498Y-117729000D01*
X129150543Y-117500913D01*
X129118908Y-117382849D01*
X129092707Y-117285067D01*
X129092706Y-117285065D01*
X129091284Y-117279757D01*
X129075217Y-117245301D01*
X128996849Y-117077238D01*
X128996846Y-117077233D01*
X128994523Y-117072251D01*
X128876892Y-116904257D01*
X128866357Y-116889211D01*
X128866355Y-116889208D01*
X128863198Y-116884700D01*
X128701300Y-116722802D01*
X128696792Y-116719645D01*
X128696789Y-116719643D01*
X128552546Y-116618643D01*
X128513749Y-116591477D01*
X128508767Y-116589154D01*
X128508762Y-116589151D01*
X128311225Y-116497039D01*
X128311224Y-116497039D01*
X128306243Y-116494716D01*
X128300935Y-116493294D01*
X128300933Y-116493293D01*
X128090402Y-116436881D01*
X128090400Y-116436881D01*
X128085087Y-116435457D01*
X127857000Y-116415502D01*
X127628913Y-116435457D01*
X127623600Y-116436881D01*
X127623598Y-116436881D01*
X127413067Y-116493293D01*
X127413065Y-116493294D01*
X127407757Y-116494716D01*
X127402776Y-116497039D01*
X127402775Y-116497039D01*
X127205238Y-116589151D01*
X127205233Y-116589154D01*
X127200251Y-116591477D01*
X127194798Y-116595295D01*
X127194314Y-116595459D01*
X127190981Y-116597383D01*
X127190594Y-116596713D01*
X127127526Y-116617988D01*
X127058665Y-116600707D01*
X127033263Y-116577998D01*
X127031992Y-116579269D01*
X127025642Y-116572919D01*
X127020261Y-116565739D01*
X126903705Y-116478385D01*
X126767316Y-116427255D01*
X126705134Y-116420500D01*
X125008866Y-116420500D01*
X124946684Y-116427255D01*
X124810295Y-116478385D01*
X124693739Y-116565739D01*
X124606385Y-116682295D01*
X124555255Y-116818684D01*
X124548500Y-116880866D01*
X124548500Y-118577134D01*
X121173252Y-118577134D01*
X121177086Y-118573300D01*
X121308411Y-118385749D01*
X121310734Y-118380767D01*
X121310737Y-118380762D01*
X121402849Y-118183225D01*
X121402849Y-118183224D01*
X121405172Y-118178243D01*
X121423230Y-118110852D01*
X121463007Y-117962402D01*
X121463007Y-117962400D01*
X121464431Y-117957087D01*
X121484386Y-117729000D01*
X121464431Y-117500913D01*
X121432796Y-117382849D01*
X121406595Y-117285067D01*
X121406594Y-117285065D01*
X121405172Y-117279757D01*
X121389105Y-117245301D01*
X121310737Y-117077238D01*
X121310734Y-117077233D01*
X121308411Y-117072251D01*
X121190780Y-116904257D01*
X121180245Y-116889211D01*
X121180243Y-116889208D01*
X121177086Y-116884700D01*
X121015188Y-116722802D01*
X121010680Y-116719645D01*
X121010677Y-116719643D01*
X120866434Y-116618643D01*
X120827637Y-116591477D01*
X120822655Y-116589154D01*
X120822650Y-116589151D01*
X120625113Y-116497039D01*
X120625112Y-116497039D01*
X120620131Y-116494716D01*
X120614823Y-116493294D01*
X120614821Y-116493293D01*
X120404290Y-116436881D01*
X120404288Y-116436881D01*
X120398975Y-116435457D01*
X120170888Y-116415502D01*
X119942801Y-116435457D01*
X119937488Y-116436881D01*
X119937486Y-116436881D01*
X119726955Y-116493293D01*
X119726953Y-116493294D01*
X119721645Y-116494716D01*
X119716664Y-116497039D01*
X119716663Y-116497039D01*
X119519126Y-116589151D01*
X119519121Y-116589154D01*
X119514139Y-116591477D01*
X119508686Y-116595295D01*
X119508202Y-116595459D01*
X119504869Y-116597383D01*
X119504482Y-116596713D01*
X119441414Y-116617988D01*
X119372553Y-116600707D01*
X119347151Y-116577998D01*
X119345880Y-116579269D01*
X119339530Y-116572919D01*
X119334149Y-116565739D01*
X119217593Y-116478385D01*
X119081204Y-116427255D01*
X119019022Y-116420500D01*
X117322754Y-116420500D01*
X117260572Y-116427255D01*
X117124183Y-116478385D01*
X117007627Y-116565739D01*
X116920273Y-116682295D01*
X116869143Y-116818684D01*
X116862388Y-116880866D01*
X116862388Y-118577134D01*
X102418695Y-118577134D01*
X102523529Y-118472300D01*
X102654854Y-118284749D01*
X102657177Y-118279767D01*
X102657180Y-118279762D01*
X102749292Y-118082225D01*
X102749292Y-118082224D01*
X102751615Y-118077243D01*
X102785670Y-117950151D01*
X102809450Y-117861402D01*
X102809450Y-117861400D01*
X102810874Y-117856087D01*
X102830829Y-117628000D01*
X102810874Y-117399913D01*
X102806302Y-117382849D01*
X102753038Y-117184067D01*
X102753037Y-117184065D01*
X102751615Y-117178757D01*
X102749292Y-117173775D01*
X102657180Y-116976238D01*
X102657177Y-116976233D01*
X102654854Y-116971251D01*
X102548025Y-116818684D01*
X102526688Y-116788211D01*
X102526686Y-116788208D01*
X102523529Y-116783700D01*
X102361631Y-116621802D01*
X102357123Y-116618645D01*
X102357120Y-116618643D01*
X102183451Y-116497039D01*
X102174080Y-116490477D01*
X102169098Y-116488154D01*
X102169093Y-116488151D01*
X101971556Y-116396039D01*
X101971555Y-116396039D01*
X101966574Y-116393716D01*
X101961266Y-116392294D01*
X101961264Y-116392293D01*
X101858312Y-116364707D01*
X101797689Y-116327755D01*
X101766668Y-116263894D01*
X101775096Y-116193400D01*
X101820299Y-116138653D01*
X101858312Y-116121293D01*
X101961264Y-116093707D01*
X101961266Y-116093706D01*
X101966574Y-116092284D01*
X101971556Y-116089961D01*
X102169093Y-115997849D01*
X102169098Y-115997846D01*
X102174080Y-115995523D01*
X102351306Y-115871428D01*
X102357120Y-115867357D01*
X102357123Y-115867355D01*
X102361631Y-115864198D01*
X102523529Y-115702300D01*
X102654854Y-115514749D01*
X102657177Y-115509767D01*
X102657180Y-115509762D01*
X102749292Y-115312225D01*
X102749292Y-115312224D01*
X102751615Y-115307243D01*
X102805679Y-115105477D01*
X102809450Y-115091402D01*
X102809450Y-115091400D01*
X102810874Y-115086087D01*
X102830829Y-114858000D01*
X102810874Y-114629913D01*
X102806302Y-114612849D01*
X102753038Y-114414067D01*
X102753037Y-114414065D01*
X102751615Y-114408757D01*
X102749292Y-114403775D01*
X102657180Y-114206238D01*
X102657177Y-114206233D01*
X102654854Y-114201251D01*
X102523529Y-114013700D01*
X102361631Y-113851802D01*
X102357123Y-113848645D01*
X102357120Y-113848643D01*
X102278942Y-113793902D01*
X102174080Y-113720477D01*
X102169098Y-113718154D01*
X102169093Y-113718151D01*
X101971556Y-113626039D01*
X101971555Y-113626039D01*
X101966574Y-113623716D01*
X101961266Y-113622294D01*
X101961264Y-113622293D01*
X101858312Y-113594707D01*
X101797689Y-113557755D01*
X101766668Y-113493894D01*
X101775096Y-113423400D01*
X101820299Y-113368653D01*
X101858312Y-113351293D01*
X101961264Y-113323707D01*
X101961266Y-113323706D01*
X101966574Y-113322284D01*
X101971556Y-113319961D01*
X102169093Y-113227849D01*
X102169098Y-113227846D01*
X102174080Y-113225523D01*
X102278942Y-113152098D01*
X102357120Y-113097357D01*
X102357123Y-113097355D01*
X102361631Y-113094198D01*
X102523529Y-112932300D01*
X102654854Y-112744749D01*
X102657177Y-112739767D01*
X102657180Y-112739762D01*
X102749292Y-112542225D01*
X102749292Y-112542224D01*
X102751615Y-112537243D01*
X102764746Y-112488240D01*
X102809450Y-112321402D01*
X102809450Y-112321400D01*
X102810874Y-112316087D01*
X102830829Y-112088000D01*
X102810874Y-111859913D01*
X102806302Y-111842849D01*
X102753038Y-111644067D01*
X102753037Y-111644065D01*
X102751615Y-111638757D01*
X102723093Y-111577590D01*
X102657180Y-111436238D01*
X102657177Y-111436233D01*
X102654854Y-111431251D01*
X102549447Y-111280715D01*
X102526688Y-111248211D01*
X102526686Y-111248208D01*
X102523529Y-111243700D01*
X102361631Y-111081802D01*
X102357123Y-111078645D01*
X102357120Y-111078643D01*
X102265888Y-111014762D01*
X102174080Y-110950477D01*
X102169098Y-110948154D01*
X102169093Y-110948151D01*
X101971556Y-110856039D01*
X101971555Y-110856039D01*
X101966574Y-110853716D01*
X101961266Y-110852294D01*
X101961264Y-110852293D01*
X101858312Y-110824707D01*
X101797689Y-110787755D01*
X101766668Y-110723894D01*
X101775096Y-110653400D01*
X101820299Y-110598653D01*
X101858312Y-110581293D01*
X101961264Y-110553707D01*
X101961266Y-110553706D01*
X101966574Y-110552284D01*
X102040376Y-110517870D01*
X102169093Y-110457849D01*
X102169098Y-110457846D01*
X102174080Y-110455523D01*
X102278942Y-110382098D01*
X102357120Y-110327357D01*
X102357123Y-110327355D01*
X102361631Y-110324198D01*
X102523529Y-110162300D01*
X102528745Y-110154852D01*
X102604228Y-110047050D01*
X102654854Y-109974749D01*
X102657177Y-109969767D01*
X102657180Y-109969762D01*
X102749292Y-109772225D01*
X102749292Y-109772224D01*
X102751615Y-109767243D01*
X102775722Y-109677277D01*
X102809450Y-109551402D01*
X102809450Y-109551400D01*
X102810874Y-109546087D01*
X102830340Y-109323588D01*
X111463483Y-109323588D01*
X111482472Y-109540632D01*
X111484375Y-109551425D01*
X111540764Y-109761874D01*
X111544510Y-109772166D01*
X111636586Y-109969624D01*
X111642071Y-109979124D01*
X111642701Y-109980023D01*
X111642856Y-109980483D01*
X111644818Y-109983881D01*
X111644135Y-109984275D01*
X111665388Y-110047297D01*
X111648102Y-110116157D01*
X111625066Y-110141916D01*
X111626270Y-110143120D01*
X111619919Y-110149471D01*
X111612739Y-110154852D01*
X111607358Y-110162032D01*
X111607355Y-110162035D01*
X111604236Y-110166197D01*
X111525385Y-110271408D01*
X111474255Y-110407797D01*
X111467500Y-110469979D01*
X111467500Y-112166247D01*
X111474255Y-112228429D01*
X111525385Y-112364818D01*
X111612739Y-112481374D01*
X111729295Y-112568728D01*
X111865684Y-112619858D01*
X111927866Y-112626613D01*
X113624134Y-112626613D01*
X113686316Y-112619858D01*
X113822705Y-112568728D01*
X113939261Y-112481374D01*
X114026615Y-112364818D01*
X114077745Y-112228429D01*
X114084500Y-112166247D01*
X114084500Y-110469979D01*
X114077745Y-110407797D01*
X114026615Y-110271408D01*
X113947764Y-110166197D01*
X113944645Y-110162035D01*
X113944642Y-110162032D01*
X113939261Y-110154852D01*
X113932081Y-110149471D01*
X113925730Y-110143120D01*
X113927872Y-110140978D01*
X113894436Y-110096267D01*
X113889406Y-110025449D01*
X113907523Y-109984078D01*
X113907182Y-109983881D01*
X113908952Y-109980815D01*
X113909299Y-109980023D01*
X113909929Y-109979124D01*
X113915414Y-109969624D01*
X114007490Y-109772166D01*
X114011236Y-109761874D01*
X114067625Y-109551425D01*
X114069528Y-109540632D01*
X114088517Y-109323588D01*
X114088517Y-109312638D01*
X114069528Y-109095594D01*
X114067625Y-109084801D01*
X114011236Y-108874352D01*
X114007490Y-108864060D01*
X113915414Y-108666602D01*
X113909931Y-108657107D01*
X113873491Y-108605065D01*
X113863012Y-108596689D01*
X113849566Y-108603757D01*
X112865095Y-109588228D01*
X112802783Y-109622254D01*
X112731968Y-109617189D01*
X112686905Y-109588228D01*
X111701713Y-108603036D01*
X111689938Y-108596606D01*
X111677923Y-108605902D01*
X111642069Y-108657107D01*
X111636586Y-108666602D01*
X111544510Y-108864060D01*
X111540764Y-108874352D01*
X111484375Y-109084801D01*
X111482472Y-109095594D01*
X111463483Y-109312638D01*
X111463483Y-109323588D01*
X102830340Y-109323588D01*
X102830829Y-109318000D01*
X102810874Y-109089913D01*
X102806302Y-109072849D01*
X102753038Y-108874067D01*
X102753037Y-108874065D01*
X102751615Y-108868757D01*
X102749292Y-108863775D01*
X102657180Y-108666238D01*
X102657177Y-108666233D01*
X102654854Y-108661251D01*
X102523529Y-108473700D01*
X102361631Y-108311802D01*
X102357123Y-108308645D01*
X102357120Y-108308643D01*
X102179371Y-108184182D01*
X102174080Y-108180477D01*
X102169098Y-108178154D01*
X102169093Y-108178151D01*
X101971556Y-108086039D01*
X101971555Y-108086039D01*
X101966574Y-108083716D01*
X101857345Y-108054448D01*
X101796723Y-108017496D01*
X101765701Y-107953635D01*
X101774130Y-107883141D01*
X101819333Y-107828394D01*
X101857346Y-107811034D01*
X101961092Y-107783236D01*
X101971384Y-107779490D01*
X102168842Y-107687414D01*
X102178337Y-107681931D01*
X102230379Y-107645491D01*
X102238755Y-107635012D01*
X102231687Y-107621566D01*
X101530143Y-106920022D01*
X101516199Y-106912408D01*
X101514366Y-106912539D01*
X101507751Y-106916790D01*
X100802254Y-107622287D01*
X100795824Y-107634062D01*
X100805120Y-107646077D01*
X100856325Y-107681931D01*
X100865820Y-107687414D01*
X101063278Y-107779490D01*
X101073570Y-107783236D01*
X101177316Y-107811034D01*
X101237939Y-107847985D01*
X101268960Y-107911846D01*
X101260532Y-107982340D01*
X101215329Y-108037088D01*
X101177317Y-108054448D01*
X101068088Y-108083716D01*
X101063107Y-108086039D01*
X101063106Y-108086039D01*
X100865569Y-108178151D01*
X100865564Y-108178154D01*
X100860582Y-108180477D01*
X100855291Y-108184182D01*
X100677542Y-108308643D01*
X100677539Y-108308645D01*
X100673031Y-108311802D01*
X100511133Y-108473700D01*
X100379808Y-108661251D01*
X100377485Y-108666233D01*
X100377482Y-108666238D01*
X100285370Y-108863775D01*
X100283047Y-108868757D01*
X100281625Y-108874065D01*
X100281624Y-108874067D01*
X100228360Y-109072849D01*
X100223788Y-109089913D01*
X100203833Y-109318000D01*
X100223788Y-109546087D01*
X100225212Y-109551400D01*
X100225212Y-109551402D01*
X100258941Y-109677277D01*
X100283047Y-109767243D01*
X100285370Y-109772224D01*
X100285370Y-109772225D01*
X100377482Y-109969762D01*
X100377485Y-109969767D01*
X100379808Y-109974749D01*
X100430434Y-110047050D01*
X100505918Y-110154852D01*
X100511133Y-110162300D01*
X100673031Y-110324198D01*
X100677539Y-110327355D01*
X100677542Y-110327357D01*
X100755720Y-110382098D01*
X100860582Y-110455523D01*
X100865564Y-110457846D01*
X100865569Y-110457849D01*
X100994286Y-110517870D01*
X101068088Y-110552284D01*
X101073396Y-110553706D01*
X101073398Y-110553707D01*
X101176350Y-110581293D01*
X101236973Y-110618245D01*
X101267994Y-110682106D01*
X101259566Y-110752600D01*
X101214363Y-110807347D01*
X101176350Y-110824707D01*
X101073398Y-110852293D01*
X101073396Y-110852294D01*
X101068088Y-110853716D01*
X101063107Y-110856039D01*
X101063106Y-110856039D01*
X100865569Y-110948151D01*
X100865564Y-110948154D01*
X100860582Y-110950477D01*
X100768774Y-111014762D01*
X100677542Y-111078643D01*
X100677539Y-111078645D01*
X100673031Y-111081802D01*
X100511133Y-111243700D01*
X100507976Y-111248208D01*
X100507974Y-111248211D01*
X100485215Y-111280715D01*
X100379808Y-111431251D01*
X100377485Y-111436233D01*
X100377482Y-111436238D01*
X100311569Y-111577590D01*
X100283047Y-111638757D01*
X100281625Y-111644065D01*
X100281624Y-111644067D01*
X100228360Y-111842849D01*
X100223788Y-111859913D01*
X100203833Y-112088000D01*
X100223788Y-112316087D01*
X100225212Y-112321400D01*
X100225212Y-112321402D01*
X100269917Y-112488240D01*
X100283047Y-112537243D01*
X100285370Y-112542224D01*
X100285370Y-112542225D01*
X100377482Y-112739762D01*
X100377485Y-112739767D01*
X100379808Y-112744749D01*
X100511133Y-112932300D01*
X100673031Y-113094198D01*
X100677539Y-113097355D01*
X100677542Y-113097357D01*
X100755720Y-113152098D01*
X100860582Y-113225523D01*
X100865564Y-113227846D01*
X100865569Y-113227849D01*
X101063106Y-113319961D01*
X101068088Y-113322284D01*
X101073396Y-113323706D01*
X101073398Y-113323707D01*
X101176350Y-113351293D01*
X101236973Y-113388245D01*
X101267994Y-113452106D01*
X101259566Y-113522600D01*
X101214363Y-113577347D01*
X101176350Y-113594707D01*
X101073398Y-113622293D01*
X101073396Y-113622294D01*
X101068088Y-113623716D01*
X101063107Y-113626039D01*
X101063106Y-113626039D01*
X100865569Y-113718151D01*
X100865564Y-113718154D01*
X100860582Y-113720477D01*
X100755720Y-113793902D01*
X100677542Y-113848643D01*
X100677539Y-113848645D01*
X100673031Y-113851802D01*
X100511133Y-114013700D01*
X100379808Y-114201251D01*
X100377485Y-114206233D01*
X100377482Y-114206238D01*
X100285370Y-114403775D01*
X100283047Y-114408757D01*
X100281625Y-114414065D01*
X100281624Y-114414067D01*
X100228360Y-114612849D01*
X100223788Y-114629913D01*
X100203833Y-114858000D01*
X100223788Y-115086087D01*
X100225212Y-115091400D01*
X100225212Y-115091402D01*
X100228984Y-115105477D01*
X100283047Y-115307243D01*
X100285370Y-115312224D01*
X100285370Y-115312225D01*
X100377482Y-115509762D01*
X100377485Y-115509767D01*
X100379808Y-115514749D01*
X100511133Y-115702300D01*
X100673031Y-115864198D01*
X100677539Y-115867355D01*
X100677542Y-115867357D01*
X100683356Y-115871428D01*
X100860582Y-115995523D01*
X100865564Y-115997846D01*
X100865569Y-115997849D01*
X101063106Y-116089961D01*
X101068088Y-116092284D01*
X101073396Y-116093706D01*
X101073398Y-116093707D01*
X101176350Y-116121293D01*
X101236973Y-116158245D01*
X101267994Y-116222106D01*
X101259566Y-116292600D01*
X101214363Y-116347347D01*
X101176350Y-116364707D01*
X101073398Y-116392293D01*
X101073396Y-116392294D01*
X101068088Y-116393716D01*
X101063107Y-116396039D01*
X101063106Y-116396039D01*
X100865569Y-116488151D01*
X100865564Y-116488154D01*
X100860582Y-116490477D01*
X100851211Y-116497039D01*
X100677542Y-116618643D01*
X100677539Y-116618645D01*
X100673031Y-116621802D01*
X100511133Y-116783700D01*
X100507976Y-116788208D01*
X100507974Y-116788211D01*
X100486637Y-116818684D01*
X100379808Y-116971251D01*
X100377485Y-116976233D01*
X100377482Y-116976238D01*
X100285370Y-117173775D01*
X100283047Y-117178757D01*
X100281625Y-117184065D01*
X100281624Y-117184067D01*
X100228360Y-117382849D01*
X100223788Y-117399913D01*
X100203833Y-117628000D01*
X100223788Y-117856087D01*
X100225212Y-117861400D01*
X100225212Y-117861402D01*
X100248993Y-117950151D01*
X100283047Y-118077243D01*
X100285370Y-118082224D01*
X100285370Y-118082225D01*
X100377482Y-118279762D01*
X100377485Y-118279767D01*
X100379808Y-118284749D01*
X100511133Y-118472300D01*
X100673031Y-118634198D01*
X100677539Y-118637355D01*
X100677542Y-118637357D01*
X100680340Y-118639316D01*
X100860582Y-118765523D01*
X100865564Y-118767846D01*
X100865569Y-118767849D01*
X101037089Y-118847829D01*
X101068088Y-118862284D01*
X101073396Y-118863706D01*
X101073398Y-118863707D01*
X101176350Y-118891293D01*
X101236973Y-118928245D01*
X101267994Y-118992106D01*
X101259566Y-119062600D01*
X101214363Y-119117347D01*
X101176350Y-119134707D01*
X101073398Y-119162293D01*
X101073396Y-119162294D01*
X101068088Y-119163716D01*
X101063107Y-119166039D01*
X101063106Y-119166039D01*
X100865569Y-119258151D01*
X100865564Y-119258154D01*
X100860582Y-119260477D01*
X100755720Y-119333902D01*
X100677542Y-119388643D01*
X100677539Y-119388645D01*
X100673031Y-119391802D01*
X100511133Y-119553700D01*
X100507976Y-119558208D01*
X100507974Y-119558211D01*
X100465978Y-119618188D01*
X100379808Y-119741251D01*
X100377485Y-119746233D01*
X100377482Y-119746238D01*
X100299377Y-119913737D01*
X100283047Y-119948757D01*
X100281625Y-119954065D01*
X100281624Y-119954067D01*
X100228360Y-120152849D01*
X100223788Y-120169913D01*
X100203833Y-120398000D01*
X100223788Y-120626087D01*
X100225212Y-120631400D01*
X100225212Y-120631402D01*
X100228984Y-120645477D01*
X100283047Y-120847243D01*
X100285370Y-120852224D01*
X100285370Y-120852225D01*
X100377482Y-121049762D01*
X100377485Y-121049767D01*
X100379808Y-121054749D01*
X100511133Y-121242300D01*
X100673031Y-121404198D01*
X100677539Y-121407355D01*
X100677542Y-121407357D01*
X100755720Y-121462098D01*
X100860582Y-121535523D01*
X100865564Y-121537846D01*
X100865569Y-121537849D01*
X101063106Y-121629961D01*
X101068088Y-121632284D01*
X101073396Y-121633706D01*
X101073398Y-121633707D01*
X101176350Y-121661293D01*
X101236973Y-121698245D01*
X101267994Y-121762106D01*
X101259566Y-121832600D01*
X101214363Y-121887347D01*
X101176350Y-121904707D01*
X101073398Y-121932293D01*
X101073396Y-121932294D01*
X101068088Y-121933716D01*
X101063107Y-121936039D01*
X101063106Y-121936039D01*
X100865569Y-122028151D01*
X100865564Y-122028154D01*
X100860582Y-122030477D01*
X100755720Y-122103902D01*
X100677542Y-122158643D01*
X100677539Y-122158645D01*
X100673031Y-122161802D01*
X100511133Y-122323700D01*
X100379808Y-122511251D01*
X100377485Y-122516233D01*
X100377482Y-122516238D01*
X100285370Y-122713775D01*
X100283047Y-122718757D01*
X100281625Y-122724065D01*
X100281624Y-122724067D01*
X100228360Y-122922849D01*
X100223788Y-122939913D01*
X100203833Y-123168000D01*
X89398976Y-123168000D01*
X89398976Y-121783000D01*
X97363833Y-121783000D01*
X97383788Y-122011087D01*
X97385212Y-122016400D01*
X97385212Y-122016402D01*
X97388984Y-122030477D01*
X97443047Y-122232243D01*
X97445370Y-122237224D01*
X97445370Y-122237225D01*
X97537482Y-122434762D01*
X97537485Y-122434767D01*
X97539808Y-122439749D01*
X97671133Y-122627300D01*
X97833031Y-122789198D01*
X97837539Y-122792355D01*
X97837542Y-122792357D01*
X97915720Y-122847098D01*
X98020582Y-122920523D01*
X98025564Y-122922846D01*
X98025569Y-122922849D01*
X98223106Y-123014961D01*
X98228088Y-123017284D01*
X98233396Y-123018706D01*
X98233398Y-123018707D01*
X98443929Y-123075119D01*
X98443931Y-123075119D01*
X98449244Y-123076543D01*
X98677331Y-123096498D01*
X98905418Y-123076543D01*
X98910731Y-123075119D01*
X98910733Y-123075119D01*
X99121264Y-123018707D01*
X99121266Y-123018706D01*
X99126574Y-123017284D01*
X99131556Y-123014961D01*
X99329093Y-122922849D01*
X99329098Y-122922846D01*
X99334080Y-122920523D01*
X99438942Y-122847098D01*
X99517120Y-122792357D01*
X99517123Y-122792355D01*
X99521631Y-122789198D01*
X99683529Y-122627300D01*
X99814854Y-122439749D01*
X99817177Y-122434767D01*
X99817180Y-122434762D01*
X99909292Y-122237225D01*
X99909292Y-122237224D01*
X99911615Y-122232243D01*
X99965679Y-122030477D01*
X99969450Y-122016402D01*
X99969450Y-122016400D01*
X99970874Y-122011087D01*
X99990829Y-121783000D01*
X99970874Y-121554913D01*
X99966302Y-121537849D01*
X99913038Y-121339067D01*
X99913037Y-121339065D01*
X99911615Y-121333757D01*
X99909292Y-121328775D01*
X99817180Y-121131238D01*
X99817177Y-121131233D01*
X99814854Y-121126251D01*
X99683529Y-120938700D01*
X99521631Y-120776802D01*
X99517123Y-120773645D01*
X99517120Y-120773643D01*
X99438942Y-120718902D01*
X99334080Y-120645477D01*
X99329098Y-120643154D01*
X99329093Y-120643151D01*
X99131556Y-120551039D01*
X99131555Y-120551039D01*
X99126574Y-120548716D01*
X99121266Y-120547294D01*
X99121264Y-120547293D01*
X99018312Y-120519707D01*
X98957689Y-120482755D01*
X98926668Y-120418894D01*
X98935096Y-120348400D01*
X98980299Y-120293653D01*
X99018312Y-120276293D01*
X99121264Y-120248707D01*
X99121266Y-120248706D01*
X99126574Y-120247284D01*
X99131556Y-120244961D01*
X99329093Y-120152849D01*
X99329098Y-120152846D01*
X99334080Y-120150523D01*
X99454781Y-120066007D01*
X99517120Y-120022357D01*
X99517123Y-120022355D01*
X99521631Y-120019198D01*
X99683529Y-119857300D01*
X99814854Y-119669749D01*
X99817177Y-119664767D01*
X99817180Y-119664762D01*
X99909292Y-119467225D01*
X99909292Y-119467224D01*
X99911615Y-119462243D01*
X99965679Y-119260477D01*
X99969450Y-119246402D01*
X99969450Y-119246400D01*
X99970874Y-119241087D01*
X99990829Y-119013000D01*
X99970874Y-118784913D01*
X99966154Y-118767297D01*
X99913038Y-118569067D01*
X99913037Y-118569065D01*
X99911615Y-118563757D01*
X99909292Y-118558775D01*
X99817180Y-118361238D01*
X99817177Y-118361233D01*
X99814854Y-118356251D01*
X99683529Y-118168700D01*
X99521631Y-118006802D01*
X99517123Y-118003645D01*
X99517120Y-118003643D01*
X99411902Y-117929969D01*
X99334080Y-117875477D01*
X99329098Y-117873154D01*
X99329093Y-117873151D01*
X99131556Y-117781039D01*
X99131555Y-117781039D01*
X99126574Y-117778716D01*
X99121266Y-117777294D01*
X99121264Y-117777293D01*
X99018312Y-117749707D01*
X98957689Y-117712755D01*
X98926668Y-117648894D01*
X98935096Y-117578400D01*
X98980299Y-117523653D01*
X99018312Y-117506293D01*
X99121264Y-117478707D01*
X99121266Y-117478706D01*
X99126574Y-117477284D01*
X99131556Y-117474961D01*
X99329093Y-117382849D01*
X99329098Y-117382846D01*
X99334080Y-117380523D01*
X99470405Y-117285067D01*
X99517120Y-117252357D01*
X99517123Y-117252355D01*
X99521631Y-117249198D01*
X99683529Y-117087300D01*
X99694067Y-117072251D01*
X99761296Y-116976238D01*
X99814854Y-116899749D01*
X99817177Y-116894767D01*
X99817180Y-116894762D01*
X99909292Y-116697225D01*
X99909292Y-116697224D01*
X99911615Y-116692243D01*
X99918842Y-116665274D01*
X99969450Y-116476402D01*
X99969450Y-116476400D01*
X99970874Y-116471087D01*
X99990829Y-116243000D01*
X99970874Y-116014913D01*
X99966302Y-115997849D01*
X99913038Y-115799067D01*
X99913037Y-115799065D01*
X99911615Y-115793757D01*
X99880571Y-115727183D01*
X99817180Y-115591238D01*
X99817177Y-115591233D01*
X99814854Y-115586251D01*
X99736897Y-115474917D01*
X99686688Y-115403211D01*
X99686686Y-115403208D01*
X99683529Y-115398700D01*
X99521631Y-115236802D01*
X99517123Y-115233645D01*
X99517120Y-115233643D01*
X99438942Y-115178902D01*
X99334080Y-115105477D01*
X99329098Y-115103154D01*
X99329093Y-115103151D01*
X99131556Y-115011039D01*
X99131555Y-115011039D01*
X99126574Y-115008716D01*
X99121266Y-115007294D01*
X99121264Y-115007293D01*
X99018312Y-114979707D01*
X98957689Y-114942755D01*
X98926668Y-114878894D01*
X98935096Y-114808400D01*
X98980299Y-114753653D01*
X99018312Y-114736293D01*
X99121264Y-114708707D01*
X99121266Y-114708706D01*
X99126574Y-114707284D01*
X99131556Y-114704961D01*
X99329093Y-114612849D01*
X99329098Y-114612846D01*
X99334080Y-114610523D01*
X99438942Y-114537098D01*
X99517120Y-114482357D01*
X99517123Y-114482355D01*
X99521631Y-114479198D01*
X99683529Y-114317300D01*
X99814854Y-114129749D01*
X99817177Y-114124767D01*
X99817180Y-114124762D01*
X99909292Y-113927225D01*
X99909292Y-113927224D01*
X99911615Y-113922243D01*
X99965679Y-113720477D01*
X99969450Y-113706402D01*
X99969450Y-113706400D01*
X99970874Y-113701087D01*
X99990829Y-113473000D01*
X99970874Y-113244913D01*
X99966302Y-113227849D01*
X99913038Y-113029067D01*
X99913037Y-113029065D01*
X99911615Y-113023757D01*
X99909292Y-113018775D01*
X99817180Y-112821238D01*
X99817177Y-112821233D01*
X99814854Y-112816251D01*
X99683529Y-112628700D01*
X99521631Y-112466802D01*
X99517123Y-112463645D01*
X99517120Y-112463643D01*
X99423567Y-112398137D01*
X99334080Y-112335477D01*
X99329098Y-112333154D01*
X99329093Y-112333151D01*
X99131556Y-112241039D01*
X99131555Y-112241039D01*
X99126574Y-112238716D01*
X99121266Y-112237294D01*
X99121264Y-112237293D01*
X99018312Y-112209707D01*
X98957689Y-112172755D01*
X98926668Y-112108894D01*
X98935096Y-112038400D01*
X98980299Y-111983653D01*
X99018312Y-111966293D01*
X99121264Y-111938707D01*
X99121266Y-111938706D01*
X99126574Y-111937284D01*
X99166559Y-111918639D01*
X99329093Y-111842849D01*
X99329098Y-111842846D01*
X99334080Y-111840523D01*
X99438942Y-111767098D01*
X99517120Y-111712357D01*
X99517123Y-111712355D01*
X99521631Y-111709198D01*
X99683529Y-111547300D01*
X99706591Y-111514365D01*
X99761296Y-111436238D01*
X99814854Y-111359749D01*
X99817177Y-111354767D01*
X99817180Y-111354762D01*
X99909292Y-111157225D01*
X99909292Y-111157224D01*
X99911615Y-111152243D01*
X99931852Y-111076720D01*
X99969450Y-110936402D01*
X99969450Y-110936400D01*
X99970874Y-110931087D01*
X99990829Y-110703000D01*
X99970874Y-110474913D01*
X99966302Y-110457849D01*
X99913038Y-110259067D01*
X99913037Y-110259065D01*
X99911615Y-110253757D01*
X99901899Y-110232921D01*
X99817180Y-110051238D01*
X99817177Y-110051233D01*
X99814854Y-110046251D01*
X99725799Y-109919067D01*
X99686688Y-109863211D01*
X99686686Y-109863208D01*
X99683529Y-109858700D01*
X99521631Y-109696802D01*
X99517123Y-109693645D01*
X99517120Y-109693643D01*
X99407932Y-109617189D01*
X99334080Y-109565477D01*
X99329098Y-109563154D01*
X99329093Y-109563151D01*
X99131556Y-109471039D01*
X99131555Y-109471039D01*
X99126574Y-109468716D01*
X99121266Y-109467294D01*
X99121264Y-109467293D01*
X99018312Y-109439707D01*
X98957689Y-109402755D01*
X98926668Y-109338894D01*
X98935096Y-109268400D01*
X98980299Y-109213653D01*
X99018312Y-109196293D01*
X99121264Y-109168707D01*
X99121266Y-109168706D01*
X99126574Y-109167284D01*
X99131556Y-109164961D01*
X99329093Y-109072849D01*
X99329098Y-109072846D01*
X99334080Y-109070523D01*
X99468851Y-108976155D01*
X99517120Y-108942357D01*
X99517123Y-108942355D01*
X99521631Y-108939198D01*
X99683529Y-108777300D01*
X99703793Y-108748361D01*
X99761296Y-108666238D01*
X99814854Y-108589749D01*
X99817177Y-108584767D01*
X99817180Y-108584762D01*
X99909292Y-108387225D01*
X99909292Y-108387224D01*
X99911615Y-108382243D01*
X99927626Y-108322492D01*
X99969450Y-108166402D01*
X99969450Y-108166400D01*
X99970874Y-108161087D01*
X99990829Y-107933000D01*
X99970874Y-107704913D01*
X99952144Y-107635012D01*
X99913038Y-107489067D01*
X99913037Y-107489065D01*
X99911615Y-107483757D01*
X99832685Y-107314489D01*
X99817180Y-107281238D01*
X99817177Y-107281233D01*
X99814854Y-107276251D01*
X99683529Y-107088700D01*
X99521631Y-106926802D01*
X99517123Y-106923645D01*
X99517120Y-106923643D01*
X99407005Y-106846540D01*
X99334080Y-106795477D01*
X99329098Y-106793154D01*
X99329093Y-106793151D01*
X99131556Y-106701039D01*
X99131555Y-106701039D01*
X99126574Y-106698716D01*
X99121266Y-106697294D01*
X99121264Y-106697293D01*
X99018312Y-106669707D01*
X98957689Y-106632755D01*
X98926668Y-106568894D01*
X98928511Y-106553475D01*
X100204814Y-106553475D01*
X100223803Y-106770519D01*
X100225706Y-106781312D01*
X100282095Y-106991761D01*
X100285841Y-107002053D01*
X100377917Y-107199511D01*
X100383400Y-107209006D01*
X100419840Y-107261048D01*
X100430319Y-107269424D01*
X100443765Y-107262356D01*
X101145309Y-106560812D01*
X101151687Y-106549132D01*
X101881739Y-106549132D01*
X101881870Y-106550965D01*
X101886121Y-106557580D01*
X102591618Y-107263077D01*
X102603393Y-107269507D01*
X102615408Y-107260211D01*
X102651262Y-107209006D01*
X102656745Y-107199511D01*
X102748821Y-107002053D01*
X102752567Y-106991761D01*
X102808956Y-106781312D01*
X102810859Y-106770519D01*
X102829848Y-106553475D01*
X102829848Y-106542525D01*
X102810859Y-106325481D01*
X102808956Y-106314688D01*
X102752567Y-106104239D01*
X102748821Y-106093947D01*
X102656745Y-105896489D01*
X102651262Y-105886994D01*
X102614822Y-105834952D01*
X102604343Y-105826576D01*
X102590897Y-105833644D01*
X101889353Y-106535188D01*
X101881739Y-106549132D01*
X101151687Y-106549132D01*
X101152923Y-106546868D01*
X101152792Y-106545035D01*
X101148541Y-106538420D01*
X100443044Y-105832923D01*
X100431269Y-105826493D01*
X100419254Y-105835789D01*
X100383400Y-105886994D01*
X100377917Y-105896489D01*
X100285841Y-106093947D01*
X100282095Y-106104239D01*
X100225706Y-106314688D01*
X100223803Y-106325481D01*
X100204814Y-106542525D01*
X100204814Y-106553475D01*
X98928511Y-106553475D01*
X98935096Y-106498400D01*
X98980299Y-106443653D01*
X99018312Y-106426293D01*
X99121264Y-106398707D01*
X99121266Y-106398706D01*
X99126574Y-106397284D01*
X99131556Y-106394961D01*
X99329093Y-106302849D01*
X99329098Y-106302846D01*
X99334080Y-106300523D01*
X99465701Y-106208361D01*
X99517120Y-106172357D01*
X99517123Y-106172355D01*
X99521631Y-106169198D01*
X99683529Y-106007300D01*
X99690938Y-105996720D01*
X99767768Y-105886994D01*
X99814854Y-105819749D01*
X99817177Y-105814767D01*
X99817180Y-105814762D01*
X99909292Y-105617225D01*
X99909292Y-105617224D01*
X99911615Y-105612243D01*
X99913927Y-105603617D01*
X99969450Y-105396402D01*
X99969450Y-105396400D01*
X99970874Y-105391087D01*
X99990829Y-105163000D01*
X99970874Y-104934913D01*
X99969450Y-104929598D01*
X99913038Y-104719067D01*
X99913037Y-104719065D01*
X99911615Y-104713757D01*
X99875406Y-104636105D01*
X99817180Y-104511238D01*
X99817177Y-104511233D01*
X99814854Y-104506251D01*
X99683529Y-104318700D01*
X99521631Y-104156802D01*
X99517123Y-104153645D01*
X99517120Y-104153643D01*
X99412968Y-104080715D01*
X99334080Y-104025477D01*
X99329098Y-104023154D01*
X99329093Y-104023151D01*
X99131556Y-103931039D01*
X99131555Y-103931039D01*
X99126574Y-103928716D01*
X99121266Y-103927294D01*
X99121264Y-103927293D01*
X99018312Y-103899707D01*
X98957689Y-103862755D01*
X98926668Y-103798894D01*
X98929166Y-103778000D01*
X100203833Y-103778000D01*
X100223788Y-104006087D01*
X100225212Y-104011400D01*
X100225212Y-104011402D01*
X100243785Y-104080715D01*
X100283047Y-104227243D01*
X100285370Y-104232224D01*
X100285370Y-104232225D01*
X100377482Y-104429762D01*
X100377485Y-104429767D01*
X100379808Y-104434749D01*
X100382962Y-104439254D01*
X100382963Y-104439255D01*
X100503912Y-104611987D01*
X100511133Y-104622300D01*
X100673031Y-104784198D01*
X100677539Y-104787355D01*
X100677542Y-104787357D01*
X100755720Y-104842098D01*
X100860582Y-104915523D01*
X100865564Y-104917846D01*
X100865569Y-104917849D01*
X101063106Y-105009961D01*
X101068088Y-105012284D01*
X101073395Y-105013706D01*
X101177317Y-105041552D01*
X101237939Y-105078504D01*
X101268961Y-105142365D01*
X101260532Y-105212859D01*
X101215329Y-105267606D01*
X101177316Y-105284966D01*
X101073570Y-105312764D01*
X101063278Y-105316510D01*
X100865820Y-105408586D01*
X100856325Y-105414069D01*
X100804283Y-105450509D01*
X100795907Y-105460988D01*
X100802975Y-105474434D01*
X101504519Y-106175978D01*
X101518463Y-106183592D01*
X101520296Y-106183461D01*
X101526911Y-106179210D01*
X102232408Y-105473713D01*
X102238838Y-105461938D01*
X102229542Y-105449923D01*
X102178337Y-105414069D01*
X102168842Y-105408586D01*
X101971384Y-105316510D01*
X101961092Y-105312764D01*
X101857346Y-105284966D01*
X101796723Y-105248015D01*
X101765702Y-105184154D01*
X101774130Y-105113660D01*
X101819333Y-105058912D01*
X101857345Y-105041552D01*
X101961267Y-105013706D01*
X101966574Y-105012284D01*
X101971556Y-105009961D01*
X102169093Y-104917849D01*
X102169098Y-104917846D01*
X102174080Y-104915523D01*
X102278942Y-104842098D01*
X102357120Y-104787357D01*
X102357123Y-104787355D01*
X102361631Y-104784198D01*
X102523529Y-104622300D01*
X102530751Y-104611987D01*
X102651699Y-104439255D01*
X102651700Y-104439254D01*
X102654854Y-104434749D01*
X102657177Y-104429767D01*
X102657180Y-104429762D01*
X102749292Y-104232225D01*
X102749292Y-104232224D01*
X102751615Y-104227243D01*
X102790878Y-104080715D01*
X102809450Y-104011402D01*
X102809450Y-104011400D01*
X102810874Y-104006087D01*
X102830829Y-103778000D01*
X102810874Y-103549913D01*
X102806302Y-103532849D01*
X102753038Y-103334067D01*
X102753037Y-103334065D01*
X102751615Y-103328757D01*
X102713417Y-103246840D01*
X102657180Y-103126238D01*
X102657177Y-103126233D01*
X102654854Y-103121251D01*
X102581429Y-103016389D01*
X102526688Y-102938211D01*
X102526686Y-102938208D01*
X102523529Y-102933700D01*
X102361631Y-102771802D01*
X102357123Y-102768645D01*
X102357120Y-102768643D01*
X102250957Y-102694307D01*
X102174080Y-102640477D01*
X102169098Y-102638154D01*
X102169093Y-102638151D01*
X101971556Y-102546039D01*
X101971555Y-102546039D01*
X101966574Y-102543716D01*
X101961266Y-102542294D01*
X101961264Y-102542293D01*
X101858312Y-102514707D01*
X101797689Y-102477755D01*
X101766668Y-102413894D01*
X101775096Y-102343400D01*
X101820299Y-102288653D01*
X101858312Y-102271293D01*
X101961264Y-102243707D01*
X101961266Y-102243706D01*
X101966574Y-102242284D01*
X102025064Y-102215010D01*
X102169093Y-102147849D01*
X102169098Y-102147846D01*
X102174080Y-102145523D01*
X102278942Y-102072098D01*
X102357120Y-102017357D01*
X102357123Y-102017355D01*
X102361631Y-102014198D01*
X102523529Y-101852300D01*
X102654854Y-101664749D01*
X102657178Y-101659764D01*
X102659525Y-101655700D01*
X102710907Y-101606707D01*
X102768644Y-101592700D01*
X106937566Y-101592700D01*
X107005687Y-101612702D01*
X107026661Y-101629605D01*
X113215493Y-107818437D01*
X113226361Y-107830829D01*
X113245567Y-107855859D01*
X113271167Y-107922079D01*
X113256902Y-107991628D01*
X113207301Y-108042423D01*
X113138111Y-108058339D01*
X113112993Y-108054269D01*
X113009312Y-108026488D01*
X112998519Y-108024585D01*
X112781475Y-108005596D01*
X112770525Y-108005596D01*
X112553481Y-108024585D01*
X112542688Y-108026488D01*
X112332239Y-108082877D01*
X112321947Y-108086623D01*
X112124489Y-108178699D01*
X112114994Y-108184182D01*
X112062952Y-108220622D01*
X112054576Y-108231101D01*
X112061644Y-108244547D01*
X112763188Y-108946091D01*
X112777132Y-108953705D01*
X112778965Y-108953574D01*
X112785580Y-108949323D01*
X113491077Y-108243826D01*
X113497507Y-108232051D01*
X113493157Y-108226429D01*
X113467294Y-108160310D01*
X113481283Y-108090705D01*
X113530683Y-108039713D01*
X113599809Y-108023523D01*
X113609261Y-108024407D01*
X113656812Y-108030667D01*
X113665000Y-108031745D01*
X113673188Y-108030667D01*
X113695133Y-108027778D01*
X113711579Y-108026700D01*
X130261620Y-108026700D01*
X130329741Y-108046702D01*
X130350715Y-108063605D01*
X131130138Y-108843028D01*
X131164164Y-108905340D01*
X131159099Y-108976155D01*
X131116552Y-109032991D01*
X131050032Y-109057802D01*
X131030064Y-109057644D01*
X130937000Y-109049502D01*
X130708913Y-109069457D01*
X130703600Y-109070881D01*
X130703598Y-109070881D01*
X130493067Y-109127293D01*
X130493065Y-109127294D01*
X130487757Y-109128716D01*
X130482776Y-109131039D01*
X130482775Y-109131039D01*
X130285238Y-109223151D01*
X130285233Y-109223154D01*
X130280251Y-109225477D01*
X130232277Y-109259069D01*
X130097211Y-109353643D01*
X130097208Y-109353645D01*
X130092700Y-109356802D01*
X129930802Y-109518700D01*
X129927645Y-109523208D01*
X129927643Y-109523211D01*
X129899677Y-109563151D01*
X129799477Y-109706251D01*
X129797154Y-109711233D01*
X129797151Y-109711238D01*
X129781195Y-109745457D01*
X129734278Y-109798742D01*
X129666001Y-109818203D01*
X129598041Y-109797661D01*
X129552805Y-109745457D01*
X129536849Y-109711238D01*
X129536846Y-109711233D01*
X129534523Y-109706251D01*
X129434323Y-109563151D01*
X129406357Y-109523211D01*
X129406355Y-109523208D01*
X129403198Y-109518700D01*
X129241300Y-109356802D01*
X129236792Y-109353645D01*
X129236789Y-109353643D01*
X129101723Y-109259069D01*
X129053749Y-109225477D01*
X129048767Y-109223154D01*
X129048762Y-109223151D01*
X128851225Y-109131039D01*
X128851224Y-109131039D01*
X128846243Y-109128716D01*
X128840935Y-109127294D01*
X128840933Y-109127293D01*
X128630402Y-109070881D01*
X128630400Y-109070881D01*
X128625087Y-109069457D01*
X128397000Y-109049502D01*
X128168913Y-109069457D01*
X128163600Y-109070881D01*
X128163598Y-109070881D01*
X127953067Y-109127293D01*
X127953065Y-109127294D01*
X127947757Y-109128716D01*
X127942776Y-109131039D01*
X127942775Y-109131039D01*
X127745238Y-109223151D01*
X127745233Y-109223154D01*
X127740251Y-109225477D01*
X127692277Y-109259069D01*
X127557211Y-109353643D01*
X127557208Y-109353645D01*
X127552700Y-109356802D01*
X127390802Y-109518700D01*
X127387645Y-109523208D01*
X127387643Y-109523211D01*
X127359677Y-109563151D01*
X127259477Y-109706251D01*
X127257154Y-109711233D01*
X127257151Y-109711238D01*
X127241195Y-109745457D01*
X127194278Y-109798742D01*
X127126001Y-109818203D01*
X127058041Y-109797661D01*
X127012805Y-109745457D01*
X126996849Y-109711238D01*
X126996846Y-109711233D01*
X126994523Y-109706251D01*
X126894323Y-109563151D01*
X126866357Y-109523211D01*
X126866355Y-109523208D01*
X126863198Y-109518700D01*
X126701300Y-109356802D01*
X126696792Y-109353645D01*
X126696789Y-109353643D01*
X126561723Y-109259069D01*
X126513749Y-109225477D01*
X126508767Y-109223154D01*
X126508762Y-109223151D01*
X126311225Y-109131039D01*
X126311224Y-109131039D01*
X126306243Y-109128716D01*
X126300935Y-109127294D01*
X126300933Y-109127293D01*
X126090402Y-109070881D01*
X126090400Y-109070881D01*
X126085087Y-109069457D01*
X125857000Y-109049502D01*
X125628913Y-109069457D01*
X125623600Y-109070881D01*
X125623598Y-109070881D01*
X125413067Y-109127293D01*
X125413065Y-109127294D01*
X125407757Y-109128716D01*
X125402776Y-109131039D01*
X125402775Y-109131039D01*
X125205238Y-109223151D01*
X125205233Y-109223154D01*
X125200251Y-109225477D01*
X125152277Y-109259069D01*
X125017211Y-109353643D01*
X125017208Y-109353645D01*
X125012700Y-109356802D01*
X124850802Y-109518700D01*
X124847645Y-109523208D01*
X124847643Y-109523211D01*
X124819677Y-109563151D01*
X124719477Y-109706251D01*
X124717154Y-109711233D01*
X124717151Y-109711238D01*
X124701195Y-109745457D01*
X124654278Y-109798742D01*
X124586001Y-109818203D01*
X124518041Y-109797661D01*
X124472805Y-109745457D01*
X124456849Y-109711238D01*
X124456846Y-109711233D01*
X124454523Y-109706251D01*
X124354323Y-109563151D01*
X124326357Y-109523211D01*
X124326355Y-109523208D01*
X124323198Y-109518700D01*
X124161300Y-109356802D01*
X124156792Y-109353645D01*
X124156789Y-109353643D01*
X124021723Y-109259069D01*
X123973749Y-109225477D01*
X123968767Y-109223154D01*
X123968762Y-109223151D01*
X123771225Y-109131039D01*
X123771224Y-109131039D01*
X123766243Y-109128716D01*
X123760935Y-109127294D01*
X123760933Y-109127293D01*
X123550402Y-109070881D01*
X123550400Y-109070881D01*
X123545087Y-109069457D01*
X123317000Y-109049502D01*
X123088913Y-109069457D01*
X123083600Y-109070881D01*
X123083598Y-109070881D01*
X122873067Y-109127293D01*
X122873065Y-109127294D01*
X122867757Y-109128716D01*
X122862776Y-109131039D01*
X122862775Y-109131039D01*
X122665238Y-109223151D01*
X122665233Y-109223154D01*
X122660251Y-109225477D01*
X122612277Y-109259069D01*
X122477211Y-109353643D01*
X122477208Y-109353645D01*
X122472700Y-109356802D01*
X122310802Y-109518700D01*
X122307645Y-109523208D01*
X122307643Y-109523211D01*
X122279677Y-109563151D01*
X122179477Y-109706251D01*
X122177154Y-109711233D01*
X122177151Y-109711238D01*
X122161195Y-109745457D01*
X122114278Y-109798742D01*
X122046001Y-109818203D01*
X121978041Y-109797661D01*
X121932805Y-109745457D01*
X121916849Y-109711238D01*
X121916846Y-109711233D01*
X121914523Y-109706251D01*
X121814323Y-109563151D01*
X121786357Y-109523211D01*
X121786355Y-109523208D01*
X121783198Y-109518700D01*
X121621300Y-109356802D01*
X121616792Y-109353645D01*
X121616789Y-109353643D01*
X121481723Y-109259069D01*
X121433749Y-109225477D01*
X121428767Y-109223154D01*
X121428762Y-109223151D01*
X121231225Y-109131039D01*
X121231224Y-109131039D01*
X121226243Y-109128716D01*
X121220935Y-109127294D01*
X121220933Y-109127293D01*
X121010402Y-109070881D01*
X121010400Y-109070881D01*
X121005087Y-109069457D01*
X120777000Y-109049502D01*
X120548913Y-109069457D01*
X120543600Y-109070881D01*
X120543598Y-109070881D01*
X120333067Y-109127293D01*
X120333065Y-109127294D01*
X120327757Y-109128716D01*
X120322776Y-109131039D01*
X120322775Y-109131039D01*
X120125238Y-109223151D01*
X120125233Y-109223154D01*
X120120251Y-109225477D01*
X120072277Y-109259069D01*
X119937211Y-109353643D01*
X119937208Y-109353645D01*
X119932700Y-109356802D01*
X119770802Y-109518700D01*
X119767643Y-109523211D01*
X119764108Y-109527424D01*
X119762974Y-109526473D01*
X119712929Y-109566471D01*
X119642310Y-109573776D01*
X119578951Y-109541742D01*
X119542970Y-109480538D01*
X119539918Y-109463483D01*
X119538745Y-109452684D01*
X119487615Y-109316295D01*
X119400261Y-109199739D01*
X119283705Y-109112385D01*
X119147316Y-109061255D01*
X119085134Y-109054500D01*
X117388866Y-109054500D01*
X117326684Y-109061255D01*
X117190295Y-109112385D01*
X117073739Y-109199739D01*
X116986385Y-109316295D01*
X116935255Y-109452684D01*
X116928500Y-109514866D01*
X116928500Y-111211134D01*
X116935255Y-111273316D01*
X116986385Y-111409705D01*
X117073739Y-111526261D01*
X117190295Y-111613615D01*
X117326684Y-111664745D01*
X117388866Y-111671500D01*
X119085134Y-111671500D01*
X119147316Y-111664745D01*
X119283705Y-111613615D01*
X119400261Y-111526261D01*
X119487615Y-111409705D01*
X119538745Y-111273316D01*
X119539917Y-111262526D01*
X119540803Y-111260394D01*
X119541425Y-111257778D01*
X119541848Y-111257879D01*
X119567155Y-111196965D01*
X119625517Y-111156537D01*
X119696471Y-111154078D01*
X119757490Y-111190371D01*
X119764489Y-111199031D01*
X119767643Y-111202789D01*
X119770802Y-111207300D01*
X119932700Y-111369198D01*
X119937208Y-111372355D01*
X119937211Y-111372357D01*
X119978542Y-111401297D01*
X120120251Y-111500523D01*
X120125233Y-111502846D01*
X120125238Y-111502849D01*
X120292638Y-111580908D01*
X120327757Y-111597284D01*
X120333065Y-111598706D01*
X120333067Y-111598707D01*
X120543598Y-111655119D01*
X120543600Y-111655119D01*
X120548913Y-111656543D01*
X120777000Y-111676498D01*
X121005087Y-111656543D01*
X121010400Y-111655119D01*
X121010402Y-111655119D01*
X121220933Y-111598707D01*
X121220935Y-111598706D01*
X121226243Y-111597284D01*
X121261362Y-111580908D01*
X121428762Y-111502849D01*
X121428767Y-111502846D01*
X121433749Y-111500523D01*
X121575458Y-111401297D01*
X121616789Y-111372357D01*
X121616792Y-111372355D01*
X121621300Y-111369198D01*
X121783198Y-111207300D01*
X121821750Y-111152243D01*
X121878145Y-111071702D01*
X121914523Y-111019749D01*
X121916846Y-111014767D01*
X121916849Y-111014762D01*
X121932805Y-110980543D01*
X121979722Y-110927258D01*
X122047999Y-110907797D01*
X122115959Y-110928339D01*
X122161195Y-110980543D01*
X122177151Y-111014762D01*
X122177154Y-111014767D01*
X122179477Y-111019749D01*
X122215855Y-111071702D01*
X122272251Y-111152243D01*
X122310802Y-111207300D01*
X122472700Y-111369198D01*
X122477208Y-111372355D01*
X122477211Y-111372357D01*
X122518542Y-111401297D01*
X122660251Y-111500523D01*
X122665233Y-111502846D01*
X122665238Y-111502849D01*
X122832638Y-111580908D01*
X122867757Y-111597284D01*
X122873065Y-111598706D01*
X122873067Y-111598707D01*
X123083598Y-111655119D01*
X123083600Y-111655119D01*
X123088913Y-111656543D01*
X123317000Y-111676498D01*
X123545087Y-111656543D01*
X123550400Y-111655119D01*
X123550402Y-111655119D01*
X123760933Y-111598707D01*
X123760935Y-111598706D01*
X123766243Y-111597284D01*
X123801362Y-111580908D01*
X123968762Y-111502849D01*
X123968767Y-111502846D01*
X123973749Y-111500523D01*
X124115458Y-111401297D01*
X124156789Y-111372357D01*
X124156792Y-111372355D01*
X124161300Y-111369198D01*
X124323198Y-111207300D01*
X124361750Y-111152243D01*
X124418145Y-111071702D01*
X124454523Y-111019749D01*
X124456846Y-111014767D01*
X124456849Y-111014762D01*
X124472805Y-110980543D01*
X124519722Y-110927258D01*
X124587999Y-110907797D01*
X124655959Y-110928339D01*
X124701195Y-110980543D01*
X124717151Y-111014762D01*
X124717154Y-111014767D01*
X124719477Y-111019749D01*
X124755855Y-111071702D01*
X124812251Y-111152243D01*
X124850802Y-111207300D01*
X125012700Y-111369198D01*
X125017208Y-111372355D01*
X125017211Y-111372357D01*
X125058542Y-111401297D01*
X125200251Y-111500523D01*
X125205233Y-111502846D01*
X125205238Y-111502849D01*
X125372638Y-111580908D01*
X125407757Y-111597284D01*
X125413065Y-111598706D01*
X125413067Y-111598707D01*
X125623598Y-111655119D01*
X125623600Y-111655119D01*
X125628913Y-111656543D01*
X125857000Y-111676498D01*
X126085087Y-111656543D01*
X126090400Y-111655119D01*
X126090402Y-111655119D01*
X126300933Y-111598707D01*
X126300935Y-111598706D01*
X126306243Y-111597284D01*
X126341362Y-111580908D01*
X126508762Y-111502849D01*
X126508767Y-111502846D01*
X126513749Y-111500523D01*
X126655458Y-111401297D01*
X126696789Y-111372357D01*
X126696792Y-111372355D01*
X126701300Y-111369198D01*
X126863198Y-111207300D01*
X126901750Y-111152243D01*
X126958145Y-111071702D01*
X126994523Y-111019749D01*
X126996846Y-111014767D01*
X126996849Y-111014762D01*
X127012805Y-110980543D01*
X127059722Y-110927258D01*
X127127999Y-110907797D01*
X127195959Y-110928339D01*
X127241195Y-110980543D01*
X127257151Y-111014762D01*
X127257154Y-111014767D01*
X127259477Y-111019749D01*
X127295855Y-111071702D01*
X127352251Y-111152243D01*
X127390802Y-111207300D01*
X127552700Y-111369198D01*
X127557208Y-111372355D01*
X127557211Y-111372357D01*
X127598542Y-111401297D01*
X127740251Y-111500523D01*
X127745233Y-111502846D01*
X127745238Y-111502849D01*
X127912638Y-111580908D01*
X127947757Y-111597284D01*
X127953065Y-111598706D01*
X127953067Y-111598707D01*
X128163598Y-111655119D01*
X128163600Y-111655119D01*
X128168913Y-111656543D01*
X128397000Y-111676498D01*
X128625087Y-111656543D01*
X128630400Y-111655119D01*
X128630402Y-111655119D01*
X128840933Y-111598707D01*
X128840935Y-111598706D01*
X128846243Y-111597284D01*
X128881362Y-111580908D01*
X129048762Y-111502849D01*
X129048767Y-111502846D01*
X129053749Y-111500523D01*
X129195458Y-111401297D01*
X129236789Y-111372357D01*
X129236792Y-111372355D01*
X129241300Y-111369198D01*
X129403198Y-111207300D01*
X129441750Y-111152243D01*
X129498145Y-111071702D01*
X129534523Y-111019749D01*
X129536846Y-111014767D01*
X129536849Y-111014762D01*
X129552805Y-110980543D01*
X129599722Y-110927258D01*
X129667999Y-110907797D01*
X129735959Y-110928339D01*
X129781195Y-110980543D01*
X129797151Y-111014762D01*
X129797154Y-111014767D01*
X129799477Y-111019749D01*
X129835855Y-111071702D01*
X129892251Y-111152243D01*
X129930802Y-111207300D01*
X130092700Y-111369198D01*
X130097208Y-111372355D01*
X130097211Y-111372357D01*
X130138542Y-111401297D01*
X130280251Y-111500523D01*
X130285233Y-111502846D01*
X130285238Y-111502849D01*
X130452638Y-111580908D01*
X130487757Y-111597284D01*
X130493065Y-111598706D01*
X130493067Y-111598707D01*
X130703598Y-111655119D01*
X130703600Y-111655119D01*
X130708913Y-111656543D01*
X130937000Y-111676498D01*
X131165087Y-111656543D01*
X131170400Y-111655119D01*
X131170402Y-111655119D01*
X131380933Y-111598707D01*
X131380935Y-111598706D01*
X131386243Y-111597284D01*
X131421362Y-111580908D01*
X131588762Y-111502849D01*
X131588767Y-111502846D01*
X131593749Y-111500523D01*
X131735458Y-111401297D01*
X131776789Y-111372357D01*
X131776792Y-111372355D01*
X131781300Y-111369198D01*
X131943198Y-111207300D01*
X131981750Y-111152243D01*
X132038145Y-111071702D01*
X132074523Y-111019749D01*
X132076846Y-111014767D01*
X132076849Y-111014762D01*
X132092805Y-110980543D01*
X132139722Y-110927258D01*
X132207999Y-110907797D01*
X132275959Y-110928339D01*
X132321195Y-110980543D01*
X132337151Y-111014762D01*
X132337154Y-111014767D01*
X132339477Y-111019749D01*
X132375855Y-111071702D01*
X132432251Y-111152243D01*
X132470802Y-111207300D01*
X132632700Y-111369198D01*
X132637208Y-111372355D01*
X132637211Y-111372357D01*
X132678542Y-111401297D01*
X132820251Y-111500523D01*
X132825233Y-111502846D01*
X132825238Y-111502849D01*
X132992638Y-111580908D01*
X133027757Y-111597284D01*
X133033065Y-111598706D01*
X133033067Y-111598707D01*
X133243598Y-111655119D01*
X133243600Y-111655119D01*
X133248913Y-111656543D01*
X133477000Y-111676498D01*
X133705087Y-111656543D01*
X133710400Y-111655119D01*
X133710402Y-111655119D01*
X133920933Y-111598707D01*
X133920935Y-111598706D01*
X133926243Y-111597284D01*
X133961362Y-111580908D01*
X134128762Y-111502849D01*
X134128767Y-111502846D01*
X134133749Y-111500523D01*
X134275458Y-111401297D01*
X134316789Y-111372357D01*
X134316792Y-111372355D01*
X134321300Y-111369198D01*
X134483198Y-111207300D01*
X134521750Y-111152243D01*
X134578145Y-111071702D01*
X134614523Y-111019749D01*
X134616846Y-111014767D01*
X134616849Y-111014762D01*
X134632805Y-110980543D01*
X134679722Y-110927258D01*
X134747999Y-110907797D01*
X134815959Y-110928339D01*
X134861195Y-110980543D01*
X134877151Y-111014762D01*
X134877154Y-111014767D01*
X134879477Y-111019749D01*
X134915855Y-111071702D01*
X134972251Y-111152243D01*
X135010802Y-111207300D01*
X135172700Y-111369198D01*
X135177208Y-111372355D01*
X135177211Y-111372357D01*
X135218542Y-111401297D01*
X135360251Y-111500523D01*
X135365233Y-111502846D01*
X135365238Y-111502849D01*
X135532638Y-111580908D01*
X135567757Y-111597284D01*
X135573065Y-111598706D01*
X135573067Y-111598707D01*
X135783598Y-111655119D01*
X135783600Y-111655119D01*
X135788913Y-111656543D01*
X136017000Y-111676498D01*
X136245087Y-111656543D01*
X136250400Y-111655119D01*
X136250402Y-111655119D01*
X136460933Y-111598707D01*
X136460935Y-111598706D01*
X136466243Y-111597284D01*
X136501362Y-111580908D01*
X136668762Y-111502849D01*
X136668767Y-111502846D01*
X136673749Y-111500523D01*
X136815458Y-111401297D01*
X136856789Y-111372357D01*
X136856792Y-111372355D01*
X136861300Y-111369198D01*
X137023198Y-111207300D01*
X137061750Y-111152243D01*
X137118145Y-111071702D01*
X137154523Y-111019749D01*
X137156846Y-111014767D01*
X137156849Y-111014762D01*
X137248961Y-110817225D01*
X137248961Y-110817224D01*
X137251284Y-110812243D01*
X137267266Y-110752600D01*
X137309119Y-110596402D01*
X137309119Y-110596400D01*
X137310543Y-110591087D01*
X137330498Y-110363000D01*
X137310543Y-110134913D01*
X137300188Y-110096267D01*
X137252707Y-109919067D01*
X137252706Y-109919065D01*
X137251284Y-109913757D01*
X137225348Y-109858137D01*
X137156849Y-109711238D01*
X137156846Y-109711233D01*
X137154523Y-109706251D01*
X137054323Y-109563151D01*
X137026357Y-109523211D01*
X137026355Y-109523208D01*
X137023198Y-109518700D01*
X136861300Y-109356802D01*
X136856792Y-109353645D01*
X136856789Y-109353643D01*
X136721723Y-109259069D01*
X136673749Y-109225477D01*
X136668767Y-109223154D01*
X136668762Y-109223151D01*
X136471225Y-109131039D01*
X136471224Y-109131039D01*
X136466243Y-109128716D01*
X136460935Y-109127294D01*
X136460933Y-109127293D01*
X136250402Y-109070881D01*
X136250400Y-109070881D01*
X136245087Y-109069457D01*
X136017000Y-109049502D01*
X135788913Y-109069457D01*
X135783600Y-109070881D01*
X135783598Y-109070881D01*
X135671028Y-109101044D01*
X135600052Y-109099354D01*
X135549322Y-109068432D01*
X133238067Y-106757177D01*
X133227199Y-106744785D01*
X133213719Y-106727217D01*
X133208693Y-106720667D01*
X133102857Y-106639457D01*
X133086553Y-106626946D01*
X133078928Y-106623788D01*
X133078927Y-106623787D01*
X133044893Y-106609690D01*
X132951946Y-106571190D01*
X132944317Y-106568030D01*
X132936129Y-106566952D01*
X132830004Y-106552980D01*
X132829999Y-106552980D01*
X132791680Y-106547935D01*
X132783492Y-106549013D01*
X132761547Y-106551902D01*
X132745101Y-106552980D01*
X114086380Y-106552980D01*
X114018259Y-106532978D01*
X113997285Y-106516075D01*
X110224210Y-102743000D01*
X116923502Y-102743000D01*
X116943457Y-102971087D01*
X116944881Y-102976400D01*
X116944881Y-102976402D01*
X116983694Y-103121251D01*
X117002716Y-103192243D01*
X117005039Y-103197224D01*
X117005039Y-103197225D01*
X117097151Y-103394762D01*
X117097154Y-103394767D01*
X117099477Y-103399749D01*
X117135855Y-103451702D01*
X117200902Y-103544598D01*
X117230802Y-103587300D01*
X117392700Y-103749198D01*
X117397208Y-103752355D01*
X117397211Y-103752357D01*
X117426014Y-103772525D01*
X117580251Y-103880523D01*
X117585233Y-103882846D01*
X117585238Y-103882849D01*
X117752638Y-103960908D01*
X117787757Y-103977284D01*
X117793065Y-103978706D01*
X117793067Y-103978707D01*
X118003598Y-104035119D01*
X118003600Y-104035119D01*
X118008913Y-104036543D01*
X118237000Y-104056498D01*
X118465087Y-104036543D01*
X118470400Y-104035119D01*
X118470402Y-104035119D01*
X118680933Y-103978707D01*
X118680935Y-103978706D01*
X118686243Y-103977284D01*
X118721362Y-103960908D01*
X118888762Y-103882849D01*
X118888767Y-103882846D01*
X118893749Y-103880523D01*
X119047986Y-103772525D01*
X119076789Y-103752357D01*
X119076792Y-103752355D01*
X119081300Y-103749198D01*
X119243198Y-103587300D01*
X119273099Y-103544598D01*
X119338145Y-103451702D01*
X119374523Y-103399749D01*
X119376846Y-103394767D01*
X119376849Y-103394762D01*
X119393081Y-103359951D01*
X119439998Y-103306666D01*
X119508275Y-103287205D01*
X119576235Y-103307747D01*
X119621471Y-103359951D01*
X119637586Y-103394511D01*
X119643069Y-103404007D01*
X119768028Y-103582467D01*
X119775084Y-103590875D01*
X119929125Y-103744916D01*
X119937533Y-103751972D01*
X120115993Y-103876931D01*
X120125489Y-103882414D01*
X120322947Y-103974490D01*
X120333239Y-103978236D01*
X120505503Y-104024394D01*
X120519599Y-104024058D01*
X120523000Y-104016116D01*
X120523000Y-104010967D01*
X121031000Y-104010967D01*
X121034973Y-104024498D01*
X121043522Y-104025727D01*
X121220761Y-103978236D01*
X121231053Y-103974490D01*
X121428511Y-103882414D01*
X121438007Y-103876931D01*
X121616467Y-103751972D01*
X121624875Y-103744916D01*
X121778916Y-103590875D01*
X121785972Y-103582467D01*
X121910931Y-103404007D01*
X121916414Y-103394511D01*
X121932529Y-103359951D01*
X121979446Y-103306666D01*
X122047723Y-103287205D01*
X122115683Y-103307747D01*
X122160919Y-103359951D01*
X122177151Y-103394762D01*
X122177154Y-103394767D01*
X122179477Y-103399749D01*
X122215855Y-103451702D01*
X122280902Y-103544598D01*
X122310802Y-103587300D01*
X122472700Y-103749198D01*
X122477208Y-103752355D01*
X122477211Y-103752357D01*
X122506014Y-103772525D01*
X122660251Y-103880523D01*
X122665233Y-103882846D01*
X122665238Y-103882849D01*
X122832638Y-103960908D01*
X122867757Y-103977284D01*
X122873065Y-103978706D01*
X122873067Y-103978707D01*
X123083598Y-104035119D01*
X123083600Y-104035119D01*
X123088913Y-104036543D01*
X123317000Y-104056498D01*
X123545087Y-104036543D01*
X123550400Y-104035119D01*
X123550402Y-104035119D01*
X123760933Y-103978707D01*
X123760935Y-103978706D01*
X123766243Y-103977284D01*
X123801362Y-103960908D01*
X123968762Y-103882849D01*
X123968767Y-103882846D01*
X123973749Y-103880523D01*
X124127986Y-103772525D01*
X124156789Y-103752357D01*
X124156792Y-103752355D01*
X124161300Y-103749198D01*
X124323198Y-103587300D01*
X124353099Y-103544598D01*
X124418145Y-103451702D01*
X124454523Y-103399749D01*
X124456846Y-103394767D01*
X124456849Y-103394762D01*
X124472805Y-103360543D01*
X124519722Y-103307258D01*
X124587999Y-103287797D01*
X124655959Y-103308339D01*
X124701195Y-103360543D01*
X124717151Y-103394762D01*
X124717154Y-103394767D01*
X124719477Y-103399749D01*
X124755855Y-103451702D01*
X124820902Y-103544598D01*
X124850802Y-103587300D01*
X125012700Y-103749198D01*
X125017208Y-103752355D01*
X125017211Y-103752357D01*
X125046014Y-103772525D01*
X125200251Y-103880523D01*
X125205233Y-103882846D01*
X125205238Y-103882849D01*
X125372638Y-103960908D01*
X125407757Y-103977284D01*
X125413065Y-103978706D01*
X125413067Y-103978707D01*
X125623598Y-104035119D01*
X125623600Y-104035119D01*
X125628913Y-104036543D01*
X125857000Y-104056498D01*
X126085087Y-104036543D01*
X126090400Y-104035119D01*
X126090402Y-104035119D01*
X126300933Y-103978707D01*
X126300935Y-103978706D01*
X126306243Y-103977284D01*
X126341362Y-103960908D01*
X126508762Y-103882849D01*
X126508767Y-103882846D01*
X126513749Y-103880523D01*
X126667986Y-103772525D01*
X126696789Y-103752357D01*
X126696792Y-103752355D01*
X126701300Y-103749198D01*
X126863198Y-103587300D01*
X126893099Y-103544598D01*
X126958145Y-103451702D01*
X126994523Y-103399749D01*
X126996846Y-103394767D01*
X126996849Y-103394762D01*
X127012805Y-103360543D01*
X127059722Y-103307258D01*
X127127999Y-103287797D01*
X127195959Y-103308339D01*
X127241195Y-103360543D01*
X127257151Y-103394762D01*
X127257154Y-103394767D01*
X127259477Y-103399749D01*
X127295855Y-103451702D01*
X127360902Y-103544598D01*
X127390802Y-103587300D01*
X127552700Y-103749198D01*
X127557208Y-103752355D01*
X127557211Y-103752357D01*
X127586014Y-103772525D01*
X127740251Y-103880523D01*
X127745233Y-103882846D01*
X127745238Y-103882849D01*
X127912638Y-103960908D01*
X127947757Y-103977284D01*
X127953065Y-103978706D01*
X127953067Y-103978707D01*
X128163598Y-104035119D01*
X128163600Y-104035119D01*
X128168913Y-104036543D01*
X128397000Y-104056498D01*
X128625087Y-104036543D01*
X128630400Y-104035119D01*
X128630402Y-104035119D01*
X128742972Y-104004956D01*
X128813948Y-104006646D01*
X128864678Y-104037568D01*
X130236613Y-105409503D01*
X130247480Y-105421894D01*
X130265987Y-105446013D01*
X130327404Y-105493139D01*
X130388127Y-105539734D01*
X130395753Y-105542893D01*
X130395755Y-105542894D01*
X130447043Y-105564138D01*
X130522733Y-105595490D01*
X130522736Y-105595491D01*
X130530363Y-105598650D01*
X130538551Y-105599728D01*
X130644676Y-105613700D01*
X130644681Y-105613700D01*
X130683000Y-105618745D01*
X130691188Y-105617667D01*
X130694546Y-105617225D01*
X130713132Y-105614778D01*
X130729579Y-105613700D01*
X137749620Y-105613700D01*
X137817741Y-105633702D01*
X137838715Y-105650605D01*
X140650762Y-108462652D01*
X140684788Y-108524964D01*
X140683084Y-108585418D01*
X140646989Y-108715570D01*
X140646441Y-108720700D01*
X140646440Y-108720704D01*
X140636654Y-108812281D01*
X140623251Y-108937695D01*
X140623548Y-108942848D01*
X140623548Y-108942851D01*
X140630848Y-109069457D01*
X140636110Y-109160715D01*
X140637247Y-109165761D01*
X140637248Y-109165767D01*
X140655442Y-109246498D01*
X140685222Y-109378639D01*
X140723461Y-109472811D01*
X140755383Y-109551425D01*
X140769266Y-109585616D01*
X140771965Y-109590020D01*
X140877277Y-109761874D01*
X140885987Y-109776088D01*
X141032250Y-109944938D01*
X141204126Y-110087632D01*
X141252941Y-110116157D01*
X141277445Y-110130476D01*
X141326169Y-110182114D01*
X141339240Y-110251897D01*
X141312509Y-110317669D01*
X141272055Y-110351027D01*
X141259607Y-110357507D01*
X141255474Y-110360610D01*
X141255471Y-110360612D01*
X141085100Y-110488530D01*
X141080965Y-110491635D01*
X141077393Y-110495373D01*
X140959974Y-110618245D01*
X140926629Y-110653138D01*
X140923715Y-110657410D01*
X140923714Y-110657411D01*
X140858781Y-110752600D01*
X140800743Y-110837680D01*
X140785003Y-110871590D01*
X140716230Y-111019749D01*
X140706688Y-111040305D01*
X140646989Y-111255570D01*
X140623251Y-111477695D01*
X140623548Y-111482848D01*
X140623548Y-111482851D01*
X140634686Y-111676019D01*
X140636110Y-111700715D01*
X140637247Y-111705761D01*
X140637248Y-111705767D01*
X140657119Y-111793939D01*
X140685222Y-111918639D01*
X140769266Y-112125616D01*
X140771965Y-112130020D01*
X140838574Y-112238716D01*
X140885987Y-112316088D01*
X141032250Y-112484938D01*
X141204126Y-112627632D01*
X141397000Y-112740338D01*
X141605692Y-112820030D01*
X141610760Y-112821061D01*
X141610763Y-112821062D01*
X141718017Y-112842883D01*
X141824597Y-112864567D01*
X141829772Y-112864757D01*
X141829774Y-112864757D01*
X142042673Y-112872564D01*
X142042677Y-112872564D01*
X142047837Y-112872753D01*
X142052957Y-112872097D01*
X142052959Y-112872097D01*
X142264288Y-112845025D01*
X142264289Y-112845025D01*
X142269416Y-112844368D01*
X142346512Y-112821238D01*
X142478429Y-112781661D01*
X142478434Y-112781659D01*
X142483384Y-112780174D01*
X142683994Y-112681896D01*
X142865860Y-112552173D01*
X143024096Y-112394489D01*
X143051459Y-112356410D01*
X143151435Y-112217277D01*
X143154453Y-112213077D01*
X143164699Y-112192347D01*
X143251136Y-112017453D01*
X143251137Y-112017451D01*
X143253430Y-112012811D01*
X143305775Y-111840523D01*
X143316865Y-111804023D01*
X143316865Y-111804021D01*
X143318370Y-111799069D01*
X143347529Y-111577590D01*
X143349156Y-111511000D01*
X143330852Y-111288361D01*
X143276431Y-111071702D01*
X143187354Y-110866840D01*
X143066014Y-110679277D01*
X142915670Y-110514051D01*
X142911619Y-110510852D01*
X142911615Y-110510848D01*
X142744414Y-110378800D01*
X142744410Y-110378798D01*
X142740359Y-110375598D01*
X142699053Y-110352796D01*
X142649084Y-110302364D01*
X142634312Y-110232921D01*
X142659428Y-110166516D01*
X142686780Y-110139909D01*
X142747964Y-110096267D01*
X142865860Y-110012173D01*
X142894054Y-109984078D01*
X142959292Y-109919067D01*
X143024096Y-109854489D01*
X143083594Y-109771689D01*
X143151435Y-109677277D01*
X143154453Y-109673077D01*
X143182075Y-109617189D01*
X143251136Y-109477453D01*
X143251137Y-109477451D01*
X143253430Y-109472811D01*
X143300983Y-109316295D01*
X143316865Y-109264023D01*
X143316865Y-109264021D01*
X143318370Y-109259069D01*
X143347529Y-109037590D01*
X143347611Y-109034240D01*
X143349074Y-108974365D01*
X143349074Y-108974361D01*
X143349156Y-108971000D01*
X143330852Y-108748361D01*
X143276431Y-108531702D01*
X143187354Y-108326840D01*
X143122395Y-108226429D01*
X143068822Y-108143617D01*
X143068820Y-108143614D01*
X143066014Y-108139277D01*
X142915670Y-107974051D01*
X142911619Y-107970852D01*
X142911615Y-107970848D01*
X142744414Y-107838800D01*
X142744410Y-107838798D01*
X142740359Y-107835598D01*
X142699053Y-107812796D01*
X142649084Y-107762364D01*
X142634312Y-107692921D01*
X142659428Y-107626516D01*
X142686780Y-107599909D01*
X142842175Y-107489067D01*
X142865860Y-107472173D01*
X143024096Y-107314489D01*
X143063099Y-107260211D01*
X143151435Y-107137277D01*
X143154453Y-107133077D01*
X143176386Y-107088700D01*
X143251136Y-106937453D01*
X143251137Y-106937451D01*
X143253430Y-106932811D01*
X143310557Y-106744785D01*
X143316865Y-106724023D01*
X143316865Y-106724021D01*
X143318370Y-106719069D01*
X143347529Y-106497590D01*
X143347611Y-106494240D01*
X143349074Y-106434365D01*
X143349074Y-106434361D01*
X143349156Y-106431000D01*
X143330852Y-106208361D01*
X143276431Y-105991702D01*
X143187354Y-105786840D01*
X143088285Y-105633702D01*
X143068822Y-105603617D01*
X143068820Y-105603614D01*
X143066014Y-105599277D01*
X142915670Y-105434051D01*
X142911619Y-105430852D01*
X142911615Y-105430848D01*
X142744414Y-105298800D01*
X142744410Y-105298798D01*
X142740359Y-105295598D01*
X142699053Y-105272796D01*
X142649084Y-105222364D01*
X142634312Y-105152921D01*
X142659428Y-105086516D01*
X142686780Y-105059909D01*
X142753548Y-105012284D01*
X142865860Y-104932173D01*
X142885737Y-104912366D01*
X143014353Y-104784198D01*
X143024096Y-104774489D01*
X143154453Y-104593077D01*
X143192989Y-104515106D01*
X143251136Y-104397453D01*
X143251137Y-104397451D01*
X143253430Y-104392811D01*
X143318370Y-104179069D01*
X143347529Y-103957590D01*
X143348178Y-103931039D01*
X143349074Y-103894365D01*
X143349074Y-103894361D01*
X143349156Y-103891000D01*
X143330852Y-103668361D01*
X143276431Y-103451702D01*
X143187354Y-103246840D01*
X143106107Y-103121251D01*
X143068822Y-103063617D01*
X143068820Y-103063614D01*
X143066014Y-103059277D01*
X143062540Y-103055459D01*
X143062533Y-103055450D01*
X142918435Y-102897088D01*
X142887383Y-102833242D01*
X142895779Y-102762744D01*
X142940956Y-102707976D01*
X142967400Y-102694307D01*
X143074052Y-102654325D01*
X143089649Y-102645786D01*
X143191724Y-102569285D01*
X143204285Y-102556724D01*
X143280786Y-102454649D01*
X143289324Y-102439054D01*
X143334478Y-102318606D01*
X143338105Y-102303351D01*
X143343631Y-102252486D01*
X143344000Y-102245672D01*
X143344000Y-101623115D01*
X143339525Y-101607876D01*
X143338135Y-101606671D01*
X143330452Y-101605000D01*
X140646116Y-101605000D01*
X140630877Y-101609475D01*
X140629672Y-101610865D01*
X140628001Y-101618548D01*
X140628001Y-102245669D01*
X140628371Y-102252490D01*
X140633895Y-102303352D01*
X140637521Y-102318604D01*
X140682676Y-102439054D01*
X140691214Y-102454649D01*
X140767715Y-102556724D01*
X140780276Y-102569285D01*
X140882351Y-102645786D01*
X140897946Y-102654324D01*
X141006827Y-102695142D01*
X141063591Y-102737784D01*
X141088291Y-102804345D01*
X141073083Y-102873694D01*
X141053691Y-102900175D01*
X141025378Y-102929803D01*
X140926629Y-103033138D01*
X140923715Y-103037410D01*
X140923714Y-103037411D01*
X140866522Y-103121251D01*
X140800743Y-103217680D01*
X140758661Y-103308339D01*
X140716230Y-103399749D01*
X140706688Y-103420305D01*
X140646989Y-103635570D01*
X140623251Y-103857695D01*
X140623548Y-103862848D01*
X140623548Y-103862851D01*
X140627683Y-103934559D01*
X140611636Y-104003718D01*
X140560745Y-104053223D01*
X140491169Y-104067355D01*
X140424998Y-104041628D01*
X140412797Y-104030907D01*
X138744387Y-102362497D01*
X138733519Y-102350105D01*
X138720039Y-102332537D01*
X138715013Y-102325987D01*
X138637386Y-102266423D01*
X138592873Y-102232266D01*
X138551213Y-102215010D01*
X138465084Y-102179334D01*
X138458266Y-102176510D01*
X138450637Y-102173350D01*
X138442449Y-102172272D01*
X138336324Y-102158300D01*
X138336319Y-102158300D01*
X138298000Y-102153255D01*
X138289812Y-102154333D01*
X138267867Y-102157222D01*
X138251421Y-102158300D01*
X137268313Y-102158300D01*
X137200192Y-102138298D01*
X137159194Y-102095300D01*
X137156847Y-102091236D01*
X137154523Y-102086251D01*
X137098944Y-102006876D01*
X137026357Y-101903211D01*
X137026355Y-101903208D01*
X137023198Y-101898700D01*
X136861300Y-101736802D01*
X136856792Y-101733645D01*
X136856789Y-101733643D01*
X136751276Y-101659762D01*
X136673749Y-101605477D01*
X136668767Y-101603154D01*
X136668762Y-101603151D01*
X136471225Y-101511039D01*
X136471224Y-101511039D01*
X136466243Y-101508716D01*
X136460935Y-101507294D01*
X136460933Y-101507293D01*
X136250402Y-101450881D01*
X136250400Y-101450881D01*
X136245087Y-101449457D01*
X136017000Y-101429502D01*
X135788913Y-101449457D01*
X135783600Y-101450881D01*
X135783598Y-101450881D01*
X135573067Y-101507293D01*
X135573065Y-101507294D01*
X135567757Y-101508716D01*
X135562776Y-101511039D01*
X135562775Y-101511039D01*
X135365238Y-101603151D01*
X135365233Y-101603154D01*
X135360251Y-101605477D01*
X135282724Y-101659762D01*
X135177211Y-101733643D01*
X135177208Y-101733645D01*
X135172700Y-101736802D01*
X135010802Y-101898700D01*
X135007645Y-101903208D01*
X135007643Y-101903211D01*
X134952902Y-101981389D01*
X134879477Y-102086251D01*
X134877154Y-102091233D01*
X134877151Y-102091238D01*
X134861195Y-102125457D01*
X134814278Y-102178742D01*
X134746001Y-102198203D01*
X134678041Y-102177661D01*
X134632805Y-102125457D01*
X134616849Y-102091238D01*
X134616846Y-102091233D01*
X134614523Y-102086251D01*
X134541098Y-101981389D01*
X134486357Y-101903211D01*
X134486355Y-101903208D01*
X134483198Y-101898700D01*
X134321300Y-101736802D01*
X134316792Y-101733645D01*
X134316789Y-101733643D01*
X134211276Y-101659762D01*
X134133749Y-101605477D01*
X134128767Y-101603154D01*
X134128762Y-101603151D01*
X133931225Y-101511039D01*
X133931224Y-101511039D01*
X133926243Y-101508716D01*
X133920935Y-101507294D01*
X133920933Y-101507293D01*
X133710402Y-101450881D01*
X133710400Y-101450881D01*
X133705087Y-101449457D01*
X133477000Y-101429502D01*
X133248913Y-101449457D01*
X133243600Y-101450881D01*
X133243598Y-101450881D01*
X133033067Y-101507293D01*
X133033065Y-101507294D01*
X133027757Y-101508716D01*
X133022776Y-101511039D01*
X133022775Y-101511039D01*
X132825238Y-101603151D01*
X132825233Y-101603154D01*
X132820251Y-101605477D01*
X132742724Y-101659762D01*
X132637211Y-101733643D01*
X132637208Y-101733645D01*
X132632700Y-101736802D01*
X132470802Y-101898700D01*
X132467645Y-101903208D01*
X132467643Y-101903211D01*
X132412902Y-101981389D01*
X132339477Y-102086251D01*
X132337154Y-102091233D01*
X132337151Y-102091238D01*
X132321195Y-102125457D01*
X132274278Y-102178742D01*
X132206001Y-102198203D01*
X132138041Y-102177661D01*
X132092805Y-102125457D01*
X132076849Y-102091238D01*
X132076846Y-102091233D01*
X132074523Y-102086251D01*
X132001098Y-101981389D01*
X131946357Y-101903211D01*
X131946355Y-101903208D01*
X131943198Y-101898700D01*
X131781300Y-101736802D01*
X131776792Y-101733645D01*
X131776789Y-101733643D01*
X131671276Y-101659762D01*
X131593749Y-101605477D01*
X131588767Y-101603154D01*
X131588762Y-101603151D01*
X131391225Y-101511039D01*
X131391224Y-101511039D01*
X131386243Y-101508716D01*
X131380935Y-101507294D01*
X131380933Y-101507293D01*
X131170402Y-101450881D01*
X131170400Y-101450881D01*
X131165087Y-101449457D01*
X130937000Y-101429502D01*
X130708913Y-101449457D01*
X130703600Y-101450881D01*
X130703598Y-101450881D01*
X130493067Y-101507293D01*
X130493065Y-101507294D01*
X130487757Y-101508716D01*
X130482776Y-101511039D01*
X130482775Y-101511039D01*
X130285238Y-101603151D01*
X130285233Y-101603154D01*
X130280251Y-101605477D01*
X130202724Y-101659762D01*
X130097211Y-101733643D01*
X130097208Y-101733645D01*
X130092700Y-101736802D01*
X129930802Y-101898700D01*
X129927645Y-101903208D01*
X129927643Y-101903211D01*
X129872902Y-101981389D01*
X129799477Y-102086251D01*
X129797154Y-102091233D01*
X129797151Y-102091238D01*
X129781195Y-102125457D01*
X129734278Y-102178742D01*
X129666001Y-102198203D01*
X129598041Y-102177661D01*
X129552805Y-102125457D01*
X129536849Y-102091238D01*
X129536846Y-102091233D01*
X129534523Y-102086251D01*
X129461098Y-101981389D01*
X129406357Y-101903211D01*
X129406355Y-101903208D01*
X129403198Y-101898700D01*
X129241300Y-101736802D01*
X129236792Y-101733645D01*
X129236789Y-101733643D01*
X129131276Y-101659762D01*
X129053749Y-101605477D01*
X129048767Y-101603154D01*
X129048762Y-101603151D01*
X128851225Y-101511039D01*
X128851224Y-101511039D01*
X128846243Y-101508716D01*
X128840935Y-101507294D01*
X128840933Y-101507293D01*
X128630402Y-101450881D01*
X128630400Y-101450881D01*
X128625087Y-101449457D01*
X128397000Y-101429502D01*
X128168913Y-101449457D01*
X128163600Y-101450881D01*
X128163598Y-101450881D01*
X127953067Y-101507293D01*
X127953065Y-101507294D01*
X127947757Y-101508716D01*
X127942776Y-101511039D01*
X127942775Y-101511039D01*
X127745238Y-101603151D01*
X127745233Y-101603154D01*
X127740251Y-101605477D01*
X127662724Y-101659762D01*
X127557211Y-101733643D01*
X127557208Y-101733645D01*
X127552700Y-101736802D01*
X127390802Y-101898700D01*
X127387645Y-101903208D01*
X127387643Y-101903211D01*
X127332902Y-101981389D01*
X127259477Y-102086251D01*
X127257154Y-102091233D01*
X127257151Y-102091238D01*
X127241195Y-102125457D01*
X127194278Y-102178742D01*
X127126001Y-102198203D01*
X127058041Y-102177661D01*
X127012805Y-102125457D01*
X126996849Y-102091238D01*
X126996846Y-102091233D01*
X126994523Y-102086251D01*
X126921098Y-101981389D01*
X126866357Y-101903211D01*
X126866355Y-101903208D01*
X126863198Y-101898700D01*
X126701300Y-101736802D01*
X126696792Y-101733645D01*
X126696789Y-101733643D01*
X126591276Y-101659762D01*
X126513749Y-101605477D01*
X126508767Y-101603154D01*
X126508762Y-101603151D01*
X126311225Y-101511039D01*
X126311224Y-101511039D01*
X126306243Y-101508716D01*
X126300935Y-101507294D01*
X126300933Y-101507293D01*
X126090402Y-101450881D01*
X126090400Y-101450881D01*
X126085087Y-101449457D01*
X125857000Y-101429502D01*
X125628913Y-101449457D01*
X125623600Y-101450881D01*
X125623598Y-101450881D01*
X125413067Y-101507293D01*
X125413065Y-101507294D01*
X125407757Y-101508716D01*
X125402776Y-101511039D01*
X125402775Y-101511039D01*
X125205238Y-101603151D01*
X125205233Y-101603154D01*
X125200251Y-101605477D01*
X125122724Y-101659762D01*
X125017211Y-101733643D01*
X125017208Y-101733645D01*
X125012700Y-101736802D01*
X124850802Y-101898700D01*
X124847645Y-101903208D01*
X124847643Y-101903211D01*
X124792902Y-101981389D01*
X124719477Y-102086251D01*
X124717154Y-102091233D01*
X124717151Y-102091238D01*
X124701195Y-102125457D01*
X124654278Y-102178742D01*
X124586001Y-102198203D01*
X124518041Y-102177661D01*
X124472805Y-102125457D01*
X124456849Y-102091238D01*
X124456846Y-102091233D01*
X124454523Y-102086251D01*
X124381098Y-101981389D01*
X124326357Y-101903211D01*
X124326355Y-101903208D01*
X124323198Y-101898700D01*
X124161300Y-101736802D01*
X124156792Y-101733645D01*
X124156789Y-101733643D01*
X124051276Y-101659762D01*
X123973749Y-101605477D01*
X123968767Y-101603154D01*
X123968762Y-101603151D01*
X123771225Y-101511039D01*
X123771224Y-101511039D01*
X123766243Y-101508716D01*
X123760935Y-101507294D01*
X123760933Y-101507293D01*
X123550402Y-101450881D01*
X123550400Y-101450881D01*
X123545087Y-101449457D01*
X123317000Y-101429502D01*
X123088913Y-101449457D01*
X123083600Y-101450881D01*
X123083598Y-101450881D01*
X122873067Y-101507293D01*
X122873065Y-101507294D01*
X122867757Y-101508716D01*
X122862776Y-101511039D01*
X122862775Y-101511039D01*
X122665238Y-101603151D01*
X122665233Y-101603154D01*
X122660251Y-101605477D01*
X122582724Y-101659762D01*
X122477211Y-101733643D01*
X122477208Y-101733645D01*
X122472700Y-101736802D01*
X122310802Y-101898700D01*
X122307645Y-101903208D01*
X122307643Y-101903211D01*
X122252902Y-101981389D01*
X122179477Y-102086251D01*
X122177154Y-102091233D01*
X122177151Y-102091238D01*
X122160919Y-102126049D01*
X122114002Y-102179334D01*
X122045725Y-102198795D01*
X121977765Y-102178253D01*
X121932529Y-102126049D01*
X121916414Y-102091489D01*
X121910931Y-102081993D01*
X121785972Y-101903533D01*
X121778916Y-101895125D01*
X121624875Y-101741084D01*
X121616467Y-101734028D01*
X121438007Y-101609069D01*
X121428511Y-101603586D01*
X121231053Y-101511510D01*
X121220761Y-101507764D01*
X121048497Y-101461606D01*
X121034401Y-101461942D01*
X121031000Y-101469884D01*
X121031000Y-104010967D01*
X120523000Y-104010967D01*
X120523000Y-101475033D01*
X120519027Y-101461502D01*
X120510478Y-101460273D01*
X120333239Y-101507764D01*
X120322947Y-101511510D01*
X120125489Y-101603586D01*
X120115993Y-101609069D01*
X119937533Y-101734028D01*
X119929125Y-101741084D01*
X119775084Y-101895125D01*
X119768028Y-101903533D01*
X119643069Y-102081993D01*
X119637586Y-102091489D01*
X119621471Y-102126049D01*
X119574554Y-102179334D01*
X119506277Y-102198795D01*
X119438317Y-102178253D01*
X119393081Y-102126049D01*
X119376849Y-102091238D01*
X119376846Y-102091233D01*
X119374523Y-102086251D01*
X119301098Y-101981389D01*
X119246357Y-101903211D01*
X119246355Y-101903208D01*
X119243198Y-101898700D01*
X119081300Y-101736802D01*
X119076792Y-101733645D01*
X119076789Y-101733643D01*
X118971276Y-101659762D01*
X118893749Y-101605477D01*
X118888767Y-101603154D01*
X118888762Y-101603151D01*
X118691225Y-101511039D01*
X118691224Y-101511039D01*
X118686243Y-101508716D01*
X118680935Y-101507294D01*
X118680933Y-101507293D01*
X118470402Y-101450881D01*
X118470400Y-101450881D01*
X118465087Y-101449457D01*
X118237000Y-101429502D01*
X118008913Y-101449457D01*
X118003600Y-101450881D01*
X118003598Y-101450881D01*
X117793067Y-101507293D01*
X117793065Y-101507294D01*
X117787757Y-101508716D01*
X117782776Y-101511039D01*
X117782775Y-101511039D01*
X117585238Y-101603151D01*
X117585233Y-101603154D01*
X117580251Y-101605477D01*
X117502724Y-101659762D01*
X117397211Y-101733643D01*
X117397208Y-101733645D01*
X117392700Y-101736802D01*
X117230802Y-101898700D01*
X117227645Y-101903208D01*
X117227643Y-101903211D01*
X117172902Y-101981389D01*
X117099477Y-102086251D01*
X117097154Y-102091233D01*
X117097151Y-102091238D01*
X117025138Y-102245672D01*
X117002716Y-102293757D01*
X117001294Y-102299065D01*
X117001293Y-102299067D01*
X116951618Y-102484457D01*
X116943457Y-102514913D01*
X116923502Y-102743000D01*
X110224210Y-102743000D01*
X108560095Y-101078885D01*
X140628000Y-101078885D01*
X140632475Y-101094124D01*
X140633865Y-101095329D01*
X140641548Y-101097000D01*
X141713885Y-101097000D01*
X141729124Y-101092525D01*
X141730329Y-101091135D01*
X141732000Y-101083452D01*
X141732000Y-101078885D01*
X142240000Y-101078885D01*
X142244475Y-101094124D01*
X142245865Y-101095329D01*
X142253548Y-101097000D01*
X143325884Y-101097000D01*
X143341123Y-101092525D01*
X143342328Y-101091135D01*
X143343999Y-101083452D01*
X143343999Y-100456331D01*
X143343629Y-100449510D01*
X143338105Y-100398648D01*
X143334479Y-100383396D01*
X143289324Y-100262946D01*
X143280786Y-100247351D01*
X143204285Y-100145276D01*
X143191724Y-100132715D01*
X143089649Y-100056214D01*
X143074054Y-100047676D01*
X142953606Y-100002522D01*
X142938351Y-99998895D01*
X142887486Y-99993369D01*
X142880672Y-99993000D01*
X142258115Y-99993000D01*
X142242876Y-99997475D01*
X142241671Y-99998865D01*
X142240000Y-100006548D01*
X142240000Y-101078885D01*
X141732000Y-101078885D01*
X141732000Y-100011116D01*
X141727525Y-99995877D01*
X141726135Y-99994672D01*
X141718452Y-99993001D01*
X141091331Y-99993001D01*
X141084510Y-99993371D01*
X141033648Y-99998895D01*
X141018396Y-100002521D01*
X140897946Y-100047676D01*
X140882351Y-100056214D01*
X140780276Y-100132715D01*
X140767715Y-100145276D01*
X140691214Y-100247351D01*
X140682676Y-100262946D01*
X140637522Y-100383394D01*
X140633895Y-100398649D01*
X140628369Y-100449514D01*
X140628000Y-100456328D01*
X140628000Y-101078885D01*
X108560095Y-101078885D01*
X105338707Y-97857497D01*
X105327839Y-97845105D01*
X105314359Y-97827537D01*
X105309333Y-97820987D01*
X105219618Y-97752147D01*
X105187193Y-97727266D01*
X105179567Y-97724107D01*
X105179565Y-97724106D01*
X105145533Y-97710010D01*
X105052586Y-97671510D01*
X105044957Y-97668350D01*
X105036769Y-97667272D01*
X104930644Y-97653300D01*
X104930639Y-97653300D01*
X104892320Y-97648255D01*
X104884132Y-97649333D01*
X104862187Y-97652222D01*
X104845741Y-97653300D01*
X102768644Y-97653300D01*
X102700523Y-97633298D01*
X102659525Y-97590300D01*
X102657178Y-97586236D01*
X102654854Y-97581251D01*
X102523529Y-97393700D01*
X102361631Y-97231802D01*
X102357123Y-97228645D01*
X102357120Y-97228643D01*
X102278942Y-97173902D01*
X102174080Y-97100477D01*
X102169098Y-97098154D01*
X102169093Y-97098151D01*
X101971556Y-97006039D01*
X101971555Y-97006039D01*
X101966574Y-97003716D01*
X101961266Y-97002294D01*
X101961264Y-97002293D01*
X101858312Y-96974707D01*
X101797689Y-96937755D01*
X101766668Y-96873894D01*
X101775096Y-96803400D01*
X101820299Y-96748653D01*
X101858312Y-96731293D01*
X101961264Y-96703707D01*
X101961266Y-96703706D01*
X101966574Y-96702284D01*
X101971556Y-96699961D01*
X102169093Y-96607849D01*
X102169098Y-96607846D01*
X102174080Y-96605523D01*
X102278942Y-96532098D01*
X102357120Y-96477357D01*
X102357123Y-96477355D01*
X102361631Y-96474198D01*
X102483695Y-96352134D01*
X116928500Y-96352134D01*
X116935255Y-96414316D01*
X116986385Y-96550705D01*
X117073739Y-96667261D01*
X117190295Y-96754615D01*
X117326684Y-96805745D01*
X117388866Y-96812500D01*
X119085134Y-96812500D01*
X119147316Y-96805745D01*
X119283705Y-96754615D01*
X119329502Y-96720292D01*
X119393078Y-96672645D01*
X119393081Y-96672642D01*
X119400261Y-96667261D01*
X119405642Y-96660081D01*
X119411993Y-96653730D01*
X119414135Y-96655872D01*
X119458846Y-96622436D01*
X119529664Y-96617406D01*
X119571035Y-96635523D01*
X119571232Y-96635182D01*
X119574298Y-96636952D01*
X119575090Y-96637299D01*
X119575989Y-96637929D01*
X119585489Y-96643414D01*
X119782947Y-96735490D01*
X119793239Y-96739236D01*
X120003688Y-96795625D01*
X120014481Y-96797528D01*
X120231525Y-96816517D01*
X120242475Y-96816517D01*
X120459519Y-96797528D01*
X120470312Y-96795625D01*
X120680761Y-96739236D01*
X120691053Y-96735490D01*
X120888511Y-96643414D01*
X120898006Y-96637931D01*
X120950048Y-96601491D01*
X120958424Y-96591012D01*
X120951356Y-96577566D01*
X119966885Y-95593095D01*
X119932859Y-95530783D01*
X119934694Y-95505132D01*
X120601408Y-95505132D01*
X120601539Y-95506965D01*
X120605790Y-95513580D01*
X121311287Y-96219077D01*
X121323062Y-96225507D01*
X121335077Y-96216211D01*
X121370931Y-96165006D01*
X121376414Y-96155511D01*
X121468490Y-95958053D01*
X121472236Y-95947761D01*
X121528625Y-95737312D01*
X121530528Y-95726519D01*
X121549517Y-95509475D01*
X121549517Y-95498525D01*
X121530528Y-95281481D01*
X121528625Y-95270688D01*
X121472236Y-95060239D01*
X121468490Y-95049947D01*
X121376414Y-94852489D01*
X121370931Y-94842994D01*
X121334491Y-94790952D01*
X121324012Y-94782576D01*
X121310566Y-94789644D01*
X120609022Y-95491188D01*
X120601408Y-95505132D01*
X119934694Y-95505132D01*
X119937924Y-95459968D01*
X119966885Y-95414905D01*
X120952077Y-94429713D01*
X120958507Y-94417938D01*
X120949211Y-94405923D01*
X120898006Y-94370069D01*
X120888511Y-94364586D01*
X120691053Y-94272510D01*
X120680761Y-94268764D01*
X120470312Y-94212375D01*
X120459519Y-94210472D01*
X120242475Y-94191483D01*
X120231525Y-94191483D01*
X120014481Y-94210472D01*
X120003688Y-94212375D01*
X119793239Y-94268764D01*
X119782947Y-94272510D01*
X119585489Y-94364586D01*
X119575989Y-94370071D01*
X119575090Y-94370701D01*
X119574630Y-94370856D01*
X119571232Y-94372818D01*
X119570838Y-94372135D01*
X119507816Y-94393388D01*
X119438956Y-94376102D01*
X119413197Y-94353066D01*
X119411993Y-94354270D01*
X119405642Y-94347919D01*
X119400261Y-94340739D01*
X119393081Y-94335358D01*
X119393078Y-94335355D01*
X119304225Y-94268764D01*
X119283705Y-94253385D01*
X119147316Y-94202255D01*
X119085134Y-94195500D01*
X117388866Y-94195500D01*
X117326684Y-94202255D01*
X117190295Y-94253385D01*
X117073739Y-94340739D01*
X116986385Y-94457295D01*
X116935255Y-94593684D01*
X116928500Y-94655866D01*
X116928500Y-96352134D01*
X102483695Y-96352134D01*
X102523529Y-96312300D01*
X102654854Y-96124749D01*
X102657177Y-96119767D01*
X102657180Y-96119762D01*
X102749292Y-95922225D01*
X102749292Y-95922224D01*
X102751615Y-95917243D01*
X102805679Y-95715477D01*
X102809450Y-95701402D01*
X102809450Y-95701400D01*
X102810874Y-95696087D01*
X102830829Y-95468000D01*
X102810874Y-95239913D01*
X102806302Y-95222849D01*
X102753038Y-95024067D01*
X102753037Y-95024065D01*
X102751615Y-95018757D01*
X102749292Y-95013775D01*
X102657180Y-94816238D01*
X102657177Y-94816233D01*
X102654854Y-94811251D01*
X102546052Y-94655866D01*
X102526688Y-94628211D01*
X102526686Y-94628208D01*
X102523529Y-94623700D01*
X102361631Y-94461802D01*
X102357123Y-94458645D01*
X102357120Y-94458643D01*
X102234549Y-94372818D01*
X102174080Y-94330477D01*
X102169098Y-94328154D01*
X102169093Y-94328151D01*
X101971556Y-94236039D01*
X101971555Y-94236039D01*
X101966574Y-94233716D01*
X101961266Y-94232294D01*
X101961264Y-94232293D01*
X101858312Y-94204707D01*
X101797689Y-94167755D01*
X101766668Y-94103894D01*
X101775096Y-94033400D01*
X101820299Y-93978653D01*
X101858312Y-93961293D01*
X101961264Y-93933707D01*
X101961266Y-93933706D01*
X101966574Y-93932284D01*
X101971556Y-93929961D01*
X102169093Y-93837849D01*
X102169098Y-93837846D01*
X102174080Y-93835523D01*
X102278942Y-93762098D01*
X102357120Y-93707357D01*
X102357123Y-93707355D01*
X102361631Y-93704198D01*
X102523529Y-93542300D01*
X102654854Y-93354749D01*
X102657177Y-93349767D01*
X102657180Y-93349762D01*
X102749292Y-93152225D01*
X102749292Y-93152224D01*
X102751615Y-93147243D01*
X102805679Y-92945477D01*
X102809450Y-92931402D01*
X102809450Y-92931400D01*
X102810874Y-92926087D01*
X102830829Y-92698000D01*
X102810874Y-92469913D01*
X102806302Y-92452849D01*
X102753038Y-92254067D01*
X102753037Y-92254065D01*
X102751615Y-92248757D01*
X102749292Y-92243775D01*
X102657180Y-92046238D01*
X102657177Y-92046233D01*
X102654854Y-92041251D01*
X102523529Y-91853700D01*
X102361631Y-91691802D01*
X102357123Y-91688645D01*
X102357120Y-91688643D01*
X102278942Y-91633902D01*
X102174080Y-91560477D01*
X102169098Y-91558154D01*
X102169093Y-91558151D01*
X101994408Y-91476695D01*
X101941123Y-91429778D01*
X101921662Y-91361501D01*
X101942204Y-91293541D01*
X101996226Y-91247475D01*
X102047658Y-91236500D01*
X102365465Y-91236500D01*
X102427647Y-91229745D01*
X102564036Y-91178615D01*
X102680592Y-91091261D01*
X102767946Y-90974705D01*
X102819076Y-90838316D01*
X102825831Y-90776134D01*
X102825831Y-89079866D01*
X102819076Y-89017684D01*
X102767946Y-88881295D01*
X102680592Y-88764739D01*
X102564036Y-88677385D01*
X102427647Y-88626255D01*
X102365465Y-88619500D01*
X100669197Y-88619500D01*
X100607015Y-88626255D01*
X100470626Y-88677385D01*
X100354070Y-88764739D01*
X100266716Y-88881295D01*
X100215586Y-89017684D01*
X100208831Y-89079866D01*
X100208831Y-90776134D01*
X100215586Y-90838316D01*
X100266716Y-90974705D01*
X100354070Y-91091261D01*
X100470626Y-91178615D01*
X100607015Y-91229745D01*
X100669197Y-91236500D01*
X100987004Y-91236500D01*
X101055125Y-91256502D01*
X101101618Y-91310158D01*
X101111722Y-91380432D01*
X101082228Y-91445012D01*
X101040254Y-91476695D01*
X100865569Y-91558151D01*
X100865564Y-91558154D01*
X100860582Y-91560477D01*
X100755720Y-91633902D01*
X100677542Y-91688643D01*
X100677539Y-91688645D01*
X100673031Y-91691802D01*
X100511133Y-91853700D01*
X100379808Y-92041251D01*
X100377485Y-92046233D01*
X100377482Y-92046238D01*
X100285370Y-92243775D01*
X100283047Y-92248757D01*
X100281625Y-92254065D01*
X100281624Y-92254067D01*
X100228360Y-92452849D01*
X100223788Y-92469913D01*
X100203833Y-92698000D01*
X100223788Y-92926087D01*
X100225212Y-92931400D01*
X100225212Y-92931402D01*
X100228984Y-92945477D01*
X100283047Y-93147243D01*
X100285370Y-93152224D01*
X100285370Y-93152225D01*
X100377482Y-93349762D01*
X100377485Y-93349767D01*
X100379808Y-93354749D01*
X100511133Y-93542300D01*
X100673031Y-93704198D01*
X100677539Y-93707355D01*
X100677542Y-93707357D01*
X100755720Y-93762098D01*
X100860582Y-93835523D01*
X100865564Y-93837846D01*
X100865569Y-93837849D01*
X101063106Y-93929961D01*
X101068088Y-93932284D01*
X101073396Y-93933706D01*
X101073398Y-93933707D01*
X101176350Y-93961293D01*
X101236973Y-93998245D01*
X101267994Y-94062106D01*
X101259566Y-94132600D01*
X101214363Y-94187347D01*
X101176350Y-94204707D01*
X101073398Y-94232293D01*
X101073396Y-94232294D01*
X101068088Y-94233716D01*
X101063107Y-94236039D01*
X101063106Y-94236039D01*
X100865569Y-94328151D01*
X100865564Y-94328154D01*
X100860582Y-94330477D01*
X100800113Y-94372818D01*
X100677542Y-94458643D01*
X100677539Y-94458645D01*
X100673031Y-94461802D01*
X100511133Y-94623700D01*
X100507976Y-94628208D01*
X100507974Y-94628211D01*
X100488610Y-94655866D01*
X100379808Y-94811251D01*
X100377485Y-94816233D01*
X100377482Y-94816238D01*
X100285370Y-95013775D01*
X100283047Y-95018757D01*
X100281625Y-95024065D01*
X100281624Y-95024067D01*
X100228360Y-95222849D01*
X100223788Y-95239913D01*
X100203833Y-95468000D01*
X100223788Y-95696087D01*
X100225212Y-95701400D01*
X100225212Y-95701402D01*
X100228984Y-95715477D01*
X100283047Y-95917243D01*
X100285370Y-95922224D01*
X100285370Y-95922225D01*
X100377482Y-96119762D01*
X100377485Y-96119767D01*
X100379808Y-96124749D01*
X100511133Y-96312300D01*
X100673031Y-96474198D01*
X100677539Y-96477355D01*
X100677542Y-96477357D01*
X100755720Y-96532098D01*
X100860582Y-96605523D01*
X100865564Y-96607846D01*
X100865569Y-96607849D01*
X101063106Y-96699961D01*
X101068088Y-96702284D01*
X101073396Y-96703706D01*
X101073398Y-96703707D01*
X101176350Y-96731293D01*
X101236973Y-96768245D01*
X101267994Y-96832106D01*
X101259566Y-96902600D01*
X101214363Y-96957347D01*
X101176350Y-96974707D01*
X101073398Y-97002293D01*
X101073396Y-97002294D01*
X101068088Y-97003716D01*
X101063107Y-97006039D01*
X101063106Y-97006039D01*
X100865569Y-97098151D01*
X100865564Y-97098154D01*
X100860582Y-97100477D01*
X100755720Y-97173902D01*
X100677542Y-97228643D01*
X100677539Y-97228645D01*
X100673031Y-97231802D01*
X100511133Y-97393700D01*
X100379808Y-97581251D01*
X100377485Y-97586233D01*
X100377482Y-97586238D01*
X100309377Y-97732292D01*
X100283047Y-97788757D01*
X100281625Y-97794065D01*
X100281624Y-97794067D01*
X100228360Y-97992849D01*
X100223788Y-98009913D01*
X100203833Y-98238000D01*
X100223788Y-98466087D01*
X100225212Y-98471400D01*
X100225212Y-98471402D01*
X100228984Y-98485477D01*
X100283047Y-98687243D01*
X100285370Y-98692224D01*
X100285370Y-98692225D01*
X100377482Y-98889762D01*
X100377485Y-98889767D01*
X100379808Y-98894749D01*
X100511133Y-99082300D01*
X100673031Y-99244198D01*
X100677539Y-99247355D01*
X100677542Y-99247357D01*
X100755720Y-99302098D01*
X100860582Y-99375523D01*
X100865564Y-99377846D01*
X100865569Y-99377849D01*
X101063106Y-99469961D01*
X101068088Y-99472284D01*
X101073396Y-99473706D01*
X101073398Y-99473707D01*
X101176350Y-99501293D01*
X101236973Y-99538245D01*
X101267994Y-99602106D01*
X101259566Y-99672600D01*
X101214363Y-99727347D01*
X101176350Y-99744707D01*
X101073398Y-99772293D01*
X101073396Y-99772294D01*
X101068088Y-99773716D01*
X101063107Y-99776039D01*
X101063106Y-99776039D01*
X100865569Y-99868151D01*
X100865564Y-99868154D01*
X100860582Y-99870477D01*
X100755720Y-99943902D01*
X100677542Y-99998643D01*
X100677539Y-99998645D01*
X100673031Y-100001802D01*
X100511133Y-100163700D01*
X100379808Y-100351251D01*
X100377485Y-100356233D01*
X100377482Y-100356238D01*
X100285370Y-100553775D01*
X100283047Y-100558757D01*
X100281625Y-100564065D01*
X100281624Y-100564067D01*
X100228360Y-100762849D01*
X100223788Y-100779913D01*
X100203833Y-101008000D01*
X100223788Y-101236087D01*
X100225212Y-101241400D01*
X100225212Y-101241402D01*
X100228984Y-101255477D01*
X100283047Y-101457243D01*
X100285370Y-101462224D01*
X100285370Y-101462225D01*
X100377482Y-101659762D01*
X100377485Y-101659767D01*
X100379808Y-101664749D01*
X100511133Y-101852300D01*
X100673031Y-102014198D01*
X100677539Y-102017355D01*
X100677542Y-102017357D01*
X100755720Y-102072098D01*
X100860582Y-102145523D01*
X100865564Y-102147846D01*
X100865569Y-102147849D01*
X101009598Y-102215010D01*
X101068088Y-102242284D01*
X101073396Y-102243706D01*
X101073398Y-102243707D01*
X101176350Y-102271293D01*
X101236973Y-102308245D01*
X101267994Y-102372106D01*
X101259566Y-102442600D01*
X101214363Y-102497347D01*
X101176350Y-102514707D01*
X101073398Y-102542293D01*
X101073396Y-102542294D01*
X101068088Y-102543716D01*
X101063107Y-102546039D01*
X101063106Y-102546039D01*
X100865569Y-102638151D01*
X100865564Y-102638154D01*
X100860582Y-102640477D01*
X100783705Y-102694307D01*
X100677542Y-102768643D01*
X100677539Y-102768645D01*
X100673031Y-102771802D01*
X100511133Y-102933700D01*
X100507976Y-102938208D01*
X100507974Y-102938211D01*
X100453233Y-103016389D01*
X100379808Y-103121251D01*
X100377485Y-103126233D01*
X100377482Y-103126238D01*
X100321245Y-103246840D01*
X100283047Y-103328757D01*
X100281625Y-103334065D01*
X100281624Y-103334067D01*
X100228360Y-103532849D01*
X100223788Y-103549913D01*
X100203833Y-103778000D01*
X98929166Y-103778000D01*
X98935096Y-103728400D01*
X98980299Y-103673653D01*
X99018312Y-103656293D01*
X99121264Y-103628707D01*
X99121266Y-103628706D01*
X99126574Y-103627284D01*
X99131556Y-103624961D01*
X99329093Y-103532849D01*
X99329098Y-103532846D01*
X99334080Y-103530523D01*
X99484358Y-103425297D01*
X99517120Y-103402357D01*
X99517123Y-103402355D01*
X99521631Y-103399198D01*
X99683529Y-103237300D01*
X99700264Y-103213401D01*
X99761296Y-103126238D01*
X99814854Y-103049749D01*
X99817177Y-103044767D01*
X99817180Y-103044762D01*
X99909292Y-102847225D01*
X99909292Y-102847224D01*
X99911615Y-102842243D01*
X99965679Y-102640477D01*
X99969450Y-102626402D01*
X99969450Y-102626400D01*
X99970874Y-102621087D01*
X99990829Y-102393000D01*
X99970874Y-102164913D01*
X99966302Y-102147849D01*
X99913038Y-101949067D01*
X99913037Y-101949065D01*
X99911615Y-101943757D01*
X99909292Y-101938775D01*
X99817180Y-101741238D01*
X99817177Y-101741233D01*
X99814854Y-101736251D01*
X99683529Y-101548700D01*
X99521631Y-101386802D01*
X99517123Y-101383645D01*
X99517120Y-101383643D01*
X99438942Y-101328902D01*
X99334080Y-101255477D01*
X99329098Y-101253154D01*
X99329093Y-101253151D01*
X99131556Y-101161039D01*
X99131555Y-101161039D01*
X99126574Y-101158716D01*
X99121266Y-101157294D01*
X99121264Y-101157293D01*
X99018312Y-101129707D01*
X98957689Y-101092755D01*
X98926668Y-101028894D01*
X98935096Y-100958400D01*
X98980299Y-100903653D01*
X99018312Y-100886293D01*
X99121264Y-100858707D01*
X99121266Y-100858706D01*
X99126574Y-100857284D01*
X99131556Y-100854961D01*
X99329093Y-100762849D01*
X99329098Y-100762846D01*
X99334080Y-100760523D01*
X99438942Y-100687098D01*
X99517120Y-100632357D01*
X99517123Y-100632355D01*
X99521631Y-100629198D01*
X99683529Y-100467300D01*
X99814854Y-100279749D01*
X99817177Y-100274767D01*
X99817180Y-100274762D01*
X99909292Y-100077225D01*
X99909292Y-100077224D01*
X99911615Y-100072243D01*
X99932078Y-99995877D01*
X99969450Y-99856402D01*
X99969450Y-99856400D01*
X99970874Y-99851087D01*
X99990829Y-99623000D01*
X99970874Y-99394913D01*
X99966302Y-99377849D01*
X99913038Y-99179067D01*
X99913037Y-99179065D01*
X99911615Y-99173757D01*
X99909292Y-99168775D01*
X99817180Y-98971238D01*
X99817177Y-98971233D01*
X99814854Y-98966251D01*
X99683529Y-98778700D01*
X99521631Y-98616802D01*
X99517123Y-98613645D01*
X99517120Y-98613643D01*
X99438942Y-98558902D01*
X99334080Y-98485477D01*
X99329098Y-98483154D01*
X99329093Y-98483151D01*
X99131556Y-98391039D01*
X99131555Y-98391039D01*
X99126574Y-98388716D01*
X99121266Y-98387294D01*
X99121264Y-98387293D01*
X99018312Y-98359707D01*
X98957689Y-98322755D01*
X98926668Y-98258894D01*
X98935096Y-98188400D01*
X98980299Y-98133653D01*
X99018312Y-98116293D01*
X99121264Y-98088707D01*
X99121266Y-98088706D01*
X99126574Y-98087284D01*
X99131556Y-98084961D01*
X99329093Y-97992849D01*
X99329098Y-97992846D01*
X99334080Y-97990523D01*
X99438942Y-97917098D01*
X99517120Y-97862357D01*
X99517123Y-97862355D01*
X99521631Y-97859198D01*
X99683529Y-97697300D01*
X99701588Y-97671510D01*
X99761296Y-97586238D01*
X99814854Y-97509749D01*
X99817177Y-97504767D01*
X99817180Y-97504762D01*
X99909292Y-97307225D01*
X99909292Y-97307224D01*
X99911615Y-97302243D01*
X99965679Y-97100477D01*
X99969450Y-97086402D01*
X99969450Y-97086400D01*
X99970874Y-97081087D01*
X99990829Y-96853000D01*
X99970874Y-96624913D01*
X99969450Y-96619598D01*
X99913038Y-96409067D01*
X99913037Y-96409065D01*
X99911615Y-96403757D01*
X99885950Y-96348717D01*
X99817180Y-96201238D01*
X99817177Y-96201233D01*
X99814854Y-96196251D01*
X99683529Y-96008700D01*
X99521631Y-95846802D01*
X99517123Y-95843645D01*
X99517120Y-95843643D01*
X99438942Y-95788902D01*
X99334080Y-95715477D01*
X99329098Y-95713154D01*
X99329093Y-95713151D01*
X99131556Y-95621039D01*
X99131555Y-95621039D01*
X99126574Y-95618716D01*
X99121266Y-95617294D01*
X99121264Y-95617293D01*
X99018312Y-95589707D01*
X98957689Y-95552755D01*
X98926668Y-95488894D01*
X98935096Y-95418400D01*
X98980299Y-95363653D01*
X99018312Y-95346293D01*
X99121264Y-95318707D01*
X99121266Y-95318706D01*
X99126574Y-95317284D01*
X99131556Y-95314961D01*
X99329093Y-95222849D01*
X99329098Y-95222846D01*
X99334080Y-95220523D01*
X99438942Y-95147098D01*
X99517120Y-95092357D01*
X99517123Y-95092355D01*
X99521631Y-95089198D01*
X99683529Y-94927300D01*
X99814854Y-94739749D01*
X99817177Y-94734767D01*
X99817180Y-94734762D01*
X99909292Y-94537225D01*
X99909292Y-94537224D01*
X99911615Y-94532243D01*
X99929445Y-94465703D01*
X99969450Y-94316402D01*
X99969450Y-94316400D01*
X99970874Y-94311087D01*
X99990829Y-94083000D01*
X99970874Y-93854913D01*
X99966302Y-93837849D01*
X99913038Y-93639067D01*
X99913037Y-93639065D01*
X99911615Y-93633757D01*
X99909292Y-93628775D01*
X99817180Y-93431238D01*
X99817177Y-93431233D01*
X99814854Y-93426251D01*
X99683529Y-93238700D01*
X99521631Y-93076802D01*
X99517123Y-93073645D01*
X99517120Y-93073643D01*
X99438942Y-93018902D01*
X99334080Y-92945477D01*
X99329098Y-92943154D01*
X99329093Y-92943151D01*
X99131556Y-92851039D01*
X99131555Y-92851039D01*
X99126574Y-92848716D01*
X99121266Y-92847294D01*
X99121264Y-92847293D01*
X99018312Y-92819707D01*
X98957689Y-92782755D01*
X98926668Y-92718894D01*
X98935096Y-92648400D01*
X98980299Y-92593653D01*
X99018312Y-92576293D01*
X99121264Y-92548707D01*
X99121266Y-92548706D01*
X99126574Y-92547284D01*
X99131556Y-92544961D01*
X99329093Y-92452849D01*
X99329098Y-92452846D01*
X99334080Y-92450523D01*
X99438942Y-92377098D01*
X99517120Y-92322357D01*
X99517123Y-92322355D01*
X99521631Y-92319198D01*
X99683529Y-92157300D01*
X99814854Y-91969749D01*
X99817177Y-91964767D01*
X99817180Y-91964762D01*
X99909292Y-91767225D01*
X99909292Y-91767224D01*
X99911615Y-91762243D01*
X99965679Y-91560477D01*
X99969450Y-91546402D01*
X99969450Y-91546400D01*
X99970874Y-91541087D01*
X99990829Y-91313000D01*
X99970874Y-91084913D01*
X99911615Y-90863757D01*
X99899752Y-90838316D01*
X99817180Y-90661238D01*
X99817177Y-90661233D01*
X99814854Y-90656251D01*
X99683529Y-90468700D01*
X99521631Y-90306802D01*
X99517123Y-90303645D01*
X99517120Y-90303643D01*
X99438942Y-90248902D01*
X99334080Y-90175477D01*
X99329098Y-90173154D01*
X99329093Y-90173151D01*
X99131556Y-90081039D01*
X99131555Y-90081039D01*
X99126574Y-90078716D01*
X99121266Y-90077294D01*
X99121264Y-90077293D01*
X98910733Y-90020881D01*
X98910731Y-90020881D01*
X98905418Y-90019457D01*
X98677331Y-89999502D01*
X98449244Y-90019457D01*
X98443931Y-90020881D01*
X98443929Y-90020881D01*
X98233398Y-90077293D01*
X98233396Y-90077294D01*
X98228088Y-90078716D01*
X98223107Y-90081039D01*
X98223106Y-90081039D01*
X98025569Y-90173151D01*
X98025564Y-90173154D01*
X98020582Y-90175477D01*
X97915720Y-90248902D01*
X97837542Y-90303643D01*
X97837539Y-90303645D01*
X97833031Y-90306802D01*
X97671133Y-90468700D01*
X97539808Y-90656251D01*
X97537485Y-90661233D01*
X97537482Y-90661238D01*
X97454910Y-90838316D01*
X97443047Y-90863757D01*
X97383788Y-91084913D01*
X97363833Y-91313000D01*
X97383788Y-91541087D01*
X97385212Y-91546400D01*
X97385212Y-91546402D01*
X97388984Y-91560477D01*
X97443047Y-91762243D01*
X97445370Y-91767224D01*
X97445370Y-91767225D01*
X97537482Y-91964762D01*
X97537485Y-91964767D01*
X97539808Y-91969749D01*
X97671133Y-92157300D01*
X97833031Y-92319198D01*
X97837539Y-92322355D01*
X97837542Y-92322357D01*
X97915720Y-92377098D01*
X98020582Y-92450523D01*
X98025564Y-92452846D01*
X98025569Y-92452849D01*
X98223106Y-92544961D01*
X98228088Y-92547284D01*
X98233396Y-92548706D01*
X98233398Y-92548707D01*
X98336350Y-92576293D01*
X98396973Y-92613245D01*
X98427994Y-92677106D01*
X98419566Y-92747600D01*
X98374363Y-92802347D01*
X98336350Y-92819707D01*
X98233398Y-92847293D01*
X98233396Y-92847294D01*
X98228088Y-92848716D01*
X98223107Y-92851039D01*
X98223106Y-92851039D01*
X98025569Y-92943151D01*
X98025564Y-92943154D01*
X98020582Y-92945477D01*
X97915720Y-93018902D01*
X97837542Y-93073643D01*
X97837539Y-93073645D01*
X97833031Y-93076802D01*
X97671133Y-93238700D01*
X97539808Y-93426251D01*
X97537485Y-93431233D01*
X97537482Y-93431238D01*
X97445370Y-93628775D01*
X97443047Y-93633757D01*
X97441625Y-93639065D01*
X97441624Y-93639067D01*
X97388360Y-93837849D01*
X97383788Y-93854913D01*
X97363833Y-94083000D01*
X97383788Y-94311087D01*
X97385212Y-94316400D01*
X97385212Y-94316402D01*
X97425218Y-94465703D01*
X97443047Y-94532243D01*
X97445370Y-94537224D01*
X97445370Y-94537225D01*
X97537482Y-94734762D01*
X97537485Y-94734767D01*
X97539808Y-94739749D01*
X97671133Y-94927300D01*
X97833031Y-95089198D01*
X97837539Y-95092355D01*
X97837542Y-95092357D01*
X97915720Y-95147098D01*
X98020582Y-95220523D01*
X98025564Y-95222846D01*
X98025569Y-95222849D01*
X98223106Y-95314961D01*
X98228088Y-95317284D01*
X98233396Y-95318706D01*
X98233398Y-95318707D01*
X98336350Y-95346293D01*
X98396973Y-95383245D01*
X98427994Y-95447106D01*
X98419566Y-95517600D01*
X98374363Y-95572347D01*
X98336350Y-95589707D01*
X98233398Y-95617293D01*
X98233396Y-95617294D01*
X98228088Y-95618716D01*
X98223107Y-95621039D01*
X98223106Y-95621039D01*
X98025569Y-95713151D01*
X98025564Y-95713154D01*
X98020582Y-95715477D01*
X97915720Y-95788902D01*
X97837542Y-95843643D01*
X97837539Y-95843645D01*
X97833031Y-95846802D01*
X97671133Y-96008700D01*
X97539808Y-96196251D01*
X97537485Y-96201233D01*
X97537482Y-96201238D01*
X97468712Y-96348717D01*
X97443047Y-96403757D01*
X97441625Y-96409065D01*
X97441624Y-96409067D01*
X97385212Y-96619598D01*
X97383788Y-96624913D01*
X97363833Y-96853000D01*
X97383788Y-97081087D01*
X97385212Y-97086400D01*
X97385212Y-97086402D01*
X97388984Y-97100477D01*
X97443047Y-97302243D01*
X97445370Y-97307224D01*
X97445370Y-97307225D01*
X97537482Y-97504762D01*
X97537485Y-97504767D01*
X97539808Y-97509749D01*
X97593366Y-97586238D01*
X97653075Y-97671510D01*
X97671133Y-97697300D01*
X97833031Y-97859198D01*
X97837539Y-97862355D01*
X97837542Y-97862357D01*
X97915720Y-97917098D01*
X98020582Y-97990523D01*
X98025564Y-97992846D01*
X98025569Y-97992849D01*
X98223106Y-98084961D01*
X98228088Y-98087284D01*
X98233396Y-98088706D01*
X98233398Y-98088707D01*
X98336350Y-98116293D01*
X98396973Y-98153245D01*
X98427994Y-98217106D01*
X98419566Y-98287600D01*
X98374363Y-98342347D01*
X98336350Y-98359707D01*
X98233398Y-98387293D01*
X98233396Y-98387294D01*
X98228088Y-98388716D01*
X98223107Y-98391039D01*
X98223106Y-98391039D01*
X98025569Y-98483151D01*
X98025564Y-98483154D01*
X98020582Y-98485477D01*
X97915720Y-98558902D01*
X97837542Y-98613643D01*
X97837539Y-98613645D01*
X97833031Y-98616802D01*
X97671133Y-98778700D01*
X97539808Y-98966251D01*
X97537485Y-98971233D01*
X97537482Y-98971238D01*
X97445370Y-99168775D01*
X97443047Y-99173757D01*
X97441625Y-99179065D01*
X97441624Y-99179067D01*
X97388360Y-99377849D01*
X97383788Y-99394913D01*
X97363833Y-99623000D01*
X97383788Y-99851087D01*
X97385212Y-99856400D01*
X97385212Y-99856402D01*
X97422585Y-99995877D01*
X97443047Y-100072243D01*
X97445370Y-100077224D01*
X97445370Y-100077225D01*
X97537482Y-100274762D01*
X97537485Y-100274767D01*
X97539808Y-100279749D01*
X97671133Y-100467300D01*
X97833031Y-100629198D01*
X97837539Y-100632355D01*
X97837542Y-100632357D01*
X97915720Y-100687098D01*
X98020582Y-100760523D01*
X98025564Y-100762846D01*
X98025569Y-100762849D01*
X98223106Y-100854961D01*
X98228088Y-100857284D01*
X98233396Y-100858706D01*
X98233398Y-100858707D01*
X98336350Y-100886293D01*
X98396973Y-100923245D01*
X98427994Y-100987106D01*
X98419566Y-101057600D01*
X98374363Y-101112347D01*
X98336350Y-101129707D01*
X98233398Y-101157293D01*
X98233396Y-101157294D01*
X98228088Y-101158716D01*
X98223107Y-101161039D01*
X98223106Y-101161039D01*
X98025569Y-101253151D01*
X98025564Y-101253154D01*
X98020582Y-101255477D01*
X97915720Y-101328902D01*
X97837542Y-101383643D01*
X97837539Y-101383645D01*
X97833031Y-101386802D01*
X97671133Y-101548700D01*
X97539808Y-101736251D01*
X97537485Y-101741233D01*
X97537482Y-101741238D01*
X97445370Y-101938775D01*
X97443047Y-101943757D01*
X97441625Y-101949065D01*
X97441624Y-101949067D01*
X97388360Y-102147849D01*
X97383788Y-102164913D01*
X97363833Y-102393000D01*
X97383788Y-102621087D01*
X97385212Y-102626400D01*
X97385212Y-102626402D01*
X97388984Y-102640477D01*
X97443047Y-102842243D01*
X97445370Y-102847224D01*
X97445370Y-102847225D01*
X97537482Y-103044762D01*
X97537485Y-103044767D01*
X97539808Y-103049749D01*
X97593366Y-103126238D01*
X97654399Y-103213401D01*
X97671133Y-103237300D01*
X97833031Y-103399198D01*
X97837539Y-103402355D01*
X97837542Y-103402357D01*
X97870304Y-103425297D01*
X98020582Y-103530523D01*
X98025564Y-103532846D01*
X98025569Y-103532849D01*
X98223106Y-103624961D01*
X98228088Y-103627284D01*
X98233396Y-103628706D01*
X98233398Y-103628707D01*
X98336350Y-103656293D01*
X98396973Y-103693245D01*
X98427994Y-103757106D01*
X98419566Y-103827600D01*
X98374363Y-103882347D01*
X98336350Y-103899707D01*
X98233398Y-103927293D01*
X98233396Y-103927294D01*
X98228088Y-103928716D01*
X98223107Y-103931039D01*
X98223106Y-103931039D01*
X98025569Y-104023151D01*
X98025564Y-104023154D01*
X98020582Y-104025477D01*
X97941694Y-104080715D01*
X97837542Y-104153643D01*
X97837539Y-104153645D01*
X97833031Y-104156802D01*
X97671133Y-104318700D01*
X97539808Y-104506251D01*
X97537485Y-104511233D01*
X97537482Y-104511238D01*
X97479256Y-104636105D01*
X97443047Y-104713757D01*
X97441625Y-104719065D01*
X97441624Y-104719067D01*
X97385212Y-104929598D01*
X97383788Y-104934913D01*
X97363833Y-105163000D01*
X97383788Y-105391087D01*
X97385212Y-105396400D01*
X97385212Y-105396402D01*
X97440736Y-105603617D01*
X97443047Y-105612243D01*
X97445370Y-105617224D01*
X97445370Y-105617225D01*
X97537482Y-105814762D01*
X97537485Y-105814767D01*
X97539808Y-105819749D01*
X97586894Y-105886994D01*
X97663725Y-105996720D01*
X97671133Y-106007300D01*
X97833031Y-106169198D01*
X97837539Y-106172355D01*
X97837542Y-106172357D01*
X97888961Y-106208361D01*
X98020582Y-106300523D01*
X98025564Y-106302846D01*
X98025569Y-106302849D01*
X98223106Y-106394961D01*
X98228088Y-106397284D01*
X98233396Y-106398706D01*
X98233398Y-106398707D01*
X98336350Y-106426293D01*
X98396973Y-106463245D01*
X98427994Y-106527106D01*
X98419566Y-106597600D01*
X98374363Y-106652347D01*
X98336350Y-106669707D01*
X98233398Y-106697293D01*
X98233396Y-106697294D01*
X98228088Y-106698716D01*
X98223107Y-106701039D01*
X98223106Y-106701039D01*
X98025569Y-106793151D01*
X98025564Y-106793154D01*
X98020582Y-106795477D01*
X97947657Y-106846540D01*
X97837542Y-106923643D01*
X97837539Y-106923645D01*
X97833031Y-106926802D01*
X97671133Y-107088700D01*
X97539808Y-107276251D01*
X97537485Y-107281233D01*
X97537482Y-107281238D01*
X97521977Y-107314489D01*
X97443047Y-107483757D01*
X97441625Y-107489065D01*
X97441624Y-107489067D01*
X97402518Y-107635012D01*
X97383788Y-107704913D01*
X97363833Y-107933000D01*
X97383788Y-108161087D01*
X97385212Y-108166400D01*
X97385212Y-108166402D01*
X97427037Y-108322492D01*
X97443047Y-108382243D01*
X97445370Y-108387224D01*
X97445370Y-108387225D01*
X97537482Y-108584762D01*
X97537485Y-108584767D01*
X97539808Y-108589749D01*
X97593366Y-108666238D01*
X97650870Y-108748361D01*
X97671133Y-108777300D01*
X97833031Y-108939198D01*
X97837539Y-108942355D01*
X97837542Y-108942357D01*
X97885811Y-108976155D01*
X98020582Y-109070523D01*
X98025564Y-109072846D01*
X98025569Y-109072849D01*
X98223106Y-109164961D01*
X98228088Y-109167284D01*
X98233396Y-109168706D01*
X98233398Y-109168707D01*
X98336350Y-109196293D01*
X98396973Y-109233245D01*
X98427994Y-109297106D01*
X98419566Y-109367600D01*
X98374363Y-109422347D01*
X98336350Y-109439707D01*
X98233398Y-109467293D01*
X98233396Y-109467294D01*
X98228088Y-109468716D01*
X98223107Y-109471039D01*
X98223106Y-109471039D01*
X98025569Y-109563151D01*
X98025564Y-109563154D01*
X98020582Y-109565477D01*
X97946730Y-109617189D01*
X97837542Y-109693643D01*
X97837539Y-109693645D01*
X97833031Y-109696802D01*
X97671133Y-109858700D01*
X97667976Y-109863208D01*
X97667974Y-109863211D01*
X97628863Y-109919067D01*
X97539808Y-110046251D01*
X97537485Y-110051233D01*
X97537482Y-110051238D01*
X97452763Y-110232921D01*
X97443047Y-110253757D01*
X97441625Y-110259065D01*
X97441624Y-110259067D01*
X97388360Y-110457849D01*
X97383788Y-110474913D01*
X97363833Y-110703000D01*
X97383788Y-110931087D01*
X97385212Y-110936400D01*
X97385212Y-110936402D01*
X97422811Y-111076720D01*
X97443047Y-111152243D01*
X97445370Y-111157224D01*
X97445370Y-111157225D01*
X97537482Y-111354762D01*
X97537485Y-111354767D01*
X97539808Y-111359749D01*
X97593366Y-111436238D01*
X97648072Y-111514365D01*
X97671133Y-111547300D01*
X97833031Y-111709198D01*
X97837539Y-111712355D01*
X97837542Y-111712357D01*
X97915720Y-111767098D01*
X98020582Y-111840523D01*
X98025564Y-111842846D01*
X98025569Y-111842849D01*
X98188103Y-111918639D01*
X98228088Y-111937284D01*
X98233396Y-111938706D01*
X98233398Y-111938707D01*
X98336350Y-111966293D01*
X98396973Y-112003245D01*
X98427994Y-112067106D01*
X98419566Y-112137600D01*
X98374363Y-112192347D01*
X98336350Y-112209707D01*
X98233398Y-112237293D01*
X98233396Y-112237294D01*
X98228088Y-112238716D01*
X98223107Y-112241039D01*
X98223106Y-112241039D01*
X98025569Y-112333151D01*
X98025564Y-112333154D01*
X98020582Y-112335477D01*
X97931095Y-112398137D01*
X97837542Y-112463643D01*
X97837539Y-112463645D01*
X97833031Y-112466802D01*
X97671133Y-112628700D01*
X97539808Y-112816251D01*
X97537485Y-112821233D01*
X97537482Y-112821238D01*
X97445370Y-113018775D01*
X97443047Y-113023757D01*
X97441625Y-113029065D01*
X97441624Y-113029067D01*
X97388360Y-113227849D01*
X97383788Y-113244913D01*
X97363833Y-113473000D01*
X97383788Y-113701087D01*
X97385212Y-113706400D01*
X97385212Y-113706402D01*
X97388984Y-113720477D01*
X97443047Y-113922243D01*
X97445370Y-113927224D01*
X97445370Y-113927225D01*
X97537482Y-114124762D01*
X97537485Y-114124767D01*
X97539808Y-114129749D01*
X97671133Y-114317300D01*
X97833031Y-114479198D01*
X97837539Y-114482355D01*
X97837542Y-114482357D01*
X97915720Y-114537098D01*
X98020582Y-114610523D01*
X98025564Y-114612846D01*
X98025569Y-114612849D01*
X98223106Y-114704961D01*
X98228088Y-114707284D01*
X98233396Y-114708706D01*
X98233398Y-114708707D01*
X98336350Y-114736293D01*
X98396973Y-114773245D01*
X98427994Y-114837106D01*
X98419566Y-114907600D01*
X98374363Y-114962347D01*
X98336350Y-114979707D01*
X98233398Y-115007293D01*
X98233396Y-115007294D01*
X98228088Y-115008716D01*
X98223107Y-115011039D01*
X98223106Y-115011039D01*
X98025569Y-115103151D01*
X98025564Y-115103154D01*
X98020582Y-115105477D01*
X97915720Y-115178902D01*
X97837542Y-115233643D01*
X97837539Y-115233645D01*
X97833031Y-115236802D01*
X97671133Y-115398700D01*
X97667976Y-115403208D01*
X97667974Y-115403211D01*
X97617765Y-115474917D01*
X97539808Y-115586251D01*
X97537485Y-115591233D01*
X97537482Y-115591238D01*
X97474091Y-115727183D01*
X97443047Y-115793757D01*
X97441625Y-115799065D01*
X97441624Y-115799067D01*
X97388360Y-115997849D01*
X97383788Y-116014913D01*
X97363833Y-116243000D01*
X97383788Y-116471087D01*
X97385212Y-116476400D01*
X97385212Y-116476402D01*
X97435821Y-116665274D01*
X97443047Y-116692243D01*
X97445370Y-116697224D01*
X97445370Y-116697225D01*
X97537482Y-116894762D01*
X97537485Y-116894767D01*
X97539808Y-116899749D01*
X97593366Y-116976238D01*
X97660596Y-117072251D01*
X97671133Y-117087300D01*
X97833031Y-117249198D01*
X97837539Y-117252355D01*
X97837542Y-117252357D01*
X97884257Y-117285067D01*
X98020582Y-117380523D01*
X98025564Y-117382846D01*
X98025569Y-117382849D01*
X98223106Y-117474961D01*
X98228088Y-117477284D01*
X98233396Y-117478706D01*
X98233398Y-117478707D01*
X98336350Y-117506293D01*
X98396973Y-117543245D01*
X98427994Y-117607106D01*
X98419566Y-117677600D01*
X98374363Y-117732347D01*
X98336350Y-117749707D01*
X98233398Y-117777293D01*
X98233396Y-117777294D01*
X98228088Y-117778716D01*
X98223107Y-117781039D01*
X98223106Y-117781039D01*
X98025569Y-117873151D01*
X98025564Y-117873154D01*
X98020582Y-117875477D01*
X97942760Y-117929969D01*
X97837542Y-118003643D01*
X97837539Y-118003645D01*
X97833031Y-118006802D01*
X97671133Y-118168700D01*
X97539808Y-118356251D01*
X97537485Y-118361233D01*
X97537482Y-118361238D01*
X97445370Y-118558775D01*
X97443047Y-118563757D01*
X97441625Y-118569065D01*
X97441624Y-118569067D01*
X97388508Y-118767297D01*
X97383788Y-118784913D01*
X97363833Y-119013000D01*
X97383788Y-119241087D01*
X97385212Y-119246400D01*
X97385212Y-119246402D01*
X97388984Y-119260477D01*
X97443047Y-119462243D01*
X97445370Y-119467224D01*
X97445370Y-119467225D01*
X97537482Y-119664762D01*
X97537485Y-119664767D01*
X97539808Y-119669749D01*
X97671133Y-119857300D01*
X97833031Y-120019198D01*
X97837539Y-120022355D01*
X97837542Y-120022357D01*
X97899881Y-120066007D01*
X98020582Y-120150523D01*
X98025564Y-120152846D01*
X98025569Y-120152849D01*
X98223106Y-120244961D01*
X98228088Y-120247284D01*
X98233396Y-120248706D01*
X98233398Y-120248707D01*
X98336350Y-120276293D01*
X98396973Y-120313245D01*
X98427994Y-120377106D01*
X98419566Y-120447600D01*
X98374363Y-120502347D01*
X98336350Y-120519707D01*
X98233398Y-120547293D01*
X98233396Y-120547294D01*
X98228088Y-120548716D01*
X98223107Y-120551039D01*
X98223106Y-120551039D01*
X98025569Y-120643151D01*
X98025564Y-120643154D01*
X98020582Y-120645477D01*
X97915720Y-120718902D01*
X97837542Y-120773643D01*
X97837539Y-120773645D01*
X97833031Y-120776802D01*
X97671133Y-120938700D01*
X97539808Y-121126251D01*
X97537485Y-121131233D01*
X97537482Y-121131238D01*
X97445370Y-121328775D01*
X97443047Y-121333757D01*
X97441625Y-121339065D01*
X97441624Y-121339067D01*
X97388360Y-121537849D01*
X97383788Y-121554913D01*
X97363833Y-121783000D01*
X89398976Y-121783000D01*
X89398976Y-80703354D01*
X89400476Y-80683969D01*
X89402781Y-80669168D01*
X89402781Y-80669165D01*
X89404162Y-80660296D01*
X89402724Y-80649298D01*
X89402267Y-80620614D01*
X89412401Y-80517721D01*
X89417220Y-80493495D01*
X89453380Y-80374293D01*
X89462832Y-80351473D01*
X89521546Y-80241626D01*
X89535269Y-80221088D01*
X89614288Y-80124803D01*
X89631753Y-80107338D01*
X89728038Y-80028319D01*
X89748576Y-80014596D01*
X89858423Y-79955882D01*
X89881243Y-79946430D01*
X90000445Y-79910270D01*
X90024669Y-79905451D01*
X90120813Y-79895982D01*
X90136852Y-79896434D01*
X90136861Y-79895721D01*
X90145834Y-79895831D01*
X90154706Y-79897212D01*
X90163607Y-79896048D01*
X90163612Y-79896048D01*
X90186283Y-79893083D01*
X90202600Y-79892019D01*
X146000700Y-79883008D01*
X146020103Y-79884508D01*
G37*
%TD.AperFunction*%
%TD*%
M02*
