M48
; DRILL file {KiCad (6.0.2)} date Wed Feb 16 12:22:29 2022
; FORMAT={-:-/ absolute / inch / decimal}
; #@! TF.CreationDate,2022-02-16T12:22:29-06:00
; #@! TF.GenerationSoftware,Kicad,Pcbnew,(6.0.2)
; #@! TF.FileFunction,MixedPlating,1,2
FMAT,2
INCH
; #@! TA.AperFunction,Plated,PTH,ComponentDrill
T1C0.0394
%
G90
G05
T1
X4.75Y-1.55
X4.75Y-1.65
X4.85Y-1.55
X4.85Y-1.65
X4.95Y-1.55
X4.95Y-1.65
X5.05Y-1.55
X5.05Y-1.65
X5.15Y-1.55
X5.15Y-1.65
X5.2Y-2.15
X5.2Y-2.25
X5.2Y-2.35
X5.2Y-2.45
X5.2Y-2.55
X5.2Y-2.65
X5.2Y-2.75
X5.2Y-2.85
X5.2Y-2.95
X5.2Y-3.05
X5.2Y-3.15
X5.2Y-3.25
X5.2Y-3.35
X5.25Y-1.55
X5.25Y-1.65
X5.35Y-1.55
X5.35Y-1.65
X5.45Y-1.55
X5.45Y-1.65
X5.5Y-2.15
X5.5Y-2.25
X5.5Y-2.35
X5.5Y-2.45
X5.5Y-2.55
X5.5Y-2.65
X5.5Y-2.75
X5.5Y-2.85
X5.5Y-2.95
X5.5Y-3.05
X5.5Y-3.15
X5.5Y-3.25
X5.5Y-3.35
X5.55Y-1.55
X5.55Y-1.65
X5.65Y-1.55
X5.65Y-1.65
X5.75Y-1.55
X5.75Y-1.65
X5.85Y-1.55
X5.85Y-1.65
X5.95Y-1.55
X5.95Y-1.65
T0
M30
