%TF.GenerationSoftware,KiCad,Pcbnew,(6.0.2)*%
%TF.CreationDate,2022-02-16T12:22:25-06:00*%
%TF.ProjectId,BreadboardAdapter26,42726561-6462-46f6-9172-644164617074,rev?*%
%TF.SameCoordinates,Original*%
%TF.FileFunction,Soldermask,Bot*%
%TF.FilePolarity,Negative*%
%FSLAX46Y46*%
G04 Gerber Fmt 4.6, Leading zero omitted, Abs format (unit mm)*
G04 Created by KiCad (PCBNEW (6.0.2)) date 2022-02-16 12:22:25*
%MOMM*%
%LPD*%
G01*
G04 APERTURE LIST*
G04 Aperture macros list*
%AMRoundRect*
0 Rectangle with rounded corners*
0 $1 Rounding radius*
0 $2 $3 $4 $5 $6 $7 $8 $9 X,Y pos of 4 corners*
0 Add a 4 corners polygon primitive as box body*
4,1,4,$2,$3,$4,$5,$6,$7,$8,$9,$2,$3,0*
0 Add four circle primitives for the rounded corners*
1,1,$1+$1,$2,$3*
1,1,$1+$1,$4,$5*
1,1,$1+$1,$6,$7*
1,1,$1+$1,$8,$9*
0 Add four rect primitives between the rounded corners*
20,1,$1+$1,$2,$3,$4,$5,0*
20,1,$1+$1,$4,$5,$6,$7,0*
20,1,$1+$1,$6,$7,$8,$9,0*
20,1,$1+$1,$8,$9,$2,$3,0*%
G04 Aperture macros list end*
%ADD10RoundRect,0.250000X-0.600000X0.600000X-0.600000X-0.600000X0.600000X-0.600000X0.600000X0.600000X0*%
%ADD11C,1.700000*%
%ADD12R,1.700000X1.700000*%
%ADD13O,1.700000X1.700000*%
G04 APERTURE END LIST*
D10*
%TO.C,J1*%
X151130000Y-39370000D03*
D11*
X151130000Y-41910000D03*
X148590000Y-39370000D03*
X148590000Y-41910000D03*
X146050000Y-39370000D03*
X146050000Y-41910000D03*
X143510000Y-39370000D03*
X143510000Y-41910000D03*
X140970000Y-39370000D03*
X140970000Y-41910000D03*
X138430000Y-39370000D03*
X138430000Y-41910000D03*
X135890000Y-39370000D03*
X135890000Y-41910000D03*
X133350000Y-39370000D03*
X133350000Y-41910000D03*
X130810000Y-39370000D03*
X130810000Y-41910000D03*
X128270000Y-39370000D03*
X128270000Y-41910000D03*
X125730000Y-39370000D03*
X125730000Y-41910000D03*
X123190000Y-39370000D03*
X123190000Y-41910000D03*
X120650000Y-39370000D03*
X120650000Y-41910000D03*
%TD*%
D12*
%TO.C,J3*%
X139700000Y-54610000D03*
D13*
X139700000Y-57150000D03*
X139700000Y-59690000D03*
X139700000Y-62230000D03*
X139700000Y-64770000D03*
X139700000Y-67310000D03*
X139700000Y-69850000D03*
X139700000Y-72390000D03*
X139700000Y-74930000D03*
X139700000Y-77470000D03*
X139700000Y-80010000D03*
X139700000Y-82550000D03*
X139700000Y-85090000D03*
%TD*%
D12*
%TO.C,J2*%
X132080000Y-54610000D03*
D13*
X132080000Y-57150000D03*
X132080000Y-59690000D03*
X132080000Y-62230000D03*
X132080000Y-64770000D03*
X132080000Y-67310000D03*
X132080000Y-69850000D03*
X132080000Y-72390000D03*
X132080000Y-74930000D03*
X132080000Y-77470000D03*
X132080000Y-80010000D03*
X132080000Y-82550000D03*
X132080000Y-85090000D03*
%TD*%
M02*
