%TF.GenerationSoftware,KiCad,Pcbnew,(6.0.2)*%
%TF.CreationDate,2022-02-16T12:22:25-06:00*%
%TF.ProjectId,BreadboardAdapter26,42726561-6462-46f6-9172-644164617074,rev?*%
%TF.SameCoordinates,Original*%
%TF.FileFunction,Legend,Bot*%
%TF.FilePolarity,Positive*%
%FSLAX46Y46*%
G04 Gerber Fmt 4.6, Leading zero omitted, Abs format (unit mm)*
G04 Created by KiCad (PCBNEW (6.0.2)) date 2022-02-16 12:22:25*
%MOMM*%
%LPD*%
G01*
G04 APERTURE LIST*
%ADD10C,0.150000*%
%ADD11C,0.120000*%
G04 APERTURE END LIST*
D10*
%TO.C,J3*%
X140033333Y-51522380D02*
X140033333Y-52236666D01*
X140080952Y-52379523D01*
X140176190Y-52474761D01*
X140319047Y-52522380D01*
X140414285Y-52522380D01*
X139652380Y-51522380D02*
X139033333Y-51522380D01*
X139366666Y-51903333D01*
X139223809Y-51903333D01*
X139128571Y-51950952D01*
X139080952Y-51998571D01*
X139033333Y-52093809D01*
X139033333Y-52331904D01*
X139080952Y-52427142D01*
X139128571Y-52474761D01*
X139223809Y-52522380D01*
X139509523Y-52522380D01*
X139604761Y-52474761D01*
X139652380Y-52427142D01*
%TO.C,J2*%
X132413333Y-51522380D02*
X132413333Y-52236666D01*
X132460952Y-52379523D01*
X132556190Y-52474761D01*
X132699047Y-52522380D01*
X132794285Y-52522380D01*
X131984761Y-51617619D02*
X131937142Y-51570000D01*
X131841904Y-51522380D01*
X131603809Y-51522380D01*
X131508571Y-51570000D01*
X131460952Y-51617619D01*
X131413333Y-51712857D01*
X131413333Y-51808095D01*
X131460952Y-51950952D01*
X132032380Y-52522380D01*
X131413333Y-52522380D01*
D11*
%TO.C,J3*%
X141030000Y-86420000D02*
X138370000Y-86420000D01*
X138370000Y-55880000D02*
X138370000Y-86420000D01*
X141030000Y-55880000D02*
X141030000Y-86420000D01*
X141030000Y-53280000D02*
X139700000Y-53280000D01*
X141030000Y-55880000D02*
X138370000Y-55880000D01*
X141030000Y-54610000D02*
X141030000Y-53280000D01*
%TO.C,J2*%
X133410000Y-55880000D02*
X133410000Y-86420000D01*
X133410000Y-55880000D02*
X130750000Y-55880000D01*
X133410000Y-86420000D02*
X130750000Y-86420000D01*
X133410000Y-53280000D02*
X132080000Y-53280000D01*
X133410000Y-54610000D02*
X133410000Y-53280000D01*
X130750000Y-55880000D02*
X130750000Y-86420000D01*
%TD*%
M02*
