%TF.GenerationSoftware,KiCad,Pcbnew,(6.0.2)*%
%TF.CreationDate,2022-02-16T12:22:25-06:00*%
%TF.ProjectId,BreadboardAdapter26,42726561-6462-46f6-9172-644164617074,rev?*%
%TF.SameCoordinates,Original*%
%TF.FileFunction,Copper,L1,Top*%
%TF.FilePolarity,Positive*%
%FSLAX46Y46*%
G04 Gerber Fmt 4.6, Leading zero omitted, Abs format (unit mm)*
G04 Created by KiCad (PCBNEW (6.0.2)) date 2022-02-16 12:22:25*
%MOMM*%
%LPD*%
G01*
G04 APERTURE LIST*
G04 Aperture macros list*
%AMRoundRect*
0 Rectangle with rounded corners*
0 $1 Rounding radius*
0 $2 $3 $4 $5 $6 $7 $8 $9 X,Y pos of 4 corners*
0 Add a 4 corners polygon primitive as box body*
4,1,4,$2,$3,$4,$5,$6,$7,$8,$9,$2,$3,0*
0 Add four circle primitives for the rounded corners*
1,1,$1+$1,$2,$3*
1,1,$1+$1,$4,$5*
1,1,$1+$1,$6,$7*
1,1,$1+$1,$8,$9*
0 Add four rect primitives between the rounded corners*
20,1,$1+$1,$2,$3,$4,$5,0*
20,1,$1+$1,$4,$5,$6,$7,0*
20,1,$1+$1,$6,$7,$8,$9,0*
20,1,$1+$1,$8,$9,$2,$3,0*%
G04 Aperture macros list end*
%TA.AperFunction,ComponentPad*%
%ADD10RoundRect,0.250000X-0.600000X0.600000X-0.600000X-0.600000X0.600000X-0.600000X0.600000X0.600000X0*%
%TD*%
%TA.AperFunction,ComponentPad*%
%ADD11C,1.700000*%
%TD*%
%TA.AperFunction,ComponentPad*%
%ADD12R,1.700000X1.700000*%
%TD*%
%TA.AperFunction,ComponentPad*%
%ADD13O,1.700000X1.700000*%
%TD*%
%TA.AperFunction,Conductor*%
%ADD14C,0.152400*%
%TD*%
G04 APERTURE END LIST*
D10*
%TO.P,J1,1,Pin_1*%
%TO.N,Net-(J1-Pad1)*%
X151130000Y-39370000D03*
D11*
%TO.P,J1,2,Pin_2*%
%TO.N,Net-(J1-Pad2)*%
X151130000Y-41910000D03*
%TO.P,J1,3,Pin_3*%
%TO.N,Net-(J1-Pad3)*%
X148590000Y-39370000D03*
%TO.P,J1,4,Pin_4*%
%TO.N,Net-(J1-Pad4)*%
X148590000Y-41910000D03*
%TO.P,J1,5,Pin_5*%
%TO.N,Net-(J1-Pad5)*%
X146050000Y-39370000D03*
%TO.P,J1,6,Pin_6*%
%TO.N,Net-(J1-Pad6)*%
X146050000Y-41910000D03*
%TO.P,J1,7,Pin_7*%
%TO.N,Net-(J1-Pad7)*%
X143510000Y-39370000D03*
%TO.P,J1,8,Pin_8*%
%TO.N,Net-(J1-Pad8)*%
X143510000Y-41910000D03*
%TO.P,J1,9,Pin_9*%
%TO.N,Net-(J1-Pad9)*%
X140970000Y-39370000D03*
%TO.P,J1,10,Pin_10*%
%TO.N,Net-(J1-Pad10)*%
X140970000Y-41910000D03*
%TO.P,J1,11,Pin_11*%
%TO.N,Net-(J1-Pad11)*%
X138430000Y-39370000D03*
%TO.P,J1,12,Pin_12*%
%TO.N,Net-(J1-Pad12)*%
X138430000Y-41910000D03*
%TO.P,J1,13,Pin_13*%
%TO.N,Net-(J1-Pad13)*%
X135890000Y-39370000D03*
%TO.P,J1,14,Pin_14*%
%TO.N,Net-(J1-Pad14)*%
X135890000Y-41910000D03*
%TO.P,J1,15,Pin_15*%
%TO.N,Net-(J1-Pad15)*%
X133350000Y-39370000D03*
%TO.P,J1,16,Pin_16*%
%TO.N,Net-(J1-Pad16)*%
X133350000Y-41910000D03*
%TO.P,J1,17,Pin_17*%
%TO.N,Net-(J1-Pad17)*%
X130810000Y-39370000D03*
%TO.P,J1,18,Pin_18*%
%TO.N,Net-(J1-Pad18)*%
X130810000Y-41910000D03*
%TO.P,J1,19,Pin_19*%
%TO.N,Net-(J1-Pad19)*%
X128270000Y-39370000D03*
%TO.P,J1,20,Pin_20*%
%TO.N,Net-(J1-Pad20)*%
X128270000Y-41910000D03*
%TO.P,J1,21,Pin_21*%
%TO.N,Net-(J1-Pad21)*%
X125730000Y-39370000D03*
%TO.P,J1,22,Pin_22*%
%TO.N,Net-(J1-Pad22)*%
X125730000Y-41910000D03*
%TO.P,J1,23,Pin_23*%
%TO.N,Net-(J1-Pad23)*%
X123190000Y-39370000D03*
%TO.P,J1,24,Pin_24*%
%TO.N,Net-(J1-Pad24)*%
X123190000Y-41910000D03*
%TO.P,J1,25,Pin_25*%
%TO.N,Net-(J1-Pad25)*%
X120650000Y-39370000D03*
%TO.P,J1,26,Pin_26*%
%TO.N,Net-(J1-Pad26)*%
X120650000Y-41910000D03*
%TD*%
D12*
%TO.P,J3,1,Pin_1*%
%TO.N,Net-(J1-Pad2)*%
X139700000Y-54610000D03*
D13*
%TO.P,J3,2,Pin_2*%
%TO.N,Net-(J1-Pad4)*%
X139700000Y-57150000D03*
%TO.P,J3,3,Pin_3*%
%TO.N,Net-(J1-Pad6)*%
X139700000Y-59690000D03*
%TO.P,J3,4,Pin_4*%
%TO.N,Net-(J1-Pad8)*%
X139700000Y-62230000D03*
%TO.P,J3,5,Pin_5*%
%TO.N,Net-(J1-Pad10)*%
X139700000Y-64770000D03*
%TO.P,J3,6,Pin_6*%
%TO.N,Net-(J1-Pad12)*%
X139700000Y-67310000D03*
%TO.P,J3,7,Pin_7*%
%TO.N,Net-(J1-Pad14)*%
X139700000Y-69850000D03*
%TO.P,J3,8,Pin_8*%
%TO.N,Net-(J1-Pad16)*%
X139700000Y-72390000D03*
%TO.P,J3,9,Pin_9*%
%TO.N,Net-(J1-Pad18)*%
X139700000Y-74930000D03*
%TO.P,J3,10,Pin_10*%
%TO.N,Net-(J1-Pad20)*%
X139700000Y-77470000D03*
%TO.P,J3,11,Pin_11*%
%TO.N,Net-(J1-Pad22)*%
X139700000Y-80010000D03*
%TO.P,J3,12,Pin_12*%
%TO.N,Net-(J1-Pad24)*%
X139700000Y-82550000D03*
%TO.P,J3,13,Pin_13*%
%TO.N,Net-(J1-Pad26)*%
X139700000Y-85090000D03*
%TD*%
D12*
%TO.P,J2,1,Pin_1*%
%TO.N,Net-(J1-Pad1)*%
X132080000Y-54610000D03*
D13*
%TO.P,J2,2,Pin_2*%
%TO.N,Net-(J1-Pad3)*%
X132080000Y-57150000D03*
%TO.P,J2,3,Pin_3*%
%TO.N,Net-(J1-Pad5)*%
X132080000Y-59690000D03*
%TO.P,J2,4,Pin_4*%
%TO.N,Net-(J1-Pad7)*%
X132080000Y-62230000D03*
%TO.P,J2,5,Pin_5*%
%TO.N,Net-(J1-Pad9)*%
X132080000Y-64770000D03*
%TO.P,J2,6,Pin_6*%
%TO.N,Net-(J1-Pad11)*%
X132080000Y-67310000D03*
%TO.P,J2,7,Pin_7*%
%TO.N,Net-(J1-Pad13)*%
X132080000Y-69850000D03*
%TO.P,J2,8,Pin_8*%
%TO.N,Net-(J1-Pad15)*%
X132080000Y-72390000D03*
%TO.P,J2,9,Pin_9*%
%TO.N,Net-(J1-Pad17)*%
X132080000Y-74930000D03*
%TO.P,J2,10,Pin_10*%
%TO.N,Net-(J1-Pad19)*%
X132080000Y-77470000D03*
%TO.P,J2,11,Pin_11*%
%TO.N,Net-(J1-Pad21)*%
X132080000Y-80010000D03*
%TO.P,J2,12,Pin_12*%
%TO.N,Net-(J1-Pad23)*%
X132080000Y-82550000D03*
%TO.P,J2,13,Pin_13*%
%TO.N,Net-(J1-Pad25)*%
X132080000Y-85090000D03*
%TD*%
D14*
%TO.N,Net-(J1-Pad2)*%
X150876000Y-45974000D02*
X150873600Y-45971600D01*
X151130000Y-45720000D02*
X150876000Y-45974000D01*
X137790270Y-45971600D02*
X137715920Y-46045950D01*
X150873600Y-45971600D02*
X137790270Y-45971600D01*
X137715920Y-46045950D02*
X137715920Y-52625920D01*
X137715920Y-52625920D02*
X139700000Y-54610000D01*
X151130000Y-41910000D02*
X151130000Y-45720000D01*
%TO.N,Net-(J1-Pad4)*%
X137664216Y-45667280D02*
X137411600Y-45919896D01*
X148590000Y-41910000D02*
X148590000Y-45212000D01*
X137411600Y-45919896D02*
X137411600Y-54861600D01*
X137411600Y-54861600D02*
X139700000Y-57150000D01*
X148134720Y-45667280D02*
X137664216Y-45667280D01*
X148590000Y-45212000D02*
X148134720Y-45667280D01*
%TO.N,Net-(J1-Pad6)*%
X145645040Y-45362960D02*
X137538162Y-45362960D01*
X137107280Y-57097280D02*
X139700000Y-59690000D01*
X146050000Y-41910000D02*
X146050000Y-44958000D01*
X137107280Y-45793842D02*
X137107280Y-57097280D01*
X146050000Y-44958000D02*
X145645040Y-45362960D01*
X137538162Y-45362960D02*
X137107280Y-45793842D01*
%TO.N,Net-(J1-Pad8)*%
X143510000Y-41910000D02*
X143510000Y-44704000D01*
X143510000Y-44704000D02*
X143155360Y-45058640D01*
X137412108Y-45058640D02*
X136802960Y-45667788D01*
X136802960Y-59332960D02*
X139700000Y-62230000D01*
X136802960Y-45667788D02*
X136802960Y-59332960D01*
X143155360Y-45058640D02*
X137412108Y-45058640D01*
%TO.N,Net-(J1-Pad10)*%
X137286054Y-44754320D02*
X136498640Y-45541734D01*
X140970000Y-41910000D02*
X140970000Y-44450000D01*
X140665680Y-44754320D02*
X137286054Y-44754320D01*
X140970000Y-44450000D02*
X140665680Y-44754320D01*
X136498640Y-45541734D02*
X136498640Y-61568640D01*
X136498640Y-61568640D02*
X139700000Y-64770000D01*
%TO.N,Net-(J1-Pad12)*%
X136194320Y-45415680D02*
X136194320Y-63804320D01*
X136194320Y-63804320D02*
X139700000Y-67310000D01*
X138176000Y-44450000D02*
X137160000Y-44450000D01*
X138430000Y-44196000D02*
X138176000Y-44450000D01*
X138430000Y-41910000D02*
X138430000Y-44196000D01*
X137160000Y-44450000D02*
X136194320Y-45415680D01*
%TO.N,Net-(J1-Pad14)*%
X135890000Y-66040000D02*
X139700000Y-69850000D01*
X135890000Y-41910000D02*
X135890000Y-66040000D01*
%TO.N,Net-(J1-Pad16)*%
X133350000Y-44196000D02*
X133553680Y-44399680D01*
X133350000Y-41910000D02*
X133350000Y-44196000D01*
X134569680Y-44399680D02*
X135585680Y-45415680D01*
X135585680Y-45415680D02*
X135585680Y-68275680D01*
X135585680Y-68275680D02*
X139700000Y-72390000D01*
X133553680Y-44399680D02*
X134569680Y-44399680D01*
%TO.N,Net-(J1-Pad18)*%
X131064000Y-44704000D02*
X134337746Y-44704000D01*
X135281360Y-70511360D02*
X139700000Y-74930000D01*
X134337746Y-44704000D02*
X135281360Y-45647614D01*
X130810000Y-44450000D02*
X131064000Y-44704000D01*
X135281360Y-45647614D02*
X135281360Y-70511360D01*
X130810000Y-41910000D02*
X130810000Y-44450000D01*
%TO.N,Net-(J1-Pad20)*%
X128373040Y-45061040D02*
X134264412Y-45061040D01*
X128270000Y-41910000D02*
X128270000Y-44958000D01*
X128270000Y-44958000D02*
X128373040Y-45061040D01*
X134977040Y-45773668D02*
X134977040Y-72747040D01*
X134977040Y-72747040D02*
X139700000Y-77470000D01*
X134264412Y-45061040D02*
X134977040Y-45773668D01*
%TO.N,Net-(J1-Pad22)*%
X125730000Y-45212000D02*
X125883360Y-45365360D01*
X134138358Y-45365360D02*
X134672720Y-45899722D01*
X125883360Y-45365360D02*
X134138358Y-45365360D01*
X134672720Y-45899722D02*
X134672720Y-74982720D01*
X125730000Y-41910000D02*
X125730000Y-45212000D01*
X134672720Y-74982720D02*
X139700000Y-80010000D01*
%TO.N,Net-(J1-Pad24)*%
X123190000Y-45466000D02*
X123393680Y-45669680D01*
X123190000Y-41910000D02*
X123190000Y-45466000D01*
X123393680Y-45669680D02*
X134012304Y-45669680D01*
X134368400Y-46025776D02*
X134368400Y-77218400D01*
X134012304Y-45669680D02*
X134368400Y-46025776D01*
X134368400Y-77218400D02*
X139700000Y-82550000D01*
%TO.N,Net-(J1-Pad26)*%
X133886250Y-45974000D02*
X134064080Y-46151830D01*
X120650000Y-45720000D02*
X120904000Y-45974000D01*
X120650000Y-41910000D02*
X120650000Y-45720000D01*
X120904000Y-45974000D02*
X133886250Y-45974000D01*
X134064080Y-46151830D02*
X134064080Y-79454080D01*
X134064080Y-79454080D02*
X139700000Y-85090000D01*
%TD*%
M02*
