%TF.GenerationSoftware,KiCad,Pcbnew,(6.0.2)*%
%TF.CreationDate,2022-02-16T12:22:25-06:00*%
%TF.ProjectId,BreadboardAdapter26,42726561-6462-46f6-9172-644164617074,rev?*%
%TF.SameCoordinates,Original*%
%TF.FileFunction,Copper,L2,Bot*%
%TF.FilePolarity,Positive*%
%FSLAX46Y46*%
G04 Gerber Fmt 4.6, Leading zero omitted, Abs format (unit mm)*
G04 Created by KiCad (PCBNEW (6.0.2)) date 2022-02-16 12:22:25*
%MOMM*%
%LPD*%
G01*
G04 APERTURE LIST*
G04 Aperture macros list*
%AMRoundRect*
0 Rectangle with rounded corners*
0 $1 Rounding radius*
0 $2 $3 $4 $5 $6 $7 $8 $9 X,Y pos of 4 corners*
0 Add a 4 corners polygon primitive as box body*
4,1,4,$2,$3,$4,$5,$6,$7,$8,$9,$2,$3,0*
0 Add four circle primitives for the rounded corners*
1,1,$1+$1,$2,$3*
1,1,$1+$1,$4,$5*
1,1,$1+$1,$6,$7*
1,1,$1+$1,$8,$9*
0 Add four rect primitives between the rounded corners*
20,1,$1+$1,$2,$3,$4,$5,0*
20,1,$1+$1,$4,$5,$6,$7,0*
20,1,$1+$1,$6,$7,$8,$9,0*
20,1,$1+$1,$8,$9,$2,$3,0*%
G04 Aperture macros list end*
%TA.AperFunction,ComponentPad*%
%ADD10RoundRect,0.250000X-0.600000X0.600000X-0.600000X-0.600000X0.600000X-0.600000X0.600000X0.600000X0*%
%TD*%
%TA.AperFunction,ComponentPad*%
%ADD11C,1.700000*%
%TD*%
%TA.AperFunction,ComponentPad*%
%ADD12R,1.700000X1.700000*%
%TD*%
%TA.AperFunction,ComponentPad*%
%ADD13O,1.700000X1.700000*%
%TD*%
%TA.AperFunction,Conductor*%
%ADD14C,0.152400*%
%TD*%
G04 APERTURE END LIST*
D10*
%TO.P,J1,1,Pin_1*%
%TO.N,Net-(J1-Pad1)*%
X151130000Y-39370000D03*
D11*
%TO.P,J1,2,Pin_2*%
%TO.N,Net-(J1-Pad2)*%
X151130000Y-41910000D03*
%TO.P,J1,3,Pin_3*%
%TO.N,Net-(J1-Pad3)*%
X148590000Y-39370000D03*
%TO.P,J1,4,Pin_4*%
%TO.N,Net-(J1-Pad4)*%
X148590000Y-41910000D03*
%TO.P,J1,5,Pin_5*%
%TO.N,Net-(J1-Pad5)*%
X146050000Y-39370000D03*
%TO.P,J1,6,Pin_6*%
%TO.N,Net-(J1-Pad6)*%
X146050000Y-41910000D03*
%TO.P,J1,7,Pin_7*%
%TO.N,Net-(J1-Pad7)*%
X143510000Y-39370000D03*
%TO.P,J1,8,Pin_8*%
%TO.N,Net-(J1-Pad8)*%
X143510000Y-41910000D03*
%TO.P,J1,9,Pin_9*%
%TO.N,Net-(J1-Pad9)*%
X140970000Y-39370000D03*
%TO.P,J1,10,Pin_10*%
%TO.N,Net-(J1-Pad10)*%
X140970000Y-41910000D03*
%TO.P,J1,11,Pin_11*%
%TO.N,Net-(J1-Pad11)*%
X138430000Y-39370000D03*
%TO.P,J1,12,Pin_12*%
%TO.N,Net-(J1-Pad12)*%
X138430000Y-41910000D03*
%TO.P,J1,13,Pin_13*%
%TO.N,Net-(J1-Pad13)*%
X135890000Y-39370000D03*
%TO.P,J1,14,Pin_14*%
%TO.N,Net-(J1-Pad14)*%
X135890000Y-41910000D03*
%TO.P,J1,15,Pin_15*%
%TO.N,Net-(J1-Pad15)*%
X133350000Y-39370000D03*
%TO.P,J1,16,Pin_16*%
%TO.N,Net-(J1-Pad16)*%
X133350000Y-41910000D03*
%TO.P,J1,17,Pin_17*%
%TO.N,Net-(J1-Pad17)*%
X130810000Y-39370000D03*
%TO.P,J1,18,Pin_18*%
%TO.N,Net-(J1-Pad18)*%
X130810000Y-41910000D03*
%TO.P,J1,19,Pin_19*%
%TO.N,Net-(J1-Pad19)*%
X128270000Y-39370000D03*
%TO.P,J1,20,Pin_20*%
%TO.N,Net-(J1-Pad20)*%
X128270000Y-41910000D03*
%TO.P,J1,21,Pin_21*%
%TO.N,Net-(J1-Pad21)*%
X125730000Y-39370000D03*
%TO.P,J1,22,Pin_22*%
%TO.N,Net-(J1-Pad22)*%
X125730000Y-41910000D03*
%TO.P,J1,23,Pin_23*%
%TO.N,Net-(J1-Pad23)*%
X123190000Y-39370000D03*
%TO.P,J1,24,Pin_24*%
%TO.N,Net-(J1-Pad24)*%
X123190000Y-41910000D03*
%TO.P,J1,25,Pin_25*%
%TO.N,Net-(J1-Pad25)*%
X120650000Y-39370000D03*
%TO.P,J1,26,Pin_26*%
%TO.N,Net-(J1-Pad26)*%
X120650000Y-41910000D03*
%TD*%
D12*
%TO.P,J3,1,Pin_1*%
%TO.N,Net-(J1-Pad2)*%
X139700000Y-54610000D03*
D13*
%TO.P,J3,2,Pin_2*%
%TO.N,Net-(J1-Pad4)*%
X139700000Y-57150000D03*
%TO.P,J3,3,Pin_3*%
%TO.N,Net-(J1-Pad6)*%
X139700000Y-59690000D03*
%TO.P,J3,4,Pin_4*%
%TO.N,Net-(J1-Pad8)*%
X139700000Y-62230000D03*
%TO.P,J3,5,Pin_5*%
%TO.N,Net-(J1-Pad10)*%
X139700000Y-64770000D03*
%TO.P,J3,6,Pin_6*%
%TO.N,Net-(J1-Pad12)*%
X139700000Y-67310000D03*
%TO.P,J3,7,Pin_7*%
%TO.N,Net-(J1-Pad14)*%
X139700000Y-69850000D03*
%TO.P,J3,8,Pin_8*%
%TO.N,Net-(J1-Pad16)*%
X139700000Y-72390000D03*
%TO.P,J3,9,Pin_9*%
%TO.N,Net-(J1-Pad18)*%
X139700000Y-74930000D03*
%TO.P,J3,10,Pin_10*%
%TO.N,Net-(J1-Pad20)*%
X139700000Y-77470000D03*
%TO.P,J3,11,Pin_11*%
%TO.N,Net-(J1-Pad22)*%
X139700000Y-80010000D03*
%TO.P,J3,12,Pin_12*%
%TO.N,Net-(J1-Pad24)*%
X139700000Y-82550000D03*
%TO.P,J3,13,Pin_13*%
%TO.N,Net-(J1-Pad26)*%
X139700000Y-85090000D03*
%TD*%
D12*
%TO.P,J2,1,Pin_1*%
%TO.N,Net-(J1-Pad1)*%
X132080000Y-54610000D03*
D13*
%TO.P,J2,2,Pin_2*%
%TO.N,Net-(J1-Pad3)*%
X132080000Y-57150000D03*
%TO.P,J2,3,Pin_3*%
%TO.N,Net-(J1-Pad5)*%
X132080000Y-59690000D03*
%TO.P,J2,4,Pin_4*%
%TO.N,Net-(J1-Pad7)*%
X132080000Y-62230000D03*
%TO.P,J2,5,Pin_5*%
%TO.N,Net-(J1-Pad9)*%
X132080000Y-64770000D03*
%TO.P,J2,6,Pin_6*%
%TO.N,Net-(J1-Pad11)*%
X132080000Y-67310000D03*
%TO.P,J2,7,Pin_7*%
%TO.N,Net-(J1-Pad13)*%
X132080000Y-69850000D03*
%TO.P,J2,8,Pin_8*%
%TO.N,Net-(J1-Pad15)*%
X132080000Y-72390000D03*
%TO.P,J2,9,Pin_9*%
%TO.N,Net-(J1-Pad17)*%
X132080000Y-74930000D03*
%TO.P,J2,10,Pin_10*%
%TO.N,Net-(J1-Pad19)*%
X132080000Y-77470000D03*
%TO.P,J2,11,Pin_11*%
%TO.N,Net-(J1-Pad21)*%
X132080000Y-80010000D03*
%TO.P,J2,12,Pin_12*%
%TO.N,Net-(J1-Pad23)*%
X132080000Y-82550000D03*
%TO.P,J2,13,Pin_13*%
%TO.N,Net-(J1-Pad25)*%
X132080000Y-85090000D03*
%TD*%
D14*
%TO.N,Net-(J1-Pad1)*%
X151384000Y-37846000D02*
X152146000Y-37846000D01*
X152400000Y-43180000D02*
X152146000Y-43434000D01*
X151130000Y-39370000D02*
X151130000Y-38100000D01*
X136567521Y-43434000D02*
X134270160Y-45731361D01*
X152400000Y-38100000D02*
X152400000Y-43180000D01*
X134270160Y-52419840D02*
X132080000Y-54610000D01*
X152146000Y-43434000D02*
X136567521Y-43434000D01*
X152146000Y-37846000D02*
X152400000Y-38100000D01*
X151130000Y-38100000D02*
X151384000Y-37846000D01*
X134270160Y-45731361D02*
X134270160Y-52419840D01*
%TO.N,Net-(J1-Pad3)*%
X132080000Y-57150000D02*
X134574480Y-54655520D01*
X152704320Y-43383680D02*
X152704320Y-37896320D01*
X138684000Y-43738320D02*
X152349680Y-43738320D01*
X134574480Y-45857414D02*
X136693574Y-43738320D01*
X148590000Y-37846000D02*
X148590000Y-39370000D01*
X152349680Y-43738320D02*
X152704320Y-43383680D01*
X152349680Y-37541680D02*
X148894320Y-37541680D01*
X152704320Y-37896320D02*
X152349680Y-37541680D01*
X136693574Y-43738320D02*
X140411680Y-43738320D01*
X148894320Y-37541680D02*
X148590000Y-37846000D01*
X134574480Y-54655520D02*
X134574480Y-45857414D01*
%TO.N,Net-(J1-Pad5)*%
X146404640Y-37237360D02*
X146050000Y-37592000D01*
X137581629Y-44042640D02*
X141478000Y-44042640D01*
X152475733Y-37237360D02*
X146404640Y-37237360D01*
X134878800Y-56891200D02*
X134878800Y-45983467D01*
X136819627Y-44042640D02*
X139800640Y-44042640D01*
X153008640Y-43509734D02*
X153008640Y-37770267D01*
X134878800Y-45983467D02*
X136819627Y-44042640D01*
X138684000Y-44042640D02*
X152475734Y-44042640D01*
X152475734Y-44042640D02*
X153008640Y-43509734D01*
X146050000Y-37592000D02*
X146050000Y-39370000D01*
X132080000Y-59690000D02*
X134878800Y-56891200D01*
X153008640Y-37770267D02*
X152475733Y-37237360D01*
%TO.N,Net-(J1-Pad7)*%
X136945680Y-44346960D02*
X135183120Y-46109520D01*
X135183120Y-59126880D02*
X132080000Y-62230000D01*
X143914960Y-36933040D02*
X152601786Y-36933040D01*
X143510000Y-39370000D02*
X143510000Y-37338000D01*
X153312960Y-37644214D02*
X153312960Y-43635787D01*
X152601787Y-44346960D02*
X138684000Y-44346960D01*
X135183120Y-46109520D02*
X135183120Y-59126880D01*
X152601786Y-36933040D02*
X153312960Y-37644214D01*
X153312960Y-43635787D02*
X152601787Y-44346960D01*
X140462000Y-44346960D02*
X136945680Y-44346960D01*
X143510000Y-37338000D02*
X143914960Y-36933040D01*
%TO.N,Net-(J1-Pad9)*%
X152727840Y-44651280D02*
X153617280Y-43761841D01*
X140970000Y-36830000D02*
X141224000Y-36576000D01*
X135487440Y-61362560D02*
X135487440Y-46235573D01*
X153617280Y-37518160D02*
X152727840Y-36628720D01*
X140970000Y-39370000D02*
X140970000Y-36830000D01*
X137071733Y-44651280D02*
X152727840Y-44651280D01*
X132080000Y-64770000D02*
X135487440Y-61362560D01*
X153617280Y-37518161D02*
X153617280Y-43761841D01*
X141224000Y-36576000D02*
X152675119Y-36576000D01*
X152675119Y-36576000D02*
X153617280Y-37518161D01*
X153617280Y-43761841D02*
X153617280Y-37518160D01*
X135487440Y-46235573D02*
X137071733Y-44651280D01*
%TO.N,Net-(J1-Pad11)*%
X152853893Y-44955600D02*
X153921600Y-43887895D01*
X135791760Y-46361626D02*
X137197786Y-44955600D01*
X138430000Y-36576000D02*
X138430000Y-39370000D01*
X135791760Y-63598240D02*
X135791760Y-46361626D01*
X152801172Y-36271680D02*
X138734320Y-36271680D01*
X153921600Y-43887895D02*
X153921600Y-37392108D01*
X138734320Y-36271680D02*
X138430000Y-36576000D01*
X153921600Y-37392108D02*
X152801172Y-36271680D01*
X132080000Y-67310000D02*
X135791760Y-63598240D01*
X137197786Y-44955600D02*
X152853893Y-44955600D01*
%TO.N,Net-(J1-Pad13)*%
X154225920Y-37266055D02*
X152927225Y-35967360D01*
X154225920Y-44013949D02*
X154225920Y-37266055D01*
X136096080Y-46487679D02*
X137323839Y-45259920D01*
X152927225Y-35967360D02*
X136244640Y-35967360D01*
X136096080Y-65833920D02*
X136096080Y-46487679D01*
X135890000Y-36322000D02*
X135890000Y-39370000D01*
X136244640Y-35967360D02*
X135890000Y-36322000D01*
X152979946Y-45259920D02*
X154225920Y-44013949D01*
X137323839Y-45259920D02*
X152979946Y-45259920D01*
X132080000Y-69850000D02*
X136096080Y-65833920D01*
%TO.N,Net-(J1-Pad15)*%
X154530240Y-44139999D02*
X153105999Y-45564240D01*
X154530240Y-37140002D02*
X154530240Y-44040240D01*
X154530240Y-44040240D02*
X154530240Y-44140003D01*
X133754960Y-35663040D02*
X153053278Y-35663040D01*
X133350000Y-39370000D02*
X133350000Y-36068000D01*
X136400400Y-46613732D02*
X136400400Y-68069600D01*
X153053278Y-35663040D02*
X154530240Y-37140002D01*
X153105999Y-45564240D02*
X137449892Y-45564240D01*
X154530240Y-44040240D02*
X154530240Y-44139999D01*
X136400400Y-68069600D02*
X132080000Y-72390000D01*
X137449892Y-45564240D02*
X136400400Y-46613732D01*
X133350000Y-36068000D02*
X133754960Y-35663040D01*
%TO.N,Net-(J1-Pad17)*%
X154834560Y-44266053D02*
X153232052Y-45868560D01*
X136704720Y-70305280D02*
X136704720Y-46739784D01*
X153232052Y-45868560D02*
X138684000Y-45868560D01*
X130810000Y-35814000D02*
X131265280Y-35358720D01*
X136704720Y-46739784D02*
X137575945Y-45868560D01*
X137575945Y-45868560D02*
X139446000Y-45868560D01*
X130810000Y-39370000D02*
X130810000Y-35814000D01*
X153179331Y-35358720D02*
X154834560Y-37013949D01*
X131265280Y-35358720D02*
X153179331Y-35358720D01*
X132080000Y-74930000D02*
X136704720Y-70305280D01*
X154834560Y-37013949D02*
X154834560Y-44266053D01*
%TO.N,Net-(J1-Pad19)*%
X137009040Y-72540960D02*
X137009040Y-46865838D01*
X128775600Y-35054400D02*
X128270000Y-35560000D01*
X153358105Y-46172880D02*
X155138880Y-44392107D01*
X155138880Y-36887896D02*
X153305384Y-35054400D01*
X155138880Y-44392107D02*
X155138880Y-36887896D01*
X153305384Y-35054400D02*
X128775600Y-35054400D01*
X128270000Y-35560000D02*
X128270000Y-39370000D01*
X137701998Y-46172880D02*
X153358105Y-46172880D01*
X132080000Y-77470000D02*
X137009040Y-72540960D01*
X137009040Y-46865838D02*
X137701998Y-46172880D01*
%TO.N,Net-(J1-Pad21)*%
X153431437Y-34750080D02*
X126285920Y-34750080D01*
X153479358Y-46482000D02*
X155443200Y-44518158D01*
X155443200Y-36761843D02*
X153431437Y-34750080D01*
X155443200Y-44518158D02*
X155443200Y-36761843D01*
X132080000Y-80010000D02*
X137313360Y-74776640D01*
X125730000Y-35306000D02*
X125730000Y-39370000D01*
X126285920Y-34750080D02*
X125730000Y-35306000D01*
X137313360Y-74776640D02*
X137313360Y-46991892D01*
X137313360Y-46991892D02*
X137823252Y-46482000D01*
X137823252Y-46482000D02*
X153479358Y-46482000D01*
%TO.N,Net-(J1-Pad23)*%
X137617680Y-47117946D02*
X137949311Y-46786315D01*
X155747520Y-44644211D02*
X153605411Y-46786320D01*
X123190000Y-35052000D02*
X123796240Y-34445760D01*
X132080000Y-82550000D02*
X137617680Y-77012320D01*
X123796240Y-34445760D02*
X153557490Y-34445760D01*
X137949305Y-46786317D02*
X139700000Y-46786317D01*
X123190000Y-39370000D02*
X123190000Y-35052000D01*
X137617680Y-77012320D02*
X137617680Y-47117946D01*
X153605411Y-46786320D02*
X139700000Y-46786320D01*
X155747520Y-36635790D02*
X155747520Y-44644211D01*
X153557490Y-34445760D02*
X155747520Y-36635790D01*
%TO.N,Net-(J1-Pad25)*%
X156051840Y-44770264D02*
X156051840Y-36509737D01*
X137922000Y-47244000D02*
X138075365Y-47090635D01*
X137922000Y-79248000D02*
X137922000Y-47244000D01*
X121052560Y-34141440D02*
X120650000Y-34544000D01*
X138075365Y-47090635D02*
X153731468Y-47090635D01*
X153731464Y-47090640D02*
X156051840Y-44770264D01*
X156051840Y-36509737D02*
X153683543Y-34141440D01*
X120650000Y-34544000D02*
X120650000Y-39370000D01*
X132080000Y-85090000D02*
X137922000Y-79248000D01*
X153683543Y-34141440D02*
X121052560Y-34141440D01*
%TD*%
M02*
