M48
; DRILL file {KiCad (6.0.2)} date Mon Mar 14 19:59:38 2022
; FORMAT={-:-/ absolute / inch / decimal}
; #@! TF.CreationDate,2022-03-14T19:59:38-05:00
; #@! TF.GenerationSoftware,Kicad,Pcbnew,(6.0.2)
; #@! TF.FileFunction,MixedPlating,1,2
FMAT,2
INCH
; #@! TA.AperFunction,Plated,PTH,ComponentDrill
T1C0.0315
; #@! TA.AperFunction,Plated,PTH,ComponentDrill
T2C0.0394
; #@! TA.AperFunction,Plated,PTH,ComponentDrill
T3C0.0472
%
G90
G05
T1
X6.5Y-3.5
X6.5Y-3.6
X6.5Y-3.7
X6.5Y-3.8
X6.5Y-3.9
X6.5Y-4.0
X6.5Y-4.1
X6.5Y-4.2
X6.5Y-4.3
X6.5Y-4.4
X6.5Y-4.5
X6.5Y-4.6
X7.1Y-3.5
X7.1Y-3.6
X7.1Y-3.7
X7.1Y-3.8
X7.1Y-3.9
X7.1Y-4.0
X7.1Y-4.1
X7.1Y-4.2
X7.1Y-4.3
X7.1Y-4.4
X7.1Y-4.5
X7.1Y-4.6
X7.27Y-3.51
X7.27Y-3.7
X7.27Y-3.89
X7.27Y-4.08
X7.394Y-4.3315
X7.394Y-4.5245
X7.67Y-3.51
X7.67Y-3.7
X7.67Y-3.89
X7.67Y-4.08
T2
X6.2Y-3.65
X6.2Y-3.75
X6.2Y-3.85
X6.2Y-3.95
X6.2Y-4.05
X6.2Y-4.15
X6.2Y-4.25
X6.2Y-4.35
X6.2Y-4.45
X6.3Y-3.65
X6.3Y-3.75
X6.3Y-3.85
X6.3Y-3.95
X6.3Y-4.05
X6.3Y-4.15
X6.3Y-4.25
X6.3Y-4.35
X6.3Y-4.45
X7.918Y-3.45
X7.918Y-3.55
X7.918Y-3.65
X7.918Y-3.75
X7.918Y-3.85
X8.1Y-3.45
X8.1Y-3.55
X8.1Y-3.65
X8.1Y-3.75
X8.1Y-3.85
X8.1Y-3.95
X8.1Y-4.05
X8.1Y-4.15
X8.1Y-4.25
X8.1Y-4.35
X8.1Y-4.45
X8.1Y-4.55
X8.1Y-4.65
X8.2Y-3.45
X8.2Y-3.55
X8.2Y-3.65
X8.2Y-3.75
X8.2Y-3.85
X8.2Y-3.95
X8.2Y-4.05
X8.2Y-4.15
X8.2Y-4.25
X8.2Y-4.35
X8.2Y-4.45
X8.2Y-4.55
X8.2Y-4.65
T3
X7.6581Y-4.3488
X7.6581Y-4.526
X7.914Y-4.3488
X7.914Y-4.526
T0
M30
