%TF.GenerationSoftware,KiCad,Pcbnew,(6.0.2)*%
%TF.CreationDate,2022-03-01T19:19:51-06:00*%
%TF.ProjectId,SerialClockFlyover,53657269-616c-4436-9c6f-636b466c796f,rev?*%
%TF.SameCoordinates,Original*%
%TF.FileFunction,Soldermask,Bot*%
%TF.FilePolarity,Negative*%
%FSLAX46Y46*%
G04 Gerber Fmt 4.6, Leading zero omitted, Abs format (unit mm)*
G04 Created by KiCad (PCBNEW (6.0.2)) date 2022-03-01 19:19:51*
%MOMM*%
%LPD*%
G01*
G04 APERTURE LIST*
%ADD10C,1.600000*%
%ADD11O,1.600000X1.600000*%
%ADD12R,1.700000X1.700000*%
%ADD13O,1.700000X1.700000*%
%ADD14C,1.500000*%
%ADD15R,1.600000X1.600000*%
%ADD16R,2.200000X2.200000*%
%ADD17C,2.200000*%
G04 APERTURE END LIST*
D10*
%TO.C,R4*%
X184658000Y-103632000D03*
D11*
X194818000Y-103632000D03*
%TD*%
D12*
%TO.C,J2*%
X160020000Y-113030000D03*
D13*
X157480000Y-113030000D03*
X160020000Y-110490000D03*
X157480000Y-110490000D03*
X160020000Y-107950000D03*
X157480000Y-107950000D03*
X160020000Y-105410000D03*
X157480000Y-105410000D03*
X160020000Y-102870000D03*
X157480000Y-102870000D03*
X160020000Y-100330000D03*
X157480000Y-100330000D03*
X160020000Y-97790000D03*
X157480000Y-97790000D03*
X160020000Y-95250000D03*
X157480000Y-95250000D03*
X160020000Y-92710000D03*
X157480000Y-92710000D03*
%TD*%
D14*
%TO.C,Y1*%
X187807600Y-114921200D03*
X187807600Y-110021200D03*
%TD*%
D10*
%TO.C,R1*%
X194818000Y-89154000D03*
D11*
X184658000Y-89154000D03*
%TD*%
D10*
%TO.C,R2*%
X194818000Y-93980000D03*
D11*
X184658000Y-93980000D03*
%TD*%
D15*
%TO.C,U1*%
X165100000Y-88900000D03*
D11*
X165100000Y-91440000D03*
X165100000Y-93980000D03*
X165100000Y-96520000D03*
X165100000Y-99060000D03*
X165100000Y-101600000D03*
X165100000Y-104140000D03*
X165100000Y-106680000D03*
X165100000Y-109220000D03*
X165100000Y-111760000D03*
X165100000Y-114300000D03*
X165100000Y-116840000D03*
X180340000Y-116840000D03*
X180340000Y-114300000D03*
X180340000Y-111760000D03*
X180340000Y-109220000D03*
X180340000Y-106680000D03*
X180340000Y-104140000D03*
X180340000Y-101600000D03*
X180340000Y-99060000D03*
X180340000Y-96520000D03*
X180340000Y-93980000D03*
X180340000Y-91440000D03*
X180340000Y-88900000D03*
%TD*%
D12*
%TO.C,J3*%
X201117200Y-87630000D03*
D13*
X201117200Y-90170000D03*
X201117200Y-92710000D03*
X201117200Y-95250000D03*
X201117200Y-97790000D03*
%TD*%
D16*
%TO.C,S1*%
X201015600Y-114960400D03*
D17*
X194515600Y-114960400D03*
X201015600Y-110460400D03*
X194515600Y-110460400D03*
%TD*%
D10*
%TO.C,R3*%
X194818000Y-98806000D03*
D11*
X184658000Y-98806000D03*
%TD*%
D12*
%TO.C,J1*%
X205740000Y-87630000D03*
D13*
X208280000Y-87630000D03*
X205740000Y-90170000D03*
X208280000Y-90170000D03*
X205740000Y-92710000D03*
X208280000Y-92710000D03*
X205740000Y-95250000D03*
X208280000Y-95250000D03*
X205740000Y-97790000D03*
X208280000Y-97790000D03*
X205740000Y-100330000D03*
X208280000Y-100330000D03*
X205740000Y-102870000D03*
X208280000Y-102870000D03*
X205740000Y-105410000D03*
X208280000Y-105410000D03*
X205740000Y-107950000D03*
X208280000Y-107950000D03*
X205740000Y-110490000D03*
X208280000Y-110490000D03*
X205740000Y-113030000D03*
X208280000Y-113030000D03*
X205740000Y-115570000D03*
X208280000Y-115570000D03*
X205740000Y-118110000D03*
X208280000Y-118110000D03*
%TD*%
M02*
