%TF.GenerationSoftware,KiCad,Pcbnew,(6.0.2)*%
%TF.CreationDate,2022-03-01T19:19:51-06:00*%
%TF.ProjectId,SerialClockFlyover,53657269-616c-4436-9c6f-636b466c796f,rev?*%
%TF.SameCoordinates,Original*%
%TF.FileFunction,Copper,L1,Top*%
%TF.FilePolarity,Positive*%
%FSLAX46Y46*%
G04 Gerber Fmt 4.6, Leading zero omitted, Abs format (unit mm)*
G04 Created by KiCad (PCBNEW (6.0.2)) date 2022-03-01 19:19:51*
%MOMM*%
%LPD*%
G01*
G04 APERTURE LIST*
%TA.AperFunction,ComponentPad*%
%ADD10C,1.600000*%
%TD*%
%TA.AperFunction,ComponentPad*%
%ADD11O,1.600000X1.600000*%
%TD*%
%TA.AperFunction,ComponentPad*%
%ADD12R,1.700000X1.700000*%
%TD*%
%TA.AperFunction,ComponentPad*%
%ADD13O,1.700000X1.700000*%
%TD*%
%TA.AperFunction,ComponentPad*%
%ADD14C,1.500000*%
%TD*%
%TA.AperFunction,ComponentPad*%
%ADD15R,1.600000X1.600000*%
%TD*%
%TA.AperFunction,ComponentPad*%
%ADD16R,2.200000X2.200000*%
%TD*%
%TA.AperFunction,ComponentPad*%
%ADD17C,2.200000*%
%TD*%
%TA.AperFunction,Conductor*%
%ADD18C,0.152400*%
%TD*%
G04 APERTURE END LIST*
D10*
%TO.P,R4,1*%
%TO.N,Net-(U1-Pad20)*%
X184658000Y-103632000D03*
D11*
%TO.P,R4,2*%
%TO.N,Net-(U1-Pad21)*%
X194818000Y-103632000D03*
%TD*%
D12*
%TO.P,J2,1,Pin_1*%
%TO.N,/F300*%
X160020000Y-113030000D03*
D13*
%TO.P,J2,2,Pin_2*%
%TO.N,Net-(J1-Pad13)*%
X157480000Y-113030000D03*
%TO.P,J2,3,Pin_3*%
%TO.N,/F1200*%
X160020000Y-110490000D03*
%TO.P,J2,4,Pin_4*%
%TO.N,Net-(J1-Pad13)*%
X157480000Y-110490000D03*
%TO.P,J2,5,Pin_5*%
%TO.N,/F2400*%
X160020000Y-107950000D03*
%TO.P,J2,6,Pin_6*%
%TO.N,Net-(J1-Pad13)*%
X157480000Y-107950000D03*
%TO.P,J2,7,Pin_7*%
%TO.N,/F4800*%
X160020000Y-105410000D03*
%TO.P,J2,8,Pin_8*%
%TO.N,Net-(J1-Pad13)*%
X157480000Y-105410000D03*
%TO.P,J2,9,Pin_9*%
%TO.N,/F9600*%
X160020000Y-102870000D03*
%TO.P,J2,10,Pin_10*%
%TO.N,Net-(J1-Pad13)*%
X157480000Y-102870000D03*
%TO.P,J2,11,Pin_11*%
%TO.N,/F19200*%
X160020000Y-100330000D03*
%TO.P,J2,12,Pin_12*%
%TO.N,Net-(J1-Pad13)*%
X157480000Y-100330000D03*
%TO.P,J2,13,Pin_13*%
%TO.N,/F38400*%
X160020000Y-97790000D03*
%TO.P,J2,14,Pin_14*%
%TO.N,Net-(J1-Pad13)*%
X157480000Y-97790000D03*
%TO.P,J2,15,Pin_15*%
%TO.N,/F57600*%
X160020000Y-95250000D03*
%TO.P,J2,16,Pin_16*%
%TO.N,Net-(J1-Pad13)*%
X157480000Y-95250000D03*
%TO.P,J2,17,Pin_17*%
%TO.N,/F115200*%
X160020000Y-92710000D03*
%TO.P,J2,18,Pin_18*%
%TO.N,Net-(J1-Pad13)*%
X157480000Y-92710000D03*
%TD*%
D14*
%TO.P,Y1,1,1*%
%TO.N,Net-(U1-Pad20)*%
X187807600Y-114921200D03*
%TO.P,Y1,2,2*%
%TO.N,Net-(U1-Pad21)*%
X187807600Y-110021200D03*
%TD*%
D10*
%TO.P,R1,1*%
%TO.N,+5V*%
X194818000Y-89154000D03*
D11*
%TO.P,R1,2*%
%TO.N,Net-(R1-Pad2)*%
X184658000Y-89154000D03*
%TD*%
D10*
%TO.P,R2,1*%
%TO.N,+5V*%
X194818000Y-93980000D03*
D11*
%TO.P,R2,2*%
%TO.N,Net-(R2-Pad2)*%
X184658000Y-93980000D03*
%TD*%
D15*
%TO.P,U1,1,F1*%
%TO.N,/F38400*%
X165100000Y-88900000D03*
D11*
%TO.P,U1,2,F3*%
%TO.N,/F19200*%
X165100000Y-91440000D03*
%TO.P,U1,3,F5*%
%TO.N,/F9600*%
X165100000Y-93980000D03*
%TO.P,U1,4,F7*%
%TO.N,/F4800*%
X165100000Y-96520000D03*
%TO.P,U1,5,F8*%
%TO.N,/F2400*%
X165100000Y-99060000D03*
%TO.P,U1,6,F10*%
%TO.N,unconnected-(U1-Pad6)*%
X165100000Y-101600000D03*
%TO.P,U1,7,F9*%
%TO.N,/F1200*%
X165100000Y-104140000D03*
%TO.P,U1,8,F11*%
%TO.N,unconnected-(U1-Pad8)*%
X165100000Y-106680000D03*
%TO.P,U1,9,F14*%
%TO.N,/F300*%
X165100000Y-109220000D03*
%TO.P,U1,10,~{RESET}*%
%TO.N,Net-(R3-Pad2)*%
X165100000Y-111760000D03*
%TO.P,U1,11,Not_Used*%
%TO.N,unconnected-(U1-Pad11)*%
X165100000Y-114300000D03*
%TO.P,U1,12,VSS*%
%TO.N,GND*%
X165100000Y-116840000D03*
%TO.P,U1,13,F13*%
%TO.N,unconnected-(U1-Pad13)*%
X180340000Y-116840000D03*
%TO.P,U1,14,F12*%
%TO.N,unconnected-(U1-Pad14)*%
X180340000Y-114300000D03*
%TO.P,U1,15,F6*%
%TO.N,unconnected-(U1-Pad15)*%
X180340000Y-111760000D03*
%TO.P,U1,16,F4*%
%TO.N,unconnected-(U1-Pad16)*%
X180340000Y-109220000D03*
%TO.P,U1,17,F2*%
%TO.N,unconnected-(U1-Pad17)*%
X180340000Y-106680000D03*
%TO.P,U1,18,F15*%
%TO.N,/F57600*%
X180340000Y-104140000D03*
%TO.P,U1,19,F16*%
%TO.N,/F115200*%
X180340000Y-101600000D03*
%TO.P,U1,20,XTALOUT*%
%TO.N,Net-(U1-Pad20)*%
X180340000Y-99060000D03*
%TO.P,U1,21,XTALIN*%
%TO.N,Net-(U1-Pad21)*%
X180340000Y-96520000D03*
%TO.P,U1,22,RSB*%
%TO.N,Net-(R2-Pad2)*%
X180340000Y-93980000D03*
%TO.P,U1,23,RSA*%
%TO.N,Net-(R1-Pad2)*%
X180340000Y-91440000D03*
%TO.P,U1,24,VDD*%
%TO.N,+5V*%
X180340000Y-88900000D03*
%TD*%
D12*
%TO.P,J3,1,Pin_1*%
%TO.N,GND*%
X201117200Y-87630000D03*
D13*
%TO.P,J3,2,Pin_2*%
%TO.N,/CTSB*%
X201117200Y-90170000D03*
%TO.P,J3,3,Pin_3*%
%TO.N,/RTSB*%
X201117200Y-92710000D03*
%TO.P,J3,4,Pin_4*%
%TO.N,/TxDB*%
X201117200Y-95250000D03*
%TO.P,J3,5,Pin_5*%
%TO.N,/RxDB*%
X201117200Y-97790000D03*
%TD*%
D16*
%TO.P,S1,1*%
%TO.N,GND*%
X201015600Y-114960400D03*
D17*
%TO.P,S1,2*%
X194515600Y-114960400D03*
%TO.P,S1,3*%
%TO.N,Net-(R3-Pad2)*%
X201015600Y-110460400D03*
%TO.P,S1,4*%
X194515600Y-110460400D03*
%TD*%
D10*
%TO.P,R3,1*%
%TO.N,+5V*%
X194818000Y-98806000D03*
D11*
%TO.P,R3,2*%
%TO.N,Net-(R3-Pad2)*%
X184658000Y-98806000D03*
%TD*%
D12*
%TO.P,J1,1,Pin_1*%
%TO.N,/CTSB*%
X205740000Y-87630000D03*
D13*
%TO.P,J1,2,Pin_2*%
%TO.N,unconnected-(J1-Pad2)*%
X208280000Y-87630000D03*
%TO.P,J1,3,Pin_3*%
%TO.N,unconnected-(J1-Pad3)*%
X205740000Y-90170000D03*
%TO.P,J1,4,Pin_4*%
%TO.N,/RTSB*%
X208280000Y-90170000D03*
%TO.P,J1,5,Pin_5*%
%TO.N,Net-(J1-Pad13)*%
X205740000Y-92710000D03*
%TO.P,J1,6,Pin_6*%
%TO.N,/TxDB*%
X208280000Y-92710000D03*
%TO.P,J1,7,Pin_7*%
%TO.N,/RxDB*%
X205740000Y-95250000D03*
%TO.P,J1,8,Pin_8*%
%TO.N,unconnected-(J1-Pad8)*%
X208280000Y-95250000D03*
%TO.P,J1,9,Pin_9*%
%TO.N,unconnected-(J1-Pad9)*%
X205740000Y-97790000D03*
%TO.P,J1,10,Pin_10*%
%TO.N,unconnected-(J1-Pad10)*%
X208280000Y-97790000D03*
%TO.P,J1,11,Pin_11*%
%TO.N,unconnected-(J1-Pad11)*%
X205740000Y-100330000D03*
%TO.P,J1,12,Pin_12*%
%TO.N,unconnected-(J1-Pad12)*%
X208280000Y-100330000D03*
%TO.P,J1,13,Pin_13*%
%TO.N,Net-(J1-Pad13)*%
X205740000Y-102870000D03*
%TO.P,J1,14,Pin_14*%
X208280000Y-102870000D03*
%TO.P,J1,15,Pin_15*%
%TO.N,unconnected-(J1-Pad15)*%
X205740000Y-105410000D03*
%TO.P,J1,16,Pin_16*%
%TO.N,unconnected-(J1-Pad16)*%
X208280000Y-105410000D03*
%TO.P,J1,17,Pin_17*%
%TO.N,unconnected-(J1-Pad17)*%
X205740000Y-107950000D03*
%TO.P,J1,18,Pin_18*%
%TO.N,unconnected-(J1-Pad18)*%
X208280000Y-107950000D03*
%TO.P,J1,19,Pin_19*%
%TO.N,unconnected-(J1-Pad19)*%
X205740000Y-110490000D03*
%TO.P,J1,20,Pin_20*%
%TO.N,unconnected-(J1-Pad20)*%
X208280000Y-110490000D03*
%TO.P,J1,21,Pin_21*%
%TO.N,unconnected-(J1-Pad21)*%
X205740000Y-113030000D03*
%TO.P,J1,22,Pin_22*%
%TO.N,unconnected-(J1-Pad22)*%
X208280000Y-113030000D03*
%TO.P,J1,23,Pin_23*%
%TO.N,unconnected-(J1-Pad23)*%
X205740000Y-115570000D03*
%TO.P,J1,24,Pin_24*%
%TO.N,unconnected-(J1-Pad24)*%
X208280000Y-115570000D03*
%TO.P,J1,25,Pin_25*%
%TO.N,+5V*%
X205740000Y-118110000D03*
%TO.P,J1,26,Pin_26*%
%TO.N,GND*%
X208280000Y-118110000D03*
%TD*%
D18*
%TO.N,/CTSB*%
X205740000Y-87630000D02*
X203657200Y-87630000D01*
X203657200Y-87630000D02*
X201117200Y-90170000D01*
%TO.N,/RTSB*%
X207201889Y-91248111D02*
X202579089Y-91248111D01*
X208280000Y-90170000D02*
X207201889Y-91248111D01*
X202579089Y-91248111D02*
X201117200Y-92710000D01*
%TO.N,Net-(J1-Pad13)*%
X157480000Y-92710000D02*
X157480000Y-113030000D01*
X209358111Y-91883111D02*
X209106889Y-91631889D01*
X209358111Y-101791889D02*
X209358111Y-91883111D01*
X157480000Y-95250000D02*
X157480000Y-87884000D01*
X208280000Y-102870000D02*
X209358111Y-101791889D01*
X205740000Y-102870000D02*
X208280000Y-102870000D01*
X159004000Y-86360000D02*
X184861200Y-86360000D01*
X201371200Y-102870000D02*
X205740000Y-102870000D01*
X184861200Y-86360000D02*
X201371200Y-102870000D01*
X157480000Y-87884000D02*
X159004000Y-86360000D01*
X209106889Y-91631889D02*
X206818111Y-91631889D01*
X206818111Y-91631889D02*
X205740000Y-92710000D01*
%TO.N,/TxDB*%
X208280000Y-92710000D02*
X207201889Y-93788111D01*
X202579089Y-93788111D02*
X201117200Y-95250000D01*
X207201889Y-93788111D02*
X202579089Y-93788111D01*
%TO.N,/RxDB*%
X205740000Y-95250000D02*
X203200000Y-97790000D01*
X203200000Y-97790000D02*
X201117200Y-97790000D01*
%TO.N,/F38400*%
X162308400Y-91691600D02*
X165100000Y-88900000D01*
X160020000Y-97790000D02*
X161546400Y-97790000D01*
X162308400Y-97028000D02*
X162308400Y-91691600D01*
X161546400Y-97790000D02*
X162308400Y-97028000D01*
%TO.N,/F19200*%
X162612720Y-99314000D02*
X162612720Y-93927280D01*
X160020000Y-100330000D02*
X161596720Y-100330000D01*
X161596720Y-100330000D02*
X162612720Y-99314000D01*
X162612720Y-93927280D02*
X165100000Y-91440000D01*
%TO.N,/F9600*%
X161901040Y-102870000D02*
X162917040Y-101854000D01*
X162917040Y-96162960D02*
X165100000Y-93980000D01*
X162917040Y-101854000D02*
X162917040Y-96162960D01*
X160020000Y-102870000D02*
X161901040Y-102870000D01*
%TO.N,/F4800*%
X160020000Y-105410000D02*
X162205360Y-105410000D01*
X163221360Y-104394000D02*
X163221360Y-98398640D01*
X163221360Y-98398640D02*
X165100000Y-96520000D01*
X162205360Y-105410000D02*
X163221360Y-104394000D01*
%TO.N,/F2400*%
X162560000Y-107950000D02*
X163525680Y-106984320D01*
X163525680Y-100634320D02*
X165100000Y-99060000D01*
X160020000Y-107950000D02*
X162560000Y-107950000D01*
X163525680Y-106984320D02*
X163525680Y-100634320D01*
%TO.N,/F1200*%
X163830000Y-109728000D02*
X163830000Y-105410000D01*
X160020000Y-110490000D02*
X163068000Y-110490000D01*
X163068000Y-110490000D02*
X163830000Y-109728000D01*
X163830000Y-105410000D02*
X165100000Y-104140000D01*
%TO.N,/F300*%
X161290000Y-113030000D02*
X165100000Y-109220000D01*
X160020000Y-113030000D02*
X161290000Y-113030000D01*
%TO.N,Net-(R1-Pad2)*%
X180340000Y-91440000D02*
X182372000Y-91440000D01*
X182372000Y-91440000D02*
X184658000Y-89154000D01*
%TO.N,Net-(R2-Pad2)*%
X180340000Y-93980000D02*
X184658000Y-93980000D01*
%TO.N,Net-(R3-Pad2)*%
X184658000Y-100602800D02*
X194515600Y-110460400D01*
X173748111Y-103111889D02*
X180352111Y-103111889D01*
X165100000Y-111760000D02*
X173748111Y-103111889D01*
X194515600Y-110460400D02*
X201015600Y-110460400D01*
X180352111Y-103111889D02*
X184658000Y-98806000D01*
X184658000Y-98806000D02*
X184658000Y-100602800D01*
%TD*%
%TA.AperFunction,Conductor*%
%TO.N,+5V*%
G36*
X158570429Y-85745002D02*
G01*
X158616922Y-85798658D01*
X158627026Y-85868932D01*
X158597532Y-85933512D01*
X158593024Y-85938355D01*
X158586987Y-85942987D01*
X158581961Y-85949537D01*
X158581960Y-85949538D01*
X158568480Y-85967106D01*
X158557612Y-85979497D01*
X157099497Y-87437613D01*
X157087106Y-87448480D01*
X157062987Y-87466987D01*
X157003423Y-87544614D01*
X156969266Y-87589127D01*
X156965485Y-87598255D01*
X156910350Y-87731363D01*
X156895982Y-87840502D01*
X156890255Y-87884000D01*
X156891333Y-87892188D01*
X156894222Y-87914133D01*
X156895300Y-87930579D01*
X156895300Y-91406287D01*
X156875298Y-91474408D01*
X156827481Y-91518050D01*
X156766055Y-91550027D01*
X156753607Y-91556507D01*
X156749465Y-91559617D01*
X156612295Y-91662607D01*
X156574965Y-91690635D01*
X156571393Y-91694373D01*
X156472838Y-91797505D01*
X156420629Y-91852138D01*
X156417720Y-91856403D01*
X156417714Y-91856411D01*
X156408638Y-91869716D01*
X156294743Y-92036680D01*
X156200688Y-92239305D01*
X156140989Y-92454570D01*
X156117251Y-92676695D01*
X156117548Y-92681848D01*
X156117548Y-92681851D01*
X156123011Y-92776590D01*
X156130110Y-92899715D01*
X156131247Y-92904761D01*
X156131248Y-92904767D01*
X156146806Y-92973802D01*
X156179222Y-93117639D01*
X156263266Y-93324616D01*
X156306581Y-93395300D01*
X156377291Y-93510688D01*
X156379987Y-93515088D01*
X156526250Y-93683938D01*
X156698126Y-93826632D01*
X156767153Y-93866968D01*
X156771445Y-93869476D01*
X156820169Y-93921114D01*
X156833240Y-93990897D01*
X156806509Y-94056669D01*
X156766054Y-94090028D01*
X156753607Y-94096507D01*
X156749465Y-94099617D01*
X156586919Y-94221660D01*
X156574965Y-94230635D01*
X156420629Y-94392138D01*
X156417720Y-94396403D01*
X156417714Y-94396411D01*
X156335629Y-94516743D01*
X156294743Y-94576680D01*
X156247715Y-94677993D01*
X156209423Y-94760488D01*
X156200688Y-94779305D01*
X156140989Y-94994570D01*
X156117251Y-95216695D01*
X156117548Y-95221848D01*
X156117548Y-95221851D01*
X156126676Y-95380151D01*
X156130110Y-95439715D01*
X156131247Y-95444761D01*
X156131248Y-95444767D01*
X156146806Y-95513802D01*
X156179222Y-95657639D01*
X156263266Y-95864616D01*
X156314019Y-95947438D01*
X156377291Y-96050688D01*
X156379987Y-96055088D01*
X156526250Y-96223938D01*
X156698126Y-96366632D01*
X156736779Y-96389219D01*
X156771445Y-96409476D01*
X156820169Y-96461114D01*
X156833240Y-96530897D01*
X156806509Y-96596669D01*
X156766054Y-96630028D01*
X156753607Y-96636507D01*
X156749465Y-96639617D01*
X156612295Y-96742607D01*
X156574965Y-96770635D01*
X156420629Y-96932138D01*
X156294743Y-97116680D01*
X156200688Y-97319305D01*
X156140989Y-97534570D01*
X156117251Y-97756695D01*
X156117548Y-97761848D01*
X156117548Y-97761851D01*
X156122721Y-97851563D01*
X156130110Y-97979715D01*
X156131247Y-97984761D01*
X156131248Y-97984767D01*
X156146806Y-98053802D01*
X156179222Y-98197639D01*
X156222368Y-98303896D01*
X156258414Y-98392666D01*
X156263266Y-98404616D01*
X156314022Y-98487442D01*
X156377291Y-98590688D01*
X156379987Y-98595088D01*
X156526250Y-98763938D01*
X156698126Y-98906632D01*
X156768595Y-98947811D01*
X156771445Y-98949476D01*
X156820169Y-99001114D01*
X156833240Y-99070897D01*
X156806509Y-99136669D01*
X156766054Y-99170028D01*
X156753607Y-99176507D01*
X156749465Y-99179617D01*
X156612295Y-99282607D01*
X156574965Y-99310635D01*
X156420629Y-99472138D01*
X156417720Y-99476403D01*
X156417714Y-99476411D01*
X156382915Y-99527424D01*
X156294743Y-99656680D01*
X156200688Y-99859305D01*
X156140989Y-100074570D01*
X156117251Y-100296695D01*
X156117548Y-100301848D01*
X156117548Y-100301851D01*
X156122721Y-100391563D01*
X156130110Y-100519715D01*
X156131247Y-100524761D01*
X156131248Y-100524767D01*
X156155304Y-100631508D01*
X156179222Y-100737639D01*
X156227288Y-100856013D01*
X156258414Y-100932666D01*
X156263266Y-100944616D01*
X156305333Y-101013263D01*
X156377291Y-101130688D01*
X156379987Y-101135088D01*
X156526250Y-101303938D01*
X156698126Y-101446632D01*
X156768595Y-101487811D01*
X156771445Y-101489476D01*
X156820169Y-101541114D01*
X156833240Y-101610897D01*
X156806509Y-101676669D01*
X156766054Y-101710028D01*
X156753607Y-101716507D01*
X156749465Y-101719617D01*
X156602169Y-101830210D01*
X156574965Y-101850635D01*
X156420629Y-102012138D01*
X156294743Y-102196680D01*
X156264765Y-102261263D01*
X156228272Y-102339881D01*
X156200688Y-102399305D01*
X156140989Y-102614570D01*
X156117251Y-102836695D01*
X156117548Y-102841848D01*
X156117548Y-102841851D01*
X156123011Y-102936590D01*
X156130110Y-103059715D01*
X156131247Y-103064761D01*
X156131248Y-103064767D01*
X156146806Y-103133802D01*
X156179222Y-103277639D01*
X156217461Y-103371811D01*
X156258414Y-103472666D01*
X156263266Y-103484616D01*
X156314019Y-103567438D01*
X156377291Y-103670688D01*
X156379987Y-103675088D01*
X156526250Y-103843938D01*
X156698126Y-103986632D01*
X156768595Y-104027811D01*
X156771445Y-104029476D01*
X156820169Y-104081114D01*
X156833240Y-104150897D01*
X156806509Y-104216669D01*
X156766054Y-104250028D01*
X156753607Y-104256507D01*
X156749465Y-104259617D01*
X156612295Y-104362607D01*
X156574965Y-104390635D01*
X156420629Y-104552138D01*
X156294743Y-104736680D01*
X156262892Y-104805298D01*
X156206854Y-104926022D01*
X156200688Y-104939305D01*
X156140989Y-105154570D01*
X156117251Y-105376695D01*
X156117548Y-105381848D01*
X156117548Y-105381851D01*
X156123011Y-105476590D01*
X156130110Y-105599715D01*
X156131247Y-105604761D01*
X156131248Y-105604767D01*
X156146806Y-105673802D01*
X156179222Y-105817639D01*
X156217461Y-105911811D01*
X156258414Y-106012666D01*
X156263266Y-106024616D01*
X156314019Y-106107438D01*
X156377291Y-106210688D01*
X156379987Y-106215088D01*
X156526250Y-106383938D01*
X156698126Y-106526632D01*
X156768595Y-106567811D01*
X156771445Y-106569476D01*
X156820169Y-106621114D01*
X156833240Y-106690897D01*
X156806509Y-106756669D01*
X156766054Y-106790028D01*
X156753607Y-106796507D01*
X156749465Y-106799617D01*
X156612295Y-106902607D01*
X156574965Y-106930635D01*
X156420629Y-107092138D01*
X156294743Y-107276680D01*
X156200688Y-107479305D01*
X156140989Y-107694570D01*
X156117251Y-107916695D01*
X156117548Y-107921848D01*
X156117548Y-107921851D01*
X156123011Y-108016590D01*
X156130110Y-108139715D01*
X156131247Y-108144761D01*
X156131248Y-108144767D01*
X156146806Y-108213802D01*
X156179222Y-108357639D01*
X156217461Y-108451811D01*
X156258414Y-108552666D01*
X156263266Y-108564616D01*
X156314019Y-108647438D01*
X156377291Y-108750688D01*
X156379987Y-108755088D01*
X156526250Y-108923938D01*
X156698126Y-109066632D01*
X156768595Y-109107811D01*
X156771445Y-109109476D01*
X156820169Y-109161114D01*
X156833240Y-109230897D01*
X156806509Y-109296669D01*
X156766054Y-109330028D01*
X156753607Y-109336507D01*
X156749465Y-109339617D01*
X156612295Y-109442607D01*
X156574965Y-109470635D01*
X156420629Y-109632138D01*
X156294743Y-109816680D01*
X156262892Y-109885298D01*
X156227377Y-109961809D01*
X156200688Y-110019305D01*
X156140989Y-110234570D01*
X156117251Y-110456695D01*
X156117548Y-110461848D01*
X156117548Y-110461851D01*
X156123011Y-110556590D01*
X156130110Y-110679715D01*
X156131247Y-110684761D01*
X156131248Y-110684767D01*
X156146806Y-110753802D01*
X156179222Y-110897639D01*
X156216299Y-110988949D01*
X156258414Y-111092666D01*
X156263266Y-111104616D01*
X156314019Y-111187438D01*
X156377291Y-111290688D01*
X156379987Y-111295088D01*
X156526250Y-111463938D01*
X156698126Y-111606632D01*
X156759196Y-111642318D01*
X156771445Y-111649476D01*
X156820169Y-111701114D01*
X156833240Y-111770897D01*
X156806509Y-111836669D01*
X156766054Y-111870028D01*
X156753607Y-111876507D01*
X156749465Y-111879617D01*
X156583866Y-112003952D01*
X156574965Y-112010635D01*
X156535525Y-112051907D01*
X156481280Y-112108671D01*
X156420629Y-112172138D01*
X156294743Y-112356680D01*
X156200688Y-112559305D01*
X156140989Y-112774570D01*
X156117251Y-112996695D01*
X156117548Y-113001848D01*
X156117548Y-113001851D01*
X156123011Y-113096590D01*
X156130110Y-113219715D01*
X156131247Y-113224761D01*
X156131248Y-113224767D01*
X156146806Y-113293802D01*
X156179222Y-113437639D01*
X156263266Y-113644616D01*
X156300685Y-113705678D01*
X156377291Y-113830688D01*
X156379987Y-113835088D01*
X156526250Y-114003938D01*
X156698126Y-114146632D01*
X156891000Y-114259338D01*
X157099692Y-114339030D01*
X157104760Y-114340061D01*
X157104763Y-114340062D01*
X157209466Y-114361364D01*
X157318597Y-114383567D01*
X157323772Y-114383757D01*
X157323774Y-114383757D01*
X157536673Y-114391564D01*
X157536677Y-114391564D01*
X157541837Y-114391753D01*
X157546957Y-114391097D01*
X157546959Y-114391097D01*
X157758288Y-114364025D01*
X157758289Y-114364025D01*
X157763416Y-114363368D01*
X157770096Y-114361364D01*
X157972429Y-114300661D01*
X157972434Y-114300659D01*
X157977384Y-114299174D01*
X158177994Y-114200896D01*
X158359860Y-114071173D01*
X158468091Y-113963319D01*
X158530462Y-113929404D01*
X158601268Y-113934592D01*
X158658030Y-113977238D01*
X158675012Y-114008341D01*
X158696852Y-114066598D01*
X158719385Y-114126705D01*
X158806739Y-114243261D01*
X158923295Y-114330615D01*
X159059684Y-114381745D01*
X159121866Y-114388500D01*
X160918134Y-114388500D01*
X160980316Y-114381745D01*
X161116705Y-114330615D01*
X161233261Y-114243261D01*
X161320615Y-114126705D01*
X161371745Y-113990316D01*
X161378500Y-113928134D01*
X161378500Y-113710407D01*
X161398502Y-113642286D01*
X161456282Y-113593998D01*
X161543213Y-113557990D01*
X161577239Y-113543896D01*
X161584873Y-113540734D01*
X161629386Y-113506577D01*
X161707013Y-113447013D01*
X161712039Y-113440463D01*
X161712043Y-113440459D01*
X161725523Y-113422891D01*
X161736391Y-113410499D01*
X163580028Y-111566863D01*
X163642340Y-111532837D01*
X163713156Y-111537902D01*
X163769991Y-111580449D01*
X163794802Y-111646969D01*
X163794643Y-111666940D01*
X163786981Y-111754514D01*
X163786981Y-111754525D01*
X163786502Y-111760000D01*
X163806457Y-111988087D01*
X163807881Y-111993400D01*
X163807881Y-111993402D01*
X163863941Y-112202617D01*
X163865716Y-112209243D01*
X163868039Y-112214224D01*
X163868039Y-112214225D01*
X163960151Y-112411762D01*
X163960154Y-112411767D01*
X163962477Y-112416749D01*
X163965634Y-112421257D01*
X164084281Y-112590702D01*
X164093802Y-112604300D01*
X164255700Y-112766198D01*
X164260208Y-112769355D01*
X164260211Y-112769357D01*
X164307319Y-112802342D01*
X164443251Y-112897523D01*
X164448233Y-112899846D01*
X164448238Y-112899849D01*
X164482457Y-112915805D01*
X164535742Y-112962722D01*
X164555203Y-113030999D01*
X164534661Y-113098959D01*
X164482457Y-113144195D01*
X164448238Y-113160151D01*
X164448233Y-113160154D01*
X164443251Y-113162477D01*
X164368888Y-113214547D01*
X164260211Y-113290643D01*
X164260208Y-113290645D01*
X164255700Y-113293802D01*
X164093802Y-113455700D01*
X164090645Y-113460208D01*
X164090643Y-113460211D01*
X164058177Y-113506577D01*
X163962477Y-113643251D01*
X163960154Y-113648233D01*
X163960151Y-113648238D01*
X163871203Y-113838990D01*
X163865716Y-113850757D01*
X163864294Y-113856065D01*
X163864293Y-113856067D01*
X163823491Y-114008341D01*
X163806457Y-114071913D01*
X163786502Y-114300000D01*
X163806457Y-114528087D01*
X163807881Y-114533400D01*
X163807881Y-114533402D01*
X163863941Y-114742617D01*
X163865716Y-114749243D01*
X163868039Y-114754224D01*
X163868039Y-114754225D01*
X163960151Y-114951762D01*
X163960154Y-114951767D01*
X163962477Y-114956749D01*
X164035902Y-115061611D01*
X164084281Y-115130702D01*
X164093802Y-115144300D01*
X164255700Y-115306198D01*
X164260208Y-115309355D01*
X164260211Y-115309357D01*
X164307319Y-115342342D01*
X164443251Y-115437523D01*
X164448233Y-115439846D01*
X164448238Y-115439849D01*
X164482457Y-115455805D01*
X164535742Y-115502722D01*
X164555203Y-115570999D01*
X164534661Y-115638959D01*
X164482457Y-115684195D01*
X164448238Y-115700151D01*
X164448233Y-115700154D01*
X164443251Y-115702477D01*
X164368888Y-115754547D01*
X164260211Y-115830643D01*
X164260208Y-115830645D01*
X164255700Y-115833802D01*
X164093802Y-115995700D01*
X164090645Y-116000208D01*
X164090643Y-116000211D01*
X164050403Y-116057680D01*
X163962477Y-116183251D01*
X163960154Y-116188233D01*
X163960151Y-116188238D01*
X163871203Y-116378990D01*
X163865716Y-116390757D01*
X163864294Y-116396065D01*
X163864293Y-116396067D01*
X163807881Y-116606598D01*
X163806457Y-116611913D01*
X163786502Y-116840000D01*
X163806457Y-117068087D01*
X163807881Y-117073400D01*
X163807881Y-117073402D01*
X163863941Y-117282617D01*
X163865716Y-117289243D01*
X163868039Y-117294224D01*
X163868039Y-117294225D01*
X163960151Y-117491762D01*
X163960154Y-117491767D01*
X163962477Y-117496749D01*
X163965634Y-117501257D01*
X164084281Y-117670702D01*
X164093802Y-117684300D01*
X164255700Y-117846198D01*
X164260208Y-117849355D01*
X164260211Y-117849357D01*
X164298264Y-117876002D01*
X164443251Y-117977523D01*
X164448233Y-117979846D01*
X164448238Y-117979849D01*
X164645775Y-118071961D01*
X164650757Y-118074284D01*
X164656065Y-118075706D01*
X164656067Y-118075707D01*
X164866598Y-118132119D01*
X164866600Y-118132119D01*
X164871913Y-118133543D01*
X165100000Y-118153498D01*
X165328087Y-118133543D01*
X165333400Y-118132119D01*
X165333402Y-118132119D01*
X165543933Y-118075707D01*
X165543935Y-118075706D01*
X165549243Y-118074284D01*
X165554225Y-118071961D01*
X165751762Y-117979849D01*
X165751767Y-117979846D01*
X165756749Y-117977523D01*
X165901736Y-117876002D01*
X165939789Y-117849357D01*
X165939792Y-117849355D01*
X165944300Y-117846198D01*
X166106198Y-117684300D01*
X166115720Y-117670702D01*
X166234366Y-117501257D01*
X166237523Y-117496749D01*
X166239846Y-117491767D01*
X166239849Y-117491762D01*
X166331961Y-117294225D01*
X166331961Y-117294224D01*
X166334284Y-117289243D01*
X166336060Y-117282617D01*
X166392119Y-117073402D01*
X166392119Y-117073400D01*
X166393543Y-117068087D01*
X166413498Y-116840000D01*
X166393543Y-116611913D01*
X166392119Y-116606598D01*
X166335707Y-116396067D01*
X166335706Y-116396065D01*
X166334284Y-116390757D01*
X166328797Y-116378990D01*
X166239849Y-116188238D01*
X166239846Y-116188233D01*
X166237523Y-116183251D01*
X166149597Y-116057680D01*
X166109357Y-116000211D01*
X166109355Y-116000208D01*
X166106198Y-115995700D01*
X165944300Y-115833802D01*
X165939792Y-115830645D01*
X165939789Y-115830643D01*
X165831112Y-115754547D01*
X165756749Y-115702477D01*
X165751767Y-115700154D01*
X165751762Y-115700151D01*
X165717543Y-115684195D01*
X165664258Y-115637278D01*
X165644797Y-115569001D01*
X165665339Y-115501041D01*
X165717543Y-115455805D01*
X165751762Y-115439849D01*
X165751767Y-115439846D01*
X165756749Y-115437523D01*
X165892681Y-115342342D01*
X165939789Y-115309357D01*
X165939792Y-115309355D01*
X165944300Y-115306198D01*
X166106198Y-115144300D01*
X166115720Y-115130702D01*
X166164098Y-115061611D01*
X166237523Y-114956749D01*
X166239846Y-114951767D01*
X166239849Y-114951762D01*
X166331961Y-114754225D01*
X166331961Y-114754224D01*
X166334284Y-114749243D01*
X166336060Y-114742617D01*
X166392119Y-114533402D01*
X166392119Y-114533400D01*
X166393543Y-114528087D01*
X166413498Y-114300000D01*
X166393543Y-114071913D01*
X166376509Y-114008341D01*
X166335707Y-113856067D01*
X166335706Y-113856065D01*
X166334284Y-113850757D01*
X166328797Y-113838990D01*
X166239849Y-113648238D01*
X166239846Y-113648233D01*
X166237523Y-113643251D01*
X166141823Y-113506577D01*
X166109357Y-113460211D01*
X166109355Y-113460208D01*
X166106198Y-113455700D01*
X165944300Y-113293802D01*
X165939792Y-113290645D01*
X165939789Y-113290643D01*
X165831112Y-113214547D01*
X165756749Y-113162477D01*
X165751767Y-113160154D01*
X165751762Y-113160151D01*
X165717543Y-113144195D01*
X165664258Y-113097278D01*
X165644797Y-113029001D01*
X165665339Y-112961041D01*
X165717543Y-112915805D01*
X165751762Y-112899849D01*
X165751767Y-112899846D01*
X165756749Y-112897523D01*
X165892681Y-112802342D01*
X165939789Y-112769357D01*
X165939792Y-112769355D01*
X165944300Y-112766198D01*
X166106198Y-112604300D01*
X166115720Y-112590702D01*
X166234366Y-112421257D01*
X166237523Y-112416749D01*
X166239846Y-112411767D01*
X166239849Y-112411762D01*
X166331961Y-112214225D01*
X166331961Y-112214224D01*
X166334284Y-112209243D01*
X166336060Y-112202617D01*
X166392119Y-111993402D01*
X166392119Y-111993400D01*
X166393543Y-111988087D01*
X166413498Y-111760000D01*
X166393543Y-111531913D01*
X166379024Y-111477727D01*
X166361956Y-111414028D01*
X166363646Y-111343052D01*
X166394568Y-111292322D01*
X173953396Y-103733494D01*
X174015708Y-103699468D01*
X174042491Y-103696589D01*
X178939946Y-103696589D01*
X179008067Y-103716591D01*
X179054560Y-103770247D01*
X179064664Y-103840521D01*
X179061653Y-103855200D01*
X179047881Y-103906598D01*
X179046457Y-103911913D01*
X179026502Y-104140000D01*
X179046457Y-104368087D01*
X179047881Y-104373400D01*
X179047881Y-104373402D01*
X179103941Y-104582617D01*
X179105716Y-104589243D01*
X179108039Y-104594224D01*
X179108039Y-104594225D01*
X179200151Y-104791762D01*
X179200154Y-104791767D01*
X179202477Y-104796749D01*
X179275902Y-104901611D01*
X179324281Y-104970702D01*
X179333802Y-104984300D01*
X179495700Y-105146198D01*
X179500208Y-105149355D01*
X179500211Y-105149357D01*
X179547319Y-105182342D01*
X179683251Y-105277523D01*
X179688233Y-105279846D01*
X179688238Y-105279849D01*
X179722457Y-105295805D01*
X179775742Y-105342722D01*
X179795203Y-105410999D01*
X179774661Y-105478959D01*
X179722457Y-105524195D01*
X179688238Y-105540151D01*
X179688233Y-105540154D01*
X179683251Y-105542477D01*
X179608888Y-105594547D01*
X179500211Y-105670643D01*
X179500208Y-105670645D01*
X179495700Y-105673802D01*
X179333802Y-105835700D01*
X179202477Y-106023251D01*
X179200154Y-106028233D01*
X179200151Y-106028238D01*
X179111203Y-106218990D01*
X179105716Y-106230757D01*
X179046457Y-106451913D01*
X179026502Y-106680000D01*
X179046457Y-106908087D01*
X179047881Y-106913400D01*
X179047881Y-106913402D01*
X179103941Y-107122617D01*
X179105716Y-107129243D01*
X179108039Y-107134224D01*
X179108039Y-107134225D01*
X179200151Y-107331762D01*
X179200154Y-107331767D01*
X179202477Y-107336749D01*
X179220452Y-107362420D01*
X179324281Y-107510702D01*
X179333802Y-107524300D01*
X179495700Y-107686198D01*
X179500208Y-107689355D01*
X179500211Y-107689357D01*
X179547319Y-107722342D01*
X179683251Y-107817523D01*
X179688233Y-107819846D01*
X179688238Y-107819849D01*
X179722457Y-107835805D01*
X179775742Y-107882722D01*
X179795203Y-107950999D01*
X179774661Y-108018959D01*
X179722457Y-108064195D01*
X179688238Y-108080151D01*
X179688233Y-108080154D01*
X179683251Y-108082477D01*
X179654700Y-108102469D01*
X179500211Y-108210643D01*
X179500208Y-108210645D01*
X179495700Y-108213802D01*
X179333802Y-108375700D01*
X179202477Y-108563251D01*
X179200154Y-108568233D01*
X179200151Y-108568238D01*
X179111491Y-108758372D01*
X179105716Y-108770757D01*
X179104294Y-108776065D01*
X179104293Y-108776067D01*
X179062966Y-108930301D01*
X179046457Y-108991913D01*
X179026502Y-109220000D01*
X179046457Y-109448087D01*
X179047881Y-109453400D01*
X179047881Y-109453402D01*
X179103941Y-109662617D01*
X179105716Y-109669243D01*
X179108039Y-109674224D01*
X179108039Y-109674225D01*
X179200151Y-109871762D01*
X179200154Y-109871767D01*
X179202477Y-109876749D01*
X179213007Y-109891787D01*
X179324281Y-110050702D01*
X179333802Y-110064300D01*
X179495700Y-110226198D01*
X179500208Y-110229355D01*
X179500211Y-110229357D01*
X179523810Y-110245881D01*
X179683251Y-110357523D01*
X179688233Y-110359846D01*
X179688238Y-110359849D01*
X179722457Y-110375805D01*
X179775742Y-110422722D01*
X179795203Y-110490999D01*
X179774661Y-110558959D01*
X179722457Y-110604195D01*
X179688238Y-110620151D01*
X179688233Y-110620154D01*
X179683251Y-110622477D01*
X179608888Y-110674547D01*
X179500211Y-110750643D01*
X179500208Y-110750645D01*
X179495700Y-110753802D01*
X179333802Y-110915700D01*
X179330645Y-110920208D01*
X179330643Y-110920211D01*
X179303489Y-110958991D01*
X179202477Y-111103251D01*
X179200154Y-111108233D01*
X179200151Y-111108238D01*
X179111203Y-111298990D01*
X179105716Y-111310757D01*
X179104294Y-111316065D01*
X179104293Y-111316067D01*
X179060976Y-111477727D01*
X179046457Y-111531913D01*
X179026502Y-111760000D01*
X179046457Y-111988087D01*
X179047881Y-111993400D01*
X179047881Y-111993402D01*
X179103941Y-112202617D01*
X179105716Y-112209243D01*
X179108039Y-112214224D01*
X179108039Y-112214225D01*
X179200151Y-112411762D01*
X179200154Y-112411767D01*
X179202477Y-112416749D01*
X179205634Y-112421257D01*
X179324281Y-112590702D01*
X179333802Y-112604300D01*
X179495700Y-112766198D01*
X179500208Y-112769355D01*
X179500211Y-112769357D01*
X179547319Y-112802342D01*
X179683251Y-112897523D01*
X179688233Y-112899846D01*
X179688238Y-112899849D01*
X179722457Y-112915805D01*
X179775742Y-112962722D01*
X179795203Y-113030999D01*
X179774661Y-113098959D01*
X179722457Y-113144195D01*
X179688238Y-113160151D01*
X179688233Y-113160154D01*
X179683251Y-113162477D01*
X179608888Y-113214547D01*
X179500211Y-113290643D01*
X179500208Y-113290645D01*
X179495700Y-113293802D01*
X179333802Y-113455700D01*
X179330645Y-113460208D01*
X179330643Y-113460211D01*
X179298177Y-113506577D01*
X179202477Y-113643251D01*
X179200154Y-113648233D01*
X179200151Y-113648238D01*
X179111203Y-113838990D01*
X179105716Y-113850757D01*
X179104294Y-113856065D01*
X179104293Y-113856067D01*
X179063491Y-114008341D01*
X179046457Y-114071913D01*
X179026502Y-114300000D01*
X179046457Y-114528087D01*
X179047881Y-114533400D01*
X179047881Y-114533402D01*
X179103941Y-114742617D01*
X179105716Y-114749243D01*
X179108039Y-114754224D01*
X179108039Y-114754225D01*
X179200151Y-114951762D01*
X179200154Y-114951767D01*
X179202477Y-114956749D01*
X179275902Y-115061611D01*
X179324281Y-115130702D01*
X179333802Y-115144300D01*
X179495700Y-115306198D01*
X179500208Y-115309355D01*
X179500211Y-115309357D01*
X179547319Y-115342342D01*
X179683251Y-115437523D01*
X179688233Y-115439846D01*
X179688238Y-115439849D01*
X179722457Y-115455805D01*
X179775742Y-115502722D01*
X179795203Y-115570999D01*
X179774661Y-115638959D01*
X179722457Y-115684195D01*
X179688238Y-115700151D01*
X179688233Y-115700154D01*
X179683251Y-115702477D01*
X179608888Y-115754547D01*
X179500211Y-115830643D01*
X179500208Y-115830645D01*
X179495700Y-115833802D01*
X179333802Y-115995700D01*
X179330645Y-116000208D01*
X179330643Y-116000211D01*
X179290403Y-116057680D01*
X179202477Y-116183251D01*
X179200154Y-116188233D01*
X179200151Y-116188238D01*
X179111203Y-116378990D01*
X179105716Y-116390757D01*
X179104294Y-116396065D01*
X179104293Y-116396067D01*
X179047881Y-116606598D01*
X179046457Y-116611913D01*
X179026502Y-116840000D01*
X179046457Y-117068087D01*
X179047881Y-117073400D01*
X179047881Y-117073402D01*
X179103941Y-117282617D01*
X179105716Y-117289243D01*
X179108039Y-117294224D01*
X179108039Y-117294225D01*
X179200151Y-117491762D01*
X179200154Y-117491767D01*
X179202477Y-117496749D01*
X179205634Y-117501257D01*
X179324281Y-117670702D01*
X179333802Y-117684300D01*
X179495700Y-117846198D01*
X179500208Y-117849355D01*
X179500211Y-117849357D01*
X179538264Y-117876002D01*
X179683251Y-117977523D01*
X179688233Y-117979846D01*
X179688238Y-117979849D01*
X179885775Y-118071961D01*
X179890757Y-118074284D01*
X179896065Y-118075706D01*
X179896067Y-118075707D01*
X180106598Y-118132119D01*
X180106600Y-118132119D01*
X180111913Y-118133543D01*
X180340000Y-118153498D01*
X180568087Y-118133543D01*
X180573400Y-118132119D01*
X180573402Y-118132119D01*
X180783933Y-118075707D01*
X180783935Y-118075706D01*
X180789243Y-118074284D01*
X180794225Y-118071961D01*
X180991762Y-117979849D01*
X180991767Y-117979846D01*
X180996749Y-117977523D01*
X181141736Y-117876002D01*
X181179789Y-117849357D01*
X181179792Y-117849355D01*
X181184300Y-117846198D01*
X181346198Y-117684300D01*
X181355720Y-117670702D01*
X181474366Y-117501257D01*
X181477523Y-117496749D01*
X181479846Y-117491767D01*
X181479849Y-117491762D01*
X181571961Y-117294225D01*
X181571961Y-117294224D01*
X181574284Y-117289243D01*
X181576060Y-117282617D01*
X181632119Y-117073402D01*
X181632119Y-117073400D01*
X181633543Y-117068087D01*
X181653498Y-116840000D01*
X181633543Y-116611913D01*
X181632119Y-116606598D01*
X181575707Y-116396067D01*
X181575706Y-116396065D01*
X181574284Y-116390757D01*
X181568797Y-116378990D01*
X181479849Y-116188238D01*
X181479846Y-116188233D01*
X181477523Y-116183251D01*
X181389597Y-116057680D01*
X181349357Y-116000211D01*
X181349355Y-116000208D01*
X181346198Y-115995700D01*
X181184300Y-115833802D01*
X181179792Y-115830645D01*
X181179789Y-115830643D01*
X181071112Y-115754547D01*
X180996749Y-115702477D01*
X180991767Y-115700154D01*
X180991762Y-115700151D01*
X180957543Y-115684195D01*
X180904258Y-115637278D01*
X180884797Y-115569001D01*
X180905339Y-115501041D01*
X180957543Y-115455805D01*
X180991762Y-115439849D01*
X180991767Y-115439846D01*
X180996749Y-115437523D01*
X181132681Y-115342342D01*
X181179789Y-115309357D01*
X181179792Y-115309355D01*
X181184300Y-115306198D01*
X181346198Y-115144300D01*
X181355720Y-115130702D01*
X181404098Y-115061611D01*
X181477523Y-114956749D01*
X181479846Y-114951767D01*
X181479849Y-114951762D01*
X181494100Y-114921200D01*
X186544293Y-114921200D01*
X186563485Y-115140571D01*
X186620480Y-115353276D01*
X186622805Y-115358261D01*
X186711218Y-115547866D01*
X186711221Y-115547871D01*
X186713544Y-115552853D01*
X186716700Y-115557360D01*
X186716701Y-115557362D01*
X186808405Y-115688328D01*
X186839851Y-115733238D01*
X186995562Y-115888949D01*
X187000071Y-115892106D01*
X187000073Y-115892108D01*
X187029246Y-115912535D01*
X187175946Y-116015256D01*
X187375524Y-116108320D01*
X187588229Y-116165315D01*
X187807600Y-116184507D01*
X188026971Y-116165315D01*
X188239676Y-116108320D01*
X188439254Y-116015256D01*
X188585954Y-115912535D01*
X188615127Y-115892108D01*
X188615129Y-115892106D01*
X188619638Y-115888949D01*
X188775349Y-115733238D01*
X188806796Y-115688328D01*
X188898499Y-115557362D01*
X188898500Y-115557360D01*
X188901656Y-115552853D01*
X188903979Y-115547871D01*
X188903982Y-115547866D01*
X188992395Y-115358261D01*
X188994720Y-115353276D01*
X189051715Y-115140571D01*
X189067478Y-114960400D01*
X192902126Y-114960400D01*
X192921991Y-115212803D01*
X192981095Y-115458991D01*
X192982988Y-115463562D01*
X192982989Y-115463564D01*
X193054944Y-115637278D01*
X193077984Y-115692902D01*
X193210272Y-115908776D01*
X193374702Y-116101298D01*
X193567224Y-116265728D01*
X193783098Y-116398016D01*
X193787668Y-116399909D01*
X193787672Y-116399911D01*
X194012436Y-116493011D01*
X194017009Y-116494905D01*
X194084113Y-116511015D01*
X194258384Y-116552854D01*
X194258390Y-116552855D01*
X194263197Y-116554009D01*
X194515600Y-116573874D01*
X194768003Y-116554009D01*
X194772810Y-116552855D01*
X194772816Y-116552854D01*
X194947087Y-116511015D01*
X195014191Y-116494905D01*
X195018764Y-116493011D01*
X195243528Y-116399911D01*
X195243532Y-116399909D01*
X195248102Y-116398016D01*
X195463976Y-116265728D01*
X195648026Y-116108534D01*
X199407100Y-116108534D01*
X199413855Y-116170716D01*
X199464985Y-116307105D01*
X199552339Y-116423661D01*
X199668895Y-116511015D01*
X199805284Y-116562145D01*
X199867466Y-116568900D01*
X202163734Y-116568900D01*
X202225916Y-116562145D01*
X202362305Y-116511015D01*
X202478861Y-116423661D01*
X202566215Y-116307105D01*
X202617345Y-116170716D01*
X202624100Y-116108534D01*
X202624100Y-113812266D01*
X202617345Y-113750084D01*
X202566215Y-113613695D01*
X202478861Y-113497139D01*
X202362305Y-113409785D01*
X202225916Y-113358655D01*
X202163734Y-113351900D01*
X199867466Y-113351900D01*
X199805284Y-113358655D01*
X199668895Y-113409785D01*
X199552339Y-113497139D01*
X199464985Y-113613695D01*
X199413855Y-113750084D01*
X199407100Y-113812266D01*
X199407100Y-116108534D01*
X195648026Y-116108534D01*
X195656498Y-116101298D01*
X195820928Y-115908776D01*
X195953216Y-115692902D01*
X195976257Y-115637278D01*
X196048211Y-115463564D01*
X196048212Y-115463562D01*
X196050105Y-115458991D01*
X196109209Y-115212803D01*
X196129074Y-114960400D01*
X196109209Y-114707997D01*
X196107729Y-114701829D01*
X196051260Y-114466621D01*
X196050105Y-114461809D01*
X196037801Y-114432104D01*
X195955111Y-114232472D01*
X195955109Y-114232468D01*
X195953216Y-114227898D01*
X195820928Y-114012024D01*
X195656498Y-113819502D01*
X195463976Y-113655072D01*
X195248102Y-113522784D01*
X195243532Y-113520891D01*
X195243528Y-113520889D01*
X195018764Y-113427789D01*
X195018762Y-113427788D01*
X195014191Y-113425895D01*
X194929568Y-113405579D01*
X194772816Y-113367946D01*
X194772810Y-113367945D01*
X194768003Y-113366791D01*
X194515600Y-113346926D01*
X194263197Y-113366791D01*
X194258390Y-113367945D01*
X194258384Y-113367946D01*
X194101632Y-113405579D01*
X194017009Y-113425895D01*
X194012438Y-113427788D01*
X194012436Y-113427789D01*
X193787672Y-113520889D01*
X193787668Y-113520891D01*
X193783098Y-113522784D01*
X193567224Y-113655072D01*
X193374702Y-113819502D01*
X193210272Y-114012024D01*
X193077984Y-114227898D01*
X193076091Y-114232468D01*
X193076089Y-114232472D01*
X192993399Y-114432104D01*
X192981095Y-114461809D01*
X192979940Y-114466621D01*
X192923472Y-114701829D01*
X192921991Y-114707997D01*
X192902126Y-114960400D01*
X189067478Y-114960400D01*
X189070907Y-114921200D01*
X189051715Y-114701829D01*
X188994720Y-114489124D01*
X188935145Y-114361364D01*
X188903982Y-114294534D01*
X188903977Y-114294525D01*
X188901656Y-114289547D01*
X188881794Y-114261181D01*
X188778508Y-114113673D01*
X188778506Y-114113670D01*
X188775349Y-114109162D01*
X188619638Y-113953451D01*
X188588334Y-113931531D01*
X188480560Y-113856067D01*
X188439254Y-113827144D01*
X188239676Y-113734080D01*
X188026971Y-113677085D01*
X187807600Y-113657893D01*
X187588229Y-113677085D01*
X187375524Y-113734080D01*
X187324356Y-113757940D01*
X187180934Y-113824818D01*
X187180929Y-113824821D01*
X187175947Y-113827144D01*
X187171440Y-113830300D01*
X187171438Y-113830301D01*
X187000073Y-113950292D01*
X187000070Y-113950294D01*
X186995562Y-113953451D01*
X186839851Y-114109162D01*
X186836694Y-114113670D01*
X186836692Y-114113673D01*
X186733406Y-114261181D01*
X186713544Y-114289547D01*
X186711223Y-114294525D01*
X186711218Y-114294534D01*
X186680055Y-114361364D01*
X186620480Y-114489124D01*
X186563485Y-114701829D01*
X186544293Y-114921200D01*
X181494100Y-114921200D01*
X181571961Y-114754225D01*
X181571961Y-114754224D01*
X181574284Y-114749243D01*
X181576060Y-114742617D01*
X181632119Y-114533402D01*
X181632119Y-114533400D01*
X181633543Y-114528087D01*
X181653498Y-114300000D01*
X181633543Y-114071913D01*
X181616509Y-114008341D01*
X181575707Y-113856067D01*
X181575706Y-113856065D01*
X181574284Y-113850757D01*
X181568797Y-113838990D01*
X181479849Y-113648238D01*
X181479846Y-113648233D01*
X181477523Y-113643251D01*
X181381823Y-113506577D01*
X181349357Y-113460211D01*
X181349355Y-113460208D01*
X181346198Y-113455700D01*
X181184300Y-113293802D01*
X181179792Y-113290645D01*
X181179789Y-113290643D01*
X181071112Y-113214547D01*
X180996749Y-113162477D01*
X180991767Y-113160154D01*
X180991762Y-113160151D01*
X180957543Y-113144195D01*
X180904258Y-113097278D01*
X180884797Y-113029001D01*
X180905339Y-112961041D01*
X180957543Y-112915805D01*
X180991762Y-112899849D01*
X180991767Y-112899846D01*
X180996749Y-112897523D01*
X181132681Y-112802342D01*
X181179789Y-112769357D01*
X181179792Y-112769355D01*
X181184300Y-112766198D01*
X181346198Y-112604300D01*
X181355720Y-112590702D01*
X181474366Y-112421257D01*
X181477523Y-112416749D01*
X181479846Y-112411767D01*
X181479849Y-112411762D01*
X181571961Y-112214225D01*
X181571961Y-112214224D01*
X181574284Y-112209243D01*
X181576060Y-112202617D01*
X181632119Y-111993402D01*
X181632119Y-111993400D01*
X181633543Y-111988087D01*
X181653498Y-111760000D01*
X181633543Y-111531913D01*
X181619024Y-111477727D01*
X181575707Y-111316067D01*
X181575706Y-111316065D01*
X181574284Y-111310757D01*
X181568797Y-111298990D01*
X181479849Y-111108238D01*
X181479846Y-111108233D01*
X181477523Y-111103251D01*
X181376511Y-110958991D01*
X181349357Y-110920211D01*
X181349355Y-110920208D01*
X181346198Y-110915700D01*
X181184300Y-110753802D01*
X181179792Y-110750645D01*
X181179789Y-110750643D01*
X181071112Y-110674547D01*
X180996749Y-110622477D01*
X180991767Y-110620154D01*
X180991762Y-110620151D01*
X180957543Y-110604195D01*
X180904258Y-110557278D01*
X180884797Y-110489001D01*
X180905339Y-110421041D01*
X180957543Y-110375805D01*
X180991762Y-110359849D01*
X180991767Y-110359846D01*
X180996749Y-110357523D01*
X181156190Y-110245881D01*
X181179789Y-110229357D01*
X181179792Y-110229355D01*
X181184300Y-110226198D01*
X181346198Y-110064300D01*
X181355720Y-110050702D01*
X181376377Y-110021200D01*
X186544293Y-110021200D01*
X186563485Y-110240571D01*
X186620480Y-110453276D01*
X186639174Y-110493365D01*
X186711218Y-110647866D01*
X186711221Y-110647871D01*
X186713544Y-110652853D01*
X186716700Y-110657360D01*
X186716701Y-110657362D01*
X186758892Y-110717616D01*
X186839851Y-110833238D01*
X186995562Y-110988949D01*
X187000071Y-110992106D01*
X187000073Y-110992108D01*
X187074841Y-111044461D01*
X187175946Y-111115256D01*
X187375524Y-111208320D01*
X187588229Y-111265315D01*
X187807600Y-111284507D01*
X188026971Y-111265315D01*
X188239676Y-111208320D01*
X188439254Y-111115256D01*
X188540359Y-111044461D01*
X188615127Y-110992108D01*
X188615129Y-110992106D01*
X188619638Y-110988949D01*
X188775349Y-110833238D01*
X188856309Y-110717616D01*
X188898499Y-110657362D01*
X188898500Y-110657360D01*
X188901656Y-110652853D01*
X188903979Y-110647871D01*
X188903982Y-110647866D01*
X188976026Y-110493365D01*
X188994720Y-110453276D01*
X189051715Y-110240571D01*
X189070907Y-110021200D01*
X189051715Y-109801829D01*
X188994720Y-109589124D01*
X188926398Y-109442607D01*
X188903982Y-109394534D01*
X188903979Y-109394529D01*
X188901656Y-109389547D01*
X188879427Y-109357800D01*
X188778508Y-109213673D01*
X188778506Y-109213670D01*
X188775349Y-109209162D01*
X188619638Y-109053451D01*
X188579535Y-109025370D01*
X188524902Y-108987116D01*
X188439254Y-108927144D01*
X188239676Y-108834080D01*
X188026971Y-108777085D01*
X187807600Y-108757893D01*
X187588229Y-108777085D01*
X187375524Y-108834080D01*
X187347976Y-108846926D01*
X187180934Y-108924818D01*
X187180929Y-108924821D01*
X187175947Y-108927144D01*
X187171440Y-108930300D01*
X187171438Y-108930301D01*
X187000073Y-109050292D01*
X187000070Y-109050294D01*
X186995562Y-109053451D01*
X186839851Y-109209162D01*
X186836694Y-109213670D01*
X186836692Y-109213673D01*
X186735773Y-109357800D01*
X186713544Y-109389547D01*
X186711221Y-109394529D01*
X186711218Y-109394534D01*
X186688802Y-109442607D01*
X186620480Y-109589124D01*
X186563485Y-109801829D01*
X186544293Y-110021200D01*
X181376377Y-110021200D01*
X181466993Y-109891787D01*
X181477523Y-109876749D01*
X181479846Y-109871767D01*
X181479849Y-109871762D01*
X181571961Y-109674225D01*
X181571961Y-109674224D01*
X181574284Y-109669243D01*
X181576060Y-109662617D01*
X181632119Y-109453402D01*
X181632119Y-109453400D01*
X181633543Y-109448087D01*
X181653498Y-109220000D01*
X181633543Y-108991913D01*
X181617034Y-108930301D01*
X181575707Y-108776067D01*
X181575706Y-108776065D01*
X181574284Y-108770757D01*
X181568509Y-108758372D01*
X181479849Y-108568238D01*
X181479846Y-108568233D01*
X181477523Y-108563251D01*
X181346198Y-108375700D01*
X181184300Y-108213802D01*
X181179792Y-108210645D01*
X181179789Y-108210643D01*
X181025300Y-108102469D01*
X180996749Y-108082477D01*
X180991767Y-108080154D01*
X180991762Y-108080151D01*
X180957543Y-108064195D01*
X180904258Y-108017278D01*
X180884797Y-107949001D01*
X180905339Y-107881041D01*
X180957543Y-107835805D01*
X180991762Y-107819849D01*
X180991767Y-107819846D01*
X180996749Y-107817523D01*
X181132681Y-107722342D01*
X181179789Y-107689357D01*
X181179792Y-107689355D01*
X181184300Y-107686198D01*
X181346198Y-107524300D01*
X181355720Y-107510702D01*
X181459548Y-107362420D01*
X181477523Y-107336749D01*
X181479846Y-107331767D01*
X181479849Y-107331762D01*
X181571961Y-107134225D01*
X181571961Y-107134224D01*
X181574284Y-107129243D01*
X181576060Y-107122617D01*
X181632119Y-106913402D01*
X181632119Y-106913400D01*
X181633543Y-106908087D01*
X181653498Y-106680000D01*
X181633543Y-106451913D01*
X181574284Y-106230757D01*
X181568797Y-106218990D01*
X181479849Y-106028238D01*
X181479846Y-106028233D01*
X181477523Y-106023251D01*
X181346198Y-105835700D01*
X181184300Y-105673802D01*
X181179792Y-105670645D01*
X181179789Y-105670643D01*
X181071112Y-105594547D01*
X180996749Y-105542477D01*
X180991767Y-105540154D01*
X180991762Y-105540151D01*
X180957543Y-105524195D01*
X180904258Y-105477278D01*
X180884797Y-105409001D01*
X180905339Y-105341041D01*
X180957543Y-105295805D01*
X180991762Y-105279849D01*
X180991767Y-105279846D01*
X180996749Y-105277523D01*
X181132681Y-105182342D01*
X181179789Y-105149357D01*
X181179792Y-105149355D01*
X181184300Y-105146198D01*
X181346198Y-104984300D01*
X181355720Y-104970702D01*
X181404098Y-104901611D01*
X181477523Y-104796749D01*
X181479846Y-104791767D01*
X181479849Y-104791762D01*
X181571961Y-104594225D01*
X181571961Y-104594224D01*
X181574284Y-104589243D01*
X181576060Y-104582617D01*
X181632119Y-104373402D01*
X181632119Y-104373400D01*
X181633543Y-104368087D01*
X181653498Y-104140000D01*
X181633543Y-103911913D01*
X181615329Y-103843938D01*
X181575707Y-103696067D01*
X181575706Y-103696065D01*
X181574284Y-103690757D01*
X181568797Y-103678990D01*
X181479849Y-103488238D01*
X181479846Y-103488233D01*
X181477523Y-103483251D01*
X181346198Y-103295700D01*
X181259789Y-103209291D01*
X181225763Y-103146979D01*
X181230828Y-103076164D01*
X181259789Y-103031101D01*
X183858205Y-100432686D01*
X183920517Y-100398660D01*
X183991333Y-100403725D01*
X184048168Y-100446272D01*
X184072979Y-100512792D01*
X184073300Y-100521781D01*
X184073300Y-100556222D01*
X184072222Y-100572669D01*
X184068255Y-100602800D01*
X184073300Y-100641119D01*
X184073300Y-100641121D01*
X184088350Y-100755437D01*
X184130010Y-100856013D01*
X184147266Y-100897673D01*
X184152295Y-100904226D01*
X184152295Y-100904227D01*
X184171687Y-100929500D01*
X184235960Y-101013263D01*
X184235965Y-101013268D01*
X184240987Y-101019813D01*
X184247533Y-101024836D01*
X184247536Y-101024839D01*
X184265109Y-101038323D01*
X184277501Y-101049191D01*
X185657454Y-102429145D01*
X185691480Y-102491457D01*
X185686415Y-102562273D01*
X185643868Y-102619108D01*
X185577348Y-102643919D01*
X185507974Y-102628828D01*
X185496097Y-102621458D01*
X185314749Y-102494477D01*
X185309767Y-102492154D01*
X185309762Y-102492151D01*
X185112225Y-102400039D01*
X185112224Y-102400039D01*
X185107243Y-102397716D01*
X185101935Y-102396294D01*
X185101933Y-102396293D01*
X184891402Y-102339881D01*
X184891400Y-102339881D01*
X184886087Y-102338457D01*
X184658000Y-102318502D01*
X184429913Y-102338457D01*
X184424600Y-102339881D01*
X184424598Y-102339881D01*
X184214067Y-102396293D01*
X184214065Y-102396294D01*
X184208757Y-102397716D01*
X184203776Y-102400039D01*
X184203775Y-102400039D01*
X184006238Y-102492151D01*
X184006233Y-102492154D01*
X184001251Y-102494477D01*
X183956073Y-102526111D01*
X183818211Y-102622643D01*
X183818208Y-102622645D01*
X183813700Y-102625802D01*
X183651802Y-102787700D01*
X183648645Y-102792208D01*
X183648643Y-102792211D01*
X183641283Y-102802722D01*
X183520477Y-102975251D01*
X183518154Y-102980233D01*
X183518151Y-102980238D01*
X183426039Y-103177775D01*
X183423716Y-103182757D01*
X183422294Y-103188065D01*
X183422293Y-103188067D01*
X183365881Y-103398598D01*
X183364457Y-103403913D01*
X183344502Y-103632000D01*
X183364457Y-103860087D01*
X183365881Y-103865400D01*
X183365881Y-103865402D01*
X183412373Y-104038909D01*
X183423716Y-104081243D01*
X183426039Y-104086224D01*
X183426039Y-104086225D01*
X183518151Y-104283762D01*
X183518154Y-104283767D01*
X183520477Y-104288749D01*
X183523634Y-104293257D01*
X183610189Y-104416870D01*
X183651802Y-104476300D01*
X183813700Y-104638198D01*
X183818208Y-104641355D01*
X183818211Y-104641357D01*
X183896389Y-104696098D01*
X184001251Y-104769523D01*
X184006233Y-104771846D01*
X184006238Y-104771849D01*
X184203775Y-104863961D01*
X184208757Y-104866284D01*
X184214065Y-104867706D01*
X184214067Y-104867707D01*
X184424598Y-104924119D01*
X184424600Y-104924119D01*
X184429913Y-104925543D01*
X184658000Y-104945498D01*
X184886087Y-104925543D01*
X184891400Y-104924119D01*
X184891402Y-104924119D01*
X185101933Y-104867707D01*
X185101935Y-104867706D01*
X185107243Y-104866284D01*
X185112225Y-104863961D01*
X185309762Y-104771849D01*
X185309767Y-104771846D01*
X185314749Y-104769523D01*
X185419611Y-104696098D01*
X185497789Y-104641357D01*
X185497792Y-104641355D01*
X185502300Y-104638198D01*
X185664198Y-104476300D01*
X185705812Y-104416870D01*
X185792366Y-104293257D01*
X185795523Y-104288749D01*
X185797846Y-104283767D01*
X185797849Y-104283762D01*
X185889961Y-104086225D01*
X185889961Y-104086224D01*
X185892284Y-104081243D01*
X185903628Y-104038909D01*
X185950119Y-103865402D01*
X185950119Y-103865400D01*
X185951543Y-103860087D01*
X185971498Y-103632000D01*
X185951543Y-103403913D01*
X185950119Y-103398598D01*
X185893707Y-103188067D01*
X185893706Y-103188065D01*
X185892284Y-103182757D01*
X185889961Y-103177775D01*
X185797849Y-102980238D01*
X185797846Y-102980233D01*
X185795523Y-102975251D01*
X185668546Y-102793910D01*
X185645859Y-102726638D01*
X185663144Y-102657778D01*
X185714913Y-102609193D01*
X185784731Y-102596310D01*
X185850431Y-102623219D01*
X185860855Y-102632546D01*
X192982784Y-109754475D01*
X193016810Y-109816787D01*
X193010098Y-109891787D01*
X192982991Y-109957231D01*
X192981095Y-109961809D01*
X192921991Y-110207997D01*
X192902126Y-110460400D01*
X192921991Y-110712803D01*
X192923145Y-110717610D01*
X192923146Y-110717616D01*
X192931834Y-110753802D01*
X192981095Y-110958991D01*
X192982988Y-110963562D01*
X192982989Y-110963564D01*
X193075721Y-111187438D01*
X193077984Y-111192902D01*
X193210272Y-111408776D01*
X193374702Y-111601298D01*
X193567224Y-111765728D01*
X193744100Y-111874118D01*
X193773451Y-111892104D01*
X193783098Y-111898016D01*
X193787668Y-111899909D01*
X193787672Y-111899911D01*
X194012436Y-111993011D01*
X194017009Y-111994905D01*
X194082530Y-112010635D01*
X194258384Y-112052854D01*
X194258390Y-112052855D01*
X194263197Y-112054009D01*
X194515600Y-112073874D01*
X194768003Y-112054009D01*
X194772810Y-112052855D01*
X194772816Y-112052854D01*
X194948670Y-112010635D01*
X195014191Y-111994905D01*
X195018764Y-111993011D01*
X195243528Y-111899911D01*
X195243532Y-111899909D01*
X195248102Y-111898016D01*
X195257750Y-111892104D01*
X195287100Y-111874118D01*
X195463976Y-111765728D01*
X195656498Y-111601298D01*
X195820928Y-111408776D01*
X195953216Y-111192902D01*
X195955480Y-111187438D01*
X195973111Y-111144872D01*
X195982220Y-111122881D01*
X196026767Y-111067601D01*
X196098628Y-111045100D01*
X199432572Y-111045100D01*
X199500693Y-111065102D01*
X199548980Y-111122881D01*
X199558089Y-111144872D01*
X199575721Y-111187438D01*
X199577984Y-111192902D01*
X199710272Y-111408776D01*
X199874702Y-111601298D01*
X200067224Y-111765728D01*
X200244100Y-111874118D01*
X200273451Y-111892104D01*
X200283098Y-111898016D01*
X200287668Y-111899909D01*
X200287672Y-111899911D01*
X200512436Y-111993011D01*
X200517009Y-111994905D01*
X200582530Y-112010635D01*
X200758384Y-112052854D01*
X200758390Y-112052855D01*
X200763197Y-112054009D01*
X201015600Y-112073874D01*
X201268003Y-112054009D01*
X201272810Y-112052855D01*
X201272816Y-112052854D01*
X201448670Y-112010635D01*
X201514191Y-111994905D01*
X201518764Y-111993011D01*
X201743528Y-111899911D01*
X201743532Y-111899909D01*
X201748102Y-111898016D01*
X201757750Y-111892104D01*
X201787100Y-111874118D01*
X201963976Y-111765728D01*
X202156498Y-111601298D01*
X202320928Y-111408776D01*
X202453216Y-111192902D01*
X202455480Y-111187438D01*
X202548211Y-110963564D01*
X202548212Y-110963562D01*
X202550105Y-110958991D01*
X202599366Y-110753802D01*
X202608054Y-110717616D01*
X202608055Y-110717610D01*
X202609209Y-110712803D01*
X202629074Y-110460400D01*
X202609209Y-110207997D01*
X202550105Y-109961809D01*
X202526698Y-109905300D01*
X202455111Y-109732472D01*
X202455109Y-109732468D01*
X202453216Y-109727898D01*
X202320928Y-109512024D01*
X202156498Y-109319502D01*
X201963976Y-109155072D01*
X201748102Y-109022784D01*
X201743532Y-109020891D01*
X201743528Y-109020889D01*
X201518764Y-108927789D01*
X201518762Y-108927788D01*
X201514191Y-108925895D01*
X201429568Y-108905579D01*
X201272816Y-108867946D01*
X201272810Y-108867945D01*
X201268003Y-108866791D01*
X201015600Y-108846926D01*
X200763197Y-108866791D01*
X200758390Y-108867945D01*
X200758384Y-108867946D01*
X200601632Y-108905579D01*
X200517009Y-108925895D01*
X200512438Y-108927788D01*
X200512436Y-108927789D01*
X200287672Y-109020889D01*
X200287668Y-109020891D01*
X200283098Y-109022784D01*
X200067224Y-109155072D01*
X199874702Y-109319502D01*
X199710272Y-109512024D01*
X199577984Y-109727898D01*
X199576091Y-109732468D01*
X199576089Y-109732472D01*
X199548981Y-109797918D01*
X199504433Y-109853199D01*
X199432572Y-109875700D01*
X196098628Y-109875700D01*
X196030507Y-109855698D01*
X195982219Y-109797918D01*
X195955111Y-109732472D01*
X195955109Y-109732468D01*
X195953216Y-109727898D01*
X195820928Y-109512024D01*
X195656498Y-109319502D01*
X195463976Y-109155072D01*
X195248102Y-109022784D01*
X195243532Y-109020891D01*
X195243528Y-109020889D01*
X195018764Y-108927789D01*
X195018762Y-108927788D01*
X195014191Y-108925895D01*
X194929568Y-108905579D01*
X194772816Y-108867946D01*
X194772810Y-108867945D01*
X194768003Y-108866791D01*
X194515600Y-108846926D01*
X194263197Y-108866791D01*
X194258390Y-108867945D01*
X194258384Y-108867946D01*
X194101632Y-108905579D01*
X194017009Y-108925895D01*
X194012434Y-108927790D01*
X194012431Y-108927791D01*
X193946987Y-108954898D01*
X193876397Y-108962487D01*
X193809675Y-108927584D01*
X188514090Y-103632000D01*
X193504502Y-103632000D01*
X193524457Y-103860087D01*
X193525881Y-103865400D01*
X193525881Y-103865402D01*
X193572373Y-104038909D01*
X193583716Y-104081243D01*
X193586039Y-104086224D01*
X193586039Y-104086225D01*
X193678151Y-104283762D01*
X193678154Y-104283767D01*
X193680477Y-104288749D01*
X193683634Y-104293257D01*
X193770189Y-104416870D01*
X193811802Y-104476300D01*
X193973700Y-104638198D01*
X193978208Y-104641355D01*
X193978211Y-104641357D01*
X194056389Y-104696098D01*
X194161251Y-104769523D01*
X194166233Y-104771846D01*
X194166238Y-104771849D01*
X194363775Y-104863961D01*
X194368757Y-104866284D01*
X194374065Y-104867706D01*
X194374067Y-104867707D01*
X194584598Y-104924119D01*
X194584600Y-104924119D01*
X194589913Y-104925543D01*
X194818000Y-104945498D01*
X195046087Y-104925543D01*
X195051400Y-104924119D01*
X195051402Y-104924119D01*
X195261933Y-104867707D01*
X195261935Y-104867706D01*
X195267243Y-104866284D01*
X195272225Y-104863961D01*
X195469762Y-104771849D01*
X195469767Y-104771846D01*
X195474749Y-104769523D01*
X195579611Y-104696098D01*
X195657789Y-104641357D01*
X195657792Y-104641355D01*
X195662300Y-104638198D01*
X195824198Y-104476300D01*
X195865812Y-104416870D01*
X195952366Y-104293257D01*
X195955523Y-104288749D01*
X195957846Y-104283767D01*
X195957849Y-104283762D01*
X196049961Y-104086225D01*
X196049961Y-104086224D01*
X196052284Y-104081243D01*
X196063628Y-104038909D01*
X196110119Y-103865402D01*
X196110119Y-103865400D01*
X196111543Y-103860087D01*
X196131498Y-103632000D01*
X196111543Y-103403913D01*
X196110119Y-103398598D01*
X196053707Y-103188067D01*
X196053706Y-103188065D01*
X196052284Y-103182757D01*
X196049961Y-103177775D01*
X195957849Y-102980238D01*
X195957846Y-102980233D01*
X195955523Y-102975251D01*
X195834717Y-102802722D01*
X195827357Y-102792211D01*
X195827355Y-102792208D01*
X195824198Y-102787700D01*
X195662300Y-102625802D01*
X195657792Y-102622645D01*
X195657789Y-102622643D01*
X195519927Y-102526111D01*
X195474749Y-102494477D01*
X195469767Y-102492154D01*
X195469762Y-102492151D01*
X195272225Y-102400039D01*
X195272224Y-102400039D01*
X195267243Y-102397716D01*
X195261935Y-102396294D01*
X195261933Y-102396293D01*
X195051402Y-102339881D01*
X195051400Y-102339881D01*
X195046087Y-102338457D01*
X194818000Y-102318502D01*
X194589913Y-102338457D01*
X194584600Y-102339881D01*
X194584598Y-102339881D01*
X194374067Y-102396293D01*
X194374065Y-102396294D01*
X194368757Y-102397716D01*
X194363776Y-102400039D01*
X194363775Y-102400039D01*
X194166238Y-102492151D01*
X194166233Y-102492154D01*
X194161251Y-102494477D01*
X194116073Y-102526111D01*
X193978211Y-102622643D01*
X193978208Y-102622645D01*
X193973700Y-102625802D01*
X193811802Y-102787700D01*
X193808645Y-102792208D01*
X193808643Y-102792211D01*
X193801283Y-102802722D01*
X193680477Y-102975251D01*
X193678154Y-102980233D01*
X193678151Y-102980238D01*
X193586039Y-103177775D01*
X193583716Y-103182757D01*
X193582294Y-103188065D01*
X193582293Y-103188067D01*
X193525881Y-103398598D01*
X193524457Y-103403913D01*
X193504502Y-103632000D01*
X188514090Y-103632000D01*
X185279605Y-100397515D01*
X185245579Y-100335203D01*
X185242700Y-100308420D01*
X185242700Y-100057313D01*
X185262702Y-99989192D01*
X185305700Y-99948194D01*
X185309764Y-99945847D01*
X185314749Y-99943523D01*
X185388243Y-99892062D01*
X194096493Y-99892062D01*
X194105789Y-99904077D01*
X194156994Y-99939931D01*
X194166489Y-99945414D01*
X194363947Y-100037490D01*
X194374239Y-100041236D01*
X194584688Y-100097625D01*
X194595481Y-100099528D01*
X194812525Y-100118517D01*
X194823475Y-100118517D01*
X195040519Y-100099528D01*
X195051312Y-100097625D01*
X195261761Y-100041236D01*
X195272053Y-100037490D01*
X195469511Y-99945414D01*
X195479006Y-99939931D01*
X195531048Y-99903491D01*
X195539424Y-99893012D01*
X195532356Y-99879566D01*
X194830812Y-99178022D01*
X194816868Y-99170408D01*
X194815035Y-99170539D01*
X194808420Y-99174790D01*
X194102923Y-99880287D01*
X194096493Y-99892062D01*
X185388243Y-99892062D01*
X185427895Y-99864297D01*
X185497789Y-99815357D01*
X185497792Y-99815355D01*
X185502300Y-99812198D01*
X185664198Y-99650300D01*
X185795523Y-99462749D01*
X185797846Y-99457767D01*
X185797849Y-99457762D01*
X185889961Y-99260225D01*
X185889961Y-99260224D01*
X185892284Y-99255243D01*
X185912550Y-99179612D01*
X185950119Y-99039402D01*
X185950119Y-99039400D01*
X185951543Y-99034087D01*
X185971019Y-98811475D01*
X193505483Y-98811475D01*
X193524472Y-99028519D01*
X193526375Y-99039312D01*
X193582764Y-99249761D01*
X193586510Y-99260053D01*
X193678586Y-99457511D01*
X193684069Y-99467006D01*
X193720509Y-99519048D01*
X193730988Y-99527424D01*
X193744434Y-99520356D01*
X194445978Y-98818812D01*
X194453592Y-98804868D01*
X194453461Y-98803035D01*
X194449210Y-98796420D01*
X193743713Y-98090923D01*
X193731938Y-98084493D01*
X193719923Y-98093789D01*
X193684069Y-98144994D01*
X193678586Y-98154489D01*
X193586510Y-98351947D01*
X193582764Y-98362239D01*
X193526375Y-98572688D01*
X193524472Y-98583481D01*
X193505483Y-98800525D01*
X193505483Y-98811475D01*
X185971019Y-98811475D01*
X185971498Y-98806000D01*
X185951543Y-98577913D01*
X185927301Y-98487442D01*
X185893707Y-98362067D01*
X185893706Y-98362065D01*
X185892284Y-98356757D01*
X185874207Y-98317990D01*
X185797849Y-98154238D01*
X185797846Y-98154233D01*
X185795523Y-98149251D01*
X185680350Y-97984767D01*
X185667357Y-97966211D01*
X185667355Y-97966208D01*
X185664198Y-97961700D01*
X185502300Y-97799802D01*
X185497792Y-97796645D01*
X185497789Y-97796643D01*
X185406089Y-97732434D01*
X185314749Y-97668477D01*
X185309767Y-97666154D01*
X185309762Y-97666151D01*
X185112225Y-97574039D01*
X185112224Y-97574039D01*
X185107243Y-97571716D01*
X185101935Y-97570294D01*
X185101933Y-97570293D01*
X184891402Y-97513881D01*
X184891400Y-97513881D01*
X184886087Y-97512457D01*
X184658000Y-97492502D01*
X184429913Y-97512457D01*
X184424600Y-97513881D01*
X184424598Y-97513881D01*
X184214067Y-97570293D01*
X184214065Y-97570294D01*
X184208757Y-97571716D01*
X184203776Y-97574039D01*
X184203775Y-97574039D01*
X184006238Y-97666151D01*
X184006233Y-97666154D01*
X184001251Y-97668477D01*
X183909911Y-97732434D01*
X183818211Y-97796643D01*
X183818208Y-97796645D01*
X183813700Y-97799802D01*
X183651802Y-97961700D01*
X183648645Y-97966208D01*
X183648643Y-97966211D01*
X183635650Y-97984767D01*
X183520477Y-98149251D01*
X183518154Y-98154233D01*
X183518151Y-98154238D01*
X183441793Y-98317990D01*
X183423716Y-98356757D01*
X183422294Y-98362065D01*
X183422293Y-98362067D01*
X183388699Y-98487442D01*
X183364457Y-98577913D01*
X183344502Y-98806000D01*
X183364457Y-99034087D01*
X183365881Y-99039400D01*
X183365881Y-99039402D01*
X183396044Y-99151971D01*
X183394354Y-99222947D01*
X183363432Y-99273677D01*
X181672468Y-100964642D01*
X181610156Y-100998667D01*
X181539341Y-100993603D01*
X181482505Y-100951056D01*
X181477925Y-100944112D01*
X181477523Y-100943251D01*
X181474646Y-100939142D01*
X181349357Y-100760211D01*
X181349355Y-100760208D01*
X181346198Y-100755700D01*
X181184300Y-100593802D01*
X181179792Y-100590645D01*
X181179789Y-100590643D01*
X181068606Y-100512792D01*
X180996749Y-100462477D01*
X180991767Y-100460154D01*
X180991762Y-100460151D01*
X180957543Y-100444195D01*
X180904258Y-100397278D01*
X180884797Y-100329001D01*
X180905339Y-100261041D01*
X180957543Y-100215805D01*
X180991762Y-100199849D01*
X180991767Y-100199846D01*
X180996749Y-100197523D01*
X181139418Y-100097625D01*
X181179789Y-100069357D01*
X181179792Y-100069355D01*
X181184300Y-100066198D01*
X181346198Y-99904300D01*
X181374209Y-99864297D01*
X181470616Y-99726613D01*
X181477523Y-99716749D01*
X181479846Y-99711767D01*
X181479849Y-99711762D01*
X181571961Y-99514225D01*
X181571961Y-99514224D01*
X181574284Y-99509243D01*
X181576060Y-99502617D01*
X181632119Y-99293402D01*
X181632119Y-99293400D01*
X181633543Y-99288087D01*
X181653498Y-99060000D01*
X181633543Y-98831913D01*
X181574284Y-98610757D01*
X181568797Y-98598990D01*
X181479849Y-98408238D01*
X181479846Y-98408233D01*
X181477523Y-98403251D01*
X181346198Y-98215700D01*
X181184300Y-98053802D01*
X181179792Y-98050645D01*
X181179789Y-98050643D01*
X181052765Y-97961700D01*
X180996749Y-97922477D01*
X180991767Y-97920154D01*
X180991762Y-97920151D01*
X180957543Y-97904195D01*
X180904258Y-97857278D01*
X180884797Y-97789001D01*
X180905339Y-97721041D01*
X180957543Y-97675805D01*
X180991762Y-97659849D01*
X180991767Y-97659846D01*
X180996749Y-97657523D01*
X181121326Y-97570293D01*
X181179789Y-97529357D01*
X181179792Y-97529355D01*
X181184300Y-97526198D01*
X181346198Y-97364300D01*
X181374209Y-97324297D01*
X181459548Y-97202420D01*
X181477523Y-97176749D01*
X181479846Y-97171767D01*
X181479849Y-97171762D01*
X181571961Y-96974225D01*
X181571961Y-96974224D01*
X181574284Y-96969243D01*
X181576060Y-96962617D01*
X181632119Y-96753402D01*
X181632119Y-96753400D01*
X181633543Y-96748087D01*
X181653498Y-96520000D01*
X181633543Y-96291913D01*
X181574284Y-96070757D01*
X181568797Y-96058990D01*
X181479849Y-95868238D01*
X181479846Y-95868233D01*
X181477523Y-95863251D01*
X181346198Y-95675700D01*
X181184300Y-95513802D01*
X181179792Y-95510645D01*
X181179789Y-95510643D01*
X181071112Y-95434547D01*
X180996749Y-95382477D01*
X180991767Y-95380154D01*
X180991762Y-95380151D01*
X180957543Y-95364195D01*
X180904258Y-95317278D01*
X180884797Y-95249001D01*
X180905339Y-95181041D01*
X180957543Y-95135805D01*
X180991762Y-95119849D01*
X180991767Y-95119846D01*
X180996749Y-95117523D01*
X181132681Y-95022342D01*
X181179789Y-94989357D01*
X181179792Y-94989355D01*
X181184300Y-94986198D01*
X181346198Y-94824300D01*
X181355720Y-94810702D01*
X181474369Y-94641253D01*
X181477523Y-94636749D01*
X181479847Y-94631764D01*
X181482194Y-94627700D01*
X181533576Y-94578707D01*
X181591313Y-94564700D01*
X183406687Y-94564700D01*
X183474808Y-94584702D01*
X183515806Y-94627700D01*
X183518153Y-94631764D01*
X183520477Y-94636749D01*
X183523631Y-94641253D01*
X183642281Y-94810702D01*
X183651802Y-94824300D01*
X183813700Y-94986198D01*
X183818208Y-94989355D01*
X183818211Y-94989357D01*
X183865319Y-95022342D01*
X184001251Y-95117523D01*
X184006233Y-95119846D01*
X184006238Y-95119849D01*
X184203775Y-95211961D01*
X184208757Y-95214284D01*
X184214065Y-95215706D01*
X184214067Y-95215707D01*
X184424598Y-95272119D01*
X184424600Y-95272119D01*
X184429913Y-95273543D01*
X184658000Y-95293498D01*
X184886087Y-95273543D01*
X184891400Y-95272119D01*
X184891402Y-95272119D01*
X185101933Y-95215707D01*
X185101935Y-95215706D01*
X185107243Y-95214284D01*
X185112225Y-95211961D01*
X185309762Y-95119849D01*
X185309767Y-95119846D01*
X185314749Y-95117523D01*
X185450681Y-95022342D01*
X185497789Y-94989357D01*
X185497792Y-94989355D01*
X185502300Y-94986198D01*
X185664198Y-94824300D01*
X185673720Y-94810702D01*
X185792366Y-94641257D01*
X185795523Y-94636749D01*
X185797846Y-94631767D01*
X185797849Y-94631762D01*
X185889961Y-94434225D01*
X185889961Y-94434224D01*
X185892284Y-94429243D01*
X185894060Y-94422617D01*
X185950119Y-94213402D01*
X185950120Y-94213399D01*
X185951543Y-94208087D01*
X185971498Y-93980000D01*
X185951543Y-93751913D01*
X185914981Y-93615461D01*
X185893707Y-93536067D01*
X185893706Y-93536065D01*
X185892284Y-93530757D01*
X185886797Y-93518990D01*
X185797849Y-93328238D01*
X185797846Y-93328233D01*
X185795523Y-93323251D01*
X185664198Y-93135700D01*
X185502300Y-92973802D01*
X185497792Y-92970645D01*
X185497789Y-92970643D01*
X185371920Y-92882509D01*
X185314749Y-92842477D01*
X185309767Y-92840154D01*
X185309762Y-92840151D01*
X185112225Y-92748039D01*
X185112224Y-92748039D01*
X185107243Y-92745716D01*
X185101935Y-92744294D01*
X185101933Y-92744293D01*
X184891402Y-92687881D01*
X184891400Y-92687881D01*
X184886087Y-92686457D01*
X184658000Y-92666502D01*
X184429913Y-92686457D01*
X184424600Y-92687881D01*
X184424598Y-92687881D01*
X184214067Y-92744293D01*
X184214065Y-92744294D01*
X184208757Y-92745716D01*
X184203776Y-92748039D01*
X184203775Y-92748039D01*
X184006238Y-92840151D01*
X184006233Y-92840154D01*
X184001251Y-92842477D01*
X183944080Y-92882509D01*
X183818211Y-92970643D01*
X183818208Y-92970645D01*
X183813700Y-92973802D01*
X183651802Y-93135700D01*
X183648645Y-93140208D01*
X183648643Y-93140211D01*
X183604390Y-93203411D01*
X183520477Y-93323251D01*
X183518153Y-93328236D01*
X183515806Y-93332300D01*
X183464424Y-93381293D01*
X183406687Y-93395300D01*
X181591313Y-93395300D01*
X181523192Y-93375298D01*
X181482194Y-93332300D01*
X181479847Y-93328236D01*
X181477523Y-93323251D01*
X181393610Y-93203411D01*
X181349357Y-93140211D01*
X181349355Y-93140208D01*
X181346198Y-93135700D01*
X181184300Y-92973802D01*
X181179792Y-92970645D01*
X181179789Y-92970643D01*
X181053920Y-92882509D01*
X180996749Y-92842477D01*
X180991767Y-92840154D01*
X180991762Y-92840151D01*
X180957543Y-92824195D01*
X180904258Y-92777278D01*
X180884797Y-92709001D01*
X180905339Y-92641041D01*
X180957543Y-92595805D01*
X180991762Y-92579849D01*
X180991767Y-92579846D01*
X180996749Y-92577523D01*
X181132681Y-92482342D01*
X181179789Y-92449357D01*
X181179792Y-92449355D01*
X181184300Y-92446198D01*
X181346198Y-92284300D01*
X181355720Y-92270702D01*
X181474369Y-92101253D01*
X181477523Y-92096749D01*
X181479847Y-92091764D01*
X181482194Y-92087700D01*
X181533576Y-92038707D01*
X181591313Y-92024700D01*
X182325422Y-92024700D01*
X182341869Y-92025778D01*
X182372000Y-92029745D01*
X182410319Y-92024700D01*
X182410324Y-92024700D01*
X182516449Y-92010728D01*
X182524637Y-92009650D01*
X182625213Y-91967990D01*
X182666873Y-91950734D01*
X182711386Y-91916577D01*
X182789013Y-91857013D01*
X182794039Y-91850463D01*
X182794043Y-91850459D01*
X182807523Y-91832891D01*
X182818391Y-91820499D01*
X184190322Y-90448568D01*
X184252634Y-90414542D01*
X184312028Y-90415956D01*
X184424598Y-90446119D01*
X184424600Y-90446119D01*
X184429913Y-90447543D01*
X184658000Y-90467498D01*
X184886087Y-90447543D01*
X184891400Y-90446119D01*
X184891402Y-90446119D01*
X185101933Y-90389707D01*
X185101935Y-90389706D01*
X185107243Y-90388284D01*
X185179593Y-90354547D01*
X185309762Y-90293849D01*
X185309767Y-90293846D01*
X185314749Y-90291523D01*
X185487269Y-90170723D01*
X185497789Y-90163357D01*
X185497792Y-90163355D01*
X185502300Y-90160198D01*
X185664198Y-89998300D01*
X185795523Y-89810749D01*
X185797846Y-89805767D01*
X185797849Y-89805762D01*
X185889961Y-89608225D01*
X185889961Y-89608224D01*
X185892284Y-89603243D01*
X185900938Y-89570948D01*
X185950119Y-89387402D01*
X185950119Y-89387400D01*
X185951543Y-89382087D01*
X185971498Y-89154000D01*
X185951543Y-88925913D01*
X185948179Y-88913357D01*
X185893707Y-88710067D01*
X185893706Y-88710065D01*
X185892284Y-88704757D01*
X185876624Y-88671173D01*
X185797849Y-88502238D01*
X185797846Y-88502233D01*
X185795523Y-88497251D01*
X185743288Y-88422652D01*
X185720600Y-88355378D01*
X185737885Y-88286518D01*
X185789655Y-88237933D01*
X185859472Y-88225050D01*
X185925172Y-88251959D01*
X185935596Y-88261286D01*
X194956017Y-97281707D01*
X194990043Y-97344019D01*
X194984978Y-97414834D01*
X194942431Y-97471670D01*
X194875911Y-97496481D01*
X194855942Y-97496323D01*
X194823477Y-97493483D01*
X194812525Y-97493483D01*
X194595481Y-97512472D01*
X194584688Y-97514375D01*
X194374239Y-97570764D01*
X194363947Y-97574510D01*
X194166489Y-97666586D01*
X194156994Y-97672069D01*
X194104952Y-97708509D01*
X194096576Y-97718988D01*
X194103644Y-97732434D01*
X195892287Y-99521077D01*
X195904062Y-99527507D01*
X195916077Y-99518211D01*
X195951931Y-99467006D01*
X195957414Y-99457511D01*
X196049490Y-99260053D01*
X196053236Y-99249761D01*
X196109625Y-99039312D01*
X196111528Y-99028519D01*
X196130517Y-98811475D01*
X196130517Y-98800523D01*
X196127677Y-98768058D01*
X196141667Y-98698454D01*
X196191067Y-98647462D01*
X196260193Y-98631272D01*
X196327098Y-98655025D01*
X196342293Y-98667983D01*
X200924813Y-103250503D01*
X200935680Y-103262894D01*
X200954187Y-103287013D01*
X201031814Y-103346577D01*
X201076327Y-103380734D01*
X201218563Y-103439650D01*
X201345931Y-103456419D01*
X201363005Y-103458667D01*
X201371200Y-103459746D01*
X201379396Y-103458667D01*
X201401338Y-103455778D01*
X201417785Y-103454700D01*
X204434370Y-103454700D01*
X204502491Y-103474702D01*
X204541803Y-103514866D01*
X204637287Y-103670683D01*
X204637291Y-103670688D01*
X204639987Y-103675088D01*
X204786250Y-103843938D01*
X204958126Y-103986632D01*
X205028595Y-104027811D01*
X205031445Y-104029476D01*
X205080169Y-104081114D01*
X205093240Y-104150897D01*
X205066509Y-104216669D01*
X205026055Y-104250027D01*
X205013607Y-104256507D01*
X205009474Y-104259610D01*
X205009471Y-104259612D01*
X204864996Y-104368087D01*
X204834965Y-104390635D01*
X204680629Y-104552138D01*
X204554743Y-104736680D01*
X204522892Y-104805298D01*
X204466854Y-104926022D01*
X204460688Y-104939305D01*
X204400989Y-105154570D01*
X204377251Y-105376695D01*
X204377548Y-105381848D01*
X204377548Y-105381851D01*
X204383011Y-105476590D01*
X204390110Y-105599715D01*
X204391247Y-105604761D01*
X204391248Y-105604767D01*
X204406806Y-105673802D01*
X204439222Y-105817639D01*
X204477461Y-105911811D01*
X204518414Y-106012666D01*
X204523266Y-106024616D01*
X204574019Y-106107438D01*
X204637291Y-106210688D01*
X204639987Y-106215088D01*
X204786250Y-106383938D01*
X204958126Y-106526632D01*
X205028595Y-106567811D01*
X205031445Y-106569476D01*
X205080169Y-106621114D01*
X205093240Y-106690897D01*
X205066509Y-106756669D01*
X205026055Y-106790027D01*
X205013607Y-106796507D01*
X205009474Y-106799610D01*
X205009471Y-106799612D01*
X204864996Y-106908087D01*
X204834965Y-106930635D01*
X204680629Y-107092138D01*
X204554743Y-107276680D01*
X204460688Y-107479305D01*
X204400989Y-107694570D01*
X204377251Y-107916695D01*
X204377548Y-107921848D01*
X204377548Y-107921851D01*
X204383011Y-108016590D01*
X204390110Y-108139715D01*
X204391247Y-108144761D01*
X204391248Y-108144767D01*
X204406806Y-108213802D01*
X204439222Y-108357639D01*
X204477461Y-108451811D01*
X204518414Y-108552666D01*
X204523266Y-108564616D01*
X204574019Y-108647438D01*
X204637291Y-108750688D01*
X204639987Y-108755088D01*
X204786250Y-108923938D01*
X204958126Y-109066632D01*
X205028595Y-109107811D01*
X205031445Y-109109476D01*
X205080169Y-109161114D01*
X205093240Y-109230897D01*
X205066509Y-109296669D01*
X205026055Y-109330027D01*
X205013607Y-109336507D01*
X205009474Y-109339610D01*
X205009471Y-109339612D01*
X204866225Y-109447164D01*
X204834965Y-109470635D01*
X204680629Y-109632138D01*
X204554743Y-109816680D01*
X204522892Y-109885298D01*
X204487377Y-109961809D01*
X204460688Y-110019305D01*
X204400989Y-110234570D01*
X204377251Y-110456695D01*
X204377548Y-110461848D01*
X204377548Y-110461851D01*
X204383011Y-110556590D01*
X204390110Y-110679715D01*
X204391247Y-110684761D01*
X204391248Y-110684767D01*
X204406806Y-110753802D01*
X204439222Y-110897639D01*
X204476299Y-110988949D01*
X204518414Y-111092666D01*
X204523266Y-111104616D01*
X204574019Y-111187438D01*
X204637291Y-111290688D01*
X204639987Y-111295088D01*
X204786250Y-111463938D01*
X204958126Y-111606632D01*
X205019196Y-111642318D01*
X205031445Y-111649476D01*
X205080169Y-111701114D01*
X205093240Y-111770897D01*
X205066509Y-111836669D01*
X205026055Y-111870027D01*
X205013607Y-111876507D01*
X205009474Y-111879610D01*
X205009471Y-111879612D01*
X204839100Y-112007530D01*
X204834965Y-112010635D01*
X204795525Y-112051907D01*
X204741280Y-112108671D01*
X204680629Y-112172138D01*
X204554743Y-112356680D01*
X204460688Y-112559305D01*
X204400989Y-112774570D01*
X204377251Y-112996695D01*
X204377548Y-113001848D01*
X204377548Y-113001851D01*
X204383011Y-113096590D01*
X204390110Y-113219715D01*
X204391247Y-113224761D01*
X204391248Y-113224767D01*
X204406806Y-113293802D01*
X204439222Y-113437639D01*
X204523266Y-113644616D01*
X204560685Y-113705678D01*
X204637291Y-113830688D01*
X204639987Y-113835088D01*
X204786250Y-114003938D01*
X204958126Y-114146632D01*
X205028595Y-114187811D01*
X205031445Y-114189476D01*
X205080169Y-114241114D01*
X205093240Y-114310897D01*
X205066509Y-114376669D01*
X205026055Y-114410027D01*
X205013607Y-114416507D01*
X205009474Y-114419610D01*
X205009471Y-114419612D01*
X204864996Y-114528087D01*
X204834965Y-114550635D01*
X204831393Y-114554373D01*
X204685247Y-114707306D01*
X204680629Y-114712138D01*
X204554743Y-114896680D01*
X204460688Y-115099305D01*
X204400989Y-115314570D01*
X204377251Y-115536695D01*
X204377548Y-115541848D01*
X204377548Y-115541851D01*
X204383011Y-115636590D01*
X204390110Y-115759715D01*
X204391247Y-115764761D01*
X204391248Y-115764767D01*
X204406806Y-115833802D01*
X204439222Y-115977639D01*
X204523266Y-116184616D01*
X204571004Y-116262517D01*
X204637291Y-116370688D01*
X204639987Y-116375088D01*
X204786250Y-116543938D01*
X204958126Y-116686632D01*
X205031445Y-116729476D01*
X205031955Y-116729774D01*
X205080679Y-116781412D01*
X205093750Y-116851195D01*
X205067019Y-116916967D01*
X205026562Y-116950327D01*
X205018457Y-116954546D01*
X205009738Y-116960036D01*
X204839433Y-117087905D01*
X204831726Y-117094748D01*
X204684590Y-117248717D01*
X204678104Y-117256727D01*
X204558098Y-117432649D01*
X204553000Y-117441623D01*
X204463338Y-117634783D01*
X204459775Y-117644470D01*
X204404389Y-117844183D01*
X204405912Y-117852607D01*
X204418292Y-117856000D01*
X205868000Y-117856000D01*
X205936121Y-117876002D01*
X205982614Y-117929658D01*
X205994000Y-117982000D01*
X205994000Y-119428517D01*
X205998064Y-119442359D01*
X206011478Y-119444393D01*
X206018184Y-119443534D01*
X206028262Y-119441392D01*
X206232255Y-119380191D01*
X206241842Y-119376433D01*
X206433095Y-119282739D01*
X206441945Y-119277464D01*
X206615328Y-119153792D01*
X206623200Y-119147139D01*
X206774052Y-118996812D01*
X206780730Y-118988965D01*
X206908022Y-118811819D01*
X206909279Y-118812722D01*
X206956373Y-118769362D01*
X207026311Y-118757145D01*
X207091751Y-118784678D01*
X207119579Y-118816511D01*
X207179987Y-118915088D01*
X207326250Y-119083938D01*
X207498126Y-119226632D01*
X207691000Y-119339338D01*
X207899692Y-119419030D01*
X207904760Y-119420061D01*
X207904763Y-119420062D01*
X207999862Y-119439410D01*
X208118597Y-119463567D01*
X208123772Y-119463757D01*
X208123774Y-119463757D01*
X208336673Y-119471564D01*
X208336677Y-119471564D01*
X208341837Y-119471753D01*
X208346957Y-119471097D01*
X208346959Y-119471097D01*
X208558288Y-119444025D01*
X208558289Y-119444025D01*
X208563416Y-119443368D01*
X208568366Y-119441883D01*
X208772429Y-119380661D01*
X208772434Y-119380659D01*
X208777384Y-119379174D01*
X208977994Y-119280896D01*
X209159860Y-119151173D01*
X209318096Y-118993489D01*
X209448453Y-118812077D01*
X209461995Y-118784678D01*
X209545136Y-118616453D01*
X209545137Y-118616451D01*
X209547430Y-118611811D01*
X209612370Y-118398069D01*
X209641529Y-118176590D01*
X209643156Y-118110000D01*
X209624852Y-117887361D01*
X209570431Y-117670702D01*
X209481354Y-117465840D01*
X209441906Y-117404862D01*
X209362822Y-117282617D01*
X209362820Y-117282614D01*
X209360014Y-117278277D01*
X209209670Y-117113051D01*
X209205619Y-117109852D01*
X209205615Y-117109848D01*
X209038414Y-116977800D01*
X209038410Y-116977798D01*
X209034359Y-116974598D01*
X208993053Y-116951796D01*
X208943084Y-116901364D01*
X208928312Y-116831921D01*
X208953428Y-116765516D01*
X208980780Y-116738909D01*
X209024603Y-116707650D01*
X209159860Y-116611173D01*
X209318096Y-116453489D01*
X209339530Y-116423661D01*
X209445435Y-116276277D01*
X209448453Y-116272077D01*
X209469320Y-116229857D01*
X209545136Y-116076453D01*
X209545137Y-116076451D01*
X209547430Y-116071811D01*
X209612370Y-115858069D01*
X209641529Y-115636590D01*
X209641611Y-115633240D01*
X209643074Y-115573365D01*
X209643074Y-115573361D01*
X209643156Y-115570000D01*
X209624852Y-115347361D01*
X209570431Y-115130702D01*
X209481354Y-114925840D01*
X209441906Y-114864862D01*
X209362822Y-114742617D01*
X209362820Y-114742614D01*
X209360014Y-114738277D01*
X209209670Y-114573051D01*
X209205619Y-114569852D01*
X209205615Y-114569848D01*
X209038414Y-114437800D01*
X209038410Y-114437798D01*
X209034359Y-114434598D01*
X208993053Y-114411796D01*
X208943084Y-114361364D01*
X208928312Y-114291921D01*
X208953428Y-114225516D01*
X208980780Y-114198909D01*
X209024603Y-114167650D01*
X209159860Y-114071173D01*
X209318096Y-113913489D01*
X209377594Y-113830689D01*
X209445435Y-113736277D01*
X209448453Y-113732077D01*
X209469320Y-113689857D01*
X209545136Y-113536453D01*
X209545137Y-113536451D01*
X209547430Y-113531811D01*
X209612370Y-113318069D01*
X209641529Y-113096590D01*
X209641611Y-113093240D01*
X209643074Y-113033365D01*
X209643074Y-113033361D01*
X209643156Y-113030000D01*
X209624852Y-112807361D01*
X209570431Y-112590702D01*
X209481354Y-112385840D01*
X209441906Y-112324862D01*
X209362822Y-112202617D01*
X209362820Y-112202614D01*
X209360014Y-112198277D01*
X209209670Y-112033051D01*
X209205619Y-112029852D01*
X209205615Y-112029848D01*
X209038414Y-111897800D01*
X209038410Y-111897798D01*
X209034359Y-111894598D01*
X208993053Y-111871796D01*
X208943084Y-111821364D01*
X208928312Y-111751921D01*
X208953428Y-111685516D01*
X208980780Y-111658909D01*
X209024603Y-111627650D01*
X209159860Y-111531173D01*
X209318096Y-111373489D01*
X209377594Y-111290689D01*
X209445435Y-111196277D01*
X209448453Y-111192077D01*
X209469320Y-111149857D01*
X209545136Y-110996453D01*
X209545137Y-110996451D01*
X209547430Y-110991811D01*
X209612370Y-110778069D01*
X209641529Y-110556590D01*
X209641652Y-110551563D01*
X209643074Y-110493365D01*
X209643074Y-110493361D01*
X209643156Y-110490000D01*
X209624852Y-110267361D01*
X209570431Y-110050702D01*
X209481354Y-109845840D01*
X209402324Y-109723678D01*
X209362822Y-109662617D01*
X209362820Y-109662614D01*
X209360014Y-109658277D01*
X209209670Y-109493051D01*
X209205619Y-109489852D01*
X209205615Y-109489848D01*
X209038414Y-109357800D01*
X209038410Y-109357798D01*
X209034359Y-109354598D01*
X208993053Y-109331796D01*
X208943084Y-109281364D01*
X208928312Y-109211921D01*
X208953428Y-109145516D01*
X208980780Y-109118909D01*
X209024603Y-109087650D01*
X209159860Y-108991173D01*
X209188647Y-108962487D01*
X209285067Y-108866403D01*
X209318096Y-108833489D01*
X209377594Y-108750689D01*
X209445435Y-108656277D01*
X209448453Y-108652077D01*
X209469320Y-108609857D01*
X209545136Y-108456453D01*
X209545137Y-108456451D01*
X209547430Y-108451811D01*
X209612370Y-108238069D01*
X209641529Y-108016590D01*
X209641611Y-108013240D01*
X209643074Y-107953365D01*
X209643074Y-107953361D01*
X209643156Y-107950000D01*
X209624852Y-107727361D01*
X209570431Y-107510702D01*
X209481354Y-107305840D01*
X209441906Y-107244862D01*
X209362822Y-107122617D01*
X209362820Y-107122614D01*
X209360014Y-107118277D01*
X209209670Y-106953051D01*
X209205619Y-106949852D01*
X209205615Y-106949848D01*
X209038414Y-106817800D01*
X209038410Y-106817798D01*
X209034359Y-106814598D01*
X208993053Y-106791796D01*
X208943084Y-106741364D01*
X208928312Y-106671921D01*
X208953428Y-106605516D01*
X208980780Y-106578909D01*
X209024603Y-106547650D01*
X209159860Y-106451173D01*
X209318096Y-106293489D01*
X209377594Y-106210689D01*
X209445435Y-106116277D01*
X209448453Y-106112077D01*
X209469320Y-106069857D01*
X209545136Y-105916453D01*
X209545137Y-105916451D01*
X209547430Y-105911811D01*
X209584288Y-105790499D01*
X209610865Y-105703023D01*
X209610865Y-105703021D01*
X209612370Y-105698069D01*
X209641529Y-105476590D01*
X209641652Y-105471563D01*
X209643074Y-105413365D01*
X209643074Y-105413361D01*
X209643156Y-105410000D01*
X209624852Y-105187361D01*
X209570431Y-104970702D01*
X209481354Y-104765840D01*
X209396258Y-104634301D01*
X209362822Y-104582617D01*
X209362820Y-104582614D01*
X209360014Y-104578277D01*
X209209670Y-104413051D01*
X209205619Y-104409852D01*
X209205615Y-104409848D01*
X209038414Y-104277800D01*
X209038410Y-104277798D01*
X209034359Y-104274598D01*
X208993053Y-104251796D01*
X208943084Y-104201364D01*
X208928312Y-104131921D01*
X208953428Y-104065516D01*
X208980780Y-104038909D01*
X209024603Y-104007650D01*
X209159860Y-103911173D01*
X209318096Y-103753489D01*
X209377594Y-103670689D01*
X209445435Y-103576277D01*
X209448453Y-103572077D01*
X209469320Y-103529857D01*
X209545136Y-103376453D01*
X209545137Y-103376451D01*
X209547430Y-103371811D01*
X209596808Y-103209291D01*
X209610865Y-103163023D01*
X209610865Y-103163021D01*
X209612370Y-103158069D01*
X209641529Y-102936590D01*
X209641611Y-102933240D01*
X209643074Y-102873365D01*
X209643074Y-102873361D01*
X209643156Y-102870000D01*
X209624852Y-102647361D01*
X209582966Y-102480606D01*
X209585770Y-102409664D01*
X209616075Y-102360815D01*
X209738614Y-102238276D01*
X209751006Y-102227408D01*
X209775124Y-102208902D01*
X209846129Y-102116366D01*
X209868845Y-102086762D01*
X209899755Y-102012138D01*
X209927761Y-101944526D01*
X209934078Y-101896544D01*
X209962801Y-101831616D01*
X210022066Y-101792525D01*
X210093057Y-101791680D01*
X210153236Y-101829350D01*
X210183495Y-101893576D01*
X210185000Y-101912990D01*
X210185000Y-119889000D01*
X210164998Y-119957121D01*
X210111342Y-120003614D01*
X210059000Y-120015000D01*
X155066000Y-120015000D01*
X154997879Y-119994998D01*
X154951386Y-119941342D01*
X154940000Y-119889000D01*
X154940000Y-118377966D01*
X204408257Y-118377966D01*
X204438565Y-118512446D01*
X204441645Y-118522275D01*
X204521770Y-118719603D01*
X204526413Y-118728794D01*
X204637694Y-118910388D01*
X204643777Y-118918699D01*
X204783213Y-119079667D01*
X204790580Y-119086883D01*
X204954434Y-119222916D01*
X204962881Y-119228831D01*
X205146756Y-119336279D01*
X205156042Y-119340729D01*
X205355001Y-119416703D01*
X205364899Y-119419579D01*
X205468250Y-119440606D01*
X205482299Y-119439410D01*
X205486000Y-119429065D01*
X205486000Y-118382115D01*
X205481525Y-118366876D01*
X205480135Y-118365671D01*
X205472452Y-118364000D01*
X204423225Y-118364000D01*
X204409694Y-118367973D01*
X204408257Y-118377966D01*
X154940000Y-118377966D01*
X154940000Y-85851000D01*
X154960002Y-85782879D01*
X155013658Y-85736386D01*
X155066000Y-85725000D01*
X158502308Y-85725000D01*
X158570429Y-85745002D01*
G37*
%TD.AperFunction*%
%TA.AperFunction,Conductor*%
G36*
X184634941Y-86964702D02*
G01*
X184655915Y-86981605D01*
X185550714Y-87876404D01*
X185584740Y-87938716D01*
X185579675Y-88009531D01*
X185537128Y-88066367D01*
X185470608Y-88091178D01*
X185401234Y-88076087D01*
X185389348Y-88068712D01*
X185371920Y-88056509D01*
X185314749Y-88016477D01*
X185309767Y-88014154D01*
X185309762Y-88014151D01*
X185112225Y-87922039D01*
X185112224Y-87922039D01*
X185107243Y-87919716D01*
X185101935Y-87918294D01*
X185101933Y-87918293D01*
X184891402Y-87861881D01*
X184891400Y-87861881D01*
X184886087Y-87860457D01*
X184658000Y-87840502D01*
X184429913Y-87860457D01*
X184424600Y-87861881D01*
X184424598Y-87861881D01*
X184214067Y-87918293D01*
X184214065Y-87918294D01*
X184208757Y-87919716D01*
X184203776Y-87922039D01*
X184203775Y-87922039D01*
X184006238Y-88014151D01*
X184006233Y-88014154D01*
X184001251Y-88016477D01*
X183944080Y-88056509D01*
X183818211Y-88144643D01*
X183818208Y-88144645D01*
X183813700Y-88147802D01*
X183651802Y-88309700D01*
X183648645Y-88314208D01*
X183648643Y-88314211D01*
X183619818Y-88355378D01*
X183520477Y-88497251D01*
X183518154Y-88502233D01*
X183518151Y-88502238D01*
X183439376Y-88671173D01*
X183423716Y-88704757D01*
X183422294Y-88710065D01*
X183422293Y-88710067D01*
X183367821Y-88913357D01*
X183364457Y-88925913D01*
X183344502Y-89154000D01*
X183364457Y-89382087D01*
X183365881Y-89387400D01*
X183365881Y-89387402D01*
X183396044Y-89499972D01*
X183394354Y-89570948D01*
X183363432Y-89621678D01*
X182166715Y-90818395D01*
X182104403Y-90852421D01*
X182077620Y-90855300D01*
X181591313Y-90855300D01*
X181523192Y-90835298D01*
X181482194Y-90792300D01*
X181479847Y-90788236D01*
X181477523Y-90783251D01*
X181393610Y-90663411D01*
X181349357Y-90600211D01*
X181349355Y-90600208D01*
X181346198Y-90595700D01*
X181184300Y-90433802D01*
X181179792Y-90430645D01*
X181179789Y-90430643D01*
X181071112Y-90354547D01*
X180996749Y-90302477D01*
X180991767Y-90300154D01*
X180991762Y-90300151D01*
X180956951Y-90283919D01*
X180903666Y-90237002D01*
X180884205Y-90168725D01*
X180904747Y-90100765D01*
X180956951Y-90055529D01*
X180991511Y-90039414D01*
X181001007Y-90033931D01*
X181179467Y-89908972D01*
X181187875Y-89901916D01*
X181341916Y-89747875D01*
X181348972Y-89739467D01*
X181473931Y-89561007D01*
X181479414Y-89551511D01*
X181571490Y-89354053D01*
X181575236Y-89343761D01*
X181621394Y-89171497D01*
X181621058Y-89157401D01*
X181613116Y-89154000D01*
X179072033Y-89154000D01*
X179058502Y-89157973D01*
X179057273Y-89166522D01*
X179104764Y-89343761D01*
X179108510Y-89354053D01*
X179200586Y-89551511D01*
X179206069Y-89561007D01*
X179331028Y-89739467D01*
X179338084Y-89747875D01*
X179492125Y-89901916D01*
X179500533Y-89908972D01*
X179678993Y-90033931D01*
X179688489Y-90039414D01*
X179723049Y-90055529D01*
X179776334Y-90102446D01*
X179795795Y-90170723D01*
X179775253Y-90238683D01*
X179723049Y-90283919D01*
X179688238Y-90300151D01*
X179688233Y-90300154D01*
X179683251Y-90302477D01*
X179608888Y-90354547D01*
X179500211Y-90430643D01*
X179500208Y-90430645D01*
X179495700Y-90433802D01*
X179333802Y-90595700D01*
X179202477Y-90783251D01*
X179200154Y-90788233D01*
X179200151Y-90788238D01*
X179111203Y-90978990D01*
X179105716Y-90990757D01*
X179046457Y-91211913D01*
X179026502Y-91440000D01*
X179046457Y-91668087D01*
X179047881Y-91673400D01*
X179047881Y-91673402D01*
X179103941Y-91882617D01*
X179105716Y-91889243D01*
X179108039Y-91894224D01*
X179108039Y-91894225D01*
X179200151Y-92091762D01*
X179200154Y-92091767D01*
X179202477Y-92096749D01*
X179205634Y-92101257D01*
X179324281Y-92270702D01*
X179333802Y-92284300D01*
X179495700Y-92446198D01*
X179500208Y-92449355D01*
X179500211Y-92449357D01*
X179547319Y-92482342D01*
X179683251Y-92577523D01*
X179688233Y-92579846D01*
X179688238Y-92579849D01*
X179722457Y-92595805D01*
X179775742Y-92642722D01*
X179795203Y-92710999D01*
X179774661Y-92778959D01*
X179722457Y-92824195D01*
X179688238Y-92840151D01*
X179688233Y-92840154D01*
X179683251Y-92842477D01*
X179626080Y-92882509D01*
X179500211Y-92970643D01*
X179500208Y-92970645D01*
X179495700Y-92973802D01*
X179333802Y-93135700D01*
X179202477Y-93323251D01*
X179200154Y-93328233D01*
X179200151Y-93328238D01*
X179111203Y-93518990D01*
X179105716Y-93530757D01*
X179104294Y-93536065D01*
X179104293Y-93536067D01*
X179083019Y-93615461D01*
X179046457Y-93751913D01*
X179026502Y-93980000D01*
X179046457Y-94208087D01*
X179047880Y-94213399D01*
X179047881Y-94213402D01*
X179103941Y-94422617D01*
X179105716Y-94429243D01*
X179108039Y-94434224D01*
X179108039Y-94434225D01*
X179200151Y-94631762D01*
X179200154Y-94631767D01*
X179202477Y-94636749D01*
X179205634Y-94641257D01*
X179324281Y-94810702D01*
X179333802Y-94824300D01*
X179495700Y-94986198D01*
X179500208Y-94989355D01*
X179500211Y-94989357D01*
X179547319Y-95022342D01*
X179683251Y-95117523D01*
X179688233Y-95119846D01*
X179688238Y-95119849D01*
X179722457Y-95135805D01*
X179775742Y-95182722D01*
X179795203Y-95250999D01*
X179774661Y-95318959D01*
X179722457Y-95364195D01*
X179688238Y-95380151D01*
X179688233Y-95380154D01*
X179683251Y-95382477D01*
X179608888Y-95434547D01*
X179500211Y-95510643D01*
X179500208Y-95510645D01*
X179495700Y-95513802D01*
X179333802Y-95675700D01*
X179202477Y-95863251D01*
X179200154Y-95868233D01*
X179200151Y-95868238D01*
X179111203Y-96058990D01*
X179105716Y-96070757D01*
X179046457Y-96291913D01*
X179026502Y-96520000D01*
X179046457Y-96748087D01*
X179047881Y-96753400D01*
X179047881Y-96753402D01*
X179103941Y-96962617D01*
X179105716Y-96969243D01*
X179108039Y-96974224D01*
X179108039Y-96974225D01*
X179200151Y-97171762D01*
X179200154Y-97171767D01*
X179202477Y-97176749D01*
X179220452Y-97202420D01*
X179305792Y-97324297D01*
X179333802Y-97364300D01*
X179495700Y-97526198D01*
X179500208Y-97529355D01*
X179500211Y-97529357D01*
X179558674Y-97570293D01*
X179683251Y-97657523D01*
X179688233Y-97659846D01*
X179688238Y-97659849D01*
X179722457Y-97675805D01*
X179775742Y-97722722D01*
X179795203Y-97790999D01*
X179774661Y-97858959D01*
X179722457Y-97904195D01*
X179688238Y-97920151D01*
X179688233Y-97920154D01*
X179683251Y-97922477D01*
X179627235Y-97961700D01*
X179500211Y-98050643D01*
X179500208Y-98050645D01*
X179495700Y-98053802D01*
X179333802Y-98215700D01*
X179202477Y-98403251D01*
X179200154Y-98408233D01*
X179200151Y-98408238D01*
X179111203Y-98598990D01*
X179105716Y-98610757D01*
X179046457Y-98831913D01*
X179026502Y-99060000D01*
X179046457Y-99288087D01*
X179047881Y-99293400D01*
X179047881Y-99293402D01*
X179103941Y-99502617D01*
X179105716Y-99509243D01*
X179108039Y-99514224D01*
X179108039Y-99514225D01*
X179200151Y-99711762D01*
X179200154Y-99711767D01*
X179202477Y-99716749D01*
X179209384Y-99726613D01*
X179305792Y-99864297D01*
X179333802Y-99904300D01*
X179495700Y-100066198D01*
X179500208Y-100069355D01*
X179500211Y-100069357D01*
X179540582Y-100097625D01*
X179683251Y-100197523D01*
X179688233Y-100199846D01*
X179688238Y-100199849D01*
X179722457Y-100215805D01*
X179775742Y-100262722D01*
X179795203Y-100330999D01*
X179774661Y-100398959D01*
X179722457Y-100444195D01*
X179688238Y-100460151D01*
X179688233Y-100460154D01*
X179683251Y-100462477D01*
X179611394Y-100512792D01*
X179500211Y-100590643D01*
X179500208Y-100590645D01*
X179495700Y-100593802D01*
X179333802Y-100755700D01*
X179330645Y-100760208D01*
X179330643Y-100760211D01*
X179311915Y-100786958D01*
X179202477Y-100943251D01*
X179200154Y-100948233D01*
X179200151Y-100948238D01*
X179111203Y-101138990D01*
X179105716Y-101150757D01*
X179046457Y-101371913D01*
X179026502Y-101600000D01*
X179046457Y-101828087D01*
X179047881Y-101833400D01*
X179047881Y-101833402D01*
X179103941Y-102042617D01*
X179105716Y-102049243D01*
X179108039Y-102054224D01*
X179108039Y-102054225D01*
X179200151Y-102251762D01*
X179200154Y-102251767D01*
X179202477Y-102256749D01*
X179205633Y-102261257D01*
X179205637Y-102261263D01*
X179253010Y-102328919D01*
X179275698Y-102396193D01*
X179258413Y-102465053D01*
X179206643Y-102513637D01*
X179149797Y-102527189D01*
X173794697Y-102527189D01*
X173778250Y-102526111D01*
X173756299Y-102523221D01*
X173748111Y-102522143D01*
X173595474Y-102542239D01*
X173587842Y-102545400D01*
X173587843Y-102545400D01*
X173460866Y-102597995D01*
X173460864Y-102597996D01*
X173453238Y-102601155D01*
X173446688Y-102606181D01*
X173425235Y-102622643D01*
X173421118Y-102625802D01*
X173331098Y-102694876D01*
X173326072Y-102701426D01*
X173326068Y-102701430D01*
X173312588Y-102718998D01*
X173301720Y-102731390D01*
X166619972Y-109413138D01*
X166557660Y-109447164D01*
X166486845Y-109442099D01*
X166430009Y-109399552D01*
X166405198Y-109333032D01*
X166405356Y-109313061D01*
X166413019Y-109225475D01*
X166413498Y-109220000D01*
X166393543Y-108991913D01*
X166377034Y-108930301D01*
X166335707Y-108776067D01*
X166335706Y-108776065D01*
X166334284Y-108770757D01*
X166328509Y-108758372D01*
X166239849Y-108568238D01*
X166239846Y-108568233D01*
X166237523Y-108563251D01*
X166106198Y-108375700D01*
X165944300Y-108213802D01*
X165939792Y-108210645D01*
X165939789Y-108210643D01*
X165785300Y-108102469D01*
X165756749Y-108082477D01*
X165751767Y-108080154D01*
X165751762Y-108080151D01*
X165717543Y-108064195D01*
X165664258Y-108017278D01*
X165644797Y-107949001D01*
X165665339Y-107881041D01*
X165717543Y-107835805D01*
X165751762Y-107819849D01*
X165751767Y-107819846D01*
X165756749Y-107817523D01*
X165892681Y-107722342D01*
X165939789Y-107689357D01*
X165939792Y-107689355D01*
X165944300Y-107686198D01*
X166106198Y-107524300D01*
X166115720Y-107510702D01*
X166219548Y-107362420D01*
X166237523Y-107336749D01*
X166239846Y-107331767D01*
X166239849Y-107331762D01*
X166331961Y-107134225D01*
X166331961Y-107134224D01*
X166334284Y-107129243D01*
X166336060Y-107122617D01*
X166392119Y-106913402D01*
X166392119Y-106913400D01*
X166393543Y-106908087D01*
X166413498Y-106680000D01*
X166393543Y-106451913D01*
X166334284Y-106230757D01*
X166328797Y-106218990D01*
X166239849Y-106028238D01*
X166239846Y-106028233D01*
X166237523Y-106023251D01*
X166106198Y-105835700D01*
X165944300Y-105673802D01*
X165939792Y-105670645D01*
X165939789Y-105670643D01*
X165831112Y-105594547D01*
X165756749Y-105542477D01*
X165751767Y-105540154D01*
X165751762Y-105540151D01*
X165717543Y-105524195D01*
X165664258Y-105477278D01*
X165644797Y-105409001D01*
X165665339Y-105341041D01*
X165717543Y-105295805D01*
X165751762Y-105279849D01*
X165751767Y-105279846D01*
X165756749Y-105277523D01*
X165892681Y-105182342D01*
X165939789Y-105149357D01*
X165939792Y-105149355D01*
X165944300Y-105146198D01*
X166106198Y-104984300D01*
X166115720Y-104970702D01*
X166164098Y-104901611D01*
X166237523Y-104796749D01*
X166239846Y-104791767D01*
X166239849Y-104791762D01*
X166331961Y-104594225D01*
X166331961Y-104594224D01*
X166334284Y-104589243D01*
X166336060Y-104582617D01*
X166392119Y-104373402D01*
X166392119Y-104373400D01*
X166393543Y-104368087D01*
X166413498Y-104140000D01*
X166393543Y-103911913D01*
X166375329Y-103843938D01*
X166335707Y-103696067D01*
X166335706Y-103696065D01*
X166334284Y-103690757D01*
X166328797Y-103678990D01*
X166239849Y-103488238D01*
X166239846Y-103488233D01*
X166237523Y-103483251D01*
X166106198Y-103295700D01*
X165944300Y-103133802D01*
X165939792Y-103130645D01*
X165939789Y-103130643D01*
X165797628Y-103031101D01*
X165756749Y-103002477D01*
X165751767Y-103000154D01*
X165751762Y-103000151D01*
X165717543Y-102984195D01*
X165664258Y-102937278D01*
X165644797Y-102869001D01*
X165665339Y-102801041D01*
X165717543Y-102755805D01*
X165751762Y-102739849D01*
X165751767Y-102739846D01*
X165756749Y-102737523D01*
X165892681Y-102642342D01*
X165939789Y-102609357D01*
X165939792Y-102609355D01*
X165944300Y-102606198D01*
X166106198Y-102444300D01*
X166115720Y-102430702D01*
X166186989Y-102328919D01*
X166237523Y-102256749D01*
X166239846Y-102251767D01*
X166239849Y-102251762D01*
X166331961Y-102054225D01*
X166331961Y-102054224D01*
X166334284Y-102049243D01*
X166336060Y-102042617D01*
X166392119Y-101833402D01*
X166392119Y-101833400D01*
X166393543Y-101828087D01*
X166413498Y-101600000D01*
X166393543Y-101371913D01*
X166334284Y-101150757D01*
X166328797Y-101138990D01*
X166239849Y-100948238D01*
X166239846Y-100948233D01*
X166237523Y-100943251D01*
X166128085Y-100786958D01*
X166109357Y-100760211D01*
X166109355Y-100760208D01*
X166106198Y-100755700D01*
X165944300Y-100593802D01*
X165939792Y-100590645D01*
X165939789Y-100590643D01*
X165828606Y-100512792D01*
X165756749Y-100462477D01*
X165751767Y-100460154D01*
X165751762Y-100460151D01*
X165717543Y-100444195D01*
X165664258Y-100397278D01*
X165644797Y-100329001D01*
X165665339Y-100261041D01*
X165717543Y-100215805D01*
X165751762Y-100199849D01*
X165751767Y-100199846D01*
X165756749Y-100197523D01*
X165899418Y-100097625D01*
X165939789Y-100069357D01*
X165939792Y-100069355D01*
X165944300Y-100066198D01*
X166106198Y-99904300D01*
X166134209Y-99864297D01*
X166230616Y-99726613D01*
X166237523Y-99716749D01*
X166239846Y-99711767D01*
X166239849Y-99711762D01*
X166331961Y-99514225D01*
X166331961Y-99514224D01*
X166334284Y-99509243D01*
X166336060Y-99502617D01*
X166392119Y-99293402D01*
X166392119Y-99293400D01*
X166393543Y-99288087D01*
X166413498Y-99060000D01*
X166393543Y-98831913D01*
X166334284Y-98610757D01*
X166328797Y-98598990D01*
X166239849Y-98408238D01*
X166239846Y-98408233D01*
X166237523Y-98403251D01*
X166106198Y-98215700D01*
X165944300Y-98053802D01*
X165939792Y-98050645D01*
X165939789Y-98050643D01*
X165812765Y-97961700D01*
X165756749Y-97922477D01*
X165751767Y-97920154D01*
X165751762Y-97920151D01*
X165717543Y-97904195D01*
X165664258Y-97857278D01*
X165644797Y-97789001D01*
X165665339Y-97721041D01*
X165717543Y-97675805D01*
X165751762Y-97659849D01*
X165751767Y-97659846D01*
X165756749Y-97657523D01*
X165881326Y-97570293D01*
X165939789Y-97529357D01*
X165939792Y-97529355D01*
X165944300Y-97526198D01*
X166106198Y-97364300D01*
X166134209Y-97324297D01*
X166219548Y-97202420D01*
X166237523Y-97176749D01*
X166239846Y-97171767D01*
X166239849Y-97171762D01*
X166331961Y-96974225D01*
X166331961Y-96974224D01*
X166334284Y-96969243D01*
X166336060Y-96962617D01*
X166392119Y-96753402D01*
X166392119Y-96753400D01*
X166393543Y-96748087D01*
X166413498Y-96520000D01*
X166393543Y-96291913D01*
X166334284Y-96070757D01*
X166328797Y-96058990D01*
X166239849Y-95868238D01*
X166239846Y-95868233D01*
X166237523Y-95863251D01*
X166106198Y-95675700D01*
X165944300Y-95513802D01*
X165939792Y-95510645D01*
X165939789Y-95510643D01*
X165831112Y-95434547D01*
X165756749Y-95382477D01*
X165751767Y-95380154D01*
X165751762Y-95380151D01*
X165717543Y-95364195D01*
X165664258Y-95317278D01*
X165644797Y-95249001D01*
X165665339Y-95181041D01*
X165717543Y-95135805D01*
X165751762Y-95119849D01*
X165751767Y-95119846D01*
X165756749Y-95117523D01*
X165892681Y-95022342D01*
X165939789Y-94989357D01*
X165939792Y-94989355D01*
X165944300Y-94986198D01*
X166106198Y-94824300D01*
X166115720Y-94810702D01*
X166234366Y-94641257D01*
X166237523Y-94636749D01*
X166239846Y-94631767D01*
X166239849Y-94631762D01*
X166331961Y-94434225D01*
X166331961Y-94434224D01*
X166334284Y-94429243D01*
X166336060Y-94422617D01*
X166392119Y-94213402D01*
X166392120Y-94213399D01*
X166393543Y-94208087D01*
X166413498Y-93980000D01*
X166393543Y-93751913D01*
X166356981Y-93615461D01*
X166335707Y-93536067D01*
X166335706Y-93536065D01*
X166334284Y-93530757D01*
X166328797Y-93518990D01*
X166239849Y-93328238D01*
X166239846Y-93328233D01*
X166237523Y-93323251D01*
X166106198Y-93135700D01*
X165944300Y-92973802D01*
X165939792Y-92970645D01*
X165939789Y-92970643D01*
X165813920Y-92882509D01*
X165756749Y-92842477D01*
X165751767Y-92840154D01*
X165751762Y-92840151D01*
X165717543Y-92824195D01*
X165664258Y-92777278D01*
X165644797Y-92709001D01*
X165665339Y-92641041D01*
X165717543Y-92595805D01*
X165751762Y-92579849D01*
X165751767Y-92579846D01*
X165756749Y-92577523D01*
X165892681Y-92482342D01*
X165939789Y-92449357D01*
X165939792Y-92449355D01*
X165944300Y-92446198D01*
X166106198Y-92284300D01*
X166115720Y-92270702D01*
X166234366Y-92101257D01*
X166237523Y-92096749D01*
X166239846Y-92091767D01*
X166239849Y-92091762D01*
X166331961Y-91894225D01*
X166331961Y-91894224D01*
X166334284Y-91889243D01*
X166336060Y-91882617D01*
X166392119Y-91673402D01*
X166392119Y-91673400D01*
X166393543Y-91668087D01*
X166413498Y-91440000D01*
X166393543Y-91211913D01*
X166334284Y-90990757D01*
X166328797Y-90978990D01*
X166239849Y-90788238D01*
X166239846Y-90788233D01*
X166237523Y-90783251D01*
X166106198Y-90595700D01*
X165944300Y-90433802D01*
X165939789Y-90430643D01*
X165935576Y-90427108D01*
X165936527Y-90425974D01*
X165896529Y-90375929D01*
X165889224Y-90305310D01*
X165921258Y-90241951D01*
X165982462Y-90205970D01*
X165999517Y-90202918D01*
X166010316Y-90201745D01*
X166146705Y-90150615D01*
X166263261Y-90063261D01*
X166350615Y-89946705D01*
X166401745Y-89810316D01*
X166408500Y-89748134D01*
X166408500Y-88628503D01*
X179058606Y-88628503D01*
X179058942Y-88642599D01*
X179066884Y-88646000D01*
X180067885Y-88646000D01*
X180083124Y-88641525D01*
X180084329Y-88640135D01*
X180086000Y-88632452D01*
X180086000Y-88627885D01*
X180594000Y-88627885D01*
X180598475Y-88643124D01*
X180599865Y-88644329D01*
X180607548Y-88646000D01*
X181607967Y-88646000D01*
X181621498Y-88642027D01*
X181622727Y-88633478D01*
X181575236Y-88456239D01*
X181571490Y-88445947D01*
X181479414Y-88248489D01*
X181473931Y-88238993D01*
X181348972Y-88060533D01*
X181341916Y-88052125D01*
X181187875Y-87898084D01*
X181179467Y-87891028D01*
X181001007Y-87766069D01*
X180991511Y-87760586D01*
X180794053Y-87668510D01*
X180783761Y-87664764D01*
X180611497Y-87618606D01*
X180597401Y-87618942D01*
X180594000Y-87626884D01*
X180594000Y-88627885D01*
X180086000Y-88627885D01*
X180086000Y-87632033D01*
X180082027Y-87618502D01*
X180073478Y-87617273D01*
X179896239Y-87664764D01*
X179885947Y-87668510D01*
X179688489Y-87760586D01*
X179678993Y-87766069D01*
X179500533Y-87891028D01*
X179492125Y-87898084D01*
X179338084Y-88052125D01*
X179331028Y-88060533D01*
X179206069Y-88238993D01*
X179200586Y-88248489D01*
X179108510Y-88445947D01*
X179104764Y-88456239D01*
X179058606Y-88628503D01*
X166408500Y-88628503D01*
X166408500Y-88051866D01*
X166401745Y-87989684D01*
X166350615Y-87853295D01*
X166263261Y-87736739D01*
X166146705Y-87649385D01*
X166010316Y-87598255D01*
X165948134Y-87591500D01*
X164251866Y-87591500D01*
X164189684Y-87598255D01*
X164053295Y-87649385D01*
X163936739Y-87736739D01*
X163849385Y-87853295D01*
X163798255Y-87989684D01*
X163791500Y-88051866D01*
X163791500Y-89329419D01*
X163771498Y-89397540D01*
X163754595Y-89418514D01*
X161927897Y-91245213D01*
X161915506Y-91256080D01*
X161891387Y-91274587D01*
X161840507Y-91340896D01*
X161797666Y-91396727D01*
X161796000Y-91400749D01*
X161738750Y-91538963D01*
X161737673Y-91547148D01*
X161737672Y-91547150D01*
X161736032Y-91559612D01*
X161734059Y-91574598D01*
X161718655Y-91691600D01*
X161719733Y-91699788D01*
X161722622Y-91721733D01*
X161723700Y-91738179D01*
X161723700Y-96733618D01*
X161703698Y-96801739D01*
X161686796Y-96822713D01*
X161521832Y-96987678D01*
X161387478Y-97122032D01*
X161325165Y-97156057D01*
X161254350Y-97150993D01*
X161197514Y-97108446D01*
X161192590Y-97101377D01*
X161102822Y-96962617D01*
X161102820Y-96962614D01*
X161100014Y-96958277D01*
X160949670Y-96793051D01*
X160945619Y-96789852D01*
X160945615Y-96789848D01*
X160778414Y-96657800D01*
X160778410Y-96657798D01*
X160774359Y-96654598D01*
X160733053Y-96631796D01*
X160683084Y-96581364D01*
X160668312Y-96511921D01*
X160693428Y-96445516D01*
X160720780Y-96418909D01*
X160764603Y-96387650D01*
X160899860Y-96291173D01*
X161058096Y-96133489D01*
X161117594Y-96050689D01*
X161185435Y-95956277D01*
X161188453Y-95952077D01*
X161209320Y-95909857D01*
X161285136Y-95756453D01*
X161285137Y-95756451D01*
X161287430Y-95751811D01*
X161352370Y-95538069D01*
X161381529Y-95316590D01*
X161381652Y-95311563D01*
X161383074Y-95253365D01*
X161383074Y-95253361D01*
X161383156Y-95250000D01*
X161364852Y-95027361D01*
X161310431Y-94810702D01*
X161221354Y-94605840D01*
X161118252Y-94446469D01*
X161102822Y-94422617D01*
X161102820Y-94422614D01*
X161100014Y-94418277D01*
X160949670Y-94253051D01*
X160945619Y-94249852D01*
X160945615Y-94249848D01*
X160778414Y-94117800D01*
X160778410Y-94117798D01*
X160774359Y-94114598D01*
X160733053Y-94091796D01*
X160683084Y-94041364D01*
X160668312Y-93971921D01*
X160693428Y-93905516D01*
X160720780Y-93878909D01*
X160764603Y-93847650D01*
X160899860Y-93751173D01*
X161058096Y-93593489D01*
X161117594Y-93510689D01*
X161185435Y-93416277D01*
X161188453Y-93412077D01*
X161203668Y-93381293D01*
X161285136Y-93216453D01*
X161285137Y-93216451D01*
X161287430Y-93211811D01*
X161352370Y-92998069D01*
X161381529Y-92776590D01*
X161382227Y-92748039D01*
X161383074Y-92713365D01*
X161383074Y-92713361D01*
X161383156Y-92710000D01*
X161364852Y-92487361D01*
X161310431Y-92270702D01*
X161221354Y-92065840D01*
X161124792Y-91916578D01*
X161102822Y-91882617D01*
X161102820Y-91882614D01*
X161100014Y-91878277D01*
X160949670Y-91713051D01*
X160945619Y-91709852D01*
X160945615Y-91709848D01*
X160778414Y-91577800D01*
X160778410Y-91577798D01*
X160774359Y-91574598D01*
X160578789Y-91466638D01*
X160573920Y-91464914D01*
X160573916Y-91464912D01*
X160373087Y-91393795D01*
X160373083Y-91393794D01*
X160368212Y-91392069D01*
X160363119Y-91391162D01*
X160363116Y-91391161D01*
X160153373Y-91353800D01*
X160153367Y-91353799D01*
X160148284Y-91352894D01*
X160074452Y-91351992D01*
X159930081Y-91350228D01*
X159930079Y-91350228D01*
X159924911Y-91350165D01*
X159704091Y-91383955D01*
X159491756Y-91453357D01*
X159438766Y-91480942D01*
X159311582Y-91547150D01*
X159293607Y-91556507D01*
X159289474Y-91559610D01*
X159289471Y-91559612D01*
X159144996Y-91668087D01*
X159114965Y-91690635D01*
X159111393Y-91694373D01*
X159012838Y-91797505D01*
X158960629Y-91852138D01*
X158853201Y-92009621D01*
X158798293Y-92054621D01*
X158727768Y-92062792D01*
X158664021Y-92031538D01*
X158643324Y-92007054D01*
X158562822Y-91882617D01*
X158562820Y-91882614D01*
X158560014Y-91878277D01*
X158409670Y-91713051D01*
X158405619Y-91709852D01*
X158405615Y-91709848D01*
X158238414Y-91577800D01*
X158238410Y-91577798D01*
X158234359Y-91574598D01*
X158129806Y-91516882D01*
X158079836Y-91466451D01*
X158064700Y-91406574D01*
X158064700Y-88178380D01*
X158084702Y-88110259D01*
X158101605Y-88089285D01*
X159209286Y-86981605D01*
X159271598Y-86947579D01*
X159298381Y-86944700D01*
X184566820Y-86944700D01*
X184634941Y-86964702D01*
G37*
%TD.AperFunction*%
%TA.AperFunction,Conductor*%
G36*
X210127121Y-85745002D02*
G01*
X210173614Y-85798658D01*
X210185000Y-85851000D01*
X210185000Y-91762007D01*
X210164998Y-91830128D01*
X210111342Y-91876621D01*
X210041068Y-91886725D01*
X209976488Y-91857231D01*
X209938104Y-91797505D01*
X209934078Y-91778454D01*
X209928839Y-91738663D01*
X209927761Y-91730474D01*
X209868845Y-91588239D01*
X209798654Y-91496763D01*
X209798653Y-91496762D01*
X209775124Y-91466098D01*
X209758520Y-91453357D01*
X209751012Y-91447596D01*
X209738621Y-91436730D01*
X209553273Y-91251383D01*
X209542405Y-91238990D01*
X209528930Y-91221429D01*
X209523902Y-91214876D01*
X209433004Y-91145128D01*
X209433003Y-91145127D01*
X209413360Y-91130054D01*
X209371493Y-91072715D01*
X209367272Y-91001844D01*
X209387742Y-90956566D01*
X209445435Y-90876277D01*
X209448453Y-90872077D01*
X209492354Y-90783251D01*
X209545136Y-90676453D01*
X209545137Y-90676451D01*
X209547430Y-90671811D01*
X209612370Y-90458069D01*
X209641529Y-90236590D01*
X209641732Y-90228287D01*
X209643074Y-90173365D01*
X209643074Y-90173361D01*
X209643156Y-90170000D01*
X209624852Y-89947361D01*
X209570431Y-89730702D01*
X209481354Y-89525840D01*
X209398353Y-89397540D01*
X209362822Y-89342617D01*
X209362820Y-89342614D01*
X209360014Y-89338277D01*
X209209670Y-89173051D01*
X209205619Y-89169852D01*
X209205615Y-89169848D01*
X209038414Y-89037800D01*
X209038410Y-89037798D01*
X209034359Y-89034598D01*
X208993053Y-89011796D01*
X208943084Y-88961364D01*
X208928312Y-88891921D01*
X208953428Y-88825516D01*
X208980780Y-88798909D01*
X209024603Y-88767650D01*
X209159860Y-88671173D01*
X209318096Y-88513489D01*
X209333004Y-88492743D01*
X209445435Y-88336277D01*
X209448453Y-88332077D01*
X209459513Y-88309700D01*
X209545136Y-88136453D01*
X209545137Y-88136451D01*
X209547430Y-88131811D01*
X209612370Y-87918069D01*
X209641529Y-87696590D01*
X209641611Y-87693240D01*
X209643074Y-87633365D01*
X209643074Y-87633361D01*
X209643156Y-87630000D01*
X209624852Y-87407361D01*
X209570431Y-87190702D01*
X209481354Y-86985840D01*
X209360014Y-86798277D01*
X209209670Y-86633051D01*
X209205619Y-86629852D01*
X209205615Y-86629848D01*
X209038414Y-86497800D01*
X209038410Y-86497798D01*
X209034359Y-86494598D01*
X208838789Y-86386638D01*
X208833920Y-86384914D01*
X208833916Y-86384912D01*
X208633087Y-86313795D01*
X208633083Y-86313794D01*
X208628212Y-86312069D01*
X208623119Y-86311162D01*
X208623116Y-86311161D01*
X208413373Y-86273800D01*
X208413367Y-86273799D01*
X208408284Y-86272894D01*
X208334452Y-86271992D01*
X208190081Y-86270228D01*
X208190079Y-86270228D01*
X208184911Y-86270165D01*
X207964091Y-86303955D01*
X207751756Y-86373357D01*
X207553607Y-86476507D01*
X207549474Y-86479610D01*
X207549471Y-86479612D01*
X207379100Y-86607530D01*
X207374965Y-86610635D01*
X207318537Y-86669684D01*
X207294283Y-86695064D01*
X207232759Y-86730494D01*
X207161846Y-86727037D01*
X207104060Y-86685791D01*
X207085207Y-86652243D01*
X207043767Y-86541703D01*
X207040615Y-86533295D01*
X206953261Y-86416739D01*
X206836705Y-86329385D01*
X206700316Y-86278255D01*
X206638134Y-86271500D01*
X204841866Y-86271500D01*
X204779684Y-86278255D01*
X204643295Y-86329385D01*
X204526739Y-86416739D01*
X204439385Y-86533295D01*
X204388255Y-86669684D01*
X204381500Y-86731866D01*
X204381500Y-86919300D01*
X204361498Y-86987421D01*
X204307842Y-87033914D01*
X204255500Y-87045300D01*
X203703778Y-87045300D01*
X203687331Y-87044222D01*
X203665388Y-87041333D01*
X203657200Y-87040255D01*
X203618881Y-87045300D01*
X203618876Y-87045300D01*
X203512751Y-87059272D01*
X203504563Y-87060350D01*
X203496936Y-87063509D01*
X203496933Y-87063510D01*
X203421243Y-87094862D01*
X203362327Y-87119266D01*
X203355773Y-87124295D01*
X203275620Y-87185798D01*
X203246740Y-87207958D01*
X203246737Y-87207961D01*
X203240187Y-87212987D01*
X203235161Y-87219537D01*
X203235160Y-87219538D01*
X203221680Y-87237106D01*
X203210812Y-87249497D01*
X202690795Y-87769514D01*
X202628483Y-87803540D01*
X202557668Y-87798475D01*
X202500832Y-87755928D01*
X202476021Y-87689408D01*
X202475700Y-87680419D01*
X202475700Y-86731866D01*
X202468945Y-86669684D01*
X202417815Y-86533295D01*
X202330461Y-86416739D01*
X202213905Y-86329385D01*
X202077516Y-86278255D01*
X202015334Y-86271500D01*
X200219066Y-86271500D01*
X200156884Y-86278255D01*
X200020495Y-86329385D01*
X199903939Y-86416739D01*
X199816585Y-86533295D01*
X199765455Y-86669684D01*
X199758700Y-86731866D01*
X199758700Y-88528134D01*
X199765455Y-88590316D01*
X199816585Y-88726705D01*
X199903939Y-88843261D01*
X200020495Y-88930615D01*
X200028904Y-88933767D01*
X200028905Y-88933768D01*
X200137651Y-88974535D01*
X200194416Y-89017176D01*
X200219116Y-89083738D01*
X200203909Y-89153087D01*
X200184516Y-89179568D01*
X200057829Y-89312138D01*
X200054920Y-89316403D01*
X200054914Y-89316411D01*
X200013911Y-89376519D01*
X199931943Y-89496680D01*
X199837888Y-89699305D01*
X199778189Y-89914570D01*
X199754451Y-90136695D01*
X199754748Y-90141848D01*
X199754748Y-90141851D01*
X199760331Y-90238683D01*
X199767310Y-90359715D01*
X199768447Y-90364761D01*
X199768448Y-90364767D01*
X199784006Y-90433802D01*
X199816422Y-90577639D01*
X199900466Y-90784616D01*
X199903165Y-90789020D01*
X200005837Y-90956566D01*
X200017187Y-90975088D01*
X200163450Y-91143938D01*
X200335326Y-91286632D01*
X200404353Y-91326968D01*
X200408645Y-91329476D01*
X200457369Y-91381114D01*
X200470440Y-91450897D01*
X200443709Y-91516669D01*
X200403255Y-91550027D01*
X200390807Y-91556507D01*
X200386674Y-91559610D01*
X200386671Y-91559612D01*
X200242196Y-91668087D01*
X200212165Y-91690635D01*
X200208593Y-91694373D01*
X200110038Y-91797505D01*
X200057829Y-91852138D01*
X200054920Y-91856403D01*
X200054914Y-91856411D01*
X200045838Y-91869716D01*
X199931943Y-92036680D01*
X199837888Y-92239305D01*
X199778189Y-92454570D01*
X199754451Y-92676695D01*
X199754748Y-92681848D01*
X199754748Y-92681851D01*
X199760211Y-92776590D01*
X199767310Y-92899715D01*
X199768447Y-92904761D01*
X199768448Y-92904767D01*
X199784006Y-92973802D01*
X199816422Y-93117639D01*
X199900466Y-93324616D01*
X199943781Y-93395300D01*
X200014491Y-93510688D01*
X200017187Y-93515088D01*
X200163450Y-93683938D01*
X200335326Y-93826632D01*
X200404353Y-93866968D01*
X200408645Y-93869476D01*
X200457369Y-93921114D01*
X200470440Y-93990897D01*
X200443709Y-94056669D01*
X200403255Y-94090027D01*
X200390807Y-94096507D01*
X200386674Y-94099610D01*
X200386671Y-94099612D01*
X200216300Y-94227530D01*
X200212165Y-94230635D01*
X200057829Y-94392138D01*
X200054920Y-94396403D01*
X200054914Y-94396411D01*
X199972829Y-94516743D01*
X199931943Y-94576680D01*
X199884915Y-94677993D01*
X199846623Y-94760488D01*
X199837888Y-94779305D01*
X199778189Y-94994570D01*
X199754451Y-95216695D01*
X199754748Y-95221848D01*
X199754748Y-95221851D01*
X199763876Y-95380151D01*
X199767310Y-95439715D01*
X199768447Y-95444761D01*
X199768448Y-95444767D01*
X199784006Y-95513802D01*
X199816422Y-95657639D01*
X199900466Y-95864616D01*
X199951219Y-95947438D01*
X200014491Y-96050688D01*
X200017187Y-96055088D01*
X200163450Y-96223938D01*
X200335326Y-96366632D01*
X200373979Y-96389219D01*
X200408645Y-96409476D01*
X200457369Y-96461114D01*
X200470440Y-96530897D01*
X200443709Y-96596669D01*
X200403255Y-96630027D01*
X200390807Y-96636507D01*
X200386674Y-96639610D01*
X200386671Y-96639612D01*
X200242196Y-96748087D01*
X200212165Y-96770635D01*
X200057829Y-96932138D01*
X199931943Y-97116680D01*
X199837888Y-97319305D01*
X199778189Y-97534570D01*
X199754451Y-97756695D01*
X199754748Y-97761848D01*
X199754748Y-97761851D01*
X199759921Y-97851563D01*
X199767310Y-97979715D01*
X199768447Y-97984761D01*
X199768448Y-97984767D01*
X199784006Y-98053802D01*
X199816422Y-98197639D01*
X199859568Y-98303896D01*
X199895614Y-98392666D01*
X199900466Y-98404616D01*
X199951222Y-98487442D01*
X200014491Y-98590688D01*
X200017187Y-98595088D01*
X200163450Y-98763938D01*
X200335326Y-98906632D01*
X200528200Y-99019338D01*
X200533025Y-99021180D01*
X200533026Y-99021181D01*
X200580742Y-99039402D01*
X200736892Y-99099030D01*
X200741960Y-99100061D01*
X200741963Y-99100062D01*
X200846666Y-99121364D01*
X200955797Y-99143567D01*
X200960972Y-99143757D01*
X200960974Y-99143757D01*
X201173873Y-99151564D01*
X201173877Y-99151564D01*
X201179037Y-99151753D01*
X201184157Y-99151097D01*
X201184159Y-99151097D01*
X201395488Y-99124025D01*
X201395489Y-99124025D01*
X201400616Y-99123368D01*
X201449457Y-99108715D01*
X201609629Y-99060661D01*
X201609634Y-99060659D01*
X201614584Y-99059174D01*
X201815194Y-98960896D01*
X201997060Y-98831173D01*
X202155296Y-98673489D01*
X202159253Y-98667983D01*
X202282635Y-98496277D01*
X202285653Y-98492077D01*
X202308983Y-98444872D01*
X202357097Y-98392666D01*
X202421940Y-98374700D01*
X203153422Y-98374700D01*
X203169869Y-98375778D01*
X203200000Y-98379745D01*
X203238319Y-98374700D01*
X203238324Y-98374700D01*
X203344449Y-98360728D01*
X203352637Y-98359650D01*
X203453213Y-98317990D01*
X203494873Y-98300734D01*
X203539386Y-98266577D01*
X203617013Y-98207013D01*
X203628076Y-98192596D01*
X203635520Y-98182894D01*
X203646388Y-98170502D01*
X204162892Y-97653999D01*
X204225204Y-97619974D01*
X204296020Y-97625039D01*
X204352855Y-97667586D01*
X204377666Y-97734106D01*
X204377438Y-97746370D01*
X204377926Y-97746382D01*
X204377799Y-97751564D01*
X204377251Y-97756695D01*
X204377548Y-97761848D01*
X204377548Y-97761851D01*
X204382721Y-97851563D01*
X204390110Y-97979715D01*
X204391247Y-97984761D01*
X204391248Y-97984767D01*
X204406806Y-98053802D01*
X204439222Y-98197639D01*
X204482368Y-98303896D01*
X204518414Y-98392666D01*
X204523266Y-98404616D01*
X204574022Y-98487442D01*
X204637291Y-98590688D01*
X204639987Y-98595088D01*
X204786250Y-98763938D01*
X204958126Y-98906632D01*
X205028595Y-98947811D01*
X205031445Y-98949476D01*
X205080169Y-99001114D01*
X205093240Y-99070897D01*
X205066509Y-99136669D01*
X205026055Y-99170027D01*
X205013607Y-99176507D01*
X205009474Y-99179610D01*
X205009471Y-99179612D01*
X204871040Y-99283549D01*
X204834965Y-99310635D01*
X204680629Y-99472138D01*
X204677720Y-99476403D01*
X204677714Y-99476411D01*
X204642915Y-99527424D01*
X204554743Y-99656680D01*
X204460688Y-99859305D01*
X204400989Y-100074570D01*
X204377251Y-100296695D01*
X204377548Y-100301848D01*
X204377548Y-100301851D01*
X204382721Y-100391563D01*
X204390110Y-100519715D01*
X204391247Y-100524761D01*
X204391248Y-100524767D01*
X204415304Y-100631508D01*
X204439222Y-100737639D01*
X204487288Y-100856013D01*
X204518414Y-100932666D01*
X204523266Y-100944616D01*
X204565333Y-101013263D01*
X204637291Y-101130688D01*
X204639987Y-101135088D01*
X204786250Y-101303938D01*
X204958126Y-101446632D01*
X205028595Y-101487811D01*
X205031445Y-101489476D01*
X205080169Y-101541114D01*
X205093240Y-101610897D01*
X205066509Y-101676669D01*
X205026055Y-101710027D01*
X205013607Y-101716507D01*
X205009474Y-101719610D01*
X205009471Y-101719612D01*
X204857917Y-101833402D01*
X204834965Y-101850635D01*
X204680629Y-102012138D01*
X204554743Y-102196680D01*
X204552564Y-102201375D01*
X204552563Y-102201377D01*
X204547468Y-102212352D01*
X204500643Y-102265718D01*
X204433181Y-102285300D01*
X201665580Y-102285300D01*
X201597459Y-102265298D01*
X201576485Y-102248395D01*
X194827994Y-95499904D01*
X194793968Y-95437592D01*
X194799033Y-95366777D01*
X194841580Y-95309941D01*
X194906107Y-95285288D01*
X195040520Y-95273528D01*
X195051312Y-95271625D01*
X195261761Y-95215236D01*
X195272053Y-95211490D01*
X195469511Y-95119414D01*
X195479006Y-95113931D01*
X195531048Y-95077491D01*
X195539424Y-95067012D01*
X195532356Y-95053566D01*
X194459922Y-93981132D01*
X195182408Y-93981132D01*
X195182539Y-93982965D01*
X195186790Y-93989580D01*
X195892287Y-94695077D01*
X195904062Y-94701507D01*
X195916077Y-94692211D01*
X195951931Y-94641006D01*
X195957414Y-94631511D01*
X196049490Y-94434053D01*
X196053236Y-94423761D01*
X196109625Y-94213312D01*
X196111528Y-94202519D01*
X196130517Y-93985475D01*
X196130517Y-93974525D01*
X196111528Y-93757481D01*
X196109625Y-93746688D01*
X196053236Y-93536239D01*
X196049490Y-93525947D01*
X195957414Y-93328489D01*
X195951931Y-93318994D01*
X195915491Y-93266952D01*
X195905012Y-93258576D01*
X195891566Y-93265644D01*
X195190022Y-93967188D01*
X195182408Y-93981132D01*
X194459922Y-93981132D01*
X193743713Y-93264923D01*
X193731938Y-93258493D01*
X193719923Y-93267789D01*
X193684069Y-93318994D01*
X193678586Y-93328489D01*
X193586510Y-93525947D01*
X193582764Y-93536239D01*
X193526375Y-93746688D01*
X193524472Y-93757480D01*
X193512712Y-93891893D01*
X193486848Y-93958011D01*
X193429345Y-93999650D01*
X193358458Y-94003591D01*
X193298096Y-93970006D01*
X192221078Y-92892988D01*
X194096576Y-92892988D01*
X194103644Y-92906434D01*
X194805188Y-93607978D01*
X194819132Y-93615592D01*
X194820965Y-93615461D01*
X194827580Y-93611210D01*
X195533077Y-92905713D01*
X195539507Y-92893938D01*
X195530211Y-92881923D01*
X195479006Y-92846069D01*
X195469511Y-92840586D01*
X195272053Y-92748510D01*
X195261761Y-92744764D01*
X195051312Y-92688375D01*
X195040519Y-92686472D01*
X194823475Y-92667483D01*
X194812525Y-92667483D01*
X194595481Y-92686472D01*
X194584688Y-92688375D01*
X194374239Y-92744764D01*
X194363947Y-92748510D01*
X194166489Y-92840586D01*
X194156994Y-92846069D01*
X194104952Y-92882509D01*
X194096576Y-92892988D01*
X192221078Y-92892988D01*
X189568152Y-90240062D01*
X194096493Y-90240062D01*
X194105789Y-90252077D01*
X194156994Y-90287931D01*
X194166489Y-90293414D01*
X194363947Y-90385490D01*
X194374239Y-90389236D01*
X194584688Y-90445625D01*
X194595481Y-90447528D01*
X194812525Y-90466517D01*
X194823475Y-90466517D01*
X195040519Y-90447528D01*
X195051312Y-90445625D01*
X195261761Y-90389236D01*
X195272053Y-90385490D01*
X195469511Y-90293414D01*
X195479006Y-90287931D01*
X195531048Y-90251491D01*
X195539424Y-90241012D01*
X195532356Y-90227566D01*
X194830812Y-89526022D01*
X194816868Y-89518408D01*
X194815035Y-89518539D01*
X194808420Y-89522790D01*
X194102923Y-90228287D01*
X194096493Y-90240062D01*
X189568152Y-90240062D01*
X188487565Y-89159475D01*
X193505483Y-89159475D01*
X193524472Y-89376519D01*
X193526375Y-89387312D01*
X193582764Y-89597761D01*
X193586510Y-89608053D01*
X193678586Y-89805511D01*
X193684069Y-89815006D01*
X193720509Y-89867048D01*
X193730988Y-89875424D01*
X193744434Y-89868356D01*
X194445978Y-89166812D01*
X194452356Y-89155132D01*
X195182408Y-89155132D01*
X195182539Y-89156965D01*
X195186790Y-89163580D01*
X195892287Y-89869077D01*
X195904062Y-89875507D01*
X195916077Y-89866211D01*
X195951931Y-89815006D01*
X195957414Y-89805511D01*
X196049490Y-89608053D01*
X196053236Y-89597761D01*
X196109625Y-89387312D01*
X196111528Y-89376519D01*
X196130517Y-89159475D01*
X196130517Y-89148525D01*
X196111528Y-88931481D01*
X196109625Y-88920688D01*
X196053236Y-88710239D01*
X196049490Y-88699947D01*
X195957414Y-88502489D01*
X195951931Y-88492994D01*
X195915491Y-88440952D01*
X195905012Y-88432576D01*
X195891566Y-88439644D01*
X195190022Y-89141188D01*
X195182408Y-89155132D01*
X194452356Y-89155132D01*
X194453592Y-89152868D01*
X194453461Y-89151035D01*
X194449210Y-89144420D01*
X193743713Y-88438923D01*
X193731938Y-88432493D01*
X193719923Y-88441789D01*
X193684069Y-88492994D01*
X193678586Y-88502489D01*
X193586510Y-88699947D01*
X193582764Y-88710239D01*
X193526375Y-88920688D01*
X193524472Y-88931481D01*
X193505483Y-89148525D01*
X193505483Y-89159475D01*
X188487565Y-89159475D01*
X187395078Y-88066988D01*
X194096576Y-88066988D01*
X194103644Y-88080434D01*
X194805188Y-88781978D01*
X194819132Y-88789592D01*
X194820965Y-88789461D01*
X194827580Y-88785210D01*
X195533077Y-88079713D01*
X195539507Y-88067938D01*
X195530211Y-88055923D01*
X195479006Y-88020069D01*
X195469511Y-88014586D01*
X195272053Y-87922510D01*
X195261761Y-87918764D01*
X195051312Y-87862375D01*
X195040519Y-87860472D01*
X194823475Y-87841483D01*
X194812525Y-87841483D01*
X194595481Y-87860472D01*
X194584688Y-87862375D01*
X194374239Y-87918764D01*
X194363947Y-87922510D01*
X194166489Y-88014586D01*
X194156994Y-88020069D01*
X194104952Y-88056509D01*
X194096576Y-88066988D01*
X187395078Y-88066988D01*
X185307587Y-85979497D01*
X185296719Y-85967105D01*
X185283239Y-85949537D01*
X185278213Y-85942987D01*
X185273330Y-85939241D01*
X185239771Y-85877783D01*
X185244836Y-85806968D01*
X185287383Y-85750132D01*
X185353903Y-85725321D01*
X185362892Y-85725000D01*
X210059000Y-85725000D01*
X210127121Y-85745002D01*
G37*
%TD.AperFunction*%
%TD*%
M02*
