%TF.GenerationSoftware,KiCad,Pcbnew,(6.0.2)*%
%TF.CreationDate,2022-03-01T19:19:51-06:00*%
%TF.ProjectId,SerialClockFlyover,53657269-616c-4436-9c6f-636b466c796f,rev?*%
%TF.SameCoordinates,Original*%
%TF.FileFunction,Legend,Top*%
%TF.FilePolarity,Positive*%
%FSLAX46Y46*%
G04 Gerber Fmt 4.6, Leading zero omitted, Abs format (unit mm)*
G04 Created by KiCad (PCBNEW (6.0.2)) date 2022-03-01 19:19:51*
%MOMM*%
%LPD*%
G01*
G04 APERTURE LIST*
%ADD10C,0.150000*%
%ADD11C,0.152400*%
%ADD12C,0.120000*%
%ADD13C,0.010000*%
%ADD14C,0.100000*%
G04 APERTURE END LIST*
D10*
X155577142Y-121102380D02*
X155577142Y-120102380D01*
X155910476Y-120816666D01*
X156243809Y-120102380D01*
X156243809Y-121102380D01*
X157148571Y-121102380D02*
X157148571Y-120578571D01*
X157100952Y-120483333D01*
X157005714Y-120435714D01*
X156815238Y-120435714D01*
X156720000Y-120483333D01*
X157148571Y-121054761D02*
X157053333Y-121102380D01*
X156815238Y-121102380D01*
X156720000Y-121054761D01*
X156672380Y-120959523D01*
X156672380Y-120864285D01*
X156720000Y-120769047D01*
X156815238Y-120721428D01*
X157053333Y-120721428D01*
X157148571Y-120673809D01*
X157577142Y-121054761D02*
X157672380Y-121102380D01*
X157862857Y-121102380D01*
X157958095Y-121054761D01*
X158005714Y-120959523D01*
X158005714Y-120911904D01*
X157958095Y-120816666D01*
X157862857Y-120769047D01*
X157720000Y-120769047D01*
X157624761Y-120721428D01*
X157577142Y-120626190D01*
X157577142Y-120578571D01*
X157624761Y-120483333D01*
X157720000Y-120435714D01*
X157862857Y-120435714D01*
X157958095Y-120483333D01*
X158291428Y-120435714D02*
X158672380Y-120435714D01*
X158434285Y-120102380D02*
X158434285Y-120959523D01*
X158481904Y-121054761D01*
X158577142Y-121102380D01*
X158672380Y-121102380D01*
X159386666Y-121054761D02*
X159291428Y-121102380D01*
X159100952Y-121102380D01*
X159005714Y-121054761D01*
X158958095Y-120959523D01*
X158958095Y-120578571D01*
X159005714Y-120483333D01*
X159100952Y-120435714D01*
X159291428Y-120435714D01*
X159386666Y-120483333D01*
X159434285Y-120578571D01*
X159434285Y-120673809D01*
X158958095Y-120769047D01*
X159862857Y-121102380D02*
X159862857Y-120435714D01*
X159862857Y-120626190D02*
X159910476Y-120530952D01*
X159958095Y-120483333D01*
X160053333Y-120435714D01*
X160148571Y-120435714D01*
X161815238Y-121007142D02*
X161767619Y-121054761D01*
X161624761Y-121102380D01*
X161529523Y-121102380D01*
X161386666Y-121054761D01*
X161291428Y-120959523D01*
X161243809Y-120864285D01*
X161196190Y-120673809D01*
X161196190Y-120530952D01*
X161243809Y-120340476D01*
X161291428Y-120245238D01*
X161386666Y-120150000D01*
X161529523Y-120102380D01*
X161624761Y-120102380D01*
X161767619Y-120150000D01*
X161815238Y-120197619D01*
X162386666Y-121102380D02*
X162291428Y-121054761D01*
X162243809Y-121007142D01*
X162196190Y-120911904D01*
X162196190Y-120626190D01*
X162243809Y-120530952D01*
X162291428Y-120483333D01*
X162386666Y-120435714D01*
X162529523Y-120435714D01*
X162624761Y-120483333D01*
X162672380Y-120530952D01*
X162720000Y-120626190D01*
X162720000Y-120911904D01*
X162672380Y-121007142D01*
X162624761Y-121054761D01*
X162529523Y-121102380D01*
X162386666Y-121102380D01*
X163148571Y-120435714D02*
X163148571Y-121102380D01*
X163148571Y-120530952D02*
X163196190Y-120483333D01*
X163291428Y-120435714D01*
X163434285Y-120435714D01*
X163529523Y-120483333D01*
X163577142Y-120578571D01*
X163577142Y-121102380D01*
X163910476Y-120435714D02*
X164291428Y-120435714D01*
X164053333Y-120102380D02*
X164053333Y-120959523D01*
X164100952Y-121054761D01*
X164196190Y-121102380D01*
X164291428Y-121102380D01*
X164624761Y-121102380D02*
X164624761Y-120435714D01*
X164624761Y-120626190D02*
X164672380Y-120530952D01*
X164720000Y-120483333D01*
X164815238Y-120435714D01*
X164910476Y-120435714D01*
X165386666Y-121102380D02*
X165291428Y-121054761D01*
X165243809Y-121007142D01*
X165196190Y-120911904D01*
X165196190Y-120626190D01*
X165243809Y-120530952D01*
X165291428Y-120483333D01*
X165386666Y-120435714D01*
X165529523Y-120435714D01*
X165624761Y-120483333D01*
X165672380Y-120530952D01*
X165720000Y-120626190D01*
X165720000Y-120911904D01*
X165672380Y-121007142D01*
X165624761Y-121054761D01*
X165529523Y-121102380D01*
X165386666Y-121102380D01*
X166291428Y-121102380D02*
X166196190Y-121054761D01*
X166148571Y-120959523D01*
X166148571Y-120102380D01*
X167767619Y-120578571D02*
X167910476Y-120626190D01*
X167958095Y-120673809D01*
X168005714Y-120769047D01*
X168005714Y-120911904D01*
X167958095Y-121007142D01*
X167910476Y-121054761D01*
X167815238Y-121102380D01*
X167434285Y-121102380D01*
X167434285Y-120102380D01*
X167767619Y-120102380D01*
X167862857Y-120150000D01*
X167910476Y-120197619D01*
X167958095Y-120292857D01*
X167958095Y-120388095D01*
X167910476Y-120483333D01*
X167862857Y-120530952D01*
X167767619Y-120578571D01*
X167434285Y-120578571D01*
X168577142Y-121102380D02*
X168481904Y-121054761D01*
X168434285Y-121007142D01*
X168386666Y-120911904D01*
X168386666Y-120626190D01*
X168434285Y-120530952D01*
X168481904Y-120483333D01*
X168577142Y-120435714D01*
X168720000Y-120435714D01*
X168815238Y-120483333D01*
X168862857Y-120530952D01*
X168910476Y-120626190D01*
X168910476Y-120911904D01*
X168862857Y-121007142D01*
X168815238Y-121054761D01*
X168720000Y-121102380D01*
X168577142Y-121102380D01*
X169767619Y-121102380D02*
X169767619Y-120578571D01*
X169720000Y-120483333D01*
X169624761Y-120435714D01*
X169434285Y-120435714D01*
X169339047Y-120483333D01*
X169767619Y-121054761D02*
X169672380Y-121102380D01*
X169434285Y-121102380D01*
X169339047Y-121054761D01*
X169291428Y-120959523D01*
X169291428Y-120864285D01*
X169339047Y-120769047D01*
X169434285Y-120721428D01*
X169672380Y-120721428D01*
X169767619Y-120673809D01*
X170243809Y-121102380D02*
X170243809Y-120435714D01*
X170243809Y-120626190D02*
X170291428Y-120530952D01*
X170339047Y-120483333D01*
X170434285Y-120435714D01*
X170529523Y-120435714D01*
X171291428Y-121102380D02*
X171291428Y-120102380D01*
X171291428Y-121054761D02*
X171196190Y-121102380D01*
X171005714Y-121102380D01*
X170910476Y-121054761D01*
X170862857Y-121007142D01*
X170815238Y-120911904D01*
X170815238Y-120626190D01*
X170862857Y-120530952D01*
X170910476Y-120483333D01*
X171005714Y-120435714D01*
X171196190Y-120435714D01*
X171291428Y-120483333D01*
X172529523Y-120721428D02*
X173291428Y-120721428D01*
X174862857Y-120578571D02*
X175005714Y-120626190D01*
X175053333Y-120673809D01*
X175100952Y-120769047D01*
X175100952Y-120911904D01*
X175053333Y-121007142D01*
X175005714Y-121054761D01*
X174910476Y-121102380D01*
X174529523Y-121102380D01*
X174529523Y-120102380D01*
X174862857Y-120102380D01*
X174958095Y-120150000D01*
X175005714Y-120197619D01*
X175053333Y-120292857D01*
X175053333Y-120388095D01*
X175005714Y-120483333D01*
X174958095Y-120530952D01*
X174862857Y-120578571D01*
X174529523Y-120578571D01*
X175481904Y-120816666D02*
X175958095Y-120816666D01*
X175386666Y-121102380D02*
X175720000Y-120102380D01*
X176053333Y-121102380D01*
X176386666Y-120102380D02*
X176386666Y-120911904D01*
X176434285Y-121007142D01*
X176481904Y-121054761D01*
X176577142Y-121102380D01*
X176767619Y-121102380D01*
X176862857Y-121054761D01*
X176910476Y-121007142D01*
X176958095Y-120911904D01*
X176958095Y-120102380D01*
X177434285Y-121102380D02*
X177434285Y-120102380D01*
X177672380Y-120102380D01*
X177815238Y-120150000D01*
X177910476Y-120245238D01*
X177958095Y-120340476D01*
X178005714Y-120530952D01*
X178005714Y-120673809D01*
X177958095Y-120864285D01*
X177910476Y-120959523D01*
X177815238Y-121054761D01*
X177672380Y-121102380D01*
X177434285Y-121102380D01*
X179720000Y-120150000D02*
X179624761Y-120102380D01*
X179481904Y-120102380D01*
X179339047Y-120150000D01*
X179243809Y-120245238D01*
X179196190Y-120340476D01*
X179148571Y-120530952D01*
X179148571Y-120673809D01*
X179196190Y-120864285D01*
X179243809Y-120959523D01*
X179339047Y-121054761D01*
X179481904Y-121102380D01*
X179577142Y-121102380D01*
X179720000Y-121054761D01*
X179767619Y-121007142D01*
X179767619Y-120673809D01*
X179577142Y-120673809D01*
X180577142Y-121054761D02*
X180481904Y-121102380D01*
X180291428Y-121102380D01*
X180196190Y-121054761D01*
X180148571Y-120959523D01*
X180148571Y-120578571D01*
X180196190Y-120483333D01*
X180291428Y-120435714D01*
X180481904Y-120435714D01*
X180577142Y-120483333D01*
X180624761Y-120578571D01*
X180624761Y-120673809D01*
X180148571Y-120769047D01*
X181053333Y-120435714D02*
X181053333Y-121102380D01*
X181053333Y-120530952D02*
X181100952Y-120483333D01*
X181196190Y-120435714D01*
X181339047Y-120435714D01*
X181434285Y-120483333D01*
X181481904Y-120578571D01*
X181481904Y-121102380D01*
X182339047Y-121054761D02*
X182243809Y-121102380D01*
X182053333Y-121102380D01*
X181958095Y-121054761D01*
X181910476Y-120959523D01*
X181910476Y-120578571D01*
X181958095Y-120483333D01*
X182053333Y-120435714D01*
X182243809Y-120435714D01*
X182339047Y-120483333D01*
X182386666Y-120578571D01*
X182386666Y-120673809D01*
X181910476Y-120769047D01*
X182815238Y-121102380D02*
X182815238Y-120435714D01*
X182815238Y-120626190D02*
X182862857Y-120530952D01*
X182910476Y-120483333D01*
X183005714Y-120435714D01*
X183100952Y-120435714D01*
X183862857Y-121102380D02*
X183862857Y-120578571D01*
X183815238Y-120483333D01*
X183720000Y-120435714D01*
X183529523Y-120435714D01*
X183434285Y-120483333D01*
X183862857Y-121054761D02*
X183767619Y-121102380D01*
X183529523Y-121102380D01*
X183434285Y-121054761D01*
X183386666Y-120959523D01*
X183386666Y-120864285D01*
X183434285Y-120769047D01*
X183529523Y-120721428D01*
X183767619Y-120721428D01*
X183862857Y-120673809D01*
X184196190Y-120435714D02*
X184577142Y-120435714D01*
X184339047Y-120102380D02*
X184339047Y-120959523D01*
X184386666Y-121054761D01*
X184481904Y-121102380D01*
X184577142Y-121102380D01*
X185053333Y-121102380D02*
X184958095Y-121054761D01*
X184910476Y-121007142D01*
X184862857Y-120911904D01*
X184862857Y-120626190D01*
X184910476Y-120530952D01*
X184958095Y-120483333D01*
X185053333Y-120435714D01*
X185196190Y-120435714D01*
X185291428Y-120483333D01*
X185339047Y-120530952D01*
X185386666Y-120626190D01*
X185386666Y-120911904D01*
X185339047Y-121007142D01*
X185291428Y-121054761D01*
X185196190Y-121102380D01*
X185053333Y-121102380D01*
X185815238Y-121102380D02*
X185815238Y-120435714D01*
X185815238Y-120626190D02*
X185862857Y-120530952D01*
X185910476Y-120483333D01*
X186005714Y-120435714D01*
X186100952Y-120435714D01*
X187100952Y-120435714D02*
X187339047Y-121102380D01*
X187577142Y-120435714D01*
X188481904Y-121102380D02*
X187910476Y-121102380D01*
X188196190Y-121102380D02*
X188196190Y-120102380D01*
X188100952Y-120245238D01*
X188005714Y-120340476D01*
X187910476Y-120388095D01*
X188910476Y-121007142D02*
X188958095Y-121054761D01*
X188910476Y-121102380D01*
X188862857Y-121054761D01*
X188910476Y-121007142D01*
X188910476Y-121102380D01*
X189577142Y-120102380D02*
X189672380Y-120102380D01*
X189767619Y-120150000D01*
X189815238Y-120197619D01*
X189862857Y-120292857D01*
X189910476Y-120483333D01*
X189910476Y-120721428D01*
X189862857Y-120911904D01*
X189815238Y-121007142D01*
X189767619Y-121054761D01*
X189672380Y-121102380D01*
X189577142Y-121102380D01*
X189481904Y-121054761D01*
X189434285Y-121007142D01*
X189386666Y-120911904D01*
X189339047Y-120721428D01*
X189339047Y-120483333D01*
X189386666Y-120292857D01*
X189434285Y-120197619D01*
X189481904Y-120150000D01*
X189577142Y-120102380D01*
D11*
X197168104Y-87071200D02*
X197071342Y-87022819D01*
X196926200Y-87022819D01*
X196781057Y-87071200D01*
X196684295Y-87167961D01*
X196635914Y-87264723D01*
X196587533Y-87458247D01*
X196587533Y-87603390D01*
X196635914Y-87796914D01*
X196684295Y-87893676D01*
X196781057Y-87990438D01*
X196926200Y-88038819D01*
X197022961Y-88038819D01*
X197168104Y-87990438D01*
X197216485Y-87942057D01*
X197216485Y-87603390D01*
X197022961Y-87603390D01*
X197651914Y-88038819D02*
X197651914Y-87022819D01*
X198232485Y-88038819D01*
X198232485Y-87022819D01*
X198716295Y-88038819D02*
X198716295Y-87022819D01*
X198958200Y-87022819D01*
X199103342Y-87071200D01*
X199200104Y-87167961D01*
X199248485Y-87264723D01*
X199296866Y-87458247D01*
X199296866Y-87603390D01*
X199248485Y-87796914D01*
X199200104Y-87893676D01*
X199103342Y-87990438D01*
X198958200Y-88038819D01*
X198716295Y-88038819D01*
X197385819Y-90482057D02*
X197337438Y-90530438D01*
X197192295Y-90578819D01*
X197095533Y-90578819D01*
X196950390Y-90530438D01*
X196853628Y-90433676D01*
X196805247Y-90336914D01*
X196756866Y-90143390D01*
X196756866Y-89998247D01*
X196805247Y-89804723D01*
X196853628Y-89707961D01*
X196950390Y-89611200D01*
X197095533Y-89562819D01*
X197192295Y-89562819D01*
X197337438Y-89611200D01*
X197385819Y-89659580D01*
X197676104Y-89562819D02*
X198256676Y-89562819D01*
X197966390Y-90578819D02*
X197966390Y-89562819D01*
X198546961Y-90530438D02*
X198692104Y-90578819D01*
X198934009Y-90578819D01*
X199030771Y-90530438D01*
X199079152Y-90482057D01*
X199127533Y-90385295D01*
X199127533Y-90288533D01*
X199079152Y-90191771D01*
X199030771Y-90143390D01*
X198934009Y-90095009D01*
X198740485Y-90046628D01*
X198643723Y-89998247D01*
X198595342Y-89949866D01*
X198546961Y-89853104D01*
X198546961Y-89756342D01*
X198595342Y-89659580D01*
X198643723Y-89611200D01*
X198740485Y-89562819D01*
X198982390Y-89562819D01*
X199127533Y-89611200D01*
X196732676Y-94642819D02*
X197313247Y-94642819D01*
X197022961Y-95658819D02*
X197022961Y-94642819D01*
X197555152Y-95658819D02*
X198087342Y-94981485D01*
X197555152Y-94981485D02*
X198087342Y-95658819D01*
X198474390Y-95658819D02*
X198474390Y-94642819D01*
X198716295Y-94642819D01*
X198861438Y-94691200D01*
X198958200Y-94787961D01*
X199006580Y-94884723D01*
X199054961Y-95078247D01*
X199054961Y-95223390D01*
X199006580Y-95416914D01*
X198958200Y-95513676D01*
X198861438Y-95610438D01*
X198716295Y-95658819D01*
X198474390Y-95658819D01*
D10*
X152382214Y-112482380D02*
X153001261Y-112482380D01*
X152667928Y-112863333D01*
X152810785Y-112863333D01*
X152906023Y-112910952D01*
X152953642Y-112958571D01*
X153001261Y-113053809D01*
X153001261Y-113291904D01*
X152953642Y-113387142D01*
X152906023Y-113434761D01*
X152810785Y-113482380D01*
X152525071Y-113482380D01*
X152429833Y-113434761D01*
X152382214Y-113387142D01*
X153620309Y-112482380D02*
X153715547Y-112482380D01*
X153810785Y-112530000D01*
X153858404Y-112577619D01*
X153906023Y-112672857D01*
X153953642Y-112863333D01*
X153953642Y-113101428D01*
X153906023Y-113291904D01*
X153858404Y-113387142D01*
X153810785Y-113434761D01*
X153715547Y-113482380D01*
X153620309Y-113482380D01*
X153525071Y-113434761D01*
X153477452Y-113387142D01*
X153429833Y-113291904D01*
X153382214Y-113101428D01*
X153382214Y-112863333D01*
X153429833Y-112672857D01*
X153477452Y-112577619D01*
X153525071Y-112530000D01*
X153620309Y-112482380D01*
X154572690Y-112482380D02*
X154667928Y-112482380D01*
X154763166Y-112530000D01*
X154810785Y-112577619D01*
X154858404Y-112672857D01*
X154906023Y-112863333D01*
X154906023Y-113101428D01*
X154858404Y-113291904D01*
X154810785Y-113387142D01*
X154763166Y-113434761D01*
X154667928Y-113482380D01*
X154572690Y-113482380D01*
X154477452Y-113434761D01*
X154429833Y-113387142D01*
X154382214Y-113291904D01*
X154334595Y-113101428D01*
X154334595Y-112863333D01*
X154382214Y-112672857D01*
X154429833Y-112577619D01*
X154477452Y-112530000D01*
X154572690Y-112482380D01*
X152048880Y-110942380D02*
X151477452Y-110942380D01*
X151763166Y-110942380D02*
X151763166Y-109942380D01*
X151667928Y-110085238D01*
X151572690Y-110180476D01*
X151477452Y-110228095D01*
X152429833Y-110037619D02*
X152477452Y-109990000D01*
X152572690Y-109942380D01*
X152810785Y-109942380D01*
X152906023Y-109990000D01*
X152953642Y-110037619D01*
X153001261Y-110132857D01*
X153001261Y-110228095D01*
X152953642Y-110370952D01*
X152382214Y-110942380D01*
X153001261Y-110942380D01*
X153620309Y-109942380D02*
X153715547Y-109942380D01*
X153810785Y-109990000D01*
X153858404Y-110037619D01*
X153906023Y-110132857D01*
X153953642Y-110323333D01*
X153953642Y-110561428D01*
X153906023Y-110751904D01*
X153858404Y-110847142D01*
X153810785Y-110894761D01*
X153715547Y-110942380D01*
X153620309Y-110942380D01*
X153525071Y-110894761D01*
X153477452Y-110847142D01*
X153429833Y-110751904D01*
X153382214Y-110561428D01*
X153382214Y-110323333D01*
X153429833Y-110132857D01*
X153477452Y-110037619D01*
X153525071Y-109990000D01*
X153620309Y-109942380D01*
X154572690Y-109942380D02*
X154667928Y-109942380D01*
X154763166Y-109990000D01*
X154810785Y-110037619D01*
X154858404Y-110132857D01*
X154906023Y-110323333D01*
X154906023Y-110561428D01*
X154858404Y-110751904D01*
X154810785Y-110847142D01*
X154763166Y-110894761D01*
X154667928Y-110942380D01*
X154572690Y-110942380D01*
X154477452Y-110894761D01*
X154429833Y-110847142D01*
X154382214Y-110751904D01*
X154334595Y-110561428D01*
X154334595Y-110323333D01*
X154382214Y-110132857D01*
X154429833Y-110037619D01*
X154477452Y-109990000D01*
X154572690Y-109942380D01*
X150144119Y-93162380D02*
X149572690Y-93162380D01*
X149858404Y-93162380D02*
X149858404Y-92162380D01*
X149763166Y-92305238D01*
X149667928Y-92400476D01*
X149572690Y-92448095D01*
X151096500Y-93162380D02*
X150525071Y-93162380D01*
X150810785Y-93162380D02*
X150810785Y-92162380D01*
X150715547Y-92305238D01*
X150620309Y-92400476D01*
X150525071Y-92448095D01*
X152001261Y-92162380D02*
X151525071Y-92162380D01*
X151477452Y-92638571D01*
X151525071Y-92590952D01*
X151620309Y-92543333D01*
X151858404Y-92543333D01*
X151953642Y-92590952D01*
X152001261Y-92638571D01*
X152048880Y-92733809D01*
X152048880Y-92971904D01*
X152001261Y-93067142D01*
X151953642Y-93114761D01*
X151858404Y-93162380D01*
X151620309Y-93162380D01*
X151525071Y-93114761D01*
X151477452Y-93067142D01*
X152429833Y-92257619D02*
X152477452Y-92210000D01*
X152572690Y-92162380D01*
X152810785Y-92162380D01*
X152906023Y-92210000D01*
X152953642Y-92257619D01*
X153001261Y-92352857D01*
X153001261Y-92448095D01*
X152953642Y-92590952D01*
X152382214Y-93162380D01*
X153001261Y-93162380D01*
X153620309Y-92162380D02*
X153715547Y-92162380D01*
X153810785Y-92210000D01*
X153858404Y-92257619D01*
X153906023Y-92352857D01*
X153953642Y-92543333D01*
X153953642Y-92781428D01*
X153906023Y-92971904D01*
X153858404Y-93067142D01*
X153810785Y-93114761D01*
X153715547Y-93162380D01*
X153620309Y-93162380D01*
X153525071Y-93114761D01*
X153477452Y-93067142D01*
X153429833Y-92971904D01*
X153382214Y-92781428D01*
X153382214Y-92543333D01*
X153429833Y-92352857D01*
X153477452Y-92257619D01*
X153525071Y-92210000D01*
X153620309Y-92162380D01*
X154572690Y-92162380D02*
X154667928Y-92162380D01*
X154763166Y-92210000D01*
X154810785Y-92257619D01*
X154858404Y-92352857D01*
X154906023Y-92543333D01*
X154906023Y-92781428D01*
X154858404Y-92971904D01*
X154810785Y-93067142D01*
X154763166Y-93114761D01*
X154667928Y-93162380D01*
X154572690Y-93162380D01*
X154477452Y-93114761D01*
X154429833Y-93067142D01*
X154382214Y-92971904D01*
X154334595Y-92781428D01*
X154334595Y-92543333D01*
X154382214Y-92352857D01*
X154429833Y-92257619D01*
X154477452Y-92210000D01*
X154572690Y-92162380D01*
X151953642Y-105195714D02*
X151953642Y-105862380D01*
X151715547Y-104814761D02*
X151477452Y-105529047D01*
X152096500Y-105529047D01*
X152620309Y-105290952D02*
X152525071Y-105243333D01*
X152477452Y-105195714D01*
X152429833Y-105100476D01*
X152429833Y-105052857D01*
X152477452Y-104957619D01*
X152525071Y-104910000D01*
X152620309Y-104862380D01*
X152810785Y-104862380D01*
X152906023Y-104910000D01*
X152953642Y-104957619D01*
X153001261Y-105052857D01*
X153001261Y-105100476D01*
X152953642Y-105195714D01*
X152906023Y-105243333D01*
X152810785Y-105290952D01*
X152620309Y-105290952D01*
X152525071Y-105338571D01*
X152477452Y-105386190D01*
X152429833Y-105481428D01*
X152429833Y-105671904D01*
X152477452Y-105767142D01*
X152525071Y-105814761D01*
X152620309Y-105862380D01*
X152810785Y-105862380D01*
X152906023Y-105814761D01*
X152953642Y-105767142D01*
X153001261Y-105671904D01*
X153001261Y-105481428D01*
X152953642Y-105386190D01*
X152906023Y-105338571D01*
X152810785Y-105290952D01*
X153620309Y-104862380D02*
X153715547Y-104862380D01*
X153810785Y-104910000D01*
X153858404Y-104957619D01*
X153906023Y-105052857D01*
X153953642Y-105243333D01*
X153953642Y-105481428D01*
X153906023Y-105671904D01*
X153858404Y-105767142D01*
X153810785Y-105814761D01*
X153715547Y-105862380D01*
X153620309Y-105862380D01*
X153525071Y-105814761D01*
X153477452Y-105767142D01*
X153429833Y-105671904D01*
X153382214Y-105481428D01*
X153382214Y-105243333D01*
X153429833Y-105052857D01*
X153477452Y-104957619D01*
X153525071Y-104910000D01*
X153620309Y-104862380D01*
X154572690Y-104862380D02*
X154667928Y-104862380D01*
X154763166Y-104910000D01*
X154810785Y-104957619D01*
X154858404Y-105052857D01*
X154906023Y-105243333D01*
X154906023Y-105481428D01*
X154858404Y-105671904D01*
X154810785Y-105767142D01*
X154763166Y-105814761D01*
X154667928Y-105862380D01*
X154572690Y-105862380D01*
X154477452Y-105814761D01*
X154429833Y-105767142D01*
X154382214Y-105671904D01*
X154334595Y-105481428D01*
X154334595Y-105243333D01*
X154382214Y-105052857D01*
X154429833Y-104957619D01*
X154477452Y-104910000D01*
X154572690Y-104862380D01*
X151096500Y-100782380D02*
X150525071Y-100782380D01*
X150810785Y-100782380D02*
X150810785Y-99782380D01*
X150715547Y-99925238D01*
X150620309Y-100020476D01*
X150525071Y-100068095D01*
X151572690Y-100782380D02*
X151763166Y-100782380D01*
X151858404Y-100734761D01*
X151906023Y-100687142D01*
X152001261Y-100544285D01*
X152048880Y-100353809D01*
X152048880Y-99972857D01*
X152001261Y-99877619D01*
X151953642Y-99830000D01*
X151858404Y-99782380D01*
X151667928Y-99782380D01*
X151572690Y-99830000D01*
X151525071Y-99877619D01*
X151477452Y-99972857D01*
X151477452Y-100210952D01*
X151525071Y-100306190D01*
X151572690Y-100353809D01*
X151667928Y-100401428D01*
X151858404Y-100401428D01*
X151953642Y-100353809D01*
X152001261Y-100306190D01*
X152048880Y-100210952D01*
X152429833Y-99877619D02*
X152477452Y-99830000D01*
X152572690Y-99782380D01*
X152810785Y-99782380D01*
X152906023Y-99830000D01*
X152953642Y-99877619D01*
X153001261Y-99972857D01*
X153001261Y-100068095D01*
X152953642Y-100210952D01*
X152382214Y-100782380D01*
X153001261Y-100782380D01*
X153620309Y-99782380D02*
X153715547Y-99782380D01*
X153810785Y-99830000D01*
X153858404Y-99877619D01*
X153906023Y-99972857D01*
X153953642Y-100163333D01*
X153953642Y-100401428D01*
X153906023Y-100591904D01*
X153858404Y-100687142D01*
X153810785Y-100734761D01*
X153715547Y-100782380D01*
X153620309Y-100782380D01*
X153525071Y-100734761D01*
X153477452Y-100687142D01*
X153429833Y-100591904D01*
X153382214Y-100401428D01*
X153382214Y-100163333D01*
X153429833Y-99972857D01*
X153477452Y-99877619D01*
X153525071Y-99830000D01*
X153620309Y-99782380D01*
X154572690Y-99782380D02*
X154667928Y-99782380D01*
X154763166Y-99830000D01*
X154810785Y-99877619D01*
X154858404Y-99972857D01*
X154906023Y-100163333D01*
X154906023Y-100401428D01*
X154858404Y-100591904D01*
X154810785Y-100687142D01*
X154763166Y-100734761D01*
X154667928Y-100782380D01*
X154572690Y-100782380D01*
X154477452Y-100734761D01*
X154429833Y-100687142D01*
X154382214Y-100591904D01*
X154334595Y-100401428D01*
X154334595Y-100163333D01*
X154382214Y-99972857D01*
X154429833Y-99877619D01*
X154477452Y-99830000D01*
X154572690Y-99782380D01*
X151048880Y-94702380D02*
X150572690Y-94702380D01*
X150525071Y-95178571D01*
X150572690Y-95130952D01*
X150667928Y-95083333D01*
X150906023Y-95083333D01*
X151001261Y-95130952D01*
X151048880Y-95178571D01*
X151096500Y-95273809D01*
X151096500Y-95511904D01*
X151048880Y-95607142D01*
X151001261Y-95654761D01*
X150906023Y-95702380D01*
X150667928Y-95702380D01*
X150572690Y-95654761D01*
X150525071Y-95607142D01*
X151429833Y-94702380D02*
X152096500Y-94702380D01*
X151667928Y-95702380D01*
X152906023Y-94702380D02*
X152715547Y-94702380D01*
X152620309Y-94750000D01*
X152572690Y-94797619D01*
X152477452Y-94940476D01*
X152429833Y-95130952D01*
X152429833Y-95511904D01*
X152477452Y-95607142D01*
X152525071Y-95654761D01*
X152620309Y-95702380D01*
X152810785Y-95702380D01*
X152906023Y-95654761D01*
X152953642Y-95607142D01*
X153001261Y-95511904D01*
X153001261Y-95273809D01*
X152953642Y-95178571D01*
X152906023Y-95130952D01*
X152810785Y-95083333D01*
X152620309Y-95083333D01*
X152525071Y-95130952D01*
X152477452Y-95178571D01*
X152429833Y-95273809D01*
X153620309Y-94702380D02*
X153715547Y-94702380D01*
X153810785Y-94750000D01*
X153858404Y-94797619D01*
X153906023Y-94892857D01*
X153953642Y-95083333D01*
X153953642Y-95321428D01*
X153906023Y-95511904D01*
X153858404Y-95607142D01*
X153810785Y-95654761D01*
X153715547Y-95702380D01*
X153620309Y-95702380D01*
X153525071Y-95654761D01*
X153477452Y-95607142D01*
X153429833Y-95511904D01*
X153382214Y-95321428D01*
X153382214Y-95083333D01*
X153429833Y-94892857D01*
X153477452Y-94797619D01*
X153525071Y-94750000D01*
X153620309Y-94702380D01*
X154572690Y-94702380D02*
X154667928Y-94702380D01*
X154763166Y-94750000D01*
X154810785Y-94797619D01*
X154858404Y-94892857D01*
X154906023Y-95083333D01*
X154906023Y-95321428D01*
X154858404Y-95511904D01*
X154810785Y-95607142D01*
X154763166Y-95654761D01*
X154667928Y-95702380D01*
X154572690Y-95702380D01*
X154477452Y-95654761D01*
X154429833Y-95607142D01*
X154382214Y-95511904D01*
X154334595Y-95321428D01*
X154334595Y-95083333D01*
X154382214Y-94892857D01*
X154429833Y-94797619D01*
X154477452Y-94750000D01*
X154572690Y-94702380D01*
X150477452Y-97242380D02*
X151096500Y-97242380D01*
X150763166Y-97623333D01*
X150906023Y-97623333D01*
X151001261Y-97670952D01*
X151048880Y-97718571D01*
X151096500Y-97813809D01*
X151096500Y-98051904D01*
X151048880Y-98147142D01*
X151001261Y-98194761D01*
X150906023Y-98242380D01*
X150620309Y-98242380D01*
X150525071Y-98194761D01*
X150477452Y-98147142D01*
X151667928Y-97670952D02*
X151572690Y-97623333D01*
X151525071Y-97575714D01*
X151477452Y-97480476D01*
X151477452Y-97432857D01*
X151525071Y-97337619D01*
X151572690Y-97290000D01*
X151667928Y-97242380D01*
X151858404Y-97242380D01*
X151953642Y-97290000D01*
X152001261Y-97337619D01*
X152048880Y-97432857D01*
X152048880Y-97480476D01*
X152001261Y-97575714D01*
X151953642Y-97623333D01*
X151858404Y-97670952D01*
X151667928Y-97670952D01*
X151572690Y-97718571D01*
X151525071Y-97766190D01*
X151477452Y-97861428D01*
X151477452Y-98051904D01*
X151525071Y-98147142D01*
X151572690Y-98194761D01*
X151667928Y-98242380D01*
X151858404Y-98242380D01*
X151953642Y-98194761D01*
X152001261Y-98147142D01*
X152048880Y-98051904D01*
X152048880Y-97861428D01*
X152001261Y-97766190D01*
X151953642Y-97718571D01*
X151858404Y-97670952D01*
X152906023Y-97575714D02*
X152906023Y-98242380D01*
X152667928Y-97194761D02*
X152429833Y-97909047D01*
X153048880Y-97909047D01*
X153620309Y-97242380D02*
X153715547Y-97242380D01*
X153810785Y-97290000D01*
X153858404Y-97337619D01*
X153906023Y-97432857D01*
X153953642Y-97623333D01*
X153953642Y-97861428D01*
X153906023Y-98051904D01*
X153858404Y-98147142D01*
X153810785Y-98194761D01*
X153715547Y-98242380D01*
X153620309Y-98242380D01*
X153525071Y-98194761D01*
X153477452Y-98147142D01*
X153429833Y-98051904D01*
X153382214Y-97861428D01*
X153382214Y-97623333D01*
X153429833Y-97432857D01*
X153477452Y-97337619D01*
X153525071Y-97290000D01*
X153620309Y-97242380D01*
X154572690Y-97242380D02*
X154667928Y-97242380D01*
X154763166Y-97290000D01*
X154810785Y-97337619D01*
X154858404Y-97432857D01*
X154906023Y-97623333D01*
X154906023Y-97861428D01*
X154858404Y-98051904D01*
X154810785Y-98147142D01*
X154763166Y-98194761D01*
X154667928Y-98242380D01*
X154572690Y-98242380D01*
X154477452Y-98194761D01*
X154429833Y-98147142D01*
X154382214Y-98051904D01*
X154334595Y-97861428D01*
X154334595Y-97623333D01*
X154382214Y-97432857D01*
X154429833Y-97337619D01*
X154477452Y-97290000D01*
X154572690Y-97242380D01*
X196527504Y-117607780D02*
X196194171Y-117131590D01*
X195956076Y-117607780D02*
X195956076Y-116607780D01*
X196337028Y-116607780D01*
X196432266Y-116655400D01*
X196479885Y-116703019D01*
X196527504Y-116798257D01*
X196527504Y-116941114D01*
X196479885Y-117036352D01*
X196432266Y-117083971D01*
X196337028Y-117131590D01*
X195956076Y-117131590D01*
X197337028Y-117560161D02*
X197241790Y-117607780D01*
X197051314Y-117607780D01*
X196956076Y-117560161D01*
X196908457Y-117464923D01*
X196908457Y-117083971D01*
X196956076Y-116988733D01*
X197051314Y-116941114D01*
X197241790Y-116941114D01*
X197337028Y-116988733D01*
X197384647Y-117083971D01*
X197384647Y-117179209D01*
X196908457Y-117274447D01*
X197765600Y-117560161D02*
X197860838Y-117607780D01*
X198051314Y-117607780D01*
X198146552Y-117560161D01*
X198194171Y-117464923D01*
X198194171Y-117417304D01*
X198146552Y-117322066D01*
X198051314Y-117274447D01*
X197908457Y-117274447D01*
X197813219Y-117226828D01*
X197765600Y-117131590D01*
X197765600Y-117083971D01*
X197813219Y-116988733D01*
X197908457Y-116941114D01*
X198051314Y-116941114D01*
X198146552Y-116988733D01*
X199003695Y-117560161D02*
X198908457Y-117607780D01*
X198717980Y-117607780D01*
X198622742Y-117560161D01*
X198575123Y-117464923D01*
X198575123Y-117083971D01*
X198622742Y-116988733D01*
X198717980Y-116941114D01*
X198908457Y-116941114D01*
X199003695Y-116988733D01*
X199051314Y-117083971D01*
X199051314Y-117179209D01*
X198575123Y-117274447D01*
X199337028Y-116941114D02*
X199717980Y-116941114D01*
X199479885Y-116607780D02*
X199479885Y-117464923D01*
X199527504Y-117560161D01*
X199622742Y-117607780D01*
X199717980Y-117607780D01*
X151477452Y-107497619D02*
X151525071Y-107450000D01*
X151620309Y-107402380D01*
X151858404Y-107402380D01*
X151953642Y-107450000D01*
X152001261Y-107497619D01*
X152048880Y-107592857D01*
X152048880Y-107688095D01*
X152001261Y-107830952D01*
X151429833Y-108402380D01*
X152048880Y-108402380D01*
X152906023Y-107735714D02*
X152906023Y-108402380D01*
X152667928Y-107354761D02*
X152429833Y-108069047D01*
X153048880Y-108069047D01*
X153620309Y-107402380D02*
X153715547Y-107402380D01*
X153810785Y-107450000D01*
X153858404Y-107497619D01*
X153906023Y-107592857D01*
X153953642Y-107783333D01*
X153953642Y-108021428D01*
X153906023Y-108211904D01*
X153858404Y-108307142D01*
X153810785Y-108354761D01*
X153715547Y-108402380D01*
X153620309Y-108402380D01*
X153525071Y-108354761D01*
X153477452Y-108307142D01*
X153429833Y-108211904D01*
X153382214Y-108021428D01*
X153382214Y-107783333D01*
X153429833Y-107592857D01*
X153477452Y-107497619D01*
X153525071Y-107450000D01*
X153620309Y-107402380D01*
X154572690Y-107402380D02*
X154667928Y-107402380D01*
X154763166Y-107450000D01*
X154810785Y-107497619D01*
X154858404Y-107592857D01*
X154906023Y-107783333D01*
X154906023Y-108021428D01*
X154858404Y-108211904D01*
X154810785Y-108307142D01*
X154763166Y-108354761D01*
X154667928Y-108402380D01*
X154572690Y-108402380D01*
X154477452Y-108354761D01*
X154429833Y-108307142D01*
X154382214Y-108211904D01*
X154334595Y-108021428D01*
X154334595Y-107783333D01*
X154382214Y-107592857D01*
X154429833Y-107497619D01*
X154477452Y-107450000D01*
X154572690Y-107402380D01*
D11*
X197337438Y-98198819D02*
X196998771Y-97715009D01*
X196756866Y-98198819D02*
X196756866Y-97182819D01*
X197143914Y-97182819D01*
X197240676Y-97231200D01*
X197289057Y-97279580D01*
X197337438Y-97376342D01*
X197337438Y-97521485D01*
X197289057Y-97618247D01*
X197240676Y-97666628D01*
X197143914Y-97715009D01*
X196756866Y-97715009D01*
X197676104Y-98198819D02*
X198208295Y-97521485D01*
X197676104Y-97521485D02*
X198208295Y-98198819D01*
X198595342Y-98198819D02*
X198595342Y-97182819D01*
X198837247Y-97182819D01*
X198982390Y-97231200D01*
X199079152Y-97327961D01*
X199127533Y-97424723D01*
X199175914Y-97618247D01*
X199175914Y-97763390D01*
X199127533Y-97956914D01*
X199079152Y-98053676D01*
X198982390Y-98150438D01*
X198837247Y-98198819D01*
X198595342Y-98198819D01*
D10*
X151572690Y-103322380D02*
X151763166Y-103322380D01*
X151858404Y-103274761D01*
X151906023Y-103227142D01*
X152001261Y-103084285D01*
X152048880Y-102893809D01*
X152048880Y-102512857D01*
X152001261Y-102417619D01*
X151953642Y-102370000D01*
X151858404Y-102322380D01*
X151667928Y-102322380D01*
X151572690Y-102370000D01*
X151525071Y-102417619D01*
X151477452Y-102512857D01*
X151477452Y-102750952D01*
X151525071Y-102846190D01*
X151572690Y-102893809D01*
X151667928Y-102941428D01*
X151858404Y-102941428D01*
X151953642Y-102893809D01*
X152001261Y-102846190D01*
X152048880Y-102750952D01*
X152906023Y-102322380D02*
X152715547Y-102322380D01*
X152620309Y-102370000D01*
X152572690Y-102417619D01*
X152477452Y-102560476D01*
X152429833Y-102750952D01*
X152429833Y-103131904D01*
X152477452Y-103227142D01*
X152525071Y-103274761D01*
X152620309Y-103322380D01*
X152810785Y-103322380D01*
X152906023Y-103274761D01*
X152953642Y-103227142D01*
X153001261Y-103131904D01*
X153001261Y-102893809D01*
X152953642Y-102798571D01*
X152906023Y-102750952D01*
X152810785Y-102703333D01*
X152620309Y-102703333D01*
X152525071Y-102750952D01*
X152477452Y-102798571D01*
X152429833Y-102893809D01*
X153620309Y-102322380D02*
X153715547Y-102322380D01*
X153810785Y-102370000D01*
X153858404Y-102417619D01*
X153906023Y-102512857D01*
X153953642Y-102703333D01*
X153953642Y-102941428D01*
X153906023Y-103131904D01*
X153858404Y-103227142D01*
X153810785Y-103274761D01*
X153715547Y-103322380D01*
X153620309Y-103322380D01*
X153525071Y-103274761D01*
X153477452Y-103227142D01*
X153429833Y-103131904D01*
X153382214Y-102941428D01*
X153382214Y-102703333D01*
X153429833Y-102512857D01*
X153477452Y-102417619D01*
X153525071Y-102370000D01*
X153620309Y-102322380D01*
X154572690Y-102322380D02*
X154667928Y-102322380D01*
X154763166Y-102370000D01*
X154810785Y-102417619D01*
X154858404Y-102512857D01*
X154906023Y-102703333D01*
X154906023Y-102941428D01*
X154858404Y-103131904D01*
X154810785Y-103227142D01*
X154763166Y-103274761D01*
X154667928Y-103322380D01*
X154572690Y-103322380D01*
X154477452Y-103274761D01*
X154429833Y-103227142D01*
X154382214Y-103131904D01*
X154334595Y-102941428D01*
X154334595Y-102703333D01*
X154382214Y-102512857D01*
X154429833Y-102417619D01*
X154477452Y-102370000D01*
X154572690Y-102322380D01*
D11*
X197385819Y-93118819D02*
X197047152Y-92635009D01*
X196805247Y-93118819D02*
X196805247Y-92102819D01*
X197192295Y-92102819D01*
X197289057Y-92151200D01*
X197337438Y-92199580D01*
X197385819Y-92296342D01*
X197385819Y-92441485D01*
X197337438Y-92538247D01*
X197289057Y-92586628D01*
X197192295Y-92635009D01*
X196805247Y-92635009D01*
X197676104Y-92102819D02*
X198256676Y-92102819D01*
X197966390Y-93118819D02*
X197966390Y-92102819D01*
X198546961Y-93070438D02*
X198692104Y-93118819D01*
X198934009Y-93118819D01*
X199030771Y-93070438D01*
X199079152Y-93022057D01*
X199127533Y-92925295D01*
X199127533Y-92828533D01*
X199079152Y-92731771D01*
X199030771Y-92683390D01*
X198934009Y-92635009D01*
X198740485Y-92586628D01*
X198643723Y-92538247D01*
X198595342Y-92489866D01*
X198546961Y-92393104D01*
X198546961Y-92296342D01*
X198595342Y-92199580D01*
X198643723Y-92151200D01*
X198740485Y-92102819D01*
X198982390Y-92102819D01*
X199127533Y-92151200D01*
D10*
%TO.C,R4*%
X189571333Y-101714380D02*
X189238000Y-101238190D01*
X188999904Y-101714380D02*
X188999904Y-100714380D01*
X189380857Y-100714380D01*
X189476095Y-100762000D01*
X189523714Y-100809619D01*
X189571333Y-100904857D01*
X189571333Y-101047714D01*
X189523714Y-101142952D01*
X189476095Y-101190571D01*
X189380857Y-101238190D01*
X188999904Y-101238190D01*
X190428476Y-101047714D02*
X190428476Y-101714380D01*
X190190380Y-100666761D02*
X189952285Y-101381047D01*
X190571333Y-101381047D01*
%TO.C,J2*%
X158416666Y-89622380D02*
X158416666Y-90336666D01*
X158369047Y-90479523D01*
X158273809Y-90574761D01*
X158130952Y-90622380D01*
X158035714Y-90622380D01*
X158845238Y-89717619D02*
X158892857Y-89670000D01*
X158988095Y-89622380D01*
X159226190Y-89622380D01*
X159321428Y-89670000D01*
X159369047Y-89717619D01*
X159416666Y-89812857D01*
X159416666Y-89908095D01*
X159369047Y-90050952D01*
X158797619Y-90622380D01*
X159416666Y-90622380D01*
%TO.C,Y1*%
X183623009Y-112396590D02*
X183623009Y-112872780D01*
X183289676Y-111872780D02*
X183623009Y-112396590D01*
X183956342Y-111872780D01*
X184813485Y-112872780D02*
X184242057Y-112872780D01*
X184527771Y-112872780D02*
X184527771Y-111872780D01*
X184432533Y-112015638D01*
X184337295Y-112110876D01*
X184242057Y-112158495D01*
%TO.C,R1*%
X189571333Y-87320380D02*
X189238000Y-86844190D01*
X188999904Y-87320380D02*
X188999904Y-86320380D01*
X189380857Y-86320380D01*
X189476095Y-86368000D01*
X189523714Y-86415619D01*
X189571333Y-86510857D01*
X189571333Y-86653714D01*
X189523714Y-86748952D01*
X189476095Y-86796571D01*
X189380857Y-86844190D01*
X188999904Y-86844190D01*
X190523714Y-87320380D02*
X189952285Y-87320380D01*
X190238000Y-87320380D02*
X190238000Y-86320380D01*
X190142761Y-86463238D01*
X190047523Y-86558476D01*
X189952285Y-86606095D01*
%TO.C,R2*%
X189571333Y-92146380D02*
X189238000Y-91670190D01*
X188999904Y-92146380D02*
X188999904Y-91146380D01*
X189380857Y-91146380D01*
X189476095Y-91194000D01*
X189523714Y-91241619D01*
X189571333Y-91336857D01*
X189571333Y-91479714D01*
X189523714Y-91574952D01*
X189476095Y-91622571D01*
X189380857Y-91670190D01*
X188999904Y-91670190D01*
X189952285Y-91241619D02*
X189999904Y-91194000D01*
X190095142Y-91146380D01*
X190333238Y-91146380D01*
X190428476Y-91194000D01*
X190476095Y-91241619D01*
X190523714Y-91336857D01*
X190523714Y-91432095D01*
X190476095Y-91574952D01*
X189904666Y-92146380D01*
X190523714Y-92146380D01*
%TO.C,U1*%
X171958095Y-85812380D02*
X171958095Y-86621904D01*
X172005714Y-86717142D01*
X172053333Y-86764761D01*
X172148571Y-86812380D01*
X172339047Y-86812380D01*
X172434285Y-86764761D01*
X172481904Y-86717142D01*
X172529523Y-86621904D01*
X172529523Y-85812380D01*
X173529523Y-86812380D02*
X172958095Y-86812380D01*
X173243809Y-86812380D02*
X173243809Y-85812380D01*
X173148571Y-85955238D01*
X173053333Y-86050476D01*
X172958095Y-86098095D01*
%TO.C,J3*%
X200733066Y-84948780D02*
X200733066Y-85663066D01*
X200685447Y-85805923D01*
X200590209Y-85901161D01*
X200447352Y-85948780D01*
X200352114Y-85948780D01*
X201114019Y-84948780D02*
X201733066Y-84948780D01*
X201399733Y-85329733D01*
X201542590Y-85329733D01*
X201637828Y-85377352D01*
X201685447Y-85424971D01*
X201733066Y-85520209D01*
X201733066Y-85758304D01*
X201685447Y-85853542D01*
X201637828Y-85901161D01*
X201542590Y-85948780D01*
X201256876Y-85948780D01*
X201161638Y-85901161D01*
X201114019Y-85853542D01*
%TO.C,S1*%
X196952895Y-108761161D02*
X197095752Y-108808780D01*
X197333847Y-108808780D01*
X197429085Y-108761161D01*
X197476704Y-108713542D01*
X197524323Y-108618304D01*
X197524323Y-108523066D01*
X197476704Y-108427828D01*
X197429085Y-108380209D01*
X197333847Y-108332590D01*
X197143371Y-108284971D01*
X197048133Y-108237352D01*
X197000514Y-108189733D01*
X196952895Y-108094495D01*
X196952895Y-107999257D01*
X197000514Y-107904019D01*
X197048133Y-107856400D01*
X197143371Y-107808780D01*
X197381466Y-107808780D01*
X197524323Y-107856400D01*
X198476704Y-108808780D02*
X197905276Y-108808780D01*
X198190990Y-108808780D02*
X198190990Y-107808780D01*
X198095752Y-107951638D01*
X198000514Y-108046876D01*
X197905276Y-108094495D01*
%TO.C,R3*%
X189571333Y-96972380D02*
X189238000Y-96496190D01*
X188999904Y-96972380D02*
X188999904Y-95972380D01*
X189380857Y-95972380D01*
X189476095Y-96020000D01*
X189523714Y-96067619D01*
X189571333Y-96162857D01*
X189571333Y-96305714D01*
X189523714Y-96400952D01*
X189476095Y-96448571D01*
X189380857Y-96496190D01*
X188999904Y-96496190D01*
X189904666Y-95972380D02*
X190523714Y-95972380D01*
X190190380Y-96353333D01*
X190333238Y-96353333D01*
X190428476Y-96400952D01*
X190476095Y-96448571D01*
X190523714Y-96543809D01*
X190523714Y-96781904D01*
X190476095Y-96877142D01*
X190428476Y-96924761D01*
X190333238Y-96972380D01*
X190047523Y-96972380D01*
X189952285Y-96924761D01*
X189904666Y-96877142D01*
D12*
%TO.C,R4*%
X185698000Y-103632000D02*
X186468000Y-103632000D01*
X193008000Y-102262000D02*
X186468000Y-102262000D01*
X186468000Y-105002000D02*
X193008000Y-105002000D01*
X186468000Y-102262000D02*
X186468000Y-105002000D01*
X193008000Y-105002000D02*
X193008000Y-102262000D01*
X193778000Y-103632000D02*
X193008000Y-103632000D01*
%TO.C,J2*%
X161350000Y-114360000D02*
X160020000Y-114360000D01*
X161350000Y-111760000D02*
X158750000Y-111760000D01*
X156150000Y-114360000D02*
X156150000Y-91380000D01*
X158750000Y-111760000D02*
X158750000Y-114360000D01*
X161350000Y-91380000D02*
X156150000Y-91380000D01*
X161350000Y-113030000D02*
X161350000Y-114360000D01*
X158750000Y-114360000D02*
X156150000Y-114360000D01*
X161350000Y-111760000D02*
X161350000Y-91380000D01*
%TO.C,Y1*%
X190332600Y-115596200D02*
X190332600Y-109346200D01*
X185282600Y-115596200D02*
X185282600Y-109346200D01*
X190332600Y-109346200D02*
G75*
G03*
X185282600Y-109346200I-2525000J0D01*
G01*
X185282600Y-115596200D02*
G75*
G03*
X190332600Y-115596200I2525000J0D01*
G01*
%TO.C,R1*%
X193008000Y-87784000D02*
X186468000Y-87784000D01*
X185698000Y-89154000D02*
X186468000Y-89154000D01*
X193008000Y-90524000D02*
X193008000Y-87784000D01*
X186468000Y-87784000D02*
X186468000Y-90524000D01*
X186468000Y-90524000D02*
X193008000Y-90524000D01*
X193778000Y-89154000D02*
X193008000Y-89154000D01*
%TO.C,R2*%
X186468000Y-92610000D02*
X186468000Y-95350000D01*
X193778000Y-93980000D02*
X193008000Y-93980000D01*
X186468000Y-95350000D02*
X193008000Y-95350000D01*
X193008000Y-92610000D02*
X186468000Y-92610000D01*
X185698000Y-93980000D02*
X186468000Y-93980000D01*
X193008000Y-95350000D02*
X193008000Y-92610000D01*
%TO.C,U1*%
X181670000Y-87510000D02*
X163770000Y-87510000D01*
X163770000Y-118230000D02*
X181670000Y-118230000D01*
X171720000Y-87570000D02*
X166260000Y-87570000D01*
X181670000Y-118230000D02*
X181670000Y-87510000D01*
X166260000Y-87570000D02*
X166260000Y-118170000D01*
X179180000Y-87570000D02*
X173720000Y-87570000D01*
X166260000Y-118170000D02*
X179180000Y-118170000D01*
X179180000Y-118170000D02*
X179180000Y-87570000D01*
X163770000Y-87510000D02*
X163770000Y-118230000D01*
X171720000Y-87570000D02*
G75*
G03*
X173720000Y-87570000I1000000J0D01*
G01*
%TO.C,J3*%
X199787200Y-88900000D02*
X199787200Y-99120000D01*
X199787200Y-88900000D02*
X202447200Y-88900000D01*
X199787200Y-99120000D02*
X202447200Y-99120000D01*
X199787200Y-87630000D02*
X199787200Y-86300000D01*
X199787200Y-86300000D02*
X201117200Y-86300000D01*
X202447200Y-88900000D02*
X202447200Y-99120000D01*
D13*
%TO.C,REF\u002A\u002A*%
X153539526Y-89020955D02*
X153605458Y-89045284D01*
X153605458Y-89045284D02*
X153658873Y-89088317D01*
X153658873Y-89088317D02*
X153679764Y-89118609D01*
X153679764Y-89118609D02*
X153702539Y-89174194D01*
X153702539Y-89174194D02*
X153702066Y-89214386D01*
X153702066Y-89214386D02*
X153678162Y-89241417D01*
X153678162Y-89241417D02*
X153669317Y-89246013D01*
X153669317Y-89246013D02*
X153631130Y-89260344D01*
X153631130Y-89260344D02*
X153611628Y-89256672D01*
X153611628Y-89256672D02*
X153605022Y-89232607D01*
X153605022Y-89232607D02*
X153604686Y-89219314D01*
X153604686Y-89219314D02*
X153592592Y-89170410D01*
X153592592Y-89170410D02*
X153561071Y-89136199D01*
X153561071Y-89136199D02*
X153517259Y-89119676D01*
X153517259Y-89119676D02*
X153468295Y-89123834D01*
X153468295Y-89123834D02*
X153428494Y-89145427D01*
X153428494Y-89145427D02*
X153415050Y-89157744D01*
X153415050Y-89157744D02*
X153405521Y-89172687D01*
X153405521Y-89172687D02*
X153399085Y-89195275D01*
X153399085Y-89195275D02*
X153394917Y-89230528D01*
X153394917Y-89230528D02*
X153392197Y-89283466D01*
X153392197Y-89283466D02*
X153390102Y-89359107D01*
X153390102Y-89359107D02*
X153389560Y-89383057D01*
X153389560Y-89383057D02*
X153387581Y-89464990D01*
X153387581Y-89464990D02*
X153385331Y-89522655D01*
X153385331Y-89522655D02*
X153381957Y-89560808D01*
X153381957Y-89560808D02*
X153376606Y-89584204D01*
X153376606Y-89584204D02*
X153368424Y-89597598D01*
X153368424Y-89597598D02*
X153356559Y-89605745D01*
X153356559Y-89605745D02*
X153348962Y-89609344D01*
X153348962Y-89609344D02*
X153316702Y-89621652D01*
X153316702Y-89621652D02*
X153297711Y-89625714D01*
X153297711Y-89625714D02*
X153291436Y-89612148D01*
X153291436Y-89612148D02*
X153287606Y-89571134D01*
X153287606Y-89571134D02*
X153286200Y-89502199D01*
X153286200Y-89502199D02*
X153287198Y-89404869D01*
X153287198Y-89404869D02*
X153287508Y-89389857D01*
X153287508Y-89389857D02*
X153289701Y-89301059D01*
X153289701Y-89301059D02*
X153292293Y-89236219D01*
X153292293Y-89236219D02*
X153295982Y-89190267D01*
X153295982Y-89190267D02*
X153301464Y-89158135D01*
X153301464Y-89158135D02*
X153309435Y-89134753D01*
X153309435Y-89134753D02*
X153320593Y-89115052D01*
X153320593Y-89115052D02*
X153326430Y-89106610D01*
X153326430Y-89106610D02*
X153359896Y-89069257D01*
X153359896Y-89069257D02*
X153397327Y-89040203D01*
X153397327Y-89040203D02*
X153401909Y-89037667D01*
X153401909Y-89037667D02*
X153469026Y-89017643D01*
X153469026Y-89017643D02*
X153539526Y-89020955D01*
X153539526Y-89020955D02*
X153539526Y-89020955D01*
G36*
X153539526Y-89020955D02*
G01*
X153605458Y-89045284D01*
X153658873Y-89088317D01*
X153679764Y-89118609D01*
X153702539Y-89174194D01*
X153702066Y-89214386D01*
X153678162Y-89241417D01*
X153669317Y-89246013D01*
X153631130Y-89260344D01*
X153611628Y-89256672D01*
X153605022Y-89232607D01*
X153604686Y-89219314D01*
X153592592Y-89170410D01*
X153561071Y-89136199D01*
X153517259Y-89119676D01*
X153468295Y-89123834D01*
X153428494Y-89145427D01*
X153415050Y-89157744D01*
X153405521Y-89172687D01*
X153399085Y-89195275D01*
X153394917Y-89230528D01*
X153392197Y-89283466D01*
X153390102Y-89359107D01*
X153389560Y-89383057D01*
X153387581Y-89464990D01*
X153385331Y-89522655D01*
X153381957Y-89560808D01*
X153376606Y-89584204D01*
X153368424Y-89597598D01*
X153356559Y-89605745D01*
X153348962Y-89609344D01*
X153316702Y-89621652D01*
X153297711Y-89625714D01*
X153291436Y-89612148D01*
X153287606Y-89571134D01*
X153286200Y-89502199D01*
X153287198Y-89404869D01*
X153287508Y-89389857D01*
X153289701Y-89301059D01*
X153292293Y-89236219D01*
X153295982Y-89190267D01*
X153301464Y-89158135D01*
X153309435Y-89134753D01*
X153320593Y-89115052D01*
X153326430Y-89106610D01*
X153359896Y-89069257D01*
X153397327Y-89040203D01*
X153401909Y-89037667D01*
X153469026Y-89017643D01*
X153539526Y-89020955D01*
G37*
X153539526Y-89020955D02*
X153605458Y-89045284D01*
X153658873Y-89088317D01*
X153679764Y-89118609D01*
X153702539Y-89174194D01*
X153702066Y-89214386D01*
X153678162Y-89241417D01*
X153669317Y-89246013D01*
X153631130Y-89260344D01*
X153611628Y-89256672D01*
X153605022Y-89232607D01*
X153604686Y-89219314D01*
X153592592Y-89170410D01*
X153561071Y-89136199D01*
X153517259Y-89119676D01*
X153468295Y-89123834D01*
X153428494Y-89145427D01*
X153415050Y-89157744D01*
X153405521Y-89172687D01*
X153399085Y-89195275D01*
X153394917Y-89230528D01*
X153392197Y-89283466D01*
X153390102Y-89359107D01*
X153389560Y-89383057D01*
X153387581Y-89464990D01*
X153385331Y-89522655D01*
X153381957Y-89560808D01*
X153376606Y-89584204D01*
X153368424Y-89597598D01*
X153356559Y-89605745D01*
X153348962Y-89609344D01*
X153316702Y-89621652D01*
X153297711Y-89625714D01*
X153291436Y-89612148D01*
X153287606Y-89571134D01*
X153286200Y-89502199D01*
X153287198Y-89404869D01*
X153287508Y-89389857D01*
X153289701Y-89301059D01*
X153292293Y-89236219D01*
X153295982Y-89190267D01*
X153301464Y-89158135D01*
X153309435Y-89134753D01*
X153320593Y-89115052D01*
X153326430Y-89106610D01*
X153359896Y-89069257D01*
X153397327Y-89040203D01*
X153401909Y-89037667D01*
X153469026Y-89017643D01*
X153539526Y-89020955D01*
X151725693Y-88998980D02*
X151772272Y-89025923D01*
X151772272Y-89025923D02*
X151804657Y-89052666D01*
X151804657Y-89052666D02*
X151828342Y-89080684D01*
X151828342Y-89080684D02*
X151844659Y-89114948D01*
X151844659Y-89114948D02*
X151854939Y-89160427D01*
X151854939Y-89160427D02*
X151860514Y-89222092D01*
X151860514Y-89222092D02*
X151862716Y-89304911D01*
X151862716Y-89304911D02*
X151862971Y-89364446D01*
X151862971Y-89364446D02*
X151862971Y-89583591D01*
X151862971Y-89583591D02*
X151801286Y-89611244D01*
X151801286Y-89611244D02*
X151739600Y-89638897D01*
X151739600Y-89638897D02*
X151732343Y-89398870D01*
X151732343Y-89398870D02*
X151729344Y-89309228D01*
X151729344Y-89309228D02*
X151726198Y-89244162D01*
X151726198Y-89244162D02*
X151722301Y-89199226D01*
X151722301Y-89199226D02*
X151717047Y-89169970D01*
X151717047Y-89169970D02*
X151709831Y-89151948D01*
X151709831Y-89151948D02*
X151700050Y-89140711D01*
X151700050Y-89140711D02*
X151696912Y-89138279D01*
X151696912Y-89138279D02*
X151649361Y-89119283D01*
X151649361Y-89119283D02*
X151601297Y-89126800D01*
X151601297Y-89126800D02*
X151572686Y-89146743D01*
X151572686Y-89146743D02*
X151561047Y-89160875D01*
X151561047Y-89160875D02*
X151552991Y-89179420D01*
X151552991Y-89179420D02*
X151547871Y-89207534D01*
X151547871Y-89207534D02*
X151545041Y-89250373D01*
X151545041Y-89250373D02*
X151543856Y-89313095D01*
X151543856Y-89313095D02*
X151543657Y-89378461D01*
X151543657Y-89378461D02*
X151543618Y-89460468D01*
X151543618Y-89460468D02*
X151542214Y-89518516D01*
X151542214Y-89518516D02*
X151537514Y-89557665D01*
X151537514Y-89557665D02*
X151527587Y-89582980D01*
X151527587Y-89582980D02*
X151510503Y-89599523D01*
X151510503Y-89599523D02*
X151484332Y-89612356D01*
X151484332Y-89612356D02*
X151449375Y-89625691D01*
X151449375Y-89625691D02*
X151411196Y-89640207D01*
X151411196Y-89640207D02*
X151415741Y-89382589D01*
X151415741Y-89382589D02*
X151417571Y-89289719D01*
X151417571Y-89289719D02*
X151419712Y-89221089D01*
X151419712Y-89221089D02*
X151422781Y-89171911D01*
X151422781Y-89171911D02*
X151427394Y-89137398D01*
X151427394Y-89137398D02*
X151434168Y-89112762D01*
X151434168Y-89112762D02*
X151443719Y-89093216D01*
X151443719Y-89093216D02*
X151455234Y-89075970D01*
X151455234Y-89075970D02*
X151510790Y-89020880D01*
X151510790Y-89020880D02*
X151578580Y-88989022D01*
X151578580Y-88989022D02*
X151652313Y-88981391D01*
X151652313Y-88981391D02*
X151725693Y-88998980D01*
X151725693Y-88998980D02*
X151725693Y-88998980D01*
G36*
X151725693Y-88998980D02*
G01*
X151772272Y-89025923D01*
X151804657Y-89052666D01*
X151828342Y-89080684D01*
X151844659Y-89114948D01*
X151854939Y-89160427D01*
X151860514Y-89222092D01*
X151862716Y-89304911D01*
X151862971Y-89364446D01*
X151862971Y-89583591D01*
X151801286Y-89611244D01*
X151739600Y-89638897D01*
X151732343Y-89398870D01*
X151729344Y-89309228D01*
X151726198Y-89244162D01*
X151722301Y-89199226D01*
X151717047Y-89169970D01*
X151709831Y-89151948D01*
X151700050Y-89140711D01*
X151696912Y-89138279D01*
X151649361Y-89119283D01*
X151601297Y-89126800D01*
X151572686Y-89146743D01*
X151561047Y-89160875D01*
X151552991Y-89179420D01*
X151547871Y-89207534D01*
X151545041Y-89250373D01*
X151543856Y-89313095D01*
X151543657Y-89378461D01*
X151543618Y-89460468D01*
X151542214Y-89518516D01*
X151537514Y-89557665D01*
X151527587Y-89582980D01*
X151510503Y-89599523D01*
X151484332Y-89612356D01*
X151449375Y-89625691D01*
X151411196Y-89640207D01*
X151415741Y-89382589D01*
X151417571Y-89289719D01*
X151419712Y-89221089D01*
X151422781Y-89171911D01*
X151427394Y-89137398D01*
X151434168Y-89112762D01*
X151443719Y-89093216D01*
X151455234Y-89075970D01*
X151510790Y-89020880D01*
X151578580Y-88989022D01*
X151652313Y-88981391D01*
X151725693Y-88998980D01*
G37*
X151725693Y-88998980D02*
X151772272Y-89025923D01*
X151804657Y-89052666D01*
X151828342Y-89080684D01*
X151844659Y-89114948D01*
X151854939Y-89160427D01*
X151860514Y-89222092D01*
X151862716Y-89304911D01*
X151862971Y-89364446D01*
X151862971Y-89583591D01*
X151801286Y-89611244D01*
X151739600Y-89638897D01*
X151732343Y-89398870D01*
X151729344Y-89309228D01*
X151726198Y-89244162D01*
X151722301Y-89199226D01*
X151717047Y-89169970D01*
X151709831Y-89151948D01*
X151700050Y-89140711D01*
X151696912Y-89138279D01*
X151649361Y-89119283D01*
X151601297Y-89126800D01*
X151572686Y-89146743D01*
X151561047Y-89160875D01*
X151552991Y-89179420D01*
X151547871Y-89207534D01*
X151545041Y-89250373D01*
X151543856Y-89313095D01*
X151543657Y-89378461D01*
X151543618Y-89460468D01*
X151542214Y-89518516D01*
X151537514Y-89557665D01*
X151527587Y-89582980D01*
X151510503Y-89599523D01*
X151484332Y-89612356D01*
X151449375Y-89625691D01*
X151411196Y-89640207D01*
X151415741Y-89382589D01*
X151417571Y-89289719D01*
X151419712Y-89221089D01*
X151422781Y-89171911D01*
X151427394Y-89137398D01*
X151434168Y-89112762D01*
X151443719Y-89093216D01*
X151455234Y-89075970D01*
X151510790Y-89020880D01*
X151578580Y-88989022D01*
X151652313Y-88981391D01*
X151725693Y-88998980D01*
X150609344Y-88991118D02*
X150664801Y-89018768D01*
X150664801Y-89018768D02*
X150713748Y-89069680D01*
X150713748Y-89069680D02*
X150727229Y-89088538D01*
X150727229Y-89088538D02*
X150741914Y-89113215D01*
X150741914Y-89113215D02*
X150751442Y-89140016D01*
X150751442Y-89140016D02*
X150756893Y-89175787D01*
X150756893Y-89175787D02*
X150759347Y-89227369D01*
X150759347Y-89227369D02*
X150759886Y-89295467D01*
X150759886Y-89295467D02*
X150757452Y-89388788D01*
X150757452Y-89388788D02*
X150748994Y-89458857D01*
X150748994Y-89458857D02*
X150732774Y-89511131D01*
X150732774Y-89511131D02*
X150707054Y-89551069D01*
X150707054Y-89551069D02*
X150670097Y-89584129D01*
X150670097Y-89584129D02*
X150667382Y-89586086D01*
X150667382Y-89586086D02*
X150630960Y-89606108D01*
X150630960Y-89606108D02*
X150587102Y-89616015D01*
X150587102Y-89616015D02*
X150531324Y-89618457D01*
X150531324Y-89618457D02*
X150440648Y-89618457D01*
X150440648Y-89618457D02*
X150440610Y-89706483D01*
X150440610Y-89706483D02*
X150439766Y-89755508D01*
X150439766Y-89755508D02*
X150434624Y-89784265D01*
X150434624Y-89784265D02*
X150421187Y-89801511D01*
X150421187Y-89801511D02*
X150395458Y-89816008D01*
X150395458Y-89816008D02*
X150389279Y-89818969D01*
X150389279Y-89818969D02*
X150360364Y-89832848D01*
X150360364Y-89832848D02*
X150337976Y-89841614D01*
X150337976Y-89841614D02*
X150321329Y-89842371D01*
X150321329Y-89842371D02*
X150309636Y-89832223D01*
X150309636Y-89832223D02*
X150302110Y-89808273D01*
X150302110Y-89808273D02*
X150297966Y-89767626D01*
X150297966Y-89767626D02*
X150296415Y-89707386D01*
X150296415Y-89707386D02*
X150296671Y-89624655D01*
X150296671Y-89624655D02*
X150297949Y-89516539D01*
X150297949Y-89516539D02*
X150298348Y-89484200D01*
X150298348Y-89484200D02*
X150299785Y-89372724D01*
X150299785Y-89372724D02*
X150301072Y-89299803D01*
X150301072Y-89299803D02*
X150440571Y-89299803D01*
X150440571Y-89299803D02*
X150441355Y-89361699D01*
X150441355Y-89361699D02*
X150444840Y-89402197D01*
X150444840Y-89402197D02*
X150452724Y-89428908D01*
X150452724Y-89428908D02*
X150466705Y-89449444D01*
X150466705Y-89449444D02*
X150476197Y-89459460D01*
X150476197Y-89459460D02*
X150515004Y-89488767D01*
X150515004Y-89488767D02*
X150549363Y-89491152D01*
X150549363Y-89491152D02*
X150584816Y-89466950D01*
X150584816Y-89466950D02*
X150585714Y-89466057D01*
X150585714Y-89466057D02*
X150600139Y-89447353D01*
X150600139Y-89447353D02*
X150608913Y-89421932D01*
X150608913Y-89421932D02*
X150613339Y-89382784D01*
X150613339Y-89382784D02*
X150614718Y-89322897D01*
X150614718Y-89322897D02*
X150614743Y-89309630D01*
X150614743Y-89309630D02*
X150611412Y-89227101D01*
X150611412Y-89227101D02*
X150600569Y-89169891D01*
X150600569Y-89169891D02*
X150580940Y-89134966D01*
X150580940Y-89134966D02*
X150551250Y-89119294D01*
X150551250Y-89119294D02*
X150534091Y-89117714D01*
X150534091Y-89117714D02*
X150493366Y-89125126D01*
X150493366Y-89125126D02*
X150465432Y-89149530D01*
X150465432Y-89149530D02*
X150448617Y-89194180D01*
X150448617Y-89194180D02*
X150441250Y-89262330D01*
X150441250Y-89262330D02*
X150440571Y-89299803D01*
X150440571Y-89299803D02*
X150301072Y-89299803D01*
X150301072Y-89299803D02*
X150301308Y-89286445D01*
X150301308Y-89286445D02*
X150303277Y-89221533D01*
X150303277Y-89221533D02*
X150306050Y-89174158D01*
X150306050Y-89174158D02*
X150309988Y-89140490D01*
X150309988Y-89140490D02*
X150315449Y-89116698D01*
X150315449Y-89116698D02*
X150322792Y-89098953D01*
X150322792Y-89098953D02*
X150332377Y-89083424D01*
X150332377Y-89083424D02*
X150336487Y-89077581D01*
X150336487Y-89077581D02*
X150391005Y-89022385D01*
X150391005Y-89022385D02*
X150459936Y-88991090D01*
X150459936Y-88991090D02*
X150539672Y-88982365D01*
X150539672Y-88982365D02*
X150609344Y-88991118D01*
X150609344Y-88991118D02*
X150609344Y-88991118D01*
G36*
X150303277Y-89221533D02*
G01*
X150306050Y-89174158D01*
X150309988Y-89140490D01*
X150315449Y-89116698D01*
X150322792Y-89098953D01*
X150332377Y-89083424D01*
X150336487Y-89077581D01*
X150391005Y-89022385D01*
X150459936Y-88991090D01*
X150539672Y-88982365D01*
X150609344Y-88991118D01*
X150664801Y-89018768D01*
X150713748Y-89069680D01*
X150727229Y-89088538D01*
X150741914Y-89113215D01*
X150751442Y-89140016D01*
X150756893Y-89175787D01*
X150759347Y-89227369D01*
X150759886Y-89295467D01*
X150757452Y-89388788D01*
X150748994Y-89458857D01*
X150732774Y-89511131D01*
X150707054Y-89551069D01*
X150670097Y-89584129D01*
X150667382Y-89586086D01*
X150630960Y-89606108D01*
X150587102Y-89616015D01*
X150531324Y-89618457D01*
X150440648Y-89618457D01*
X150440610Y-89706483D01*
X150439766Y-89755508D01*
X150434624Y-89784265D01*
X150421187Y-89801511D01*
X150395458Y-89816008D01*
X150389279Y-89818969D01*
X150360364Y-89832848D01*
X150337976Y-89841614D01*
X150321329Y-89842371D01*
X150309636Y-89832223D01*
X150302110Y-89808273D01*
X150297966Y-89767626D01*
X150296415Y-89707386D01*
X150296671Y-89624655D01*
X150297949Y-89516539D01*
X150298348Y-89484200D01*
X150299785Y-89372724D01*
X150301072Y-89299803D01*
X150440571Y-89299803D01*
X150441355Y-89361699D01*
X150444840Y-89402197D01*
X150452724Y-89428908D01*
X150466705Y-89449444D01*
X150476197Y-89459460D01*
X150515004Y-89488767D01*
X150549363Y-89491152D01*
X150584816Y-89466950D01*
X150585714Y-89466057D01*
X150600139Y-89447353D01*
X150608913Y-89421932D01*
X150613339Y-89382784D01*
X150614718Y-89322897D01*
X150614743Y-89309630D01*
X150611412Y-89227101D01*
X150600569Y-89169891D01*
X150580940Y-89134966D01*
X150551250Y-89119294D01*
X150534091Y-89117714D01*
X150493366Y-89125126D01*
X150465432Y-89149530D01*
X150448617Y-89194180D01*
X150441250Y-89262330D01*
X150440571Y-89299803D01*
X150301072Y-89299803D01*
X150301308Y-89286445D01*
X150303277Y-89221533D01*
G37*
X150303277Y-89221533D02*
X150306050Y-89174158D01*
X150309988Y-89140490D01*
X150315449Y-89116698D01*
X150322792Y-89098953D01*
X150332377Y-89083424D01*
X150336487Y-89077581D01*
X150391005Y-89022385D01*
X150459936Y-88991090D01*
X150539672Y-88982365D01*
X150609344Y-88991118D01*
X150664801Y-89018768D01*
X150713748Y-89069680D01*
X150727229Y-89088538D01*
X150741914Y-89113215D01*
X150751442Y-89140016D01*
X150756893Y-89175787D01*
X150759347Y-89227369D01*
X150759886Y-89295467D01*
X150757452Y-89388788D01*
X150748994Y-89458857D01*
X150732774Y-89511131D01*
X150707054Y-89551069D01*
X150670097Y-89584129D01*
X150667382Y-89586086D01*
X150630960Y-89606108D01*
X150587102Y-89616015D01*
X150531324Y-89618457D01*
X150440648Y-89618457D01*
X150440610Y-89706483D01*
X150439766Y-89755508D01*
X150434624Y-89784265D01*
X150421187Y-89801511D01*
X150395458Y-89816008D01*
X150389279Y-89818969D01*
X150360364Y-89832848D01*
X150337976Y-89841614D01*
X150321329Y-89842371D01*
X150309636Y-89832223D01*
X150302110Y-89808273D01*
X150297966Y-89767626D01*
X150296415Y-89707386D01*
X150296671Y-89624655D01*
X150297949Y-89516539D01*
X150298348Y-89484200D01*
X150299785Y-89372724D01*
X150301072Y-89299803D01*
X150440571Y-89299803D01*
X150441355Y-89361699D01*
X150444840Y-89402197D01*
X150452724Y-89428908D01*
X150466705Y-89449444D01*
X150476197Y-89459460D01*
X150515004Y-89488767D01*
X150549363Y-89491152D01*
X150584816Y-89466950D01*
X150585714Y-89466057D01*
X150600139Y-89447353D01*
X150608913Y-89421932D01*
X150613339Y-89382784D01*
X150614718Y-89322897D01*
X150614743Y-89309630D01*
X150611412Y-89227101D01*
X150600569Y-89169891D01*
X150580940Y-89134966D01*
X150551250Y-89119294D01*
X150534091Y-89117714D01*
X150493366Y-89125126D01*
X150465432Y-89149530D01*
X150448617Y-89194180D01*
X150441250Y-89262330D01*
X150440571Y-89299803D01*
X150301072Y-89299803D01*
X150301308Y-89286445D01*
X150303277Y-89221533D01*
X150050715Y-88993162D02*
X150118745Y-89028933D01*
X150118745Y-89028933D02*
X150168951Y-89086501D01*
X150168951Y-89086501D02*
X150186785Y-89123512D01*
X150186785Y-89123512D02*
X150200663Y-89179082D01*
X150200663Y-89179082D02*
X150207767Y-89249296D01*
X150207767Y-89249296D02*
X150208440Y-89325927D01*
X150208440Y-89325927D02*
X150203027Y-89400752D01*
X150203027Y-89400752D02*
X150191870Y-89465542D01*
X150191870Y-89465542D02*
X150175314Y-89512073D01*
X150175314Y-89512073D02*
X150170226Y-89520087D01*
X150170226Y-89520087D02*
X150109955Y-89579907D01*
X150109955Y-89579907D02*
X150038369Y-89615735D01*
X150038369Y-89615735D02*
X149960692Y-89626220D01*
X149960692Y-89626220D02*
X149882148Y-89610010D01*
X149882148Y-89610010D02*
X149860289Y-89600292D01*
X149860289Y-89600292D02*
X149817722Y-89570343D01*
X149817722Y-89570343D02*
X149780363Y-89530633D01*
X149780363Y-89530633D02*
X149776832Y-89525597D01*
X149776832Y-89525597D02*
X149762481Y-89501324D01*
X149762481Y-89501324D02*
X149752994Y-89475378D01*
X149752994Y-89475378D02*
X149747390Y-89441222D01*
X149747390Y-89441222D02*
X149744686Y-89392319D01*
X149744686Y-89392319D02*
X149743899Y-89322135D01*
X149743899Y-89322135D02*
X149743886Y-89306400D01*
X149743886Y-89306400D02*
X149743922Y-89301392D01*
X149743922Y-89301392D02*
X149889029Y-89301392D01*
X149889029Y-89301392D02*
X149889873Y-89367630D01*
X149889873Y-89367630D02*
X149893196Y-89411586D01*
X149893196Y-89411586D02*
X149900183Y-89439979D01*
X149900183Y-89439979D02*
X149912016Y-89459525D01*
X149912016Y-89459525D02*
X149918057Y-89466057D01*
X149918057Y-89466057D02*
X149952786Y-89490880D01*
X149952786Y-89490880D02*
X149986503Y-89489748D01*
X149986503Y-89489748D02*
X150020595Y-89468216D01*
X150020595Y-89468216D02*
X150040929Y-89445229D01*
X150040929Y-89445229D02*
X150052971Y-89411678D01*
X150052971Y-89411678D02*
X150059734Y-89358769D01*
X150059734Y-89358769D02*
X150060198Y-89352599D01*
X150060198Y-89352599D02*
X150061352Y-89256713D01*
X150061352Y-89256713D02*
X150049288Y-89185499D01*
X150049288Y-89185499D02*
X150024170Y-89139394D01*
X150024170Y-89139394D02*
X149986160Y-89118835D01*
X149986160Y-89118835D02*
X149972592Y-89117714D01*
X149972592Y-89117714D02*
X149936964Y-89123352D01*
X149936964Y-89123352D02*
X149912594Y-89142886D01*
X149912594Y-89142886D02*
X149897693Y-89180242D01*
X149897693Y-89180242D02*
X149890475Y-89239350D01*
X149890475Y-89239350D02*
X149889029Y-89301392D01*
X149889029Y-89301392D02*
X149743922Y-89301392D01*
X149743922Y-89301392D02*
X149744426Y-89231613D01*
X149744426Y-89231613D02*
X149746696Y-89179359D01*
X149746696Y-89179359D02*
X149751668Y-89143149D01*
X149751668Y-89143149D02*
X149760313Y-89116499D01*
X149760313Y-89116499D02*
X149773605Y-89092922D01*
X149773605Y-89092922D02*
X149776543Y-89088538D01*
X149776543Y-89088538D02*
X149825913Y-89029449D01*
X149825913Y-89029449D02*
X149879709Y-88995147D01*
X149879709Y-88995147D02*
X149945202Y-88981531D01*
X149945202Y-88981531D02*
X149967442Y-88980865D01*
X149967442Y-88980865D02*
X150050715Y-88993162D01*
X150050715Y-88993162D02*
X150050715Y-88993162D01*
G36*
X149746696Y-89179359D02*
G01*
X149751668Y-89143149D01*
X149760313Y-89116499D01*
X149773605Y-89092922D01*
X149776543Y-89088538D01*
X149825913Y-89029449D01*
X149879709Y-88995147D01*
X149945202Y-88981531D01*
X149967442Y-88980865D01*
X150050715Y-88993162D01*
X150118745Y-89028933D01*
X150168951Y-89086501D01*
X150186785Y-89123512D01*
X150200663Y-89179082D01*
X150207767Y-89249296D01*
X150208440Y-89325927D01*
X150203027Y-89400752D01*
X150191870Y-89465542D01*
X150175314Y-89512073D01*
X150170226Y-89520087D01*
X150109955Y-89579907D01*
X150038369Y-89615735D01*
X149960692Y-89626220D01*
X149882148Y-89610010D01*
X149860289Y-89600292D01*
X149817722Y-89570343D01*
X149780363Y-89530633D01*
X149776832Y-89525597D01*
X149762481Y-89501324D01*
X149752994Y-89475378D01*
X149747390Y-89441222D01*
X149744686Y-89392319D01*
X149743899Y-89322135D01*
X149743886Y-89306400D01*
X149743922Y-89301392D01*
X149889029Y-89301392D01*
X149889873Y-89367630D01*
X149893196Y-89411586D01*
X149900183Y-89439979D01*
X149912016Y-89459525D01*
X149918057Y-89466057D01*
X149952786Y-89490880D01*
X149986503Y-89489748D01*
X150020595Y-89468216D01*
X150040929Y-89445229D01*
X150052971Y-89411678D01*
X150059734Y-89358769D01*
X150060198Y-89352599D01*
X150061352Y-89256713D01*
X150049288Y-89185499D01*
X150024170Y-89139394D01*
X149986160Y-89118835D01*
X149972592Y-89117714D01*
X149936964Y-89123352D01*
X149912594Y-89142886D01*
X149897693Y-89180242D01*
X149890475Y-89239350D01*
X149889029Y-89301392D01*
X149743922Y-89301392D01*
X149744426Y-89231613D01*
X149746696Y-89179359D01*
G37*
X149746696Y-89179359D02*
X149751668Y-89143149D01*
X149760313Y-89116499D01*
X149773605Y-89092922D01*
X149776543Y-89088538D01*
X149825913Y-89029449D01*
X149879709Y-88995147D01*
X149945202Y-88981531D01*
X149967442Y-88980865D01*
X150050715Y-88993162D01*
X150118745Y-89028933D01*
X150168951Y-89086501D01*
X150186785Y-89123512D01*
X150200663Y-89179082D01*
X150207767Y-89249296D01*
X150208440Y-89325927D01*
X150203027Y-89400752D01*
X150191870Y-89465542D01*
X150175314Y-89512073D01*
X150170226Y-89520087D01*
X150109955Y-89579907D01*
X150038369Y-89615735D01*
X149960692Y-89626220D01*
X149882148Y-89610010D01*
X149860289Y-89600292D01*
X149817722Y-89570343D01*
X149780363Y-89530633D01*
X149776832Y-89525597D01*
X149762481Y-89501324D01*
X149752994Y-89475378D01*
X149747390Y-89441222D01*
X149744686Y-89392319D01*
X149743899Y-89322135D01*
X149743886Y-89306400D01*
X149743922Y-89301392D01*
X149889029Y-89301392D01*
X149889873Y-89367630D01*
X149893196Y-89411586D01*
X149900183Y-89439979D01*
X149912016Y-89459525D01*
X149918057Y-89466057D01*
X149952786Y-89490880D01*
X149986503Y-89489748D01*
X150020595Y-89468216D01*
X150040929Y-89445229D01*
X150052971Y-89411678D01*
X150059734Y-89358769D01*
X150060198Y-89352599D01*
X150061352Y-89256713D01*
X150049288Y-89185499D01*
X150024170Y-89139394D01*
X149986160Y-89118835D01*
X149972592Y-89117714D01*
X149936964Y-89123352D01*
X149912594Y-89142886D01*
X149897693Y-89180242D01*
X149890475Y-89239350D01*
X149889029Y-89301392D01*
X149743922Y-89301392D01*
X149744426Y-89231613D01*
X149746696Y-89179359D01*
X154789433Y-89029863D02*
X154791648Y-89068050D01*
X154791648Y-89068050D02*
X154793384Y-89126086D01*
X154793384Y-89126086D02*
X154794499Y-89199380D01*
X154794499Y-89199380D02*
X154794857Y-89276255D01*
X154794857Y-89276255D02*
X154794857Y-89536396D01*
X154794857Y-89536396D02*
X154748926Y-89582327D01*
X154748926Y-89582327D02*
X154717275Y-89610629D01*
X154717275Y-89610629D02*
X154689490Y-89622093D01*
X154689490Y-89622093D02*
X154651515Y-89621368D01*
X154651515Y-89621368D02*
X154636440Y-89619521D01*
X154636440Y-89619521D02*
X154589326Y-89614148D01*
X154589326Y-89614148D02*
X154550356Y-89611069D01*
X154550356Y-89611069D02*
X154540857Y-89610785D01*
X154540857Y-89610785D02*
X154508833Y-89612645D01*
X154508833Y-89612645D02*
X154463032Y-89617314D01*
X154463032Y-89617314D02*
X154445274Y-89619521D01*
X154445274Y-89619521D02*
X154401657Y-89622935D01*
X154401657Y-89622935D02*
X154372345Y-89615520D01*
X154372345Y-89615520D02*
X154343280Y-89592627D01*
X154343280Y-89592627D02*
X154332788Y-89582327D01*
X154332788Y-89582327D02*
X154286857Y-89536396D01*
X154286857Y-89536396D02*
X154286857Y-89049802D01*
X154286857Y-89049802D02*
X154323826Y-89032958D01*
X154323826Y-89032958D02*
X154355659Y-89020482D01*
X154355659Y-89020482D02*
X154374283Y-89016114D01*
X154374283Y-89016114D02*
X154379058Y-89029918D01*
X154379058Y-89029918D02*
X154383521Y-89068486D01*
X154383521Y-89068486D02*
X154387375Y-89127556D01*
X154387375Y-89127556D02*
X154390322Y-89202863D01*
X154390322Y-89202863D02*
X154391743Y-89266486D01*
X154391743Y-89266486D02*
X154395714Y-89516857D01*
X154395714Y-89516857D02*
X154430359Y-89521756D01*
X154430359Y-89521756D02*
X154461868Y-89518331D01*
X154461868Y-89518331D02*
X154477308Y-89507241D01*
X154477308Y-89507241D02*
X154481623Y-89486508D01*
X154481623Y-89486508D02*
X154485308Y-89442345D01*
X154485308Y-89442345D02*
X154488069Y-89380346D01*
X154488069Y-89380346D02*
X154489612Y-89306109D01*
X154489612Y-89306109D02*
X154489835Y-89267906D01*
X154489835Y-89267906D02*
X154490057Y-89047983D01*
X154490057Y-89047983D02*
X154535766Y-89032049D01*
X154535766Y-89032049D02*
X154568118Y-89021215D01*
X154568118Y-89021215D02*
X154585715Y-89016162D01*
X154585715Y-89016162D02*
X154586223Y-89016114D01*
X154586223Y-89016114D02*
X154587988Y-89029848D01*
X154587988Y-89029848D02*
X154589929Y-89067930D01*
X154589929Y-89067930D02*
X154591882Y-89125682D01*
X154591882Y-89125682D02*
X154593684Y-89198427D01*
X154593684Y-89198427D02*
X154594943Y-89266486D01*
X154594943Y-89266486D02*
X154598914Y-89516857D01*
X154598914Y-89516857D02*
X154686000Y-89516857D01*
X154686000Y-89516857D02*
X154689996Y-89288440D01*
X154689996Y-89288440D02*
X154693992Y-89060022D01*
X154693992Y-89060022D02*
X154736447Y-89038068D01*
X154736447Y-89038068D02*
X154767792Y-89022993D01*
X154767792Y-89022993D02*
X154786344Y-89016151D01*
X154786344Y-89016151D02*
X154786879Y-89016114D01*
X154786879Y-89016114D02*
X154789433Y-89029863D01*
X154789433Y-89029863D02*
X154789433Y-89029863D01*
G36*
X154789433Y-89029863D02*
G01*
X154791648Y-89068050D01*
X154793384Y-89126086D01*
X154794499Y-89199380D01*
X154794857Y-89276255D01*
X154794857Y-89536396D01*
X154748926Y-89582327D01*
X154717275Y-89610629D01*
X154689490Y-89622093D01*
X154651515Y-89621368D01*
X154636440Y-89619521D01*
X154589326Y-89614148D01*
X154550356Y-89611069D01*
X154540857Y-89610785D01*
X154508833Y-89612645D01*
X154463032Y-89617314D01*
X154445274Y-89619521D01*
X154401657Y-89622935D01*
X154372345Y-89615520D01*
X154343280Y-89592627D01*
X154332788Y-89582327D01*
X154286857Y-89536396D01*
X154286857Y-89049802D01*
X154323826Y-89032958D01*
X154355659Y-89020482D01*
X154374283Y-89016114D01*
X154379058Y-89029918D01*
X154383521Y-89068486D01*
X154387375Y-89127556D01*
X154390322Y-89202863D01*
X154391743Y-89266486D01*
X154395714Y-89516857D01*
X154430359Y-89521756D01*
X154461868Y-89518331D01*
X154477308Y-89507241D01*
X154481623Y-89486508D01*
X154485308Y-89442345D01*
X154488069Y-89380346D01*
X154489612Y-89306109D01*
X154489835Y-89267906D01*
X154490057Y-89047983D01*
X154535766Y-89032049D01*
X154568118Y-89021215D01*
X154585715Y-89016162D01*
X154586223Y-89016114D01*
X154587988Y-89029848D01*
X154589929Y-89067930D01*
X154591882Y-89125682D01*
X154593684Y-89198427D01*
X154594943Y-89266486D01*
X154598914Y-89516857D01*
X154686000Y-89516857D01*
X154689996Y-89288440D01*
X154693992Y-89060022D01*
X154736447Y-89038068D01*
X154767792Y-89022993D01*
X154786344Y-89016151D01*
X154786879Y-89016114D01*
X154789433Y-89029863D01*
G37*
X154789433Y-89029863D02*
X154791648Y-89068050D01*
X154793384Y-89126086D01*
X154794499Y-89199380D01*
X154794857Y-89276255D01*
X154794857Y-89536396D01*
X154748926Y-89582327D01*
X154717275Y-89610629D01*
X154689490Y-89622093D01*
X154651515Y-89621368D01*
X154636440Y-89619521D01*
X154589326Y-89614148D01*
X154550356Y-89611069D01*
X154540857Y-89610785D01*
X154508833Y-89612645D01*
X154463032Y-89617314D01*
X154445274Y-89619521D01*
X154401657Y-89622935D01*
X154372345Y-89615520D01*
X154343280Y-89592627D01*
X154332788Y-89582327D01*
X154286857Y-89536396D01*
X154286857Y-89049802D01*
X154323826Y-89032958D01*
X154355659Y-89020482D01*
X154374283Y-89016114D01*
X154379058Y-89029918D01*
X154383521Y-89068486D01*
X154387375Y-89127556D01*
X154390322Y-89202863D01*
X154391743Y-89266486D01*
X154395714Y-89516857D01*
X154430359Y-89521756D01*
X154461868Y-89518331D01*
X154477308Y-89507241D01*
X154481623Y-89486508D01*
X154485308Y-89442345D01*
X154488069Y-89380346D01*
X154489612Y-89306109D01*
X154489835Y-89267906D01*
X154490057Y-89047983D01*
X154535766Y-89032049D01*
X154568118Y-89021215D01*
X154585715Y-89016162D01*
X154586223Y-89016114D01*
X154587988Y-89029848D01*
X154589929Y-89067930D01*
X154591882Y-89125682D01*
X154593684Y-89198427D01*
X154594943Y-89266486D01*
X154598914Y-89516857D01*
X154686000Y-89516857D01*
X154689996Y-89288440D01*
X154693992Y-89060022D01*
X154736447Y-89038068D01*
X154767792Y-89022993D01*
X154786344Y-89016151D01*
X154786879Y-89016114D01*
X154789433Y-89029863D01*
X155154476Y-89027535D02*
X155196267Y-89046544D01*
X155196267Y-89046544D02*
X155229069Y-89069578D01*
X155229069Y-89069578D02*
X155253103Y-89095333D01*
X155253103Y-89095333D02*
X155269697Y-89128558D01*
X155269697Y-89128558D02*
X155280177Y-89174000D01*
X155280177Y-89174000D02*
X155285871Y-89236407D01*
X155285871Y-89236407D02*
X155288107Y-89320527D01*
X155288107Y-89320527D02*
X155288343Y-89375921D01*
X155288343Y-89375921D02*
X155288343Y-89592026D01*
X155288343Y-89592026D02*
X155251374Y-89608870D01*
X155251374Y-89608870D02*
X155222256Y-89621181D01*
X155222256Y-89621181D02*
X155207831Y-89625714D01*
X155207831Y-89625714D02*
X155205072Y-89612225D01*
X155205072Y-89612225D02*
X155202882Y-89575853D01*
X155202882Y-89575853D02*
X155201542Y-89522742D01*
X155201542Y-89522742D02*
X155201257Y-89480572D01*
X155201257Y-89480572D02*
X155200034Y-89419647D01*
X155200034Y-89419647D02*
X155196736Y-89371315D01*
X155196736Y-89371315D02*
X155191921Y-89341718D01*
X155191921Y-89341718D02*
X155188096Y-89335429D01*
X155188096Y-89335429D02*
X155162383Y-89341852D01*
X155162383Y-89341852D02*
X155122018Y-89358325D01*
X155122018Y-89358325D02*
X155075279Y-89380658D01*
X155075279Y-89380658D02*
X155030445Y-89404657D01*
X155030445Y-89404657D02*
X154995793Y-89426130D01*
X154995793Y-89426130D02*
X154979602Y-89440885D01*
X154979602Y-89440885D02*
X154979538Y-89441045D01*
X154979538Y-89441045D02*
X154980930Y-89468352D01*
X154980930Y-89468352D02*
X154993418Y-89494419D01*
X154993418Y-89494419D02*
X155015343Y-89515592D01*
X155015343Y-89515592D02*
X155047343Y-89522674D01*
X155047343Y-89522674D02*
X155074692Y-89521849D01*
X155074692Y-89521849D02*
X155113426Y-89521242D01*
X155113426Y-89521242D02*
X155133758Y-89530316D01*
X155133758Y-89530316D02*
X155145969Y-89554292D01*
X155145969Y-89554292D02*
X155147509Y-89558813D01*
X155147509Y-89558813D02*
X155152803Y-89593006D01*
X155152803Y-89593006D02*
X155138647Y-89613768D01*
X155138647Y-89613768D02*
X155101748Y-89623662D01*
X155101748Y-89623662D02*
X155061889Y-89625492D01*
X155061889Y-89625492D02*
X154990162Y-89611927D01*
X154990162Y-89611927D02*
X154953032Y-89592555D01*
X154953032Y-89592555D02*
X154907176Y-89547045D01*
X154907176Y-89547045D02*
X154882856Y-89491183D01*
X154882856Y-89491183D02*
X154880673Y-89432157D01*
X154880673Y-89432157D02*
X154901229Y-89377153D01*
X154901229Y-89377153D02*
X154932149Y-89342686D01*
X154932149Y-89342686D02*
X154963020Y-89323389D01*
X154963020Y-89323389D02*
X155011542Y-89298959D01*
X155011542Y-89298959D02*
X155068085Y-89274185D01*
X155068085Y-89274185D02*
X155077510Y-89270399D01*
X155077510Y-89270399D02*
X155139619Y-89242991D01*
X155139619Y-89242991D02*
X155175422Y-89218834D01*
X155175422Y-89218834D02*
X155186937Y-89194819D01*
X155186937Y-89194819D02*
X155176180Y-89167835D01*
X155176180Y-89167835D02*
X155157714Y-89146743D01*
X155157714Y-89146743D02*
X155114069Y-89120772D01*
X155114069Y-89120772D02*
X155066046Y-89118824D01*
X155066046Y-89118824D02*
X155022006Y-89138837D01*
X155022006Y-89138837D02*
X154990309Y-89178751D01*
X154990309Y-89178751D02*
X154986149Y-89189048D01*
X154986149Y-89189048D02*
X154961927Y-89226924D01*
X154961927Y-89226924D02*
X154926565Y-89255042D01*
X154926565Y-89255042D02*
X154881943Y-89278117D01*
X154881943Y-89278117D02*
X154881943Y-89212685D01*
X154881943Y-89212685D02*
X154884569Y-89172706D01*
X154884569Y-89172706D02*
X154895830Y-89141197D01*
X154895830Y-89141197D02*
X154920799Y-89107578D01*
X154920799Y-89107578D02*
X154944769Y-89081684D01*
X154944769Y-89081684D02*
X154982041Y-89045017D01*
X154982041Y-89045017D02*
X155011001Y-89025321D01*
X155011001Y-89025321D02*
X155042105Y-89017420D01*
X155042105Y-89017420D02*
X155077313Y-89016114D01*
X155077313Y-89016114D02*
X155154476Y-89027535D01*
X155154476Y-89027535D02*
X155154476Y-89027535D01*
G36*
X155154476Y-89027535D02*
G01*
X155196267Y-89046544D01*
X155229069Y-89069578D01*
X155253103Y-89095333D01*
X155269697Y-89128558D01*
X155280177Y-89174000D01*
X155285871Y-89236407D01*
X155288107Y-89320527D01*
X155288343Y-89375921D01*
X155288343Y-89592026D01*
X155251374Y-89608870D01*
X155222256Y-89621181D01*
X155207831Y-89625714D01*
X155205072Y-89612225D01*
X155202882Y-89575853D01*
X155201542Y-89522742D01*
X155201257Y-89480572D01*
X155200034Y-89419647D01*
X155196736Y-89371315D01*
X155191921Y-89341718D01*
X155188096Y-89335429D01*
X155162383Y-89341852D01*
X155122018Y-89358325D01*
X155075279Y-89380658D01*
X155030445Y-89404657D01*
X154995793Y-89426130D01*
X154979602Y-89440885D01*
X154979538Y-89441045D01*
X154980930Y-89468352D01*
X154993418Y-89494419D01*
X155015343Y-89515592D01*
X155047343Y-89522674D01*
X155074692Y-89521849D01*
X155113426Y-89521242D01*
X155133758Y-89530316D01*
X155145969Y-89554292D01*
X155147509Y-89558813D01*
X155152803Y-89593006D01*
X155138647Y-89613768D01*
X155101748Y-89623662D01*
X155061889Y-89625492D01*
X154990162Y-89611927D01*
X154953032Y-89592555D01*
X154907176Y-89547045D01*
X154882856Y-89491183D01*
X154880673Y-89432157D01*
X154901229Y-89377153D01*
X154932149Y-89342686D01*
X154963020Y-89323389D01*
X155011542Y-89298959D01*
X155068085Y-89274185D01*
X155077510Y-89270399D01*
X155139619Y-89242991D01*
X155175422Y-89218834D01*
X155186937Y-89194819D01*
X155176180Y-89167835D01*
X155157714Y-89146743D01*
X155114069Y-89120772D01*
X155066046Y-89118824D01*
X155022006Y-89138837D01*
X154990309Y-89178751D01*
X154986149Y-89189048D01*
X154961927Y-89226924D01*
X154926565Y-89255042D01*
X154881943Y-89278117D01*
X154881943Y-89212685D01*
X154884569Y-89172706D01*
X154895830Y-89141197D01*
X154920799Y-89107578D01*
X154944769Y-89081684D01*
X154982041Y-89045017D01*
X155011001Y-89025321D01*
X155042105Y-89017420D01*
X155077313Y-89016114D01*
X155154476Y-89027535D01*
G37*
X155154476Y-89027535D02*
X155196267Y-89046544D01*
X155229069Y-89069578D01*
X155253103Y-89095333D01*
X155269697Y-89128558D01*
X155280177Y-89174000D01*
X155285871Y-89236407D01*
X155288107Y-89320527D01*
X155288343Y-89375921D01*
X155288343Y-89592026D01*
X155251374Y-89608870D01*
X155222256Y-89621181D01*
X155207831Y-89625714D01*
X155205072Y-89612225D01*
X155202882Y-89575853D01*
X155201542Y-89522742D01*
X155201257Y-89480572D01*
X155200034Y-89419647D01*
X155196736Y-89371315D01*
X155191921Y-89341718D01*
X155188096Y-89335429D01*
X155162383Y-89341852D01*
X155122018Y-89358325D01*
X155075279Y-89380658D01*
X155030445Y-89404657D01*
X154995793Y-89426130D01*
X154979602Y-89440885D01*
X154979538Y-89441045D01*
X154980930Y-89468352D01*
X154993418Y-89494419D01*
X155015343Y-89515592D01*
X155047343Y-89522674D01*
X155074692Y-89521849D01*
X155113426Y-89521242D01*
X155133758Y-89530316D01*
X155145969Y-89554292D01*
X155147509Y-89558813D01*
X155152803Y-89593006D01*
X155138647Y-89613768D01*
X155101748Y-89623662D01*
X155061889Y-89625492D01*
X154990162Y-89611927D01*
X154953032Y-89592555D01*
X154907176Y-89547045D01*
X154882856Y-89491183D01*
X154880673Y-89432157D01*
X154901229Y-89377153D01*
X154932149Y-89342686D01*
X154963020Y-89323389D01*
X155011542Y-89298959D01*
X155068085Y-89274185D01*
X155077510Y-89270399D01*
X155139619Y-89242991D01*
X155175422Y-89218834D01*
X155186937Y-89194819D01*
X155176180Y-89167835D01*
X155157714Y-89146743D01*
X155114069Y-89120772D01*
X155066046Y-89118824D01*
X155022006Y-89138837D01*
X154990309Y-89178751D01*
X154986149Y-89189048D01*
X154961927Y-89226924D01*
X154926565Y-89255042D01*
X154881943Y-89278117D01*
X154881943Y-89212685D01*
X154884569Y-89172706D01*
X154895830Y-89141197D01*
X154920799Y-89107578D01*
X154944769Y-89081684D01*
X154982041Y-89045017D01*
X155011001Y-89025321D01*
X155042105Y-89017420D01*
X155077313Y-89016114D01*
X155154476Y-89027535D01*
X153113510Y-84313548D02*
X153192054Y-84313978D01*
X153192054Y-84313978D02*
X153248898Y-84315142D01*
X153248898Y-84315142D02*
X153287705Y-84317407D01*
X153287705Y-84317407D02*
X153312138Y-84321140D01*
X153312138Y-84321140D02*
X153325862Y-84326706D01*
X153325862Y-84326706D02*
X153332540Y-84334473D01*
X153332540Y-84334473D02*
X153335836Y-84344805D01*
X153335836Y-84344805D02*
X153336156Y-84346143D01*
X153336156Y-84346143D02*
X153341162Y-84370279D01*
X153341162Y-84370279D02*
X153350429Y-84417901D01*
X153350429Y-84417901D02*
X153362992Y-84483941D01*
X153362992Y-84483941D02*
X153377887Y-84563328D01*
X153377887Y-84563328D02*
X153394151Y-84650996D01*
X153394151Y-84650996D02*
X153394719Y-84654075D01*
X153394719Y-84654075D02*
X153411010Y-84739989D01*
X153411010Y-84739989D02*
X153426252Y-84815896D01*
X153426252Y-84815896D02*
X153439461Y-84877245D01*
X153439461Y-84877245D02*
X153449654Y-84919482D01*
X153449654Y-84919482D02*
X153455848Y-84938055D01*
X153455848Y-84938055D02*
X153456143Y-84938384D01*
X153456143Y-84938384D02*
X153474388Y-84947453D01*
X153474388Y-84947453D02*
X153512005Y-84962567D01*
X153512005Y-84962567D02*
X153560871Y-84980462D01*
X153560871Y-84980462D02*
X153561143Y-84980558D01*
X153561143Y-84980558D02*
X153622693Y-85003693D01*
X153622693Y-85003693D02*
X153695257Y-85033165D01*
X153695257Y-85033165D02*
X153763657Y-85062797D01*
X153763657Y-85062797D02*
X153766894Y-85064262D01*
X153766894Y-85064262D02*
X153878302Y-85114826D01*
X153878302Y-85114826D02*
X154124999Y-84946360D01*
X154124999Y-84946360D02*
X154200677Y-84895003D01*
X154200677Y-84895003D02*
X154269231Y-84849089D01*
X154269231Y-84849089D02*
X154326688Y-84811230D01*
X154326688Y-84811230D02*
X154369076Y-84784037D01*
X154369076Y-84784037D02*
X154392425Y-84770121D01*
X154392425Y-84770121D02*
X154394642Y-84769089D01*
X154394642Y-84769089D02*
X154411610Y-84773684D01*
X154411610Y-84773684D02*
X154443301Y-84795855D01*
X154443301Y-84795855D02*
X154490952Y-84836647D01*
X154490952Y-84836647D02*
X154555798Y-84897105D01*
X154555798Y-84897105D02*
X154621997Y-84961427D01*
X154621997Y-84961427D02*
X154685814Y-85024812D01*
X154685814Y-85024812D02*
X154742929Y-85082651D01*
X154742929Y-85082651D02*
X154789905Y-85131375D01*
X154789905Y-85131375D02*
X154823303Y-85167410D01*
X154823303Y-85167410D02*
X154839685Y-85187184D01*
X154839685Y-85187184D02*
X154840294Y-85188202D01*
X154840294Y-85188202D02*
X154842105Y-85201772D01*
X154842105Y-85201772D02*
X154835283Y-85223933D01*
X154835283Y-85223933D02*
X154818140Y-85257678D01*
X154818140Y-85257678D02*
X154788993Y-85306000D01*
X154788993Y-85306000D02*
X154746155Y-85371892D01*
X154746155Y-85371892D02*
X154689048Y-85456717D01*
X154689048Y-85456717D02*
X154638366Y-85531377D01*
X154638366Y-85531377D02*
X154593061Y-85598340D01*
X154593061Y-85598340D02*
X154555750Y-85653716D01*
X154555750Y-85653716D02*
X154529052Y-85693620D01*
X154529052Y-85693620D02*
X154515585Y-85714162D01*
X154515585Y-85714162D02*
X154514737Y-85715556D01*
X154514737Y-85715556D02*
X154516381Y-85735238D01*
X154516381Y-85735238D02*
X154528845Y-85773493D01*
X154528845Y-85773493D02*
X154549648Y-85823089D01*
X154549648Y-85823089D02*
X154557062Y-85838928D01*
X154557062Y-85838928D02*
X154589414Y-85909490D01*
X154589414Y-85909490D02*
X154623928Y-85989553D01*
X154623928Y-85989553D02*
X154651965Y-86058829D01*
X154651965Y-86058829D02*
X154672168Y-86110245D01*
X154672168Y-86110245D02*
X154688215Y-86149319D01*
X154688215Y-86149319D02*
X154697488Y-86169741D01*
X154697488Y-86169741D02*
X154698641Y-86171314D01*
X154698641Y-86171314D02*
X154715696Y-86173921D01*
X154715696Y-86173921D02*
X154755898Y-86181063D01*
X154755898Y-86181063D02*
X154813902Y-86191723D01*
X154813902Y-86191723D02*
X154884363Y-86204885D01*
X154884363Y-86204885D02*
X154961935Y-86219533D01*
X154961935Y-86219533D02*
X155041272Y-86234649D01*
X155041272Y-86234649D02*
X155117031Y-86249218D01*
X155117031Y-86249218D02*
X155183864Y-86262222D01*
X155183864Y-86262222D02*
X155236428Y-86272645D01*
X155236428Y-86272645D02*
X155269376Y-86279470D01*
X155269376Y-86279470D02*
X155277457Y-86281399D01*
X155277457Y-86281399D02*
X155285805Y-86286162D01*
X155285805Y-86286162D02*
X155292106Y-86296918D01*
X155292106Y-86296918D02*
X155296645Y-86317298D01*
X155296645Y-86317298D02*
X155299704Y-86350934D01*
X155299704Y-86350934D02*
X155301567Y-86401455D01*
X155301567Y-86401455D02*
X155302518Y-86472492D01*
X155302518Y-86472492D02*
X155302840Y-86567676D01*
X155302840Y-86567676D02*
X155302857Y-86606692D01*
X155302857Y-86606692D02*
X155302857Y-86923999D01*
X155302857Y-86923999D02*
X155226657Y-86939039D01*
X155226657Y-86939039D02*
X155184263Y-86947195D01*
X155184263Y-86947195D02*
X155121000Y-86959099D01*
X155121000Y-86959099D02*
X155044562Y-86973316D01*
X155044562Y-86973316D02*
X154962643Y-86988410D01*
X154962643Y-86988410D02*
X154940000Y-86992555D01*
X154940000Y-86992555D02*
X154864406Y-87007253D01*
X154864406Y-87007253D02*
X154798553Y-87021705D01*
X154798553Y-87021705D02*
X154747966Y-87034575D01*
X154747966Y-87034575D02*
X154718174Y-87044522D01*
X154718174Y-87044522D02*
X154713212Y-87047487D01*
X154713212Y-87047487D02*
X154701026Y-87068483D01*
X154701026Y-87068483D02*
X154683553Y-87109167D01*
X154683553Y-87109167D02*
X154664177Y-87161522D01*
X154664177Y-87161522D02*
X154660334Y-87172800D01*
X154660334Y-87172800D02*
X154634939Y-87242723D01*
X154634939Y-87242723D02*
X154603417Y-87321618D01*
X154603417Y-87321618D02*
X154572569Y-87392466D01*
X154572569Y-87392466D02*
X154572417Y-87392795D01*
X154572417Y-87392795D02*
X154521047Y-87503933D01*
X154521047Y-87503933D02*
X154689999Y-87752453D01*
X154689999Y-87752453D02*
X154858952Y-88000972D01*
X154858952Y-88000972D02*
X154642029Y-88218258D01*
X154642029Y-88218258D02*
X154576419Y-88282926D01*
X154576419Y-88282926D02*
X154516579Y-88339933D01*
X154516579Y-88339933D02*
X154465867Y-88386233D01*
X154465867Y-88386233D02*
X154427646Y-88418784D01*
X154427646Y-88418784D02*
X154405275Y-88434543D01*
X154405275Y-88434543D02*
X154402066Y-88435543D01*
X154402066Y-88435543D02*
X154383226Y-88427669D01*
X154383226Y-88427669D02*
X154344780Y-88405778D01*
X154344780Y-88405778D02*
X154290930Y-88372467D01*
X154290930Y-88372467D02*
X154225876Y-88330331D01*
X154225876Y-88330331D02*
X154155540Y-88283143D01*
X154155540Y-88283143D02*
X154084155Y-88235010D01*
X154084155Y-88235010D02*
X154020508Y-88193128D01*
X154020508Y-88193128D02*
X153968641Y-88160071D01*
X153968641Y-88160071D02*
X153932595Y-88138418D01*
X153932595Y-88138418D02*
X153916467Y-88130743D01*
X153916467Y-88130743D02*
X153896789Y-88137237D01*
X153896789Y-88137237D02*
X153859475Y-88154350D01*
X153859475Y-88154350D02*
X153812221Y-88178526D01*
X153812221Y-88178526D02*
X153807212Y-88181213D01*
X153807212Y-88181213D02*
X153743577Y-88213127D01*
X153743577Y-88213127D02*
X153699941Y-88228779D01*
X153699941Y-88228779D02*
X153672802Y-88228945D01*
X153672802Y-88228945D02*
X153658657Y-88214404D01*
X153658657Y-88214404D02*
X153658575Y-88214200D01*
X153658575Y-88214200D02*
X153651505Y-88196979D01*
X153651505Y-88196979D02*
X153634642Y-88156099D01*
X153634642Y-88156099D02*
X153609295Y-88094725D01*
X153609295Y-88094725D02*
X153576771Y-88016019D01*
X153576771Y-88016019D02*
X153538378Y-87923147D01*
X153538378Y-87923147D02*
X153495422Y-87819272D01*
X153495422Y-87819272D02*
X153453822Y-87718702D01*
X153453822Y-87718702D02*
X153408104Y-87607716D01*
X153408104Y-87607716D02*
X153366126Y-87504903D01*
X153366126Y-87504903D02*
X153329148Y-87413415D01*
X153329148Y-87413415D02*
X153298427Y-87336401D01*
X153298427Y-87336401D02*
X153275222Y-87277015D01*
X153275222Y-87277015D02*
X153260790Y-87238409D01*
X153260790Y-87238409D02*
X153256343Y-87224000D01*
X153256343Y-87224000D02*
X153267496Y-87207472D01*
X153267496Y-87207472D02*
X153296669Y-87181130D01*
X153296669Y-87181130D02*
X153335571Y-87152087D01*
X153335571Y-87152087D02*
X153446357Y-87060239D01*
X153446357Y-87060239D02*
X153532951Y-86954959D01*
X153532951Y-86954959D02*
X153594316Y-86838466D01*
X153594316Y-86838466D02*
X153629415Y-86712976D01*
X153629415Y-86712976D02*
X153637208Y-86580707D01*
X153637208Y-86580707D02*
X153631543Y-86519657D01*
X153631543Y-86519657D02*
X153600678Y-86392995D01*
X153600678Y-86392995D02*
X153547520Y-86281141D01*
X153547520Y-86281141D02*
X153475367Y-86185201D01*
X153475367Y-86185201D02*
X153387517Y-86106276D01*
X153387517Y-86106276D02*
X153287265Y-86045470D01*
X153287265Y-86045470D02*
X153177910Y-86003887D01*
X153177910Y-86003887D02*
X153062747Y-85982628D01*
X153062747Y-85982628D02*
X152945075Y-85982799D01*
X152945075Y-85982799D02*
X152828190Y-86005501D01*
X152828190Y-86005501D02*
X152715389Y-86051838D01*
X152715389Y-86051838D02*
X152609969Y-86122913D01*
X152609969Y-86122913D02*
X152565968Y-86163111D01*
X152565968Y-86163111D02*
X152481579Y-86266329D01*
X152481579Y-86266329D02*
X152422822Y-86379125D01*
X152422822Y-86379125D02*
X152389304Y-86498210D01*
X152389304Y-86498210D02*
X152380635Y-86620295D01*
X152380635Y-86620295D02*
X152396423Y-86742093D01*
X152396423Y-86742093D02*
X152436278Y-86860316D01*
X152436278Y-86860316D02*
X152499807Y-86971675D01*
X152499807Y-86971675D02*
X152586621Y-87072884D01*
X152586621Y-87072884D02*
X152683629Y-87152087D01*
X152683629Y-87152087D02*
X152724037Y-87182362D01*
X152724037Y-87182362D02*
X152752582Y-87208419D01*
X152752582Y-87208419D02*
X152762857Y-87224025D01*
X152762857Y-87224025D02*
X152757477Y-87241043D01*
X152757477Y-87241043D02*
X152742175Y-87281700D01*
X152742175Y-87281700D02*
X152718212Y-87342842D01*
X152718212Y-87342842D02*
X152686844Y-87421319D01*
X152686844Y-87421319D02*
X152649332Y-87513980D01*
X152649332Y-87513980D02*
X152606933Y-87617672D01*
X152606933Y-87617672D02*
X152565263Y-87718726D01*
X152565263Y-87718726D02*
X152519290Y-87829807D01*
X152519290Y-87829807D02*
X152476707Y-87932741D01*
X152476707Y-87932741D02*
X152438821Y-88024365D01*
X152438821Y-88024365D02*
X152406940Y-88101516D01*
X152406940Y-88101516D02*
X152382371Y-88161031D01*
X152382371Y-88161031D02*
X152366420Y-88199744D01*
X152366420Y-88199744D02*
X152360510Y-88214200D01*
X152360510Y-88214200D02*
X152346548Y-88228885D01*
X152346548Y-88228885D02*
X152319540Y-88228842D01*
X152319540Y-88228842D02*
X152276013Y-88213299D01*
X152276013Y-88213299D02*
X152212490Y-88181484D01*
X152212490Y-88181484D02*
X152211988Y-88181213D01*
X152211988Y-88181213D02*
X152164160Y-88156523D01*
X152164160Y-88156523D02*
X152125497Y-88138538D01*
X152125497Y-88138538D02*
X152103695Y-88130814D01*
X152103695Y-88130814D02*
X152102733Y-88130743D01*
X152102733Y-88130743D02*
X152086321Y-88138578D01*
X152086321Y-88138578D02*
X152050087Y-88160365D01*
X152050087Y-88160365D02*
X151998074Y-88193528D01*
X151998074Y-88193528D02*
X151934325Y-88235491D01*
X151934325Y-88235491D02*
X151863660Y-88283143D01*
X151863660Y-88283143D02*
X151791716Y-88331391D01*
X151791716Y-88331391D02*
X151726874Y-88373351D01*
X151726874Y-88373351D02*
X151673335Y-88406427D01*
X151673335Y-88406427D02*
X151635297Y-88428021D01*
X151635297Y-88428021D02*
X151617133Y-88435543D01*
X151617133Y-88435543D02*
X151600408Y-88425657D01*
X151600408Y-88425657D02*
X151566780Y-88398026D01*
X151566780Y-88398026D02*
X151519610Y-88355695D01*
X151519610Y-88355695D02*
X151462258Y-88301705D01*
X151462258Y-88301705D02*
X151398084Y-88239099D01*
X151398084Y-88239099D02*
X151377097Y-88218183D01*
X151377097Y-88218183D02*
X151160099Y-88000823D01*
X151160099Y-88000823D02*
X151325268Y-87758420D01*
X151325268Y-87758420D02*
X151375464Y-87683981D01*
X151375464Y-87683981D02*
X151419519Y-87617172D01*
X151419519Y-87617172D02*
X151454962Y-87561865D01*
X151454962Y-87561865D02*
X151479319Y-87521929D01*
X151479319Y-87521929D02*
X151490122Y-87501236D01*
X151490122Y-87501236D02*
X151490438Y-87499763D01*
X151490438Y-87499763D02*
X151484743Y-87480258D01*
X151484743Y-87480258D02*
X151469426Y-87441022D01*
X151469426Y-87441022D02*
X151447137Y-87388630D01*
X151447137Y-87388630D02*
X151431493Y-87353555D01*
X151431493Y-87353555D02*
X151402241Y-87286401D01*
X151402241Y-87286401D02*
X151374694Y-87218558D01*
X151374694Y-87218558D02*
X151353337Y-87161234D01*
X151353337Y-87161234D02*
X151347535Y-87143772D01*
X151347535Y-87143772D02*
X151331052Y-87097138D01*
X151331052Y-87097138D02*
X151314940Y-87061105D01*
X151314940Y-87061105D02*
X151306090Y-87047487D01*
X151306090Y-87047487D02*
X151286560Y-87039152D01*
X151286560Y-87039152D02*
X151243934Y-87027337D01*
X151243934Y-87027337D02*
X151183745Y-87013381D01*
X151183745Y-87013381D02*
X151111522Y-86998622D01*
X151111522Y-86998622D02*
X151079200Y-86992555D01*
X151079200Y-86992555D02*
X150997122Y-86977473D01*
X150997122Y-86977473D02*
X150918395Y-86962869D01*
X150918395Y-86962869D02*
X150850709Y-86950180D01*
X150850709Y-86950180D02*
X150801760Y-86940842D01*
X150801760Y-86940842D02*
X150792543Y-86939039D01*
X150792543Y-86939039D02*
X150716343Y-86923999D01*
X150716343Y-86923999D02*
X150716343Y-86606692D01*
X150716343Y-86606692D02*
X150716514Y-86502354D01*
X150716514Y-86502354D02*
X150717216Y-86423413D01*
X150717216Y-86423413D02*
X150718734Y-86366238D01*
X150718734Y-86366238D02*
X150721349Y-86327199D01*
X150721349Y-86327199D02*
X150725346Y-86302665D01*
X150725346Y-86302665D02*
X150731009Y-86289005D01*
X150731009Y-86289005D02*
X150738620Y-86282589D01*
X150738620Y-86282589D02*
X150741743Y-86281399D01*
X150741743Y-86281399D02*
X150760578Y-86277180D01*
X150760578Y-86277180D02*
X150802188Y-86268762D01*
X150802188Y-86268762D02*
X150861230Y-86257161D01*
X150861230Y-86257161D02*
X150932357Y-86243395D01*
X150932357Y-86243395D02*
X151010225Y-86228480D01*
X151010225Y-86228480D02*
X151089487Y-86213432D01*
X151089487Y-86213432D02*
X151164798Y-86199269D01*
X151164798Y-86199269D02*
X151230813Y-86187006D01*
X151230813Y-86187006D02*
X151282187Y-86177661D01*
X151282187Y-86177661D02*
X151313575Y-86172250D01*
X151313575Y-86172250D02*
X151320559Y-86171314D01*
X151320559Y-86171314D02*
X151326885Y-86158796D01*
X151326885Y-86158796D02*
X151340890Y-86125446D01*
X151340890Y-86125446D02*
X151359955Y-86077577D01*
X151359955Y-86077577D02*
X151367234Y-86058829D01*
X151367234Y-86058829D02*
X151396596Y-85986395D01*
X151396596Y-85986395D02*
X151431171Y-85906370D01*
X151431171Y-85906370D02*
X151462137Y-85838928D01*
X151462137Y-85838928D02*
X151484923Y-85787359D01*
X151484923Y-85787359D02*
X151500082Y-85744985D01*
X151500082Y-85744985D02*
X151505142Y-85719034D01*
X151505142Y-85719034D02*
X151504336Y-85715556D01*
X151504336Y-85715556D02*
X151493641Y-85699136D01*
X151493641Y-85699136D02*
X151469220Y-85662617D01*
X151469220Y-85662617D02*
X151433695Y-85609887D01*
X151433695Y-85609887D02*
X151389687Y-85544835D01*
X151389687Y-85544835D02*
X151339817Y-85471351D01*
X151339817Y-85471351D02*
X151329956Y-85456845D01*
X151329956Y-85456845D02*
X151272092Y-85370904D01*
X151272092Y-85370904D02*
X151229556Y-85305461D01*
X151229556Y-85305461D02*
X151200654Y-85257504D01*
X151200654Y-85257504D02*
X151183690Y-85224020D01*
X151183690Y-85224020D02*
X151176967Y-85201995D01*
X151176967Y-85201995D02*
X151178790Y-85188417D01*
X151178790Y-85188417D02*
X151178836Y-85188331D01*
X151178836Y-85188331D02*
X151193186Y-85170497D01*
X151193186Y-85170497D02*
X151224923Y-85136017D01*
X151224923Y-85136017D02*
X151270610Y-85088468D01*
X151270610Y-85088468D02*
X151326804Y-85031422D01*
X151326804Y-85031422D02*
X151390068Y-84968455D01*
X151390068Y-84968455D02*
X151397202Y-84961427D01*
X151397202Y-84961427D02*
X151476930Y-84884220D01*
X151476930Y-84884220D02*
X151538457Y-84827530D01*
X151538457Y-84827530D02*
X151583021Y-84790310D01*
X151583021Y-84790310D02*
X151611857Y-84771515D01*
X151611857Y-84771515D02*
X151624558Y-84769089D01*
X151624558Y-84769089D02*
X151643094Y-84779671D01*
X151643094Y-84779671D02*
X151681561Y-84804116D01*
X151681561Y-84804116D02*
X151735986Y-84839812D01*
X151735986Y-84839812D02*
X151802398Y-84884147D01*
X151802398Y-84884147D02*
X151876825Y-84934511D01*
X151876825Y-84934511D02*
X151894201Y-84946360D01*
X151894201Y-84946360D02*
X152140897Y-85114826D01*
X152140897Y-85114826D02*
X152252306Y-85064262D01*
X152252306Y-85064262D02*
X152320057Y-85034795D01*
X152320057Y-85034795D02*
X152392783Y-85005159D01*
X152392783Y-85005159D02*
X152455303Y-84981530D01*
X152455303Y-84981530D02*
X152458057Y-84980558D01*
X152458057Y-84980558D02*
X152506960Y-84962657D01*
X152506960Y-84962657D02*
X152544657Y-84947520D01*
X152544657Y-84947520D02*
X152563025Y-84938410D01*
X152563025Y-84938410D02*
X152563056Y-84938384D01*
X152563056Y-84938384D02*
X152568885Y-84921917D01*
X152568885Y-84921917D02*
X152578792Y-84881419D01*
X152578792Y-84881419D02*
X152591795Y-84821442D01*
X152591795Y-84821442D02*
X152606909Y-84746540D01*
X152606909Y-84746540D02*
X152623152Y-84661264D01*
X152623152Y-84661264D02*
X152624481Y-84654075D01*
X152624481Y-84654075D02*
X152640775Y-84566214D01*
X152640775Y-84566214D02*
X152655733Y-84486460D01*
X152655733Y-84486460D02*
X152668391Y-84419881D01*
X152668391Y-84419881D02*
X152677786Y-84371547D01*
X152677786Y-84371547D02*
X152682954Y-84346525D01*
X152682954Y-84346525D02*
X152683044Y-84346143D01*
X152683044Y-84346143D02*
X152686189Y-84335499D01*
X152686189Y-84335499D02*
X152692304Y-84327462D01*
X152692304Y-84327462D02*
X152705053Y-84321667D01*
X152705053Y-84321667D02*
X152728100Y-84317747D01*
X152728100Y-84317747D02*
X152765109Y-84315335D01*
X152765109Y-84315335D02*
X152819744Y-84314065D01*
X152819744Y-84314065D02*
X152895667Y-84313571D01*
X152895667Y-84313571D02*
X152996544Y-84313486D01*
X152996544Y-84313486D02*
X153009600Y-84313486D01*
X153009600Y-84313486D02*
X153113510Y-84313548D01*
X153113510Y-84313548D02*
X153113510Y-84313548D01*
G36*
X153113510Y-84313548D02*
G01*
X153192054Y-84313978D01*
X153248898Y-84315142D01*
X153287705Y-84317407D01*
X153312138Y-84321140D01*
X153325862Y-84326706D01*
X153332540Y-84334473D01*
X153335836Y-84344805D01*
X153336156Y-84346143D01*
X153341162Y-84370279D01*
X153350429Y-84417901D01*
X153362992Y-84483941D01*
X153377887Y-84563328D01*
X153394151Y-84650996D01*
X153394719Y-84654075D01*
X153411010Y-84739989D01*
X153426252Y-84815896D01*
X153439461Y-84877245D01*
X153449654Y-84919482D01*
X153455848Y-84938055D01*
X153456143Y-84938384D01*
X153474388Y-84947453D01*
X153512005Y-84962567D01*
X153560871Y-84980462D01*
X153561143Y-84980558D01*
X153622693Y-85003693D01*
X153695257Y-85033165D01*
X153763657Y-85062797D01*
X153766894Y-85064262D01*
X153878302Y-85114826D01*
X154124999Y-84946360D01*
X154200677Y-84895003D01*
X154269231Y-84849089D01*
X154326688Y-84811230D01*
X154369076Y-84784037D01*
X154392425Y-84770121D01*
X154394642Y-84769089D01*
X154411610Y-84773684D01*
X154443301Y-84795855D01*
X154490952Y-84836647D01*
X154555798Y-84897105D01*
X154621997Y-84961427D01*
X154685814Y-85024812D01*
X154742929Y-85082651D01*
X154789905Y-85131375D01*
X154823303Y-85167410D01*
X154839685Y-85187184D01*
X154840294Y-85188202D01*
X154842105Y-85201772D01*
X154835283Y-85223933D01*
X154818140Y-85257678D01*
X154788993Y-85306000D01*
X154746155Y-85371892D01*
X154689048Y-85456717D01*
X154638366Y-85531377D01*
X154593061Y-85598340D01*
X154555750Y-85653716D01*
X154529052Y-85693620D01*
X154515585Y-85714162D01*
X154514737Y-85715556D01*
X154516381Y-85735238D01*
X154528845Y-85773493D01*
X154549648Y-85823089D01*
X154557062Y-85838928D01*
X154589414Y-85909490D01*
X154623928Y-85989553D01*
X154651965Y-86058829D01*
X154672168Y-86110245D01*
X154688215Y-86149319D01*
X154697488Y-86169741D01*
X154698641Y-86171314D01*
X154715696Y-86173921D01*
X154755898Y-86181063D01*
X154813902Y-86191723D01*
X154884363Y-86204885D01*
X154961935Y-86219533D01*
X155041272Y-86234649D01*
X155117031Y-86249218D01*
X155183864Y-86262222D01*
X155236428Y-86272645D01*
X155269376Y-86279470D01*
X155277457Y-86281399D01*
X155285805Y-86286162D01*
X155292106Y-86296918D01*
X155296645Y-86317298D01*
X155299704Y-86350934D01*
X155301567Y-86401455D01*
X155302518Y-86472492D01*
X155302840Y-86567676D01*
X155302857Y-86606692D01*
X155302857Y-86923999D01*
X155226657Y-86939039D01*
X155184263Y-86947195D01*
X155121000Y-86959099D01*
X155044562Y-86973316D01*
X154962643Y-86988410D01*
X154940000Y-86992555D01*
X154864406Y-87007253D01*
X154798553Y-87021705D01*
X154747966Y-87034575D01*
X154718174Y-87044522D01*
X154713212Y-87047487D01*
X154701026Y-87068483D01*
X154683553Y-87109167D01*
X154664177Y-87161522D01*
X154660334Y-87172800D01*
X154634939Y-87242723D01*
X154603417Y-87321618D01*
X154572569Y-87392466D01*
X154572417Y-87392795D01*
X154521047Y-87503933D01*
X154689999Y-87752453D01*
X154858952Y-88000972D01*
X154642029Y-88218258D01*
X154576419Y-88282926D01*
X154516579Y-88339933D01*
X154465867Y-88386233D01*
X154427646Y-88418784D01*
X154405275Y-88434543D01*
X154402066Y-88435543D01*
X154383226Y-88427669D01*
X154344780Y-88405778D01*
X154290930Y-88372467D01*
X154225876Y-88330331D01*
X154155540Y-88283143D01*
X154084155Y-88235010D01*
X154020508Y-88193128D01*
X153968641Y-88160071D01*
X153932595Y-88138418D01*
X153916467Y-88130743D01*
X153896789Y-88137237D01*
X153859475Y-88154350D01*
X153812221Y-88178526D01*
X153807212Y-88181213D01*
X153743577Y-88213127D01*
X153699941Y-88228779D01*
X153672802Y-88228945D01*
X153658657Y-88214404D01*
X153658575Y-88214200D01*
X153651505Y-88196979D01*
X153634642Y-88156099D01*
X153609295Y-88094725D01*
X153576771Y-88016019D01*
X153538378Y-87923147D01*
X153495422Y-87819272D01*
X153453822Y-87718702D01*
X153408104Y-87607716D01*
X153366126Y-87504903D01*
X153329148Y-87413415D01*
X153298427Y-87336401D01*
X153275222Y-87277015D01*
X153260790Y-87238409D01*
X153256343Y-87224000D01*
X153267496Y-87207472D01*
X153296669Y-87181130D01*
X153335571Y-87152087D01*
X153446357Y-87060239D01*
X153532951Y-86954959D01*
X153594316Y-86838466D01*
X153629415Y-86712976D01*
X153637208Y-86580707D01*
X153631543Y-86519657D01*
X153600678Y-86392995D01*
X153547520Y-86281141D01*
X153475367Y-86185201D01*
X153387517Y-86106276D01*
X153287265Y-86045470D01*
X153177910Y-86003887D01*
X153062747Y-85982628D01*
X152945075Y-85982799D01*
X152828190Y-86005501D01*
X152715389Y-86051838D01*
X152609969Y-86122913D01*
X152565968Y-86163111D01*
X152481579Y-86266329D01*
X152422822Y-86379125D01*
X152389304Y-86498210D01*
X152380635Y-86620295D01*
X152396423Y-86742093D01*
X152436278Y-86860316D01*
X152499807Y-86971675D01*
X152586621Y-87072884D01*
X152683629Y-87152087D01*
X152724037Y-87182362D01*
X152752582Y-87208419D01*
X152762857Y-87224025D01*
X152757477Y-87241043D01*
X152742175Y-87281700D01*
X152718212Y-87342842D01*
X152686844Y-87421319D01*
X152649332Y-87513980D01*
X152606933Y-87617672D01*
X152565263Y-87718726D01*
X152519290Y-87829807D01*
X152476707Y-87932741D01*
X152438821Y-88024365D01*
X152406940Y-88101516D01*
X152382371Y-88161031D01*
X152366420Y-88199744D01*
X152360510Y-88214200D01*
X152346548Y-88228885D01*
X152319540Y-88228842D01*
X152276013Y-88213299D01*
X152212490Y-88181484D01*
X152211988Y-88181213D01*
X152164160Y-88156523D01*
X152125497Y-88138538D01*
X152103695Y-88130814D01*
X152102733Y-88130743D01*
X152086321Y-88138578D01*
X152050087Y-88160365D01*
X151998074Y-88193528D01*
X151934325Y-88235491D01*
X151863660Y-88283143D01*
X151791716Y-88331391D01*
X151726874Y-88373351D01*
X151673335Y-88406427D01*
X151635297Y-88428021D01*
X151617133Y-88435543D01*
X151600408Y-88425657D01*
X151566780Y-88398026D01*
X151519610Y-88355695D01*
X151462258Y-88301705D01*
X151398084Y-88239099D01*
X151377097Y-88218183D01*
X151160099Y-88000823D01*
X151325268Y-87758420D01*
X151375464Y-87683981D01*
X151419519Y-87617172D01*
X151454962Y-87561865D01*
X151479319Y-87521929D01*
X151490122Y-87501236D01*
X151490438Y-87499763D01*
X151484743Y-87480258D01*
X151469426Y-87441022D01*
X151447137Y-87388630D01*
X151431493Y-87353555D01*
X151402241Y-87286401D01*
X151374694Y-87218558D01*
X151353337Y-87161234D01*
X151347535Y-87143772D01*
X151331052Y-87097138D01*
X151314940Y-87061105D01*
X151306090Y-87047487D01*
X151286560Y-87039152D01*
X151243934Y-87027337D01*
X151183745Y-87013381D01*
X151111522Y-86998622D01*
X151079200Y-86992555D01*
X150997122Y-86977473D01*
X150918395Y-86962869D01*
X150850709Y-86950180D01*
X150801760Y-86940842D01*
X150792543Y-86939039D01*
X150716343Y-86923999D01*
X150716343Y-86606692D01*
X150716514Y-86502354D01*
X150717216Y-86423413D01*
X150718734Y-86366238D01*
X150721349Y-86327199D01*
X150725346Y-86302665D01*
X150731009Y-86289005D01*
X150738620Y-86282589D01*
X150741743Y-86281399D01*
X150760578Y-86277180D01*
X150802188Y-86268762D01*
X150861230Y-86257161D01*
X150932357Y-86243395D01*
X151010225Y-86228480D01*
X151089487Y-86213432D01*
X151164798Y-86199269D01*
X151230813Y-86187006D01*
X151282187Y-86177661D01*
X151313575Y-86172250D01*
X151320559Y-86171314D01*
X151326885Y-86158796D01*
X151340890Y-86125446D01*
X151359955Y-86077577D01*
X151367234Y-86058829D01*
X151396596Y-85986395D01*
X151431171Y-85906370D01*
X151462137Y-85838928D01*
X151484923Y-85787359D01*
X151500082Y-85744985D01*
X151505142Y-85719034D01*
X151504336Y-85715556D01*
X151493641Y-85699136D01*
X151469220Y-85662617D01*
X151433695Y-85609887D01*
X151389687Y-85544835D01*
X151339817Y-85471351D01*
X151329956Y-85456845D01*
X151272092Y-85370904D01*
X151229556Y-85305461D01*
X151200654Y-85257504D01*
X151183690Y-85224020D01*
X151176967Y-85201995D01*
X151178790Y-85188417D01*
X151178836Y-85188331D01*
X151193186Y-85170497D01*
X151224923Y-85136017D01*
X151270610Y-85088468D01*
X151326804Y-85031422D01*
X151390068Y-84968455D01*
X151397202Y-84961427D01*
X151476930Y-84884220D01*
X151538457Y-84827530D01*
X151583021Y-84790310D01*
X151611857Y-84771515D01*
X151624558Y-84769089D01*
X151643094Y-84779671D01*
X151681561Y-84804116D01*
X151735986Y-84839812D01*
X151802398Y-84884147D01*
X151876825Y-84934511D01*
X151894201Y-84946360D01*
X152140897Y-85114826D01*
X152252306Y-85064262D01*
X152320057Y-85034795D01*
X152392783Y-85005159D01*
X152455303Y-84981530D01*
X152458057Y-84980558D01*
X152506960Y-84962657D01*
X152544657Y-84947520D01*
X152563025Y-84938410D01*
X152563056Y-84938384D01*
X152568885Y-84921917D01*
X152578792Y-84881419D01*
X152591795Y-84821442D01*
X152606909Y-84746540D01*
X152623152Y-84661264D01*
X152624481Y-84654075D01*
X152640775Y-84566214D01*
X152655733Y-84486460D01*
X152668391Y-84419881D01*
X152677786Y-84371547D01*
X152682954Y-84346525D01*
X152683044Y-84346143D01*
X152686189Y-84335499D01*
X152692304Y-84327462D01*
X152705053Y-84321667D01*
X152728100Y-84317747D01*
X152765109Y-84315335D01*
X152819744Y-84314065D01*
X152895667Y-84313571D01*
X152996544Y-84313486D01*
X153009600Y-84313486D01*
X153113510Y-84313548D01*
G37*
X153113510Y-84313548D02*
X153192054Y-84313978D01*
X153248898Y-84315142D01*
X153287705Y-84317407D01*
X153312138Y-84321140D01*
X153325862Y-84326706D01*
X153332540Y-84334473D01*
X153335836Y-84344805D01*
X153336156Y-84346143D01*
X153341162Y-84370279D01*
X153350429Y-84417901D01*
X153362992Y-84483941D01*
X153377887Y-84563328D01*
X153394151Y-84650996D01*
X153394719Y-84654075D01*
X153411010Y-84739989D01*
X153426252Y-84815896D01*
X153439461Y-84877245D01*
X153449654Y-84919482D01*
X153455848Y-84938055D01*
X153456143Y-84938384D01*
X153474388Y-84947453D01*
X153512005Y-84962567D01*
X153560871Y-84980462D01*
X153561143Y-84980558D01*
X153622693Y-85003693D01*
X153695257Y-85033165D01*
X153763657Y-85062797D01*
X153766894Y-85064262D01*
X153878302Y-85114826D01*
X154124999Y-84946360D01*
X154200677Y-84895003D01*
X154269231Y-84849089D01*
X154326688Y-84811230D01*
X154369076Y-84784037D01*
X154392425Y-84770121D01*
X154394642Y-84769089D01*
X154411610Y-84773684D01*
X154443301Y-84795855D01*
X154490952Y-84836647D01*
X154555798Y-84897105D01*
X154621997Y-84961427D01*
X154685814Y-85024812D01*
X154742929Y-85082651D01*
X154789905Y-85131375D01*
X154823303Y-85167410D01*
X154839685Y-85187184D01*
X154840294Y-85188202D01*
X154842105Y-85201772D01*
X154835283Y-85223933D01*
X154818140Y-85257678D01*
X154788993Y-85306000D01*
X154746155Y-85371892D01*
X154689048Y-85456717D01*
X154638366Y-85531377D01*
X154593061Y-85598340D01*
X154555750Y-85653716D01*
X154529052Y-85693620D01*
X154515585Y-85714162D01*
X154514737Y-85715556D01*
X154516381Y-85735238D01*
X154528845Y-85773493D01*
X154549648Y-85823089D01*
X154557062Y-85838928D01*
X154589414Y-85909490D01*
X154623928Y-85989553D01*
X154651965Y-86058829D01*
X154672168Y-86110245D01*
X154688215Y-86149319D01*
X154697488Y-86169741D01*
X154698641Y-86171314D01*
X154715696Y-86173921D01*
X154755898Y-86181063D01*
X154813902Y-86191723D01*
X154884363Y-86204885D01*
X154961935Y-86219533D01*
X155041272Y-86234649D01*
X155117031Y-86249218D01*
X155183864Y-86262222D01*
X155236428Y-86272645D01*
X155269376Y-86279470D01*
X155277457Y-86281399D01*
X155285805Y-86286162D01*
X155292106Y-86296918D01*
X155296645Y-86317298D01*
X155299704Y-86350934D01*
X155301567Y-86401455D01*
X155302518Y-86472492D01*
X155302840Y-86567676D01*
X155302857Y-86606692D01*
X155302857Y-86923999D01*
X155226657Y-86939039D01*
X155184263Y-86947195D01*
X155121000Y-86959099D01*
X155044562Y-86973316D01*
X154962643Y-86988410D01*
X154940000Y-86992555D01*
X154864406Y-87007253D01*
X154798553Y-87021705D01*
X154747966Y-87034575D01*
X154718174Y-87044522D01*
X154713212Y-87047487D01*
X154701026Y-87068483D01*
X154683553Y-87109167D01*
X154664177Y-87161522D01*
X154660334Y-87172800D01*
X154634939Y-87242723D01*
X154603417Y-87321618D01*
X154572569Y-87392466D01*
X154572417Y-87392795D01*
X154521047Y-87503933D01*
X154689999Y-87752453D01*
X154858952Y-88000972D01*
X154642029Y-88218258D01*
X154576419Y-88282926D01*
X154516579Y-88339933D01*
X154465867Y-88386233D01*
X154427646Y-88418784D01*
X154405275Y-88434543D01*
X154402066Y-88435543D01*
X154383226Y-88427669D01*
X154344780Y-88405778D01*
X154290930Y-88372467D01*
X154225876Y-88330331D01*
X154155540Y-88283143D01*
X154084155Y-88235010D01*
X154020508Y-88193128D01*
X153968641Y-88160071D01*
X153932595Y-88138418D01*
X153916467Y-88130743D01*
X153896789Y-88137237D01*
X153859475Y-88154350D01*
X153812221Y-88178526D01*
X153807212Y-88181213D01*
X153743577Y-88213127D01*
X153699941Y-88228779D01*
X153672802Y-88228945D01*
X153658657Y-88214404D01*
X153658575Y-88214200D01*
X153651505Y-88196979D01*
X153634642Y-88156099D01*
X153609295Y-88094725D01*
X153576771Y-88016019D01*
X153538378Y-87923147D01*
X153495422Y-87819272D01*
X153453822Y-87718702D01*
X153408104Y-87607716D01*
X153366126Y-87504903D01*
X153329148Y-87413415D01*
X153298427Y-87336401D01*
X153275222Y-87277015D01*
X153260790Y-87238409D01*
X153256343Y-87224000D01*
X153267496Y-87207472D01*
X153296669Y-87181130D01*
X153335571Y-87152087D01*
X153446357Y-87060239D01*
X153532951Y-86954959D01*
X153594316Y-86838466D01*
X153629415Y-86712976D01*
X153637208Y-86580707D01*
X153631543Y-86519657D01*
X153600678Y-86392995D01*
X153547520Y-86281141D01*
X153475367Y-86185201D01*
X153387517Y-86106276D01*
X153287265Y-86045470D01*
X153177910Y-86003887D01*
X153062747Y-85982628D01*
X152945075Y-85982799D01*
X152828190Y-86005501D01*
X152715389Y-86051838D01*
X152609969Y-86122913D01*
X152565968Y-86163111D01*
X152481579Y-86266329D01*
X152422822Y-86379125D01*
X152389304Y-86498210D01*
X152380635Y-86620295D01*
X152396423Y-86742093D01*
X152436278Y-86860316D01*
X152499807Y-86971675D01*
X152586621Y-87072884D01*
X152683629Y-87152087D01*
X152724037Y-87182362D01*
X152752582Y-87208419D01*
X152762857Y-87224025D01*
X152757477Y-87241043D01*
X152742175Y-87281700D01*
X152718212Y-87342842D01*
X152686844Y-87421319D01*
X152649332Y-87513980D01*
X152606933Y-87617672D01*
X152565263Y-87718726D01*
X152519290Y-87829807D01*
X152476707Y-87932741D01*
X152438821Y-88024365D01*
X152406940Y-88101516D01*
X152382371Y-88161031D01*
X152366420Y-88199744D01*
X152360510Y-88214200D01*
X152346548Y-88228885D01*
X152319540Y-88228842D01*
X152276013Y-88213299D01*
X152212490Y-88181484D01*
X152211988Y-88181213D01*
X152164160Y-88156523D01*
X152125497Y-88138538D01*
X152103695Y-88130814D01*
X152102733Y-88130743D01*
X152086321Y-88138578D01*
X152050087Y-88160365D01*
X151998074Y-88193528D01*
X151934325Y-88235491D01*
X151863660Y-88283143D01*
X151791716Y-88331391D01*
X151726874Y-88373351D01*
X151673335Y-88406427D01*
X151635297Y-88428021D01*
X151617133Y-88435543D01*
X151600408Y-88425657D01*
X151566780Y-88398026D01*
X151519610Y-88355695D01*
X151462258Y-88301705D01*
X151398084Y-88239099D01*
X151377097Y-88218183D01*
X151160099Y-88000823D01*
X151325268Y-87758420D01*
X151375464Y-87683981D01*
X151419519Y-87617172D01*
X151454962Y-87561865D01*
X151479319Y-87521929D01*
X151490122Y-87501236D01*
X151490438Y-87499763D01*
X151484743Y-87480258D01*
X151469426Y-87441022D01*
X151447137Y-87388630D01*
X151431493Y-87353555D01*
X151402241Y-87286401D01*
X151374694Y-87218558D01*
X151353337Y-87161234D01*
X151347535Y-87143772D01*
X151331052Y-87097138D01*
X151314940Y-87061105D01*
X151306090Y-87047487D01*
X151286560Y-87039152D01*
X151243934Y-87027337D01*
X151183745Y-87013381D01*
X151111522Y-86998622D01*
X151079200Y-86992555D01*
X150997122Y-86977473D01*
X150918395Y-86962869D01*
X150850709Y-86950180D01*
X150801760Y-86940842D01*
X150792543Y-86939039D01*
X150716343Y-86923999D01*
X150716343Y-86606692D01*
X150716514Y-86502354D01*
X150717216Y-86423413D01*
X150718734Y-86366238D01*
X150721349Y-86327199D01*
X150725346Y-86302665D01*
X150731009Y-86289005D01*
X150738620Y-86282589D01*
X150741743Y-86281399D01*
X150760578Y-86277180D01*
X150802188Y-86268762D01*
X150861230Y-86257161D01*
X150932357Y-86243395D01*
X151010225Y-86228480D01*
X151089487Y-86213432D01*
X151164798Y-86199269D01*
X151230813Y-86187006D01*
X151282187Y-86177661D01*
X151313575Y-86172250D01*
X151320559Y-86171314D01*
X151326885Y-86158796D01*
X151340890Y-86125446D01*
X151359955Y-86077577D01*
X151367234Y-86058829D01*
X151396596Y-85986395D01*
X151431171Y-85906370D01*
X151462137Y-85838928D01*
X151484923Y-85787359D01*
X151500082Y-85744985D01*
X151505142Y-85719034D01*
X151504336Y-85715556D01*
X151493641Y-85699136D01*
X151469220Y-85662617D01*
X151433695Y-85609887D01*
X151389687Y-85544835D01*
X151339817Y-85471351D01*
X151329956Y-85456845D01*
X151272092Y-85370904D01*
X151229556Y-85305461D01*
X151200654Y-85257504D01*
X151183690Y-85224020D01*
X151176967Y-85201995D01*
X151178790Y-85188417D01*
X151178836Y-85188331D01*
X151193186Y-85170497D01*
X151224923Y-85136017D01*
X151270610Y-85088468D01*
X151326804Y-85031422D01*
X151390068Y-84968455D01*
X151397202Y-84961427D01*
X151476930Y-84884220D01*
X151538457Y-84827530D01*
X151583021Y-84790310D01*
X151611857Y-84771515D01*
X151624558Y-84769089D01*
X151643094Y-84779671D01*
X151681561Y-84804116D01*
X151735986Y-84839812D01*
X151802398Y-84884147D01*
X151876825Y-84934511D01*
X151894201Y-84946360D01*
X152140897Y-85114826D01*
X152252306Y-85064262D01*
X152320057Y-85034795D01*
X152392783Y-85005159D01*
X152455303Y-84981530D01*
X152458057Y-84980558D01*
X152506960Y-84962657D01*
X152544657Y-84947520D01*
X152563025Y-84938410D01*
X152563056Y-84938384D01*
X152568885Y-84921917D01*
X152578792Y-84881419D01*
X152591795Y-84821442D01*
X152606909Y-84746540D01*
X152623152Y-84661264D01*
X152624481Y-84654075D01*
X152640775Y-84566214D01*
X152655733Y-84486460D01*
X152668391Y-84419881D01*
X152677786Y-84371547D01*
X152682954Y-84346525D01*
X152683044Y-84346143D01*
X152686189Y-84335499D01*
X152692304Y-84327462D01*
X152705053Y-84321667D01*
X152728100Y-84317747D01*
X152765109Y-84315335D01*
X152819744Y-84314065D01*
X152895667Y-84313571D01*
X152996544Y-84313486D01*
X153009600Y-84313486D01*
X153113510Y-84313548D01*
X155662200Y-89029952D02*
X155679548Y-89037534D01*
X155679548Y-89037534D02*
X155720956Y-89070328D01*
X155720956Y-89070328D02*
X155756365Y-89117747D01*
X155756365Y-89117747D02*
X155778264Y-89168351D01*
X155778264Y-89168351D02*
X155781829Y-89193298D01*
X155781829Y-89193298D02*
X155769879Y-89228127D01*
X155769879Y-89228127D02*
X155743667Y-89246557D01*
X155743667Y-89246557D02*
X155715564Y-89257716D01*
X155715564Y-89257716D02*
X155702695Y-89259772D01*
X155702695Y-89259772D02*
X155696429Y-89244849D01*
X155696429Y-89244849D02*
X155684056Y-89212375D01*
X155684056Y-89212375D02*
X155678628Y-89197702D01*
X155678628Y-89197702D02*
X155648190Y-89146944D01*
X155648190Y-89146944D02*
X155604120Y-89121627D01*
X155604120Y-89121627D02*
X155547610Y-89122406D01*
X155547610Y-89122406D02*
X155543425Y-89123403D01*
X155543425Y-89123403D02*
X155513255Y-89137707D01*
X155513255Y-89137707D02*
X155491076Y-89165593D01*
X155491076Y-89165593D02*
X155475927Y-89210487D01*
X155475927Y-89210487D02*
X155466850Y-89275815D01*
X155466850Y-89275815D02*
X155462886Y-89365004D01*
X155462886Y-89365004D02*
X155462514Y-89412461D01*
X155462514Y-89412461D02*
X155462330Y-89487271D01*
X155462330Y-89487271D02*
X155461122Y-89538269D01*
X155461122Y-89538269D02*
X155457909Y-89570671D01*
X155457909Y-89570671D02*
X155451709Y-89589695D01*
X155451709Y-89589695D02*
X155441540Y-89600556D01*
X155441540Y-89600556D02*
X155426419Y-89608472D01*
X155426419Y-89608472D02*
X155425546Y-89608870D01*
X155425546Y-89608870D02*
X155396428Y-89621181D01*
X155396428Y-89621181D02*
X155382003Y-89625714D01*
X155382003Y-89625714D02*
X155379786Y-89612009D01*
X155379786Y-89612009D02*
X155377889Y-89574125D01*
X155377889Y-89574125D02*
X155376447Y-89516915D01*
X155376447Y-89516915D02*
X155375598Y-89445227D01*
X155375598Y-89445227D02*
X155375429Y-89392765D01*
X155375429Y-89392765D02*
X155376292Y-89291247D01*
X155376292Y-89291247D02*
X155379670Y-89214232D01*
X155379670Y-89214232D02*
X155386742Y-89157223D01*
X155386742Y-89157223D02*
X155398688Y-89115726D01*
X155398688Y-89115726D02*
X155416690Y-89085243D01*
X155416690Y-89085243D02*
X155441927Y-89061280D01*
X155441927Y-89061280D02*
X155466847Y-89044555D01*
X155466847Y-89044555D02*
X155526771Y-89022297D01*
X155526771Y-89022297D02*
X155596511Y-89017276D01*
X155596511Y-89017276D02*
X155662200Y-89029952D01*
X155662200Y-89029952D02*
X155662200Y-89029952D01*
G36*
X155662200Y-89029952D02*
G01*
X155679548Y-89037534D01*
X155720956Y-89070328D01*
X155756365Y-89117747D01*
X155778264Y-89168351D01*
X155781829Y-89193298D01*
X155769879Y-89228127D01*
X155743667Y-89246557D01*
X155715564Y-89257716D01*
X155702695Y-89259772D01*
X155696429Y-89244849D01*
X155684056Y-89212375D01*
X155678628Y-89197702D01*
X155648190Y-89146944D01*
X155604120Y-89121627D01*
X155547610Y-89122406D01*
X155543425Y-89123403D01*
X155513255Y-89137707D01*
X155491076Y-89165593D01*
X155475927Y-89210487D01*
X155466850Y-89275815D01*
X155462886Y-89365004D01*
X155462514Y-89412461D01*
X155462330Y-89487271D01*
X155461122Y-89538269D01*
X155457909Y-89570671D01*
X155451709Y-89589695D01*
X155441540Y-89600556D01*
X155426419Y-89608472D01*
X155425546Y-89608870D01*
X155396428Y-89621181D01*
X155382003Y-89625714D01*
X155379786Y-89612009D01*
X155377889Y-89574125D01*
X155376447Y-89516915D01*
X155375598Y-89445227D01*
X155375429Y-89392765D01*
X155376292Y-89291247D01*
X155379670Y-89214232D01*
X155386742Y-89157223D01*
X155398688Y-89115726D01*
X155416690Y-89085243D01*
X155441927Y-89061280D01*
X155466847Y-89044555D01*
X155526771Y-89022297D01*
X155596511Y-89017276D01*
X155662200Y-89029952D01*
G37*
X155662200Y-89029952D02*
X155679548Y-89037534D01*
X155720956Y-89070328D01*
X155756365Y-89117747D01*
X155778264Y-89168351D01*
X155781829Y-89193298D01*
X155769879Y-89228127D01*
X155743667Y-89246557D01*
X155715564Y-89257716D01*
X155702695Y-89259772D01*
X155696429Y-89244849D01*
X155684056Y-89212375D01*
X155678628Y-89197702D01*
X155648190Y-89146944D01*
X155604120Y-89121627D01*
X155547610Y-89122406D01*
X155543425Y-89123403D01*
X155513255Y-89137707D01*
X155491076Y-89165593D01*
X155475927Y-89210487D01*
X155466850Y-89275815D01*
X155462886Y-89365004D01*
X155462514Y-89412461D01*
X155462330Y-89487271D01*
X155461122Y-89538269D01*
X155457909Y-89570671D01*
X155451709Y-89589695D01*
X155441540Y-89600556D01*
X155426419Y-89608472D01*
X155425546Y-89608870D01*
X155396428Y-89621181D01*
X155382003Y-89625714D01*
X155379786Y-89612009D01*
X155377889Y-89574125D01*
X155376447Y-89516915D01*
X155375598Y-89445227D01*
X155375429Y-89392765D01*
X155376292Y-89291247D01*
X155379670Y-89214232D01*
X155386742Y-89157223D01*
X155398688Y-89115726D01*
X155416690Y-89085243D01*
X155441927Y-89061280D01*
X155466847Y-89044555D01*
X155526771Y-89022297D01*
X155596511Y-89017276D01*
X155662200Y-89029952D01*
X154199717Y-89136558D02*
X154199533Y-89245037D01*
X154199533Y-89245037D02*
X154198819Y-89328487D01*
X154198819Y-89328487D02*
X154197275Y-89390904D01*
X154197275Y-89390904D02*
X154194601Y-89436285D01*
X154194601Y-89436285D02*
X154190494Y-89468629D01*
X154190494Y-89468629D02*
X154184655Y-89491933D01*
X154184655Y-89491933D02*
X154176782Y-89510195D01*
X154176782Y-89510195D02*
X154170821Y-89520618D01*
X154170821Y-89520618D02*
X154121455Y-89577145D01*
X154121455Y-89577145D02*
X154058864Y-89612577D01*
X154058864Y-89612577D02*
X153989613Y-89625290D01*
X153989613Y-89625290D02*
X153920268Y-89613663D01*
X153920268Y-89613663D02*
X153878975Y-89592768D01*
X153878975Y-89592768D02*
X153835625Y-89556622D01*
X153835625Y-89556622D02*
X153806081Y-89512476D01*
X153806081Y-89512476D02*
X153788255Y-89454662D01*
X153788255Y-89454662D02*
X153780063Y-89377513D01*
X153780063Y-89377513D02*
X153778902Y-89320914D01*
X153778902Y-89320914D02*
X153779058Y-89316847D01*
X153779058Y-89316847D02*
X153880457Y-89316847D01*
X153880457Y-89316847D02*
X153881076Y-89381750D01*
X153881076Y-89381750D02*
X153883914Y-89424714D01*
X153883914Y-89424714D02*
X153890440Y-89452822D01*
X153890440Y-89452822D02*
X153902123Y-89473153D01*
X153902123Y-89473153D02*
X153916083Y-89488488D01*
X153916083Y-89488488D02*
X153962965Y-89518090D01*
X153962965Y-89518090D02*
X154013301Y-89520619D01*
X154013301Y-89520619D02*
X154060876Y-89495905D01*
X154060876Y-89495905D02*
X154064579Y-89492556D01*
X154064579Y-89492556D02*
X154080383Y-89475135D01*
X154080383Y-89475135D02*
X154090293Y-89454409D01*
X154090293Y-89454409D02*
X154095658Y-89423562D01*
X154095658Y-89423562D02*
X154097828Y-89375777D01*
X154097828Y-89375777D02*
X154098171Y-89322948D01*
X154098171Y-89322948D02*
X154097427Y-89256581D01*
X154097427Y-89256581D02*
X154094348Y-89212306D01*
X154094348Y-89212306D02*
X154087661Y-89183209D01*
X154087661Y-89183209D02*
X154076096Y-89162373D01*
X154076096Y-89162373D02*
X154066613Y-89151307D01*
X154066613Y-89151307D02*
X154022560Y-89123398D01*
X154022560Y-89123398D02*
X153971824Y-89120043D01*
X153971824Y-89120043D02*
X153923396Y-89141359D01*
X153923396Y-89141359D02*
X153914050Y-89149273D01*
X153914050Y-89149273D02*
X153898140Y-89166847D01*
X153898140Y-89166847D02*
X153888210Y-89187787D01*
X153888210Y-89187787D02*
X153882878Y-89218982D01*
X153882878Y-89218982D02*
X153880763Y-89267322D01*
X153880763Y-89267322D02*
X153880457Y-89316847D01*
X153880457Y-89316847D02*
X153779058Y-89316847D01*
X153779058Y-89316847D02*
X153782410Y-89229768D01*
X153782410Y-89229768D02*
X153794326Y-89161286D01*
X153794326Y-89161286D02*
X153816735Y-89109800D01*
X153816735Y-89109800D02*
X153851724Y-89069643D01*
X153851724Y-89069643D02*
X153878975Y-89049061D01*
X153878975Y-89049061D02*
X153928507Y-89026825D01*
X153928507Y-89026825D02*
X153985916Y-89016504D01*
X153985916Y-89016504D02*
X154039282Y-89019267D01*
X154039282Y-89019267D02*
X154069143Y-89030412D01*
X154069143Y-89030412D02*
X154080861Y-89033583D01*
X154080861Y-89033583D02*
X154088637Y-89021757D01*
X154088637Y-89021757D02*
X154094065Y-88990066D01*
X154094065Y-88990066D02*
X154098171Y-88941793D01*
X154098171Y-88941793D02*
X154102667Y-88888029D01*
X154102667Y-88888029D02*
X154108913Y-88855682D01*
X154108913Y-88855682D02*
X154120276Y-88837185D01*
X154120276Y-88837185D02*
X154140128Y-88824970D01*
X154140128Y-88824970D02*
X154152600Y-88819562D01*
X154152600Y-88819562D02*
X154199771Y-88799801D01*
X154199771Y-88799801D02*
X154199717Y-89136558D01*
X154199717Y-89136558D02*
X154199717Y-89136558D01*
G36*
X153794326Y-89161286D02*
G01*
X153816735Y-89109800D01*
X153851724Y-89069643D01*
X153878975Y-89049061D01*
X153928507Y-89026825D01*
X153985916Y-89016504D01*
X154039282Y-89019267D01*
X154069143Y-89030412D01*
X154080861Y-89033583D01*
X154088637Y-89021757D01*
X154094065Y-88990066D01*
X154098171Y-88941793D01*
X154102667Y-88888029D01*
X154108913Y-88855682D01*
X154120276Y-88837185D01*
X154140128Y-88824970D01*
X154152600Y-88819562D01*
X154199771Y-88799801D01*
X154199717Y-89136558D01*
X154199533Y-89245037D01*
X154198819Y-89328487D01*
X154197275Y-89390904D01*
X154194601Y-89436285D01*
X154190494Y-89468629D01*
X154184655Y-89491933D01*
X154176782Y-89510195D01*
X154170821Y-89520618D01*
X154121455Y-89577145D01*
X154058864Y-89612577D01*
X153989613Y-89625290D01*
X153920268Y-89613663D01*
X153878975Y-89592768D01*
X153835625Y-89556622D01*
X153806081Y-89512476D01*
X153788255Y-89454662D01*
X153780063Y-89377513D01*
X153778902Y-89320914D01*
X153779058Y-89316847D01*
X153880457Y-89316847D01*
X153881076Y-89381750D01*
X153883914Y-89424714D01*
X153890440Y-89452822D01*
X153902123Y-89473153D01*
X153916083Y-89488488D01*
X153962965Y-89518090D01*
X154013301Y-89520619D01*
X154060876Y-89495905D01*
X154064579Y-89492556D01*
X154080383Y-89475135D01*
X154090293Y-89454409D01*
X154095658Y-89423562D01*
X154097828Y-89375777D01*
X154098171Y-89322948D01*
X154097427Y-89256581D01*
X154094348Y-89212306D01*
X154087661Y-89183209D01*
X154076096Y-89162373D01*
X154066613Y-89151307D01*
X154022560Y-89123398D01*
X153971824Y-89120043D01*
X153923396Y-89141359D01*
X153914050Y-89149273D01*
X153898140Y-89166847D01*
X153888210Y-89187787D01*
X153882878Y-89218982D01*
X153880763Y-89267322D01*
X153880457Y-89316847D01*
X153779058Y-89316847D01*
X153782410Y-89229768D01*
X153794326Y-89161286D01*
G37*
X153794326Y-89161286D02*
X153816735Y-89109800D01*
X153851724Y-89069643D01*
X153878975Y-89049061D01*
X153928507Y-89026825D01*
X153985916Y-89016504D01*
X154039282Y-89019267D01*
X154069143Y-89030412D01*
X154080861Y-89033583D01*
X154088637Y-89021757D01*
X154094065Y-88990066D01*
X154098171Y-88941793D01*
X154102667Y-88888029D01*
X154108913Y-88855682D01*
X154120276Y-88837185D01*
X154140128Y-88824970D01*
X154152600Y-88819562D01*
X154199771Y-88799801D01*
X154199717Y-89136558D01*
X154199533Y-89245037D01*
X154198819Y-89328487D01*
X154197275Y-89390904D01*
X154194601Y-89436285D01*
X154190494Y-89468629D01*
X154184655Y-89491933D01*
X154176782Y-89510195D01*
X154170821Y-89520618D01*
X154121455Y-89577145D01*
X154058864Y-89612577D01*
X153989613Y-89625290D01*
X153920268Y-89613663D01*
X153878975Y-89592768D01*
X153835625Y-89556622D01*
X153806081Y-89512476D01*
X153788255Y-89454662D01*
X153780063Y-89377513D01*
X153778902Y-89320914D01*
X153779058Y-89316847D01*
X153880457Y-89316847D01*
X153881076Y-89381750D01*
X153883914Y-89424714D01*
X153890440Y-89452822D01*
X153902123Y-89473153D01*
X153916083Y-89488488D01*
X153962965Y-89518090D01*
X154013301Y-89520619D01*
X154060876Y-89495905D01*
X154064579Y-89492556D01*
X154080383Y-89475135D01*
X154090293Y-89454409D01*
X154095658Y-89423562D01*
X154097828Y-89375777D01*
X154098171Y-89322948D01*
X154097427Y-89256581D01*
X154094348Y-89212306D01*
X154087661Y-89183209D01*
X154076096Y-89162373D01*
X154066613Y-89151307D01*
X154022560Y-89123398D01*
X153971824Y-89120043D01*
X153923396Y-89141359D01*
X153914050Y-89149273D01*
X153898140Y-89166847D01*
X153888210Y-89187787D01*
X153882878Y-89218982D01*
X153880763Y-89267322D01*
X153880457Y-89316847D01*
X153779058Y-89316847D01*
X153782410Y-89229768D01*
X153794326Y-89161286D01*
X156163195Y-89038166D02*
X156220621Y-89075697D01*
X156220621Y-89075697D02*
X156248319Y-89109296D01*
X156248319Y-89109296D02*
X156270262Y-89170264D01*
X156270262Y-89170264D02*
X156272005Y-89218508D01*
X156272005Y-89218508D02*
X156268057Y-89283016D01*
X156268057Y-89283016D02*
X156119286Y-89348134D01*
X156119286Y-89348134D02*
X156046949Y-89381402D01*
X156046949Y-89381402D02*
X155999684Y-89408164D01*
X155999684Y-89408164D02*
X155975107Y-89431344D01*
X155975107Y-89431344D02*
X155970837Y-89453867D01*
X155970837Y-89453867D02*
X155984489Y-89478655D01*
X155984489Y-89478655D02*
X155999543Y-89495086D01*
X155999543Y-89495086D02*
X156043346Y-89521435D01*
X156043346Y-89521435D02*
X156090989Y-89523281D01*
X156090989Y-89523281D02*
X156134745Y-89502746D01*
X156134745Y-89502746D02*
X156166889Y-89461952D01*
X156166889Y-89461952D02*
X156172638Y-89447547D01*
X156172638Y-89447547D02*
X156200176Y-89402556D01*
X156200176Y-89402556D02*
X156231858Y-89383382D01*
X156231858Y-89383382D02*
X156275314Y-89366979D01*
X156275314Y-89366979D02*
X156275314Y-89429166D01*
X156275314Y-89429166D02*
X156271472Y-89471483D01*
X156271472Y-89471483D02*
X156256423Y-89507169D01*
X156256423Y-89507169D02*
X156224880Y-89548143D01*
X156224880Y-89548143D02*
X156220192Y-89553467D01*
X156220192Y-89553467D02*
X156185106Y-89589920D01*
X156185106Y-89589920D02*
X156154947Y-89609483D01*
X156154947Y-89609483D02*
X156117215Y-89618483D01*
X156117215Y-89618483D02*
X156085935Y-89621430D01*
X156085935Y-89621430D02*
X156029985Y-89622165D01*
X156029985Y-89622165D02*
X155990155Y-89612860D01*
X155990155Y-89612860D02*
X155965308Y-89599046D01*
X155965308Y-89599046D02*
X155926256Y-89568667D01*
X155926256Y-89568667D02*
X155899225Y-89535813D01*
X155899225Y-89535813D02*
X155882117Y-89494494D01*
X155882117Y-89494494D02*
X155872838Y-89438721D01*
X155872838Y-89438721D02*
X155869293Y-89362505D01*
X155869293Y-89362505D02*
X155869010Y-89323822D01*
X155869010Y-89323822D02*
X155869972Y-89277447D01*
X155869972Y-89277447D02*
X155957607Y-89277447D01*
X155957607Y-89277447D02*
X155958623Y-89302326D01*
X155958623Y-89302326D02*
X155961156Y-89306400D01*
X155961156Y-89306400D02*
X155977874Y-89300865D01*
X155977874Y-89300865D02*
X156013849Y-89286217D01*
X156013849Y-89286217D02*
X156061931Y-89265390D01*
X156061931Y-89265390D02*
X156071986Y-89260914D01*
X156071986Y-89260914D02*
X156132752Y-89230014D01*
X156132752Y-89230014D02*
X156166232Y-89202857D01*
X156166232Y-89202857D02*
X156173590Y-89177420D01*
X156173590Y-89177420D02*
X156155991Y-89151681D01*
X156155991Y-89151681D02*
X156141456Y-89140309D01*
X156141456Y-89140309D02*
X156089010Y-89117564D01*
X156089010Y-89117564D02*
X156039922Y-89121322D01*
X156039922Y-89121322D02*
X155998827Y-89149084D01*
X155998827Y-89149084D02*
X155970358Y-89198352D01*
X155970358Y-89198352D02*
X155961231Y-89237457D01*
X155961231Y-89237457D02*
X155957607Y-89277447D01*
X155957607Y-89277447D02*
X155869972Y-89277447D01*
X155869972Y-89277447D02*
X155870885Y-89233449D01*
X155870885Y-89233449D02*
X155877796Y-89166584D01*
X155877796Y-89166584D02*
X155891484Y-89117895D01*
X155891484Y-89117895D02*
X155913696Y-89082049D01*
X155913696Y-89082049D02*
X155946174Y-89053713D01*
X155946174Y-89053713D02*
X155960333Y-89044555D01*
X155960333Y-89044555D02*
X156024653Y-89020707D01*
X156024653Y-89020707D02*
X156095073Y-89019206D01*
X156095073Y-89019206D02*
X156163195Y-89038166D01*
X156163195Y-89038166D02*
X156163195Y-89038166D01*
G36*
X155877796Y-89166584D02*
G01*
X155891484Y-89117895D01*
X155913696Y-89082049D01*
X155946174Y-89053713D01*
X155960333Y-89044555D01*
X156024653Y-89020707D01*
X156095073Y-89019206D01*
X156163195Y-89038166D01*
X156220621Y-89075697D01*
X156248319Y-89109296D01*
X156270262Y-89170264D01*
X156272005Y-89218508D01*
X156268057Y-89283016D01*
X156119286Y-89348134D01*
X156046949Y-89381402D01*
X155999684Y-89408164D01*
X155975107Y-89431344D01*
X155970837Y-89453867D01*
X155984489Y-89478655D01*
X155999543Y-89495086D01*
X156043346Y-89521435D01*
X156090989Y-89523281D01*
X156134745Y-89502746D01*
X156166889Y-89461952D01*
X156172638Y-89447547D01*
X156200176Y-89402556D01*
X156231858Y-89383382D01*
X156275314Y-89366979D01*
X156275314Y-89429166D01*
X156271472Y-89471483D01*
X156256423Y-89507169D01*
X156224880Y-89548143D01*
X156220192Y-89553467D01*
X156185106Y-89589920D01*
X156154947Y-89609483D01*
X156117215Y-89618483D01*
X156085935Y-89621430D01*
X156029985Y-89622165D01*
X155990155Y-89612860D01*
X155965308Y-89599046D01*
X155926256Y-89568667D01*
X155899225Y-89535813D01*
X155882117Y-89494494D01*
X155872838Y-89438721D01*
X155869293Y-89362505D01*
X155869010Y-89323822D01*
X155869972Y-89277447D01*
X155957607Y-89277447D01*
X155958623Y-89302326D01*
X155961156Y-89306400D01*
X155977874Y-89300865D01*
X156013849Y-89286217D01*
X156061931Y-89265390D01*
X156071986Y-89260914D01*
X156132752Y-89230014D01*
X156166232Y-89202857D01*
X156173590Y-89177420D01*
X156155991Y-89151681D01*
X156141456Y-89140309D01*
X156089010Y-89117564D01*
X156039922Y-89121322D01*
X155998827Y-89149084D01*
X155970358Y-89198352D01*
X155961231Y-89237457D01*
X155957607Y-89277447D01*
X155869972Y-89277447D01*
X155870885Y-89233449D01*
X155877796Y-89166584D01*
G37*
X155877796Y-89166584D02*
X155891484Y-89117895D01*
X155913696Y-89082049D01*
X155946174Y-89053713D01*
X155960333Y-89044555D01*
X156024653Y-89020707D01*
X156095073Y-89019206D01*
X156163195Y-89038166D01*
X156220621Y-89075697D01*
X156248319Y-89109296D01*
X156270262Y-89170264D01*
X156272005Y-89218508D01*
X156268057Y-89283016D01*
X156119286Y-89348134D01*
X156046949Y-89381402D01*
X155999684Y-89408164D01*
X155975107Y-89431344D01*
X155970837Y-89453867D01*
X155984489Y-89478655D01*
X155999543Y-89495086D01*
X156043346Y-89521435D01*
X156090989Y-89523281D01*
X156134745Y-89502746D01*
X156166889Y-89461952D01*
X156172638Y-89447547D01*
X156200176Y-89402556D01*
X156231858Y-89383382D01*
X156275314Y-89366979D01*
X156275314Y-89429166D01*
X156271472Y-89471483D01*
X156256423Y-89507169D01*
X156224880Y-89548143D01*
X156220192Y-89553467D01*
X156185106Y-89589920D01*
X156154947Y-89609483D01*
X156117215Y-89618483D01*
X156085935Y-89621430D01*
X156029985Y-89622165D01*
X155990155Y-89612860D01*
X155965308Y-89599046D01*
X155926256Y-89568667D01*
X155899225Y-89535813D01*
X155882117Y-89494494D01*
X155872838Y-89438721D01*
X155869293Y-89362505D01*
X155869010Y-89323822D01*
X155869972Y-89277447D01*
X155957607Y-89277447D01*
X155958623Y-89302326D01*
X155961156Y-89306400D01*
X155977874Y-89300865D01*
X156013849Y-89286217D01*
X156061931Y-89265390D01*
X156071986Y-89260914D01*
X156132752Y-89230014D01*
X156166232Y-89202857D01*
X156173590Y-89177420D01*
X156155991Y-89151681D01*
X156141456Y-89140309D01*
X156089010Y-89117564D01*
X156039922Y-89121322D01*
X155998827Y-89149084D01*
X155970358Y-89198352D01*
X155961231Y-89237457D01*
X155957607Y-89277447D01*
X155869972Y-89277447D01*
X155870885Y-89233449D01*
X155877796Y-89166584D01*
X152385486Y-88922489D02*
X152389739Y-88981813D01*
X152389739Y-88981813D02*
X152394625Y-89016772D01*
X152394625Y-89016772D02*
X152401395Y-89032020D01*
X152401395Y-89032020D02*
X152411302Y-89032215D01*
X152411302Y-89032215D02*
X152414514Y-89030395D01*
X152414514Y-89030395D02*
X152457244Y-89017215D01*
X152457244Y-89017215D02*
X152512827Y-89017985D01*
X152512827Y-89017985D02*
X152569337Y-89031533D01*
X152569337Y-89031533D02*
X152604682Y-89049061D01*
X152604682Y-89049061D02*
X152640921Y-89077061D01*
X152640921Y-89077061D02*
X152667413Y-89108749D01*
X152667413Y-89108749D02*
X152685599Y-89149013D01*
X152685599Y-89149013D02*
X152696922Y-89202743D01*
X152696922Y-89202743D02*
X152702822Y-89274826D01*
X152702822Y-89274826D02*
X152704743Y-89370151D01*
X152704743Y-89370151D02*
X152704777Y-89388437D01*
X152704777Y-89388437D02*
X152704800Y-89593846D01*
X152704800Y-89593846D02*
X152659091Y-89609780D01*
X152659091Y-89609780D02*
X152626627Y-89620620D01*
X152626627Y-89620620D02*
X152608815Y-89625668D01*
X152608815Y-89625668D02*
X152608291Y-89625714D01*
X152608291Y-89625714D02*
X152606537Y-89612028D01*
X152606537Y-89612028D02*
X152605044Y-89574276D01*
X152605044Y-89574276D02*
X152603926Y-89517424D01*
X152603926Y-89517424D02*
X152603297Y-89446434D01*
X152603297Y-89446434D02*
X152603200Y-89403273D01*
X152603200Y-89403273D02*
X152602998Y-89318173D01*
X152602998Y-89318173D02*
X152601958Y-89257181D01*
X152601958Y-89257181D02*
X152599431Y-89215377D01*
X152599431Y-89215377D02*
X152594764Y-89187842D01*
X152594764Y-89187842D02*
X152587307Y-89169656D01*
X152587307Y-89169656D02*
X152576411Y-89155898D01*
X152576411Y-89155898D02*
X152569607Y-89149273D01*
X152569607Y-89149273D02*
X152522872Y-89122575D01*
X152522872Y-89122575D02*
X152471872Y-89120575D01*
X152471872Y-89120575D02*
X152425601Y-89143155D01*
X152425601Y-89143155D02*
X152417044Y-89151307D01*
X152417044Y-89151307D02*
X152404493Y-89166636D01*
X152404493Y-89166636D02*
X152395788Y-89184818D01*
X152395788Y-89184818D02*
X152390231Y-89211109D01*
X152390231Y-89211109D02*
X152387126Y-89250762D01*
X152387126Y-89250762D02*
X152385776Y-89309032D01*
X152385776Y-89309032D02*
X152385486Y-89389373D01*
X152385486Y-89389373D02*
X152385486Y-89593846D01*
X152385486Y-89593846D02*
X152339777Y-89609780D01*
X152339777Y-89609780D02*
X152307313Y-89620620D01*
X152307313Y-89620620D02*
X152289501Y-89625668D01*
X152289501Y-89625668D02*
X152288977Y-89625714D01*
X152288977Y-89625714D02*
X152287637Y-89611823D01*
X152287637Y-89611823D02*
X152286428Y-89572639D01*
X152286428Y-89572639D02*
X152285401Y-89511900D01*
X152285401Y-89511900D02*
X152284602Y-89433341D01*
X152284602Y-89433341D02*
X152284081Y-89340698D01*
X152284081Y-89340698D02*
X152283886Y-89237709D01*
X152283886Y-89237709D02*
X152283886Y-88840542D01*
X152283886Y-88840542D02*
X152331057Y-88820644D01*
X152331057Y-88820644D02*
X152378229Y-88800747D01*
X152378229Y-88800747D02*
X152385486Y-88922489D01*
X152385486Y-88922489D02*
X152385486Y-88922489D01*
G36*
X152385486Y-88922489D02*
G01*
X152389739Y-88981813D01*
X152394625Y-89016772D01*
X152401395Y-89032020D01*
X152411302Y-89032215D01*
X152414514Y-89030395D01*
X152457244Y-89017215D01*
X152512827Y-89017985D01*
X152569337Y-89031533D01*
X152604682Y-89049061D01*
X152640921Y-89077061D01*
X152667413Y-89108749D01*
X152685599Y-89149013D01*
X152696922Y-89202743D01*
X152702822Y-89274826D01*
X152704743Y-89370151D01*
X152704777Y-89388437D01*
X152704800Y-89593846D01*
X152659091Y-89609780D01*
X152626627Y-89620620D01*
X152608815Y-89625668D01*
X152608291Y-89625714D01*
X152606537Y-89612028D01*
X152605044Y-89574276D01*
X152603926Y-89517424D01*
X152603297Y-89446434D01*
X152603200Y-89403273D01*
X152602998Y-89318173D01*
X152601958Y-89257181D01*
X152599431Y-89215377D01*
X152594764Y-89187842D01*
X152587307Y-89169656D01*
X152576411Y-89155898D01*
X152569607Y-89149273D01*
X152522872Y-89122575D01*
X152471872Y-89120575D01*
X152425601Y-89143155D01*
X152417044Y-89151307D01*
X152404493Y-89166636D01*
X152395788Y-89184818D01*
X152390231Y-89211109D01*
X152387126Y-89250762D01*
X152385776Y-89309032D01*
X152385486Y-89389373D01*
X152385486Y-89593846D01*
X152339777Y-89609780D01*
X152307313Y-89620620D01*
X152289501Y-89625668D01*
X152288977Y-89625714D01*
X152287637Y-89611823D01*
X152286428Y-89572639D01*
X152285401Y-89511900D01*
X152284602Y-89433341D01*
X152284081Y-89340698D01*
X152283886Y-89237709D01*
X152283886Y-88840542D01*
X152331057Y-88820644D01*
X152378229Y-88800747D01*
X152385486Y-88922489D01*
G37*
X152385486Y-88922489D02*
X152389739Y-88981813D01*
X152394625Y-89016772D01*
X152401395Y-89032020D01*
X152411302Y-89032215D01*
X152414514Y-89030395D01*
X152457244Y-89017215D01*
X152512827Y-89017985D01*
X152569337Y-89031533D01*
X152604682Y-89049061D01*
X152640921Y-89077061D01*
X152667413Y-89108749D01*
X152685599Y-89149013D01*
X152696922Y-89202743D01*
X152702822Y-89274826D01*
X152704743Y-89370151D01*
X152704777Y-89388437D01*
X152704800Y-89593846D01*
X152659091Y-89609780D01*
X152626627Y-89620620D01*
X152608815Y-89625668D01*
X152608291Y-89625714D01*
X152606537Y-89612028D01*
X152605044Y-89574276D01*
X152603926Y-89517424D01*
X152603297Y-89446434D01*
X152603200Y-89403273D01*
X152602998Y-89318173D01*
X152601958Y-89257181D01*
X152599431Y-89215377D01*
X152594764Y-89187842D01*
X152587307Y-89169656D01*
X152576411Y-89155898D01*
X152569607Y-89149273D01*
X152522872Y-89122575D01*
X152471872Y-89120575D01*
X152425601Y-89143155D01*
X152417044Y-89151307D01*
X152404493Y-89166636D01*
X152395788Y-89184818D01*
X152390231Y-89211109D01*
X152387126Y-89250762D01*
X152385776Y-89309032D01*
X152385486Y-89389373D01*
X152385486Y-89593846D01*
X152339777Y-89609780D01*
X152307313Y-89620620D01*
X152289501Y-89625668D01*
X152288977Y-89625714D01*
X152287637Y-89611823D01*
X152286428Y-89572639D01*
X152285401Y-89511900D01*
X152284602Y-89433341D01*
X152284081Y-89340698D01*
X152283886Y-89237709D01*
X152283886Y-88840542D01*
X152331057Y-88820644D01*
X152378229Y-88800747D01*
X152385486Y-88922489D01*
X153049344Y-89022168D02*
X153106216Y-89043287D01*
X153106216Y-89043287D02*
X153106867Y-89043693D01*
X153106867Y-89043693D02*
X153142040Y-89069580D01*
X153142040Y-89069580D02*
X153168007Y-89099833D01*
X153168007Y-89099833D02*
X153186270Y-89139258D01*
X153186270Y-89139258D02*
X153198332Y-89192662D01*
X153198332Y-89192662D02*
X153205696Y-89264851D01*
X153205696Y-89264851D02*
X153209864Y-89360632D01*
X153209864Y-89360632D02*
X153210229Y-89374278D01*
X153210229Y-89374278D02*
X153215476Y-89580042D01*
X153215476Y-89580042D02*
X153171316Y-89602878D01*
X153171316Y-89602878D02*
X153139363Y-89618310D01*
X153139363Y-89618310D02*
X153120070Y-89625623D01*
X153120070Y-89625623D02*
X153119178Y-89625714D01*
X153119178Y-89625714D02*
X153115839Y-89612222D01*
X153115839Y-89612222D02*
X153113187Y-89575826D01*
X153113187Y-89575826D02*
X153111556Y-89522652D01*
X153111556Y-89522652D02*
X153111200Y-89479593D01*
X153111200Y-89479593D02*
X153111192Y-89409841D01*
X153111192Y-89409841D02*
X153108003Y-89366037D01*
X153108003Y-89366037D02*
X153096888Y-89345144D01*
X153096888Y-89345144D02*
X153073101Y-89344125D01*
X153073101Y-89344125D02*
X153031896Y-89359941D01*
X153031896Y-89359941D02*
X152969686Y-89389015D01*
X152969686Y-89389015D02*
X152923941Y-89413163D01*
X152923941Y-89413163D02*
X152900413Y-89434113D01*
X152900413Y-89434113D02*
X152893496Y-89456947D01*
X152893496Y-89456947D02*
X152893486Y-89458077D01*
X152893486Y-89458077D02*
X152904899Y-89497412D01*
X152904899Y-89497412D02*
X152938692Y-89518662D01*
X152938692Y-89518662D02*
X152990409Y-89521739D01*
X152990409Y-89521739D02*
X153027661Y-89521206D01*
X153027661Y-89521206D02*
X153047303Y-89531935D01*
X153047303Y-89531935D02*
X153059552Y-89557705D01*
X153059552Y-89557705D02*
X153066602Y-89590537D01*
X153066602Y-89590537D02*
X153056442Y-89609166D01*
X153056442Y-89609166D02*
X153052617Y-89611832D01*
X153052617Y-89611832D02*
X153016601Y-89622540D01*
X153016601Y-89622540D02*
X152966166Y-89624056D01*
X152966166Y-89624056D02*
X152914226Y-89616959D01*
X152914226Y-89616959D02*
X152877422Y-89603988D01*
X152877422Y-89603988D02*
X152826538Y-89560785D01*
X152826538Y-89560785D02*
X152797614Y-89500646D01*
X152797614Y-89500646D02*
X152791886Y-89453662D01*
X152791886Y-89453662D02*
X152796257Y-89411282D01*
X152796257Y-89411282D02*
X152812075Y-89376688D01*
X152812075Y-89376688D02*
X152843397Y-89345963D01*
X152843397Y-89345963D02*
X152894278Y-89315190D01*
X152894278Y-89315190D02*
X152968776Y-89280452D01*
X152968776Y-89280452D02*
X152973314Y-89278488D01*
X152973314Y-89278488D02*
X153040421Y-89247487D01*
X153040421Y-89247487D02*
X153081832Y-89222062D01*
X153081832Y-89222062D02*
X153099581Y-89199214D01*
X153099581Y-89199214D02*
X153095707Y-89175945D01*
X153095707Y-89175945D02*
X153072243Y-89149256D01*
X153072243Y-89149256D02*
X153065227Y-89143114D01*
X153065227Y-89143114D02*
X153018230Y-89119300D01*
X153018230Y-89119300D02*
X152969533Y-89120303D01*
X152969533Y-89120303D02*
X152927122Y-89143651D01*
X152927122Y-89143651D02*
X152898984Y-89186875D01*
X152898984Y-89186875D02*
X152896369Y-89195360D01*
X152896369Y-89195360D02*
X152870908Y-89236508D01*
X152870908Y-89236508D02*
X152838601Y-89256328D01*
X152838601Y-89256328D02*
X152791886Y-89275970D01*
X152791886Y-89275970D02*
X152791886Y-89225150D01*
X152791886Y-89225150D02*
X152806096Y-89151282D01*
X152806096Y-89151282D02*
X152848275Y-89083527D01*
X152848275Y-89083527D02*
X152870224Y-89060861D01*
X152870224Y-89060861D02*
X152920117Y-89031769D01*
X152920117Y-89031769D02*
X152983567Y-89018600D01*
X152983567Y-89018600D02*
X153049344Y-89022168D01*
X153049344Y-89022168D02*
X153049344Y-89022168D01*
G36*
X153049344Y-89022168D02*
G01*
X153106216Y-89043287D01*
X153106867Y-89043693D01*
X153142040Y-89069580D01*
X153168007Y-89099833D01*
X153186270Y-89139258D01*
X153198332Y-89192662D01*
X153205696Y-89264851D01*
X153209864Y-89360632D01*
X153210229Y-89374278D01*
X153215476Y-89580042D01*
X153171316Y-89602878D01*
X153139363Y-89618310D01*
X153120070Y-89625623D01*
X153119178Y-89625714D01*
X153115839Y-89612222D01*
X153113187Y-89575826D01*
X153111556Y-89522652D01*
X153111200Y-89479593D01*
X153111192Y-89409841D01*
X153108003Y-89366037D01*
X153096888Y-89345144D01*
X153073101Y-89344125D01*
X153031896Y-89359941D01*
X152969686Y-89389015D01*
X152923941Y-89413163D01*
X152900413Y-89434113D01*
X152893496Y-89456947D01*
X152893486Y-89458077D01*
X152904899Y-89497412D01*
X152938692Y-89518662D01*
X152990409Y-89521739D01*
X153027661Y-89521206D01*
X153047303Y-89531935D01*
X153059552Y-89557705D01*
X153066602Y-89590537D01*
X153056442Y-89609166D01*
X153052617Y-89611832D01*
X153016601Y-89622540D01*
X152966166Y-89624056D01*
X152914226Y-89616959D01*
X152877422Y-89603988D01*
X152826538Y-89560785D01*
X152797614Y-89500646D01*
X152791886Y-89453662D01*
X152796257Y-89411282D01*
X152812075Y-89376688D01*
X152843397Y-89345963D01*
X152894278Y-89315190D01*
X152968776Y-89280452D01*
X152973314Y-89278488D01*
X153040421Y-89247487D01*
X153081832Y-89222062D01*
X153099581Y-89199214D01*
X153095707Y-89175945D01*
X153072243Y-89149256D01*
X153065227Y-89143114D01*
X153018230Y-89119300D01*
X152969533Y-89120303D01*
X152927122Y-89143651D01*
X152898984Y-89186875D01*
X152896369Y-89195360D01*
X152870908Y-89236508D01*
X152838601Y-89256328D01*
X152791886Y-89275970D01*
X152791886Y-89225150D01*
X152806096Y-89151282D01*
X152848275Y-89083527D01*
X152870224Y-89060861D01*
X152920117Y-89031769D01*
X152983567Y-89018600D01*
X153049344Y-89022168D01*
G37*
X153049344Y-89022168D02*
X153106216Y-89043287D01*
X153106867Y-89043693D01*
X153142040Y-89069580D01*
X153168007Y-89099833D01*
X153186270Y-89139258D01*
X153198332Y-89192662D01*
X153205696Y-89264851D01*
X153209864Y-89360632D01*
X153210229Y-89374278D01*
X153215476Y-89580042D01*
X153171316Y-89602878D01*
X153139363Y-89618310D01*
X153120070Y-89625623D01*
X153119178Y-89625714D01*
X153115839Y-89612222D01*
X153113187Y-89575826D01*
X153111556Y-89522652D01*
X153111200Y-89479593D01*
X153111192Y-89409841D01*
X153108003Y-89366037D01*
X153096888Y-89345144D01*
X153073101Y-89344125D01*
X153031896Y-89359941D01*
X152969686Y-89389015D01*
X152923941Y-89413163D01*
X152900413Y-89434113D01*
X152893496Y-89456947D01*
X152893486Y-89458077D01*
X152904899Y-89497412D01*
X152938692Y-89518662D01*
X152990409Y-89521739D01*
X153027661Y-89521206D01*
X153047303Y-89531935D01*
X153059552Y-89557705D01*
X153066602Y-89590537D01*
X153056442Y-89609166D01*
X153052617Y-89611832D01*
X153016601Y-89622540D01*
X152966166Y-89624056D01*
X152914226Y-89616959D01*
X152877422Y-89603988D01*
X152826538Y-89560785D01*
X152797614Y-89500646D01*
X152791886Y-89453662D01*
X152796257Y-89411282D01*
X152812075Y-89376688D01*
X152843397Y-89345963D01*
X152894278Y-89315190D01*
X152968776Y-89280452D01*
X152973314Y-89278488D01*
X153040421Y-89247487D01*
X153081832Y-89222062D01*
X153099581Y-89199214D01*
X153095707Y-89175945D01*
X153072243Y-89149256D01*
X153065227Y-89143114D01*
X153018230Y-89119300D01*
X152969533Y-89120303D01*
X152927122Y-89143651D01*
X152898984Y-89186875D01*
X152896369Y-89195360D01*
X152870908Y-89236508D01*
X152838601Y-89256328D01*
X152791886Y-89275970D01*
X152791886Y-89225150D01*
X152806096Y-89151282D01*
X152848275Y-89083527D01*
X152870224Y-89060861D01*
X152920117Y-89031769D01*
X152983567Y-89018600D01*
X153049344Y-89022168D01*
X151177903Y-89002439D02*
X151235127Y-89040935D01*
X151235127Y-89040935D02*
X151279349Y-89096535D01*
X151279349Y-89096535D02*
X151305767Y-89167286D01*
X151305767Y-89167286D02*
X151311110Y-89219362D01*
X151311110Y-89219362D02*
X151310503Y-89241093D01*
X151310503Y-89241093D02*
X151305422Y-89257731D01*
X151305422Y-89257731D02*
X151291455Y-89272637D01*
X151291455Y-89272637D02*
X151264189Y-89289173D01*
X151264189Y-89289173D02*
X151219212Y-89310698D01*
X151219212Y-89310698D02*
X151152111Y-89340574D01*
X151152111Y-89340574D02*
X151151771Y-89340724D01*
X151151771Y-89340724D02*
X151090007Y-89369013D01*
X151090007Y-89369013D02*
X151039359Y-89394133D01*
X151039359Y-89394133D02*
X151005004Y-89413379D01*
X151005004Y-89413379D02*
X150992118Y-89424048D01*
X150992118Y-89424048D02*
X150992114Y-89424134D01*
X150992114Y-89424134D02*
X151003472Y-89447366D01*
X151003472Y-89447366D02*
X151030031Y-89472974D01*
X151030031Y-89472974D02*
X151060523Y-89491421D01*
X151060523Y-89491421D02*
X151075970Y-89495086D01*
X151075970Y-89495086D02*
X151118115Y-89482412D01*
X151118115Y-89482412D02*
X151154408Y-89450671D01*
X151154408Y-89450671D02*
X151172117Y-89415772D01*
X151172117Y-89415772D02*
X151189152Y-89390045D01*
X151189152Y-89390045D02*
X151222522Y-89360746D01*
X151222522Y-89360746D02*
X151261749Y-89335435D01*
X151261749Y-89335435D02*
X151296356Y-89321671D01*
X151296356Y-89321671D02*
X151303593Y-89320914D01*
X151303593Y-89320914D02*
X151311739Y-89333360D01*
X151311739Y-89333360D02*
X151312230Y-89365172D01*
X151312230Y-89365172D02*
X151306243Y-89408066D01*
X151306243Y-89408066D02*
X151294957Y-89453758D01*
X151294957Y-89453758D02*
X151279550Y-89493961D01*
X151279550Y-89493961D02*
X151278771Y-89495522D01*
X151278771Y-89495522D02*
X151232404Y-89560262D01*
X151232404Y-89560262D02*
X151172311Y-89604297D01*
X151172311Y-89604297D02*
X151104065Y-89625911D01*
X151104065Y-89625911D02*
X151033238Y-89623385D01*
X151033238Y-89623385D02*
X150965404Y-89595004D01*
X150965404Y-89595004D02*
X150962388Y-89593008D01*
X150962388Y-89593008D02*
X150909027Y-89544648D01*
X150909027Y-89544648D02*
X150873940Y-89481552D01*
X150873940Y-89481552D02*
X150854522Y-89398587D01*
X150854522Y-89398587D02*
X150851916Y-89375278D01*
X150851916Y-89375278D02*
X150847301Y-89265255D01*
X150847301Y-89265255D02*
X150852833Y-89213948D01*
X150852833Y-89213948D02*
X150992114Y-89213948D01*
X150992114Y-89213948D02*
X150993924Y-89245953D01*
X150993924Y-89245953D02*
X151003822Y-89255293D01*
X151003822Y-89255293D02*
X151028498Y-89248305D01*
X151028498Y-89248305D02*
X151067395Y-89231787D01*
X151067395Y-89231787D02*
X151110875Y-89211081D01*
X151110875Y-89211081D02*
X151111956Y-89210533D01*
X151111956Y-89210533D02*
X151148809Y-89191149D01*
X151148809Y-89191149D02*
X151163600Y-89178213D01*
X151163600Y-89178213D02*
X151159953Y-89164651D01*
X151159953Y-89164651D02*
X151144595Y-89146832D01*
X151144595Y-89146832D02*
X151105523Y-89121045D01*
X151105523Y-89121045D02*
X151063446Y-89119150D01*
X151063446Y-89119150D02*
X151025703Y-89137917D01*
X151025703Y-89137917D02*
X150999634Y-89174115D01*
X150999634Y-89174115D02*
X150992114Y-89213948D01*
X150992114Y-89213948D02*
X150852833Y-89213948D01*
X150852833Y-89213948D02*
X150856794Y-89177227D01*
X150856794Y-89177227D02*
X150881150Y-89107412D01*
X150881150Y-89107412D02*
X150915056Y-89058502D01*
X150915056Y-89058502D02*
X150976253Y-89009078D01*
X150976253Y-89009078D02*
X151043663Y-88984559D01*
X151043663Y-88984559D02*
X151112480Y-88982997D01*
X151112480Y-88982997D02*
X151177903Y-89002439D01*
X151177903Y-89002439D02*
X151177903Y-89002439D01*
G36*
X150881150Y-89107412D02*
G01*
X150915056Y-89058502D01*
X150976253Y-89009078D01*
X151043663Y-88984559D01*
X151112480Y-88982997D01*
X151177903Y-89002439D01*
X151235127Y-89040935D01*
X151279349Y-89096535D01*
X151305767Y-89167286D01*
X151311110Y-89219362D01*
X151310503Y-89241093D01*
X151305422Y-89257731D01*
X151291455Y-89272637D01*
X151264189Y-89289173D01*
X151219212Y-89310698D01*
X151152111Y-89340574D01*
X151151771Y-89340724D01*
X151090007Y-89369013D01*
X151039359Y-89394133D01*
X151005004Y-89413379D01*
X150992118Y-89424048D01*
X150992114Y-89424134D01*
X151003472Y-89447366D01*
X151030031Y-89472974D01*
X151060523Y-89491421D01*
X151075970Y-89495086D01*
X151118115Y-89482412D01*
X151154408Y-89450671D01*
X151172117Y-89415772D01*
X151189152Y-89390045D01*
X151222522Y-89360746D01*
X151261749Y-89335435D01*
X151296356Y-89321671D01*
X151303593Y-89320914D01*
X151311739Y-89333360D01*
X151312230Y-89365172D01*
X151306243Y-89408066D01*
X151294957Y-89453758D01*
X151279550Y-89493961D01*
X151278771Y-89495522D01*
X151232404Y-89560262D01*
X151172311Y-89604297D01*
X151104065Y-89625911D01*
X151033238Y-89623385D01*
X150965404Y-89595004D01*
X150962388Y-89593008D01*
X150909027Y-89544648D01*
X150873940Y-89481552D01*
X150854522Y-89398587D01*
X150851916Y-89375278D01*
X150847301Y-89265255D01*
X150852833Y-89213948D01*
X150992114Y-89213948D01*
X150993924Y-89245953D01*
X151003822Y-89255293D01*
X151028498Y-89248305D01*
X151067395Y-89231787D01*
X151110875Y-89211081D01*
X151111956Y-89210533D01*
X151148809Y-89191149D01*
X151163600Y-89178213D01*
X151159953Y-89164651D01*
X151144595Y-89146832D01*
X151105523Y-89121045D01*
X151063446Y-89119150D01*
X151025703Y-89137917D01*
X150999634Y-89174115D01*
X150992114Y-89213948D01*
X150852833Y-89213948D01*
X150856794Y-89177227D01*
X150881150Y-89107412D01*
G37*
X150881150Y-89107412D02*
X150915056Y-89058502D01*
X150976253Y-89009078D01*
X151043663Y-88984559D01*
X151112480Y-88982997D01*
X151177903Y-89002439D01*
X151235127Y-89040935D01*
X151279349Y-89096535D01*
X151305767Y-89167286D01*
X151311110Y-89219362D01*
X151310503Y-89241093D01*
X151305422Y-89257731D01*
X151291455Y-89272637D01*
X151264189Y-89289173D01*
X151219212Y-89310698D01*
X151152111Y-89340574D01*
X151151771Y-89340724D01*
X151090007Y-89369013D01*
X151039359Y-89394133D01*
X151005004Y-89413379D01*
X150992118Y-89424048D01*
X150992114Y-89424134D01*
X151003472Y-89447366D01*
X151030031Y-89472974D01*
X151060523Y-89491421D01*
X151075970Y-89495086D01*
X151118115Y-89482412D01*
X151154408Y-89450671D01*
X151172117Y-89415772D01*
X151189152Y-89390045D01*
X151222522Y-89360746D01*
X151261749Y-89335435D01*
X151296356Y-89321671D01*
X151303593Y-89320914D01*
X151311739Y-89333360D01*
X151312230Y-89365172D01*
X151306243Y-89408066D01*
X151294957Y-89453758D01*
X151279550Y-89493961D01*
X151278771Y-89495522D01*
X151232404Y-89560262D01*
X151172311Y-89604297D01*
X151104065Y-89625911D01*
X151033238Y-89623385D01*
X150965404Y-89595004D01*
X150962388Y-89593008D01*
X150909027Y-89544648D01*
X150873940Y-89481552D01*
X150854522Y-89398587D01*
X150851916Y-89375278D01*
X150847301Y-89265255D01*
X150852833Y-89213948D01*
X150992114Y-89213948D01*
X150993924Y-89245953D01*
X151003822Y-89255293D01*
X151028498Y-89248305D01*
X151067395Y-89231787D01*
X151110875Y-89211081D01*
X151111956Y-89210533D01*
X151148809Y-89191149D01*
X151163600Y-89178213D01*
X151159953Y-89164651D01*
X151144595Y-89146832D01*
X151105523Y-89121045D01*
X151063446Y-89119150D01*
X151025703Y-89137917D01*
X150999634Y-89174115D01*
X150992114Y-89213948D01*
X150852833Y-89213948D01*
X150856794Y-89177227D01*
X150881150Y-89107412D01*
D14*
%TO.C,S1*%
X200812400Y-113760000D02*
X201062400Y-113760000D01*
X194706400Y-113755600D02*
X194706400Y-111660400D01*
X200812400Y-113766600D02*
X200812400Y-111658400D01*
X199815600Y-116001800D02*
X195148200Y-116001800D01*
X195122800Y-109397800D02*
X200415600Y-109407600D01*
D12*
%TO.C,R3*%
X193778000Y-98806000D02*
X193008000Y-98806000D01*
X186468000Y-97436000D02*
X186468000Y-100176000D01*
X186468000Y-100176000D02*
X193008000Y-100176000D01*
X193008000Y-97436000D02*
X186468000Y-97436000D01*
X185698000Y-98806000D02*
X186468000Y-98806000D01*
X193008000Y-100176000D02*
X193008000Y-97436000D01*
%TD*%
M02*
